<svg xmlns="http://www.w3.org/2000/svg" width="252" height="241" viewBox="0 0 252 241">
  <g fill="none" fill-rule="evenodd" transform="translate(.504)">
    <path fill="#234077" fill-rule="nonzero" d="M0.388273349,182.705471 L0.388273349,117.118852 L0.388273349,34.6852193 L128.063614,0.475744605 C132.339404,-0.670625001 135.811056,1.99373952 135.811056,6.4206998 L135.811056,47.464301 L212.551683,27.3073021 C216.989141,26.1420363 220.592017,28.9208278 220.592017,33.5084058 L220.592017,123.702079 L242.184078,117.916692 C247.208368,116.570862 251.287848,119.700283 251.287848,124.901988 L251.287848,163.640252 C251.287848,168.841957 247.208368,174.158088 242.184078,175.504968 L0.388273349,240.293747 L0.388273349,182.705471 Z"/>
    <polygon fill="#476BBC" fill-rule="nonzero" points="37.115 24.955 .385 34.814 37.115 67.365"/>
    <polygon fill="#3F73BD" fill-rule="nonzero" points="110.296 47.56 73.567 57.418 110.296 89.97"/>
    <polygon fill="#487DC8" fill-rule="nonzero" points="73.605 99.842 36.875 109.701 73.605 142.252"/>
    <polygon fill="#425DA2" fill-rule="nonzero" points="147.017 122.509 110.287 132.368 147.017 164.92"/>
    <polygon fill="#6AAEE3" fill-rule="nonzero" points="183.703 70.236 146.974 80.095 183.703 112.647"/>
    <polygon fill="#498CD2" fill-rule="nonzero" points="37.115 152.181 .385 162.04 37.115 194.591"/>
    <polygon fill="#487DC8" fill-rule="nonzero" points="73.605 15.077 36.875 24.935 73.605 57.487"/>
    <polygon fill="#487DC8" fill-rule="nonzero" points="110.341 5.257 73.611 15.116 110.341 47.668"/>
    <polygon fill="#2F5296" fill-rule="nonzero" points="110.296 89.912 73.567 99.771 110.296 132.322"/>
    <polygon fill="#476BBC" fill-rule="nonzero" points="37.115 67.363 .385 77.222 37.115 109.774"/>
    <polygon fill="#487DC8" fill-rule="nonzero" points="73.605 142.24 36.875 152.098 73.605 184.65"/>
    <polygon fill="#425DA2" fill-rule="nonzero" points="73.605 57.378 36.875 67.237 73.605 99.789"/>
    <polygon fill="#325295" fill-rule="nonzero" points="147.017 80.056 110.287 89.915 147.017 122.467"/>
    <polygon fill="#3A64AD" fill-rule="nonzero" points="220.43 144.735 183.7 154.594 215.395 182.664 220.43 181.328"/>
    <polygon fill="#3A64AD" fill-rule="nonzero" points="220.43 102.735 183.7 112.594 220.43 145.146"/>
    <polygon fill="#7F9AD6" fill-rule="nonzero" points="110.296 132.304 73.567 142.163 110.296 174.715"/>
    <polygon fill="#4C9EDC" fill-rule="nonzero" points="37.115 109.772 .385 119.631 37.115 152.182"/>
    <polygon fill="#476BBC" fill-rule="nonzero" points="36.875 67.289 73.605 57.43 36.875 24.879"/>
    <polygon fill="#3A64AD" fill-rule="nonzero" points="110.287 89.967 147.017 80.108 110.287 47.557"/>
    <polygon fill="#425DA2" fill-rule="nonzero" points="73.567 142.238 110.296 132.379 73.567 99.827"/>
    <polygon fill="#325295" fill-rule="nonzero" points="183.7 112.646 220.43 102.787 183.7 70.235"/>
    <polygon fill="#498CD2" fill-rule="nonzero" points=".385 119.632 37.115 109.773 .385 77.221"/>
    <polygon fill="#7F9AD6" fill-rule="nonzero" points="36.875 194.515 73.605 184.656 36.875 152.104"/>
    <polygon fill="#7F9AD6" fill-rule="nonzero" points="73.567 57.475 110.296 47.616 73.567 15.065"/>
    <polygon fill="#727EBD" fill-rule="nonzero" points="36.875 109.641 73.605 99.782 36.875 67.231"/>
    <polygon fill="#32549D" fill-rule="nonzero" points="183.7 154.998 220.43 145.139 183.7 112.588"/>
    <polygon fill="#6495D5" fill-rule="nonzero" points="73.567 184.572 110.296 174.713 73.567 142.162"/>
    <polygon fill="#50A0DD" fill-rule="nonzero" points=".385 162.04 37.115 152.182 .385 119.63"/>
    <polygon fill="#3A64AD" fill-rule="nonzero" points="73.567 99.777 110.296 89.918 73.567 57.366"/>
    <polygon fill="#487DC8" fill-rule="nonzero" points="147.017 122.467 183.746 112.608 147.017 80.056"/>
    <polygon fill="#2F5296" fill-rule="nonzero" points=".385 77.223 37.115 67.364 .385 34.813"/>
    <polygon fill="#476BBC" fill-rule="nonzero" points="110.287 174.712 147.017 164.853 110.287 132.301"/>
    <polygon fill="#7F9AD6" fill-rule="nonzero" points="36.875 152.109 73.605 142.251 36.875 109.699"/>
    <g fill="#FFF" transform="translate(22.433 30.584)">
      <path d="M107.216002 118.648068L102.883523 103.255012 80.6069998 109.224112 76.2734708 126.939302 58.9970929 131.568872 84.2728631 43.9114887 99.2166097 39.9075934 124.660346 113.974408 107.216002 118.648068 107.216002 118.648068zM91.716917 63.8049906L84.1615854 94.6614392 99.2722485 90.6124029 91.716917 63.8049906 91.716917 63.8049906zM136.254216 29.9828881L148.47586 63.0396944 160.641865 23.4490012 178.418992 18.6850587 156.753446 76.0434309 156.753446 105.375586 140.198273 109.810944 140.198273 80.4787895 118.478139 34.7468306 136.254216 29.9828881 136.254216 29.9828881zM20.9432909 141.765472L0 147.377644 0 66.4924505 21.3873516 60.7616522 21.3873516 60.7616522C30.8312536 58.2309609 38.3585908 59.2139133 43.9693632 63.7105096L43.9693632 63.7105096 43.9693632 63.7105096C49.5801355 68.206406 52.4411605 75.6616577 52.5524382 86.0762646L52.5524382 86.0762646 52.5524382 99.1860298 52.5524382 99.1860298C52.5524382 109.815494 49.747052 118.909466 44.1362796 126.467947L44.1362796 126.467947 44.1362796 126.467947C38.5255072 134.026428 30.794511 139.125603 20.9432909 141.765472L20.9432909 141.765472 20.9432909 141.765472zM22.2765229 74.1338647L16.3326175 75.7263947 16.3326175 129.446198 21.221485 128.136062 21.221485 128.136062C26.6649909 126.677555 30.4981206 124.215449 32.7208738 120.749746L32.7208738 120.749746 32.7208738 120.749746C34.9429273 117.284043 36.1092429 112.017951 36.2198206 104.951471L36.2198206 104.951471 36.2198206 90.8968957 36.2198206 90.8968957C36.2198206 83.3419141 35.1644327 78.3564661 33.053657 75.9405516L33.053657 75.9405516 33.053657 75.9405516C30.9428812 73.5246372 27.3505032 72.9224082 22.2765229 74.1338647L22.2765229 74.1338647 22.2765229 74.1338647zM20.3291643 46.5902865L15.4014547 47.9109211 15.4014547 47.9109211C15.115912 47.3622314 14.9105033 46.363882 14.7852285 44.9158731L14.7852285 44.9158731 14.7852285 44.9158731C13.1069658 47.8293875 10.9643464 49.6353745 8.35737036 50.3338342L8.35737036 50.3338342 8.35737036 50.3338342C5.73219796 51.0371928 3.6830098 50.8496305 2.20980588 49.7711473L2.20980588 49.7711473 2.20980588 49.7711473C.73660196 48.6933639 0 46.8149414 0 44.1358798L0 44.1358798 0 44.1358798C0 41.1901718 1.000099 38.5831958 3.00029701 36.3149516L3.00029701 36.3149516 3.00029701 36.3149516C4.99979515 34.0474074 7.74079428 32.4289826 11.2232944 31.4596774L11.2232944 31.4596774 14.7043948 30.5274648 14.7043948 27.4473838 14.7043948 27.4473838C14.7043948 25.7152319 14.3205219 24.5860089 13.5527762 24.0597147L13.5527762 24.0597147 13.5527762 24.0597147C12.7850305 23.5334204 11.6155655 23.4805811 10.0443813 23.9011965L10.0443813 23.9011965 10.0443813 23.9011965C8.61596839 24.2840196 7.45525166 25.0192218 6.56223114 26.1068033L6.56223114 26.1068033 6.56223114 26.1068033C5.66921062 27.1943847 5.22270036 28.3897444 5.22270036 29.6928825L5.22270036 29.6928825.482902947 30.9631272.482902947 30.9631272C.482902947 29.4808252.920315038 27.9484831 1.79513922 26.3661011L1.79513922 26.3661011 1.79513922 26.3661011C2.6699634 24.7837192 3.84852653 23.4098953 5.33082862 22.2446295L5.33082862 22.2446295 5.33082862 22.2446295C6.81243086 21.0800635 8.46409891 20.2535296 10.2858328 19.7650278L10.2858328 19.7650278 10.2858328 19.7650278C13.2497371 18.9713873 15.5039841 19.1040107 17.0485736 20.1628978L17.0485736 20.1628978 17.0485736 20.1628978C18.5931632 21.2224849 19.3833044 23.1579459 19.4189972 25.9692809L19.4189972 25.9692809 19.4189972 40.5938917 19.4189972 40.5938917C19.4364937 42.8208441 19.7398827 44.6768711 20.3291643 46.1619726L20.3291643 46.1619726 20.3291643 46.5902865 20.3291643 46.5902865zM9.0796252 45.8281397L9.0796252 45.8281397 9.0796252 45.8281397C10.2406919 45.5174022 11.3478693 44.8994264 12.4011576 43.9742123L12.4011576 43.9742123 12.4011576 43.9742123C13.4551458 43.0489983 14.2228915 42.0398011 14.7043948 40.9466208L14.7043948 40.9466208 14.7043948 34.0358597 12.026383 34.7539154 12.026383 34.7539154C9.77633518 35.3921871 7.99974223 36.37269 6.69660413 37.6954242L6.69660413 37.6954242 6.69660413 37.6954242C5.39276618 39.0174585 4.7408472 40.5536498 4.7408472 42.303998L4.7408472 42.303998 4.7408472 42.303998C4.7408472 43.9465679 5.07118081 45.0498961 5.73184803 45.6139828L5.73184803 45.6139828 5.73184803 45.6139828C6.39251525 46.1780694 7.50844097 46.249455 9.0796252 45.8281397zM33.5879996 43.0378005L28.8471524 44.3080452 28.8471524 19.1582498 25.0700115 20.1702464 25.0700115 16.3395662 28.8471524 15.3275696 28.8471524 11.9797925 28.8471524 11.9797925C28.9003417 9.01938744 29.6456919 6.52053965 31.083203 4.4832491L31.083203 4.4832491 31.083203 4.4832491C32.5207141 2.4466584 34.5520558 1.07668374 37.1772282.373325098L37.1772282.373325098 37.1772282.373325098C38.1234381.119976015 39.0787461.0156969728 40.0431522.0604879708L40.0431522.0604879708 39.8017008 4.14311745 39.8017008 4.14311745C39.1228372 4.16411324 38.3995326 4.27749045 37.6317869 4.4832491L37.6317869 4.4832491 37.6317869 4.4832491C34.9359287 5.20550394 33.5879996 7.48634554 33.5879996 11.3257739L33.5879996 11.3257739 33.5879996 14.0573249 38.5430037 12.7293418 38.5430037 16.5600219 33.5879996 17.888005 33.5879996 43.0378005 33.5879996 43.0378005zM59.0054912 36.2267694L58.8984128 33.7114749 58.8984128 33.7114749C57.3272285 36.1861775 55.0327397 37.8276976 52.0149462 38.6360352L52.0149462 38.6360352 52.0149462 38.6360352C49.3904736 39.3393938 47.408472 38.9642692 46.0689412 37.5106613L46.0689412 37.5106613 46.0689412 37.5106613C44.7301103 36.0570535 44.0515966 33.6005472 44.0334003 30.1411424L44.0334003 30.1411424 44.0334003 11.2585874 48.7480028 9.99569122 48.7480028 28.5297163 48.7480028 28.5297163C48.7480028 33.0473084 50.10503 34.9425275 52.8190846 34.2153736L52.8190846 34.2153736 52.8190846 34.2153736C55.6941067 33.4455283 57.6761084 31.6286935 58.7650896 28.764869L58.7650896 28.764869 58.7650896 7.31138071 63.5059367 6.041136 63.5059367 35.0216116 59.0054912 36.2267694 59.0054912 36.2267694zM91.5751955 11.2417908L91.5751955 14.4027055 91.5751955 14.4027055C91.5751955 18.9916832 90.7493614 22.6323515 89.0976934 25.3247104L89.0976934 25.3247104 89.0976934 25.3247104C87.4460253 28.0170693 85.1116445 29.7677675 82.0945509 30.5768049L82.0945509 30.5768049 82.0945509 30.5768049C79.1838358 31.3564482 76.9428862 30.8584983 75.371702 29.0829551L75.371702 29.0829551 75.371702 42.9842613 70.6570995 44.2471575 70.6570995 4.12422125 74.9423383 2.97680186 75.1837898 6.12616891 75.1837898 6.12616891C76.7731703 3.20005699 79.0498128 1.33983085 82.0137171.545490496L82.0137171.545490496 82.0137171.545490496C85.1917784-.305538466 87.5667511.165466872 89.1386352 1.95850651L89.1386352 1.95850651 89.1386352 1.95850651C90.7098194 3.75154615 91.5220062 6.84597424 91.5751955 11.2417908L91.5751955 11.2417908 91.5751955 11.2417908zM86.8616428 15.8535139L86.8616428 12.9602954 86.8616428 12.9602954C86.8616428 9.71084847 86.3615933 7.44785328 85.3614943 6.17130983L85.3614943 6.17130983 85.3614943 6.17130983C84.3613953 4.89406653 82.7545182 4.55218524 80.5408631 5.14566597L80.5408631 5.14566597 80.5408631 5.14566597C78.272619 5.75314388 76.5495653 7.34882318 75.371702 9.93270388L75.371702 9.93270388 75.371702 25.0118733 75.371702 25.0118733C76.5320688 26.9154907 78.2729689 27.556212 80.5944024 26.934037L80.5944024 26.934037 80.5944024 26.934037C82.7366718 26.3594525 84.3124051 25.1647926 85.3216023 23.3500573L85.3216023 23.3500573 85.3216023 23.3500573C86.3300996 21.535322 86.8434464 19.0364742 86.8616428 15.8535139L86.8616428 15.8535139 86.8616428 15.8535139zM3.59375 183.732297L14.7460938 180.834959 14.7460938 183.901365 0 187.732346 0 159.294846 3.59375 158.361203 3.59375 183.732297zM26.40625 166.711944L32.2265625 150.922505 36.2695313 149.872156 28.1835938 169.804884 28.1835938 180.410353 24.609375 181.338922 24.609375 170.733453 16.5234375 155.002118 20.5859375 153.946696 26.40625 166.711944zM58.4765625 160.821602C58.4765625 164.70183 57.6497479 167.904885 55.9960938 170.430863 54.3424396 172.95684 51.9922027 174.61559 48.9453125 175.407161 46.0156104 176.168286 43.7011804 175.750697 42.0019531 174.154379 40.3027259 172.558061 39.4205732 169.906411 39.3554688 166.199348L39.3554688 160.847785C39.3554688 157.045683 40.1953041 153.849011 41.875 151.257673 43.5546959 148.666336 45.8984225 146.979981 48.90625 146.198559 51.9010566 145.420519 54.2350177 145.846056 55.9082031 147.475181 57.5813886 149.104306 58.4374998 151.827825 58.4765625 155.645821L58.4765625 160.821602zM54.9023438 156.769702C54.9023438 153.761875 54.4108122 151.653267 53.4277344 150.443816 52.4446565 149.234365 50.9375102 148.893501 48.90625 149.421215 46.9400943 149.932015 45.452479 151.060672 44.4433594 152.80722 43.4342397 154.553768 42.9231771 156.874018 42.9101563 159.76804L42.9101563 164.865697C42.9101563 167.769357 43.4147085 169.851796 44.4238281 171.113075 45.4329478 172.374355 46.9400941 172.744515 48.9453125 172.223567 50.9505309 171.702618 52.434891 170.613869 53.3984375 168.957286 54.361984 167.300704 54.8632811 165.015542 54.9023438 162.101733L54.9023438 156.769702zM82.578125 166.278856L78.984375 167.212499 67.5976562 148.256663 67.5976562 170.170726 64.0039062 171.104369 64.0039062 142.666869 67.5976562 141.733226 79.0234375 160.776569 79.0234375 138.764851 82.578125 137.841356 82.578125 166.278856z"/>
    </g>
  </g>
</svg>
