<?xml version="1.0" encoding="UTF-8" standalone="no"?>
<svg
   xmlns:dc="http://purl.org/dc/elements/1.1/"
   xmlns:cc="http://creativecommons.org/ns#"
   xmlns:rdf="http://www.w3.org/1999/02/22-rdf-syntax-ns#"
   xmlns:svg="http://www.w3.org/2000/svg"
   xmlns="http://www.w3.org/2000/svg"
   xmlns:sodipodi="http://sodipodi.sourceforge.net/DTD/sodipodi-0.dtd"
   xmlns:inkscape="http://www.inkscape.org/namespaces/inkscape"
   width="287"
   height="241"
   viewBox="0 0 287 241"
   version="1.1"
   id="svg76"
   sodipodi:docname="afup-day-2019-generic.svg"
   inkscape:version="0.92.2 (5c3e80d, 2017-08-06)">
  <metadata
     id="metadata82">
    <rdf:RDF>
      <cc:Work
         rdf:about="">
        <dc:format>image/svg+xml</dc:format>
        <dc:type
           rdf:resource="http://purl.org/dc/dcmitype/StillImage" />
        <dc:title />
      </cc:Work>
    </rdf:RDF>
  </metadata>
  <defs
     id="defs80" />
  <sodipodi:namedview
     pagecolor="#ffffff"
     bordercolor="#666666"
     borderopacity="1"
     objecttolerance="10"
     gridtolerance="10"
     guidetolerance="10"
     inkscape:pageopacity="0"
     inkscape:pageshadow="2"
     inkscape:window-width="1853"
     inkscape:window-height="1025"
     id="namedview78"
     showgrid="false"
     inkscape:zoom="2.7697461"
     inkscape:cx="53.384727"
     inkscape:cy="121.52119"
     inkscape:window-x="67"
     inkscape:window-y="27"
     inkscape:window-maximized="1"
     inkscape:current-layer="text74" />
  <style
     id="style2">@import url('https://fonts.googleapis.com/css?family=Roboto+Condensed');</style>
  <path
     fill="#234077"
     fill-rule="nonzero"
     d="M0.388273349,182.705471 L0.388273349,117.118852 L0.388273349,34.6852193 L128.063614,0.475744605 C132.339404,-0.670625001 135.811056,1.99373952 135.811056,6.4206998 L135.811056,47.464301 L212.551683,27.3073021 C216.989141,26.1420363 220.592017,28.9208278 220.592017,33.5084058 L220.592017,123.702079 L277.184078,108.916692 C282.208368,107.570862 286.287848,110.700283 286.287848,115.901988 L286.287848,154.640252 C286.287848,159.841957 282.208368,165.158088 277.184078,166.504968 L0.388273349,240.293747 L0.388273349,182.705471 Z"
     id="path4" />
  <polygon
     fill="#476BBC"
     fill-rule="nonzero"
     points="37.115 24.955 .385 34.814 37.115 67.365"
     id="polygon6" />
  <polygon
     fill="#3F73BD"
     fill-rule="nonzero"
     points="110.296 47.56 73.567 57.418 110.296 89.97"
     id="polygon8" />
  <polygon
     fill="#487DC8"
     fill-rule="nonzero"
     points="73.605 99.842 36.875 109.701 73.605 142.252"
     id="polygon10" />
  <polygon
     fill="#425DA2"
     fill-rule="nonzero"
     points="147.017 122.509 110.287 132.368 147.017 164.92"
     id="polygon12" />
  <polygon
     fill="#6AAEE3"
     fill-rule="nonzero"
     points="183.703 70.236 146.974 80.095 183.703 112.647"
     id="polygon14" />
  <polygon
     fill="#498CD2"
     fill-rule="nonzero"
     points="37.115 152.181 .385 162.04 37.115 194.591"
     id="polygon16" />
  <polygon
     fill="#487DC8"
     fill-rule="nonzero"
     points="73.605 15.077 36.875 24.935 73.605 57.487"
     id="polygon18" />
  <polygon
     fill="#487DC8"
     fill-rule="nonzero"
     points="110.341 5.257 73.611 15.116 110.341 47.668"
     id="polygon20" />
  <polygon
     fill="#2F5296"
     fill-rule="nonzero"
     points="110.296 89.912 73.567 99.771 110.296 132.322"
     id="polygon22" />
  <polygon
     fill="#476BBC"
     fill-rule="nonzero"
     points="37.115 67.363 .385 77.222 37.115 109.774"
     id="polygon24" />
  <polygon
     fill="#487DC8"
     fill-rule="nonzero"
     points="73.605 142.24 36.875 152.098 73.605 184.65"
     id="polygon26" />
  <polygon
     fill="#425DA2"
     fill-rule="nonzero"
     points="73.605 57.378 36.875 67.237 73.605 99.789"
     id="polygon28" />
  <polygon
     fill="#325295"
     fill-rule="nonzero"
     points="147.017 80.056 110.287 89.915 147.017 122.467"
     id="polygon30" />
  <polygon
     fill="#3A64AD"
     fill-rule="nonzero"
     points="220.43 144.735 183.7 154.594 215.395 182.664 220.43 181.328"
     id="polygon32" />
  <polygon
     fill="#3A64AD"
     fill-rule="nonzero"
     points="220.43 102.735 183.7 112.594 220.43 145.146"
     id="polygon34" />
  <polygon
     fill="#7F9AD6"
     fill-rule="nonzero"
     points="110.296 132.304 73.567 142.163 110.296 174.715"
     id="polygon36" />
  <polygon
     fill="#4C9EDC"
     fill-rule="nonzero"
     points="37.115 109.772 .385 119.631 37.115 152.182"
     id="polygon38" />
  <polygon
     fill="#476BBC"
     fill-rule="nonzero"
     points="36.875 67.289 73.605 57.43 36.875 24.879"
     id="polygon40" />
  <polygon
     fill="#3A64AD"
     fill-rule="nonzero"
     points="110.287 89.967 147.017 80.108 110.287 47.557"
     id="polygon42" />
  <polygon
     fill="#425DA2"
     fill-rule="nonzero"
     points="73.567 142.238 110.296 132.379 73.567 99.827"
     id="polygon44" />
  <polygon
     fill="#325295"
     fill-rule="nonzero"
     points="183.7 112.646 220.43 102.787 183.7 70.235"
     id="polygon46" />
  <polygon
     fill="#498CD2"
     fill-rule="nonzero"
     points=".385 119.632 37.115 109.773 .385 77.221"
     id="polygon48" />
  <polygon
     fill="#7F9AD6"
     fill-rule="nonzero"
     points="36.875 194.515 73.605 184.656 36.875 152.104"
     id="polygon50" />
  <polygon
     fill="#7F9AD6"
     fill-rule="nonzero"
     points="73.567 57.475 110.296 47.616 73.567 15.065"
     id="polygon52" />
  <polygon
     fill="#727EBD"
     fill-rule="nonzero"
     points="36.875 109.641 73.605 99.782 36.875 67.231"
     id="polygon54" />
  <polygon
     fill="#32549D"
     fill-rule="nonzero"
     points="183.7 154.998 220.43 145.139 183.7 112.588"
     id="polygon56" />
  <polygon
     fill="#6495D5"
     fill-rule="nonzero"
     points="73.567 184.572 110.296 174.713 73.567 142.162"
     id="polygon58" />
  <polygon
     fill="#50A0DD"
     fill-rule="nonzero"
     points=".385 162.04 37.115 152.182 .385 119.63"
     id="polygon60" />
  <polygon
     fill="#3A64AD"
     fill-rule="nonzero"
     points="73.567 99.777 110.296 89.918 73.567 57.366"
     id="polygon62" />
  <polygon
     fill="#487DC8"
     fill-rule="nonzero"
     points="147.017 122.467 183.746 112.608 147.017 80.056"
     id="polygon64" />
  <polygon
     fill="#2F5296"
     fill-rule="nonzero"
     points=".385 77.223 37.115 67.364 .385 34.813"
     id="polygon66" />
  <polygon
     fill="#476BBC"
     fill-rule="nonzero"
     points="110.287 174.712 147.017 164.853 110.287 132.301"
     id="polygon68" />
  <polygon
     fill="#7F9AD6"
     fill-rule="nonzero"
     points="36.875 152.109 73.605 142.251 36.875 109.699"
     id="polygon70" />
  <path
     fill="#FFF"
     d="M 129.649 149.232 L 125.316 133.839 L 103.04 139.808 L 98.706 157.523 L 81.43 162.153 L 106.706 74.496 L 121.649 70.492 L 147.093 144.559 L 129.649 149.232 L 129.649 149.232 Z M 114.15 94.389 L 106.594 125.246 L 121.705 121.197 L 114.15 94.389 L 114.15 94.389 Z M 158.687 60.567 L 170.909 93.624 L 183.075 54.033 L 200.852 49.269 L 179.186 106.628 L 179.186 135.96 L 162.631 140.395 L 162.631 111.063 L 140.911 65.331 L 158.687 60.567 L 158.687 60.567 Z M 43.376 172.35 L 22.433 177.962 L 22.433 97.077 L 43.82 91.346 L 43.82 91.346 C 53.264 88.815 60.791 89.798 66.402 94.295 L 66.402 94.295 L 66.402 94.295 C 72.013 98.791 74.874 106.246 74.985 116.66 L 74.985 116.66 L 74.985 129.77 L 74.985 129.77 C 74.985 140.4 72.18 149.494 66.569 157.052 L 66.569 157.052 L 66.569 157.052 C 60.958 164.611 53.227 169.71 43.376 172.35 L 43.376 172.35 L 43.376 172.35 Z M 44.709 104.718 L 38.765 106.311 L 38.765 160.03 L 43.654 158.72 L 43.654 158.72 C 49.098 157.262 52.931 154.8 55.154 151.334 L 55.154 151.334 L 55.154 151.334 C 57.376 147.868 58.542 142.602 58.652 135.536 L 58.652 135.536 L 58.652 121.481 L 58.652 121.481 C 58.652 113.926 57.597 108.941 55.486 106.525 L 55.486 106.525 L 55.486 106.525 C 53.376 104.109 49.783 103.507 44.709 104.718 L 44.709 104.718 L 44.709 104.718 Z M 42.762 77.174 L 37.834 78.495 L 37.834 78.495 C 37.549 77.946 37.343 76.948 37.218 75.5 L 37.218 75.5 L 37.218 75.5 C 35.54 78.414 33.397 80.22 30.79 80.918 L 30.79 80.918 L 30.79 80.918 C 28.165 81.621 26.116 81.434 24.642 80.355 L 24.642 80.355 L 24.642 80.355 C 23.169 79.277 22.433 77.399 22.433 74.72 L 22.433 74.72 L 22.433 74.72 C 22.433 71.774 23.433 69.167 25.433 66.899 L 25.433 66.899 L 25.433 66.899 C 27.432 64.632 30.173 63.013 33.656 62.044 L 33.656 62.044 L 37.137 61.112 L 37.137 58.032 L 37.137 58.032 C 37.137 56.299 36.753 55.17 35.985 54.644 L 35.985 54.644 L 35.985 54.644 C 35.218 54.118 34.048 54.065 32.477 54.485 L 32.477 54.485 L 32.477 54.485 C 31.049 54.868 29.888 55.603 28.995 56.691 L 28.995 56.691 L 28.995 56.691 C 28.102 57.779 27.655 58.974 27.655 60.277 L 27.655 60.277 L 22.916 61.547 L 22.916 61.547 C 22.916 60.065 23.353 58.533 24.228 56.95 L 24.228 56.95 L 24.228 56.95 C 25.103 55.368 26.281 53.994 27.763 52.829 L 27.763 52.829 L 27.763 52.829 C 29.245 51.664 30.897 50.838 32.718 50.349 L 32.718 50.349 L 32.718 50.349 C 35.682 49.556 37.937 49.688 39.481 50.747 L 39.481 50.747 L 39.481 50.747 C 41.026 51.807 41.816 53.742 41.852 56.553 L 41.852 56.553 L 41.852 71.178 L 41.852 71.178 C 41.869 73.405 42.173 75.261 42.762 76.746 L 42.762 76.746 L 42.762 77.174 L 42.762 77.174 Z M 31.512 76.412 L 31.512 76.412 L 31.512 76.412 C 32.673 76.102 33.781 75.484 34.834 74.558 L 34.834 74.558 L 34.834 74.558 C 35.888 73.633 36.656 72.624 37.137 71.531 L 37.137 71.531 L 37.137 64.62 L 34.459 65.338 L 34.459 65.338 C 32.209 65.976 30.432 66.957 29.129 68.28 L 29.129 68.28 L 29.129 68.28 C 27.825 69.602 27.174 71.138 27.174 72.888 L 27.174 72.888 L 27.174 72.888 C 27.174 74.531 27.504 75.634 28.165 76.198 L 28.165 76.198 L 28.165 76.198 C 28.825 76.762 29.941 76.834 31.512 76.412 Z M 56.021 73.622 L 51.28 74.892 L 51.28 49.742 L 47.503 50.754 L 47.503 46.924 L 51.28 45.912 L 51.28 42.564 L 51.28 42.564 C 51.333 39.604 52.078 37.105 53.516 35.067 L 53.516 35.067 L 53.516 35.067 C 54.953 33.031 56.985 31.661 59.61 30.957 L 59.61 30.957 L 59.61 30.957 C 60.556 30.704 61.511 30.6 62.476 30.645 L 62.476 30.645 L 62.234 34.727 L 62.234 34.727 C 61.555 34.748 60.832 34.862 60.064 35.067 L 60.064 35.067 L 60.064 35.067 C 57.369 35.79 56.021 38.07 56.021 41.91 L 56.021 41.91 L 56.021 44.641 L 60.976 43.313 L 60.976 47.144 L 56.021 48.472 L 56.021 73.622 L 56.021 73.622 Z M 81.438 66.811 L 81.331 64.296 L 81.331 64.296 C 79.76 66.77 77.465 68.412 74.448 69.22 L 74.448 69.22 L 74.448 69.22 C 71.823 69.924 69.841 69.548 68.502 68.095 L 68.502 68.095 L 68.502 68.095 C 67.163 66.641 66.484 64.185 66.466 60.725 L 66.466 60.725 L 66.466 41.843 L 71.181 40.58 L 71.181 59.114 L 71.181 59.114 C 71.181 63.631 72.538 65.527 75.252 64.8 L 75.252 64.8 L 75.252 64.8 C 78.127 64.03 80.109 62.213 81.198 59.349 L 81.198 59.349 L 81.198 37.896 L 85.939 36.625 L 85.939 65.606 L 81.438 66.811 L 81.438 66.811 Z M 114.008 41.826 L 114.008 44.987 L 114.008 44.987 C 114.008 49.576 113.182 53.216 111.53 55.909 L 111.53 55.909 L 111.53 55.909 C 109.879 58.601 107.544 60.352 104.527 61.161 L 104.527 61.161 L 104.527 61.161 C 101.616 61.941 99.376 61.443 97.804 59.667 L 97.804 59.667 L 97.804 73.568 L 93.09 74.831 L 93.09 34.708 L 97.375 33.561 L 97.616 36.71 L 97.616 36.71 C 99.206 33.784 101.482 31.924 104.446 31.13 L 104.446 31.13 L 104.446 31.13 C 107.624 30.279 109.999 30.75 111.571 32.543 L 111.571 32.543 L 111.571 32.543 C 113.142 34.336 113.955 37.43 114.008 41.826 L 114.008 41.826 L 114.008 41.826 Z M 109.294 46.438 L 109.294 43.544 L 109.294 43.544 C 109.294 40.295 108.794 38.032 107.794 36.755 L 107.794 36.755 L 107.794 36.755 C 106.794 35.478 105.187 35.136 102.974 35.73 L 102.974 35.73 L 102.974 35.73 C 100.705 36.337 98.982 37.933 97.804 40.517 L 97.804 40.517 L 97.804 55.596 L 97.804 55.596 C 98.965 57.5 100.706 58.14 103.027 57.518 L 103.027 57.518 L 103.027 57.518 C 105.169 56.944 106.745 55.749 107.754 53.934 L 107.754 53.934 L 107.754 53.934 C 108.763 52.119 109.276 49.621 109.294 46.438 L 109.294 46.438 L 109.294 46.438 Z"
     id="path72" />
  <g
     aria-label="2019"
     transform="matrix(1.0352762,-0.25881905,0,0.96592581,0,0)"
     style="font-size:38px;font-family:'Roboto Condensed';text-transform:uppercase;fill:#ffffff"
     id="text74">
    <path
       d="M 40.614782,228.3564 H 25.511267 v -2.46777 l 7.700195,-10.20508 q 1.744141,-2.35645 2.412109,-3.85938 0.686524,-1.52148 0.686524,-3.20996 0,-2.15234 -1.001953,-3.48828 -1.001953,-1.33594 -2.634766,-1.33594 -2.05957,0 -3.191406,1.42871 -1.113281,1.41016 -1.113281,4.08204 h -3.28418 q 0,-3.7295 2.041016,-6.03028 2.041015,-2.30078 5.547851,-2.30078 3.228516,0 5.083984,1.98535 1.855469,1.9668 1.855469,5.25098 0,4.00781 -4.174804,9.48144 l -6.011719,7.86719 h 11.188476 z"
       style="font-size:38px;font-family:'Roboto Condensed';text-transform:uppercase;fill:#ffffff"
       id="path848" />
    <path
       d="m 58.724157,216.83394 q 0,5.97461 -1.74414,8.94336 -1.744141,2.95019 -5.473633,2.95019 -3.618164,0 -5.399414,-2.83886 -1.78125,-2.83887 -1.855469,-8.53516 v -4.63867 q 0,-5.91895 1.744141,-8.83203 1.762695,-2.91309 5.473633,-2.91309 3.655273,0 5.399414,2.76465 1.762695,2.76465 1.855468,8.36816 z m -3.284179,-4.69434 q 0,-4.28613 -0.946289,-6.30859 -0.946289,-2.04102 -3.024414,-2.04102 -2.022461,0 -2.96875,2.00391 -0.94629,1.98535 -0.983399,6.01172 v 5.5664 q 0,4.26758 0.983399,6.41993 0.983398,2.13379 3.005859,2.13379 2.003906,0 2.950195,-2.02247 0.946289,-2.02246 0.983399,-6.17871 z"
       style="font-size:38px;font-family:'Roboto Condensed';text-transform:uppercase;fill:#ffffff"
       id="path850" />
    <path
       d="M 72.844275,228.3564 H 69.54154 v -22.87793 l -5.677734,2.54199 v -3.11719 l 8.460937,-3.69238 h 0.519532 z"
       style="font-size:38px;font-family:'Roboto Condensed';text-transform:uppercase;fill:#ffffff"
       id="path852" />
    <path
       d="m 92.642126,216.81538 q -1.966797,2.50489 -4.601562,2.50489 -2.950196,0 -4.694336,-2.48633 -1.744141,-2.48633 -1.744141,-6.5127 0,-4.23047 1.892578,-6.79101 1.911133,-2.56055 5.195313,-2.56055 3.414062,0 5.325195,2.96875 1.929687,2.9502 1.929687,8.18262 v 1.02051 q 0,4.49023 -0.686523,7.27343 -0.667969,2.78321 -1.985352,4.49024 -1.317382,1.70703 -3.358398,2.59765 -2.041016,0.87207 -5.102539,0.87207 v -2.89453 h 0.575195 q 3.488282,-0.0742 5.288086,-2.11523 1.81836,-2.05957 1.966797,-6.54981 z m -4.044922,-0.33398 q 1.1875,0 2.319336,-0.9834 1.131836,-1.00195 1.762695,-2.61621 v -1.44727 q 0,-3.35839 -1.168945,-5.47363 -1.168945,-2.13379 -2.820312,-2.13379 -1.78125,0 -2.838868,1.7627 -1.039062,1.74414 -1.039062,4.5459 0,2.80175 1.020508,4.583 1.020508,1.7627 2.764648,1.7627 z"
       style="font-size:38px;font-family:'Roboto Condensed';text-transform:uppercase;fill:#ffffff"
       id="path854" />
  </g>
</svg>
