<?xml version="1.0" encoding="UTF-8" standalone="no"?>
<svg
   xmlns:dc="http://purl.org/dc/elements/1.1/"
   xmlns:cc="http://creativecommons.org/ns#"
   xmlns:rdf="http://www.w3.org/1999/02/22-rdf-syntax-ns#"
   xmlns:svg="http://www.w3.org/2000/svg"
   xmlns="http://www.w3.org/2000/svg"
   xmlns:sodipodi="http://sodipodi.sourceforge.net/DTD/sodipodi-0.dtd"
   xmlns:inkscape="http://www.inkscape.org/namespaces/inkscape"
   width="252"
   height="241"
   viewBox="0 0 252 241"
   version="1.1"
   id="svg76"
   sodipodi:docname="afup-day-2020-tours.svg"
   inkscape:version="0.92.2 (5c3e80d, 2017-08-06)">
  <metadata
     id="metadata82">
    <rdf:RDF>
      <cc:Work
         rdf:about="">
        <dc:format>image/svg+xml</dc:format>
        <dc:type
           rdf:resource="http://purl.org/dc/dcmitype/StillImage" />
        <dc:title></dc:title>
      </cc:Work>
    </rdf:RDF>
  </metadata>
  <defs
     id="defs80" />
  <sodipodi:namedview
     pagecolor="#ffffff"
     bordercolor="#666666"
     borderopacity="1"
     objecttolerance="10"
     gridtolerance="10"
     guidetolerance="10"
     inkscape:pageopacity="0"
     inkscape:pageshadow="2"
     inkscape:window-width="1853"
     inkscape:window-height="1025"
     id="namedview78"
     showgrid="false"
     inkscape:zoom="3.9170124"
     inkscape:cx="109.18179"
     inkscape:cy="110.55097"
     inkscape:window-x="67"
     inkscape:window-y="27"
     inkscape:window-maximized="1"
     inkscape:current-layer="text74" />
  <g
     fill="none"
     fill-rule="evenodd"
     transform="translate(-.078)"
     id="g74">
    <path
       fill="#234077"
       fill-rule="nonzero"
       d="M0.388273349,182.705471 L0.388273349,117.118852 L0.388273349,34.6852193 L128.063614,0.475744605 C132.339404,-0.670625001 135.811056,1.99373952 135.811056,6.4206998 L135.811056,47.464301 L212.551683,27.3073021 C216.989141,26.1420363 220.592017,28.9208278 220.592017,33.5084058 L220.592017,123.702079 L242.184078,117.916692 C247.208368,116.570862 251.287848,119.700283 251.287848,124.901988 L251.287848,163.640252 C251.287848,168.841957 247.208368,174.158088 242.184078,175.504968 L0.388273349,240.293747 L0.388273349,182.705471 Z"
       id="path2" />
    <polygon
       fill="#476BBC"
       fill-rule="nonzero"
       points="37.115 24.955 .385 34.814 37.115 67.365"
       id="polygon4" />
    <polygon
       fill="#3F73BD"
       fill-rule="nonzero"
       points="110.296 47.56 73.567 57.418 110.296 89.97"
       id="polygon6" />
    <polygon
       fill="#487DC8"
       fill-rule="nonzero"
       points="73.605 99.842 36.875 109.701 73.605 142.252"
       id="polygon8" />
    <polygon
       fill="#425DA2"
       fill-rule="nonzero"
       points="147.017 122.509 110.287 132.368 147.017 164.92"
       id="polygon10" />
    <polygon
       fill="#6AAEE3"
       fill-rule="nonzero"
       points="183.703 70.236 146.974 80.095 183.703 112.647"
       id="polygon12" />
    <polygon
       fill="#498CD2"
       fill-rule="nonzero"
       points="37.115 152.181 .385 162.04 37.115 194.591"
       id="polygon14" />
    <polygon
       fill="#487DC8"
       fill-rule="nonzero"
       points="73.605 15.077 36.875 24.935 73.605 57.487"
       id="polygon16" />
    <polygon
       fill="#487DC8"
       fill-rule="nonzero"
       points="110.341 5.257 73.611 15.116 110.341 47.668"
       id="polygon18" />
    <polygon
       fill="#2F5296"
       fill-rule="nonzero"
       points="110.296 89.912 73.567 99.771 110.296 132.322"
       id="polygon20" />
    <polygon
       fill="#476BBC"
       fill-rule="nonzero"
       points="37.115 67.363 .385 77.222 37.115 109.774"
       id="polygon22" />
    <polygon
       fill="#487DC8"
       fill-rule="nonzero"
       points="73.605 142.24 36.875 152.098 73.605 184.65"
       id="polygon24" />
    <polygon
       fill="#425DA2"
       fill-rule="nonzero"
       points="73.605 57.378 36.875 67.237 73.605 99.789"
       id="polygon26" />
    <polygon
       fill="#325295"
       fill-rule="nonzero"
       points="147.017 80.056 110.287 89.915 147.017 122.467"
       id="polygon28" />
    <polygon
       fill="#3A64AD"
       fill-rule="nonzero"
       points="220.43 144.735 183.7 154.594 215.395 182.664 220.43 181.328"
       id="polygon30" />
    <polygon
       fill="#3A64AD"
       fill-rule="nonzero"
       points="220.43 102.735 183.7 112.594 220.43 145.146"
       id="polygon32" />
    <polygon
       fill="#7F9AD6"
       fill-rule="nonzero"
       points="110.296 132.304 73.567 142.163 110.296 174.715"
       id="polygon34" />
    <polygon
       fill="#4C9EDC"
       fill-rule="nonzero"
       points="37.115 109.772 .385 119.631 37.115 152.182"
       id="polygon36" />
    <polygon
       fill="#476BBC"
       fill-rule="nonzero"
       points="36.875 67.289 73.605 57.43 36.875 24.879"
       id="polygon38" />
    <polygon
       fill="#3A64AD"
       fill-rule="nonzero"
       points="110.287 89.967 147.017 80.108 110.287 47.557"
       id="polygon40" />
    <polygon
       fill="#425DA2"
       fill-rule="nonzero"
       points="73.567 142.238 110.296 132.379 73.567 99.827"
       id="polygon42" />
    <polygon
       fill="#325295"
       fill-rule="nonzero"
       points="183.7 112.646 220.43 102.787 183.7 70.235"
       id="polygon44" />
    <polygon
       fill="#498CD2"
       fill-rule="nonzero"
       points=".385 119.632 37.115 109.773 .385 77.221"
       id="polygon46" />
    <polygon
       fill="#7F9AD6"
       fill-rule="nonzero"
       points="36.875 194.515 73.605 184.656 36.875 152.104"
       id="polygon48" />
    <polygon
       fill="#7F9AD6"
       fill-rule="nonzero"
       points="73.567 57.475 110.296 47.616 73.567 15.065"
       id="polygon50" />
    <polygon
       fill="#727EBD"
       fill-rule="nonzero"
       points="36.875 109.641 73.605 99.782 36.875 67.231"
       id="polygon52" />
    <polygon
       fill="#32549D"
       fill-rule="nonzero"
       points="183.7 154.998 220.43 145.139 183.7 112.588"
       id="polygon54" />
    <polygon
       fill="#6495D5"
       fill-rule="nonzero"
       points="73.567 184.572 110.296 174.713 73.567 142.162"
       id="polygon56" />
    <polygon
       fill="#50A0DD"
       fill-rule="nonzero"
       points=".385 162.04 37.115 152.182 .385 119.63"
       id="polygon58" />
    <polygon
       fill="#3A64AD"
       fill-rule="nonzero"
       points="73.567 99.777 110.296 89.918 73.567 57.366"
       id="polygon60" />
    <polygon
       fill="#487DC8"
       fill-rule="nonzero"
       points="147.017 122.467 183.746 112.608 147.017 80.056"
       id="polygon62" />
    <polygon
       fill="#2F5296"
       fill-rule="nonzero"
       points=".385 77.223 37.115 67.364 .385 34.813"
       id="polygon64" />
    <polygon
       fill="#476BBC"
       fill-rule="nonzero"
       points="110.287 174.712 147.017 164.853 110.287 132.301"
       id="polygon66" />
    <polygon
       fill="#7F9AD6"
       fill-rule="nonzero"
       points="36.875 152.109 73.605 142.251 36.875 109.699"
       id="polygon68" />
    <path
       style="fill:#ffffff"
       inkscape:connector-curvature="0"
       id="path70"
       d="m 129.649,149.23207 -4.33248,-15.39306 -22.27652,5.9691 -4.333529,17.71519 -17.276378,4.62957 25.275767,-87.657381 14.94375,-4.003896 25.44374,74.066817 z m -15.49908,-54.843079 -7.55534,30.856449 15.11067,-4.04904 z m 44.5373,-33.822103 12.22164,33.056806 12.166,-39.590693 17.77713,-4.763942 -21.66554,57.358371 v 29.33216 l -16.55518,4.43535 V 111.06279 L 140.91114,65.330831 Z M 43.376291,172.34947 22.433,177.96164 V 97.076451 l 21.387352,-5.730799 v 0 c 9.443902,-2.530691 16.971239,-1.547739 22.582011,2.948858 v 0 0 c 5.610772,4.495896 8.471798,11.95115 8.583075,22.36576 v 0 13.10976 0 c 0,10.62946 -2.805386,19.72344 -8.416158,27.28192 v 0 0 c -5.610773,7.55848 -13.341769,12.65765 -23.192989,15.29752 z m 1.333232,-67.6316 -5.943905,1.59253 v 53.7198 l 4.888867,-1.31014 v 0 c 5.443506,-1.45851 9.276636,-3.92061 11.499389,-7.38631 v 0 0 c 2.222053,-3.46571 3.388369,-8.7318 3.498947,-15.79828 v 0 -14.05457 0 c 0,-7.55499 -1.055388,-12.54043 -3.166164,-14.95635 v 0 0 c -2.110776,-2.41591 -5.703154,-3.01814 -10.777134,-1.80668 z m -1.947359,-27.543584 -4.927709,1.320635 v 0 c -0.285543,-0.54869 -0.490952,-1.547039 -0.616226,-2.995048 v 0 0 c -1.678263,2.913515 -3.820883,4.719501 -6.427859,5.417961 v 0 0 c -2.625172,0.703359 -4.67436,0.515797 -6.147564,-0.562687 v 0 0 C 23.169602,79.277364 22.433,77.398941 22.433,74.71988 v 0 0 c 0,-2.945708 1.000099,-5.552684 3.000297,-7.820928 v 0 0 c 1.999498,-2.267545 4.740497,-3.885969 8.222997,-4.855275 v 0 l 3.481101,-0.932212 v -3.080081 0 c 0,-1.732152 -0.383873,-2.861375 -1.151619,-3.387669 v 0 0 c -0.767745,-0.526295 -1.93721,-0.579134 -3.508395,-0.158519 v 0 0 c -1.428413,0.382824 -2.589129,1.118026 -3.48215,2.205607 v 0 0 c -0.89302,1.087582 -1.339531,2.282941 -1.339531,3.586079 v 0 l -4.739797,1.270245 v 0 c 0,-1.482302 0.437412,-3.014644 1.312236,-4.597026 v 0 0 c 0.874824,-1.582382 2.053387,-2.956206 3.53569,-4.121472 v 0 0 c 1.481602,-1.164565 3.13327,-1.991099 4.955004,-2.479601 v 0 0 c 2.963904,-0.793641 5.218151,-0.661017 6.762741,0.39787 v 0 0 c 1.544589,1.059587 2.33473,2.995048 2.370423,5.806383 v 0 14.624611 0 c 0.0175,2.226952 0.320886,4.082979 0.910167,5.568081 v 0 z M 31.512625,76.41214 v 0 0 c 1.161067,-0.310738 2.268244,-0.928714 3.321533,-1.853928 v 0 0 c 1.053988,-0.925214 1.821733,-1.934411 2.303237,-3.027591 v 0 -6.910761 l -2.678012,0.718055 v 0 c -2.250048,0.638272 -4.026641,1.618775 -5.329779,2.941509 v 0 0 c -1.303838,1.322034 -1.955757,2.858226 -1.955757,4.608574 v 0 0 c 0,1.64257 0.330334,2.745898 0.991001,3.309985 v 0 0 c 0.660667,0.564086 1.776593,0.635472 3.347777,0.214157 z M 56.021,73.621801 51.280152,74.892045 V 49.74225 l -3.777141,1.011996 v -3.83068 l 3.777141,-1.011996 v -3.347777 0 c 0.05319,-2.960406 0.79854,-5.459253 2.236051,-7.496544 v 0 0 c 1.437511,-2.036591 3.468853,-3.406565 6.094025,-4.109924 v 0 0 c 0.94621,-0.253349 1.901518,-0.357628 2.865924,-0.312837 v 0 l -0.241451,4.082629 v 0 c -0.678864,0.021 -1.402168,0.134373 -2.169914,0.340132 v 0 0 C 57.368929,35.789504 56.021,38.070346 56.021,41.909774 v 0 2.731551 l 4.955004,-1.327983 v 3.83068 L 56.021,48.472005 Z m 25.417491,-6.811032 -0.107078,-2.515294 v 0 c -1.571185,2.474702 -3.865673,4.116223 -6.883467,4.92456 v 0 0 c -2.624472,0.703359 -4.606474,0.328234 -5.946005,-1.125374 v 0 0 C 67.16311,66.641054 66.484597,64.184547 66.4664,60.725142 v 0 -18.882555 l 4.714603,-1.262896 v 18.534025 0 c 0,4.517592 1.357027,6.412811 4.071082,5.685658 v 0 0 c 2.875022,-0.769846 4.857023,-2.586681 5.946005,-5.450505 v 0 -21.453488 l 4.740847,-1.270245 V 65.605612 Z M 114.0082,41.825791 v 3.160915 0 c 0,4.588977 -0.82584,8.229645 -2.47751,10.922004 v 0 0 c -1.65166,2.692359 -3.98605,4.443058 -7.00314,5.252095 v 0 0 c -2.91071,0.779643 -5.151664,0.281693 -6.722848,-1.49385 v 0 13.901306 l -4.714603,1.262896 V 34.708221 l 4.285239,-1.147419 0.241452,3.149367 v 0 c 1.58938,-2.926112 3.86602,-4.786338 6.82993,-5.580679 v 0 0 c 3.17806,-0.851028 5.55303,-0.380023 7.12491,1.413017 v 0 0 c 1.57119,1.793039 2.38338,4.887467 2.43657,9.283284 z m -4.71356,4.611723 v -2.893219 0 c 0,-3.249447 -0.50005,-5.512442 -1.50015,-6.788985 v 0 0 c -1.00009,-1.277244 -2.60697,-1.619125 -4.82063,-1.025644 v 0 0 c -2.26824,0.607478 -3.991295,2.203157 -5.169158,4.787038 v 0 15.079169 0 c 1.160367,1.903618 2.901268,2.544339 5.222698,1.922164 v 0 0 c 2.14227,-0.574585 3.71801,-1.769244 4.7272,-3.58398 v 0 0 c 1.0085,-1.814735 1.52185,-4.313583 1.54004,-7.496543 z"
       sodipodi:nodetypes="ccccccccccccccccccccccccccccccccccccccccccccccccccccccccccccccccccccccccccccccccccccccccccccccccccccccccccccccccccccccccccccccccccccccccccccccccccccccccccccccccccccccccccccccccccccccccccccccccccccccccccccccccccccccccccccccccccc" />
    <g
       aria-label="TOURS"
       transform="matrix(1.0352762,-0.25881905,0,0.96592581,0,0)"
       style="font-size:38px;font-family:'Roboto Condensed';text-transform:uppercase;fill:#ffffff"
       id="text74">
      <path
         d="m 38.814791,205.69687 h -7.106446 v 24.08398 h -3.395507 v -24.08398 h -7.087891 v -2.93164 h 17.589844 z"
         style="font-size:38px;font-family:'Roboto Condensed';text-transform:uppercase;fill:#ffffff"
         id="path195" />
      <path
         d="m 59.892916,218.64804 q 0,5.5293 -2.356446,8.5166 -2.356445,2.98731 -6.698242,2.98731 -4.174804,0 -6.605469,-2.89453 -2.412109,-2.91309 -2.504882,-8.21973 v -5.08399 q 0,-5.41796 2.393554,-8.47949 2.393555,-3.08008 6.679688,-3.08008 4.267578,0 6.642578,2.9502 2.393555,2.93164 2.449219,8.38672 z m -3.395508,-4.73144 q 0,-4.28614 -1.410156,-6.36426 -1.391602,-2.09668 -4.286133,-2.09668 -2.801758,0 -4.249024,2.11523 -1.428711,2.11524 -1.447265,6.23438 v 4.84277 q 0,4.1377 1.428711,6.30859 1.447265,2.1709 4.304687,2.1709 2.857422,0 4.230469,-2.0039 1.373047,-2.00391 1.428711,-6.1416 z"
         style="font-size:38px;font-family:'Roboto Condensed';text-transform:uppercase;fill:#ffffff"
         id="path197" />
      <path
         d="m 81.28647,202.76523 v 19.2041 q -0.03711,3.84082 -2.226562,6.01172 -2.189453,2.1709 -6.104492,2.1709 -4.007813,0 -6.123047,-2.11524 -2.115235,-2.13379 -2.152344,-6.06738 v -19.2041 h 3.376953 v 19.07422 q 0,2.72754 1.150391,4.08203 1.168945,1.33594 3.748047,1.33594 2.597656,0 3.748047,-1.33594 1.168945,-1.35449 1.168945,-4.08203 v -19.07422 z"
         style="font-size:38px;font-family:'Roboto Condensed';text-transform:uppercase;fill:#ffffff"
         id="path199" />
      <path
         d="m 94.720064,218.85214 h -4.75 v 10.92871 h -3.414062 v -27.01562 h 7.570312 q 3.970703,0 6.011716,2.07812 2.04102,2.05957 2.04102,6.04883 0,2.50488 -1.11328,4.37891 -1.094729,1.85547 -3.11719,2.80176 l 5.23242,11.48535 v 0.22265 h -3.655272 z m -4.75,-2.91308 h 4.119141 q 2.133789,0 3.395508,-1.37305 1.280273,-1.37305 1.280273,-3.67383 0,-5.19531 -4.712891,-5.19531 h -4.082031 z"
         style="font-size:38px;font-family:'Roboto Condensed';text-transform:uppercase;fill:#ffffff"
         id="path201" />
      <path
         d="m 118.54428,222.95273 q 0,-2.02246 -1.09472,-3.09863 -1.09473,-1.07618 -3.95215,-2.09668 -2.85742,-1.02051 -4.37891,-2.13379 -1.50293,-1.13184 -2.26367,-2.56055 -0.74219,-1.44727 -0.74219,-3.30273 0,-3.20997 2.13379,-5.28809 2.15235,-2.07813 5.62207,-2.07813 2.375,0 4.23047,1.07618 1.85547,1.05761 2.85742,2.95019 1.00196,1.89258 1.00196,4.15625 h -3.41407 q 0,-2.50488 -1.20605,-3.87793 -1.20606,-1.37304 -3.46973,-1.37304 -2.05957,0 -3.1914,1.15039 -1.13184,1.15039 -1.13184,3.22851 0,1.70703 1.22461,2.85742 1.22461,1.15039 3.78516,2.05957 3.98925,1.31739 5.69628,3.24707 1.72559,1.92969 1.72559,5.04688 0,3.28418 -2.13379,5.26953 -2.13379,1.9668 -5.80762,1.9668 -2.35644,0 -4.36035,-1.02051 -1.98535,-1.03906 -3.13574,-2.89453 -1.13184,-1.87403 -1.13184,-4.28613 h 3.41407 q 0,2.50488 1.3916,3.89648 1.41015,1.3916 3.82226,1.3916 2.24512,0 3.37696,-1.15039 1.13183,-1.15039 1.13183,-3.13574 z"
         style="font-size:38px;font-family:'Roboto Condensed';text-transform:uppercase;fill:#ffffff"
         id="path203" />
    </g>
  </g>
</svg>
