<?xml version="1.0" encoding="UTF-8" standalone="no"?>
<svg
   xmlns:dc="http://purl.org/dc/elements/1.1/"
   xmlns:cc="http://creativecommons.org/ns#"
   xmlns:rdf="http://www.w3.org/1999/02/22-rdf-syntax-ns#"
   xmlns:svg="http://www.w3.org/2000/svg"
   xmlns="http://www.w3.org/2000/svg"
   viewBox="0 0 432.34628 62.795289"
   height="62.795292"
   width="432.34628"
   xml:space="preserve"
   version="1.1"
   id="svg6773"><metadata
     id="metadata6779"><rdf:RDF><cc:Work
         rdf:about=""><dc:format>image/svg+xml</dc:format><dc:type
           rdf:resource="http://purl.org/dc/dcmitype/StillImage" /><dc:title></dc:title></cc:Work></rdf:RDF></metadata><defs
     id="defs6777"><clipPath
       id="clipPath6787"
       clipPathUnits="userSpaceOnUse"><path
         id="path6789"
         d="m 0,870.236 623.626,0 L 623.626,0 0,0 0,870.236 Z" /></clipPath><clipPath
       id="clipPath6799"
       clipPathUnits="userSpaceOnUse"><path
         id="path6801"
         d="m 0,870.236 623.626,0 L 623.626,0 0,0 0,870.236 Z" /></clipPath><clipPath
       id="clipPath7071"
       clipPathUnits="userSpaceOnUse"><path
         id="path7073"
         d="m 0,870.236 623.626,0 L 623.626,0 0,0 0,870.236 Z" /></clipPath></defs><g
     transform="matrix(1.25,0,0,-1.25,-174.3972,739.8725)"
     id="g6781"><text
       id="text7063"
       style="font-variant:normal;font-weight:normal;font-stretch:normal;font-size:44.30160141px;font-family:Belgrano;-inkscape-font-specification:Belgrano-Regular;writing-mode:lr-tb;fill:#231f20;fill-opacity:1;fill-rule:nonzero;stroke:none"
       transform="matrix(1,0,0,-1,137.79,553.6675)"><tspan
         id="tspan7065"
         y="0"
         x="0 25.194321 43.71682 70.319931">afup</tspan></text>
<path
       d="m 306.8391,570.4693 -1.201,3.184 -1.155,-3.184 2.356,0 z m 3.251,-3.648 -3.081,0 0,0.499 0.929,0.374 -0.805,2.005 -2.945,0 -0.805,-2.005 0.906,-0.374 0,-0.499 -2.968,0 0,0.499 0.929,0.374 2.787,7.126 1.168,0 2.9,-7.126 0.985,-0.374 0,-0.499 z"
       style="fill:#231f20;fill-opacity:1;fill-rule:nonzero;stroke:none"
       id="path7077" /><path
       d="m 315.0002,570.8663 -0.715,0 -0.158,0.566 c -0.196,0.189 -0.498,0.284 -0.906,0.284 -0.409,0 -0.723,-0.054 -0.946,-0.159 -0.223,-0.106 -0.335,-0.248 -0.335,-0.425 0,-0.178 0.083,-0.344 0.249,-0.498 0.166,-0.155 0.336,-0.27 0.51,-0.346 0.174,-0.076 0.485,-0.189 0.93,-0.34 0.445,-0.151 0.81,-0.351 1.094,-0.601 0.283,-0.249 0.423,-0.577 0.423,-0.985 0,-0.544 -0.197,-0.957 -0.593,-1.241 -0.397,-0.283 -0.85,-0.424 -1.361,-0.424 -0.509,0 -0.948,0.064 -1.313,0.192 -0.367,0.128 -0.629,0.257 -0.788,0.385 l -0.227,0.193 0,1.212 0.68,0 0.238,-0.702 c 0.007,-0.023 0.068,-0.061 0.181,-0.113 0.355,-0.182 0.711,-0.272 1.065,-0.272 0.355,0 0.627,0.054 0.816,0.164 0.189,0.109 0.283,0.264 0.283,0.464 0,0.2 -0.106,0.391 -0.316,0.572 -0.212,0.182 -0.566,0.346 -1.061,0.493 -0.494,0.147 -0.91,0.363 -1.246,0.646 -0.336,0.283 -0.504,0.614 -0.504,0.992 0,0.566 0.199,0.991 0.596,1.274 0.396,0.283 0.908,0.425 1.535,0.425 0.308,0 0.619,-0.038 0.928,-0.113 0.31,-0.076 0.545,-0.152 0.703,-0.227 l 0.238,-0.113 0,-1.303 z"
       style="fill:#231f20;fill-opacity:1;fill-rule:nonzero;stroke:none"
       id="path7081" /><path
       d="m 320.4807,570.8663 -0.714,0 -0.158,0.566 c -0.196,0.189 -0.499,0.284 -0.907,0.284 -0.408,0 -0.723,-0.054 -0.946,-0.159 -0.222,-0.106 -0.334,-0.248 -0.334,-0.425 0,-0.178 0.082,-0.344 0.249,-0.498 0.166,-0.155 0.336,-0.27 0.51,-0.346 0.174,-0.076 0.484,-0.189 0.929,-0.34 0.445,-0.151 0.81,-0.351 1.094,-0.601 0.283,-0.249 0.424,-0.577 0.424,-0.985 0,-0.544 -0.198,-0.957 -0.594,-1.241 -0.397,-0.283 -0.85,-0.424 -1.36,-0.424 -0.509,0 -0.948,0.064 -1.314,0.192 -0.367,0.128 -0.629,0.257 -0.787,0.385 l -0.227,0.193 0,1.212 0.68,0 0.238,-0.702 c 0.007,-0.023 0.068,-0.061 0.181,-0.113 0.354,-0.182 0.71,-0.272 1.065,-0.272 0.355,0 0.627,0.054 0.816,0.164 0.188,0.109 0.283,0.264 0.283,0.464 0,0.2 -0.107,0.391 -0.317,0.572 -0.211,0.182 -0.565,0.346 -1.06,0.493 -0.495,0.147 -0.91,0.363 -1.246,0.646 -0.336,0.283 -0.504,0.614 -0.504,0.992 0,0.566 0.198,0.991 0.595,1.274 0.396,0.283 0.908,0.425 1.535,0.425 0.309,0 0.619,-0.038 0.929,-0.113 0.309,-0.076 0.544,-0.152 0.702,-0.227 l 0.238,-0.113 0,-1.303 z"
       style="fill:#231f20;fill-opacity:1;fill-rule:nonzero;stroke:none"
       id="path7085" /><path
       d="m 323.3127,568.1412 c 0.34,-0.366 0.775,-0.549 1.304,-0.549 0.528,0 0.963,0.183 1.302,0.549 0.34,0.366 0.51,0.859 0.51,1.479 0,0.619 -0.172,1.125 -0.515,1.518 -0.344,0.393 -0.777,0.589 -1.297,0.589 -0.522,0 -0.954,-0.196 -1.298,-0.589 -0.344,-0.393 -0.516,-0.899 -0.516,-1.518 0,-0.62 0.17,-1.113 0.51,-1.479 m 3.389,-0.623 c -0.552,-0.548 -1.246,-0.821 -2.085,-0.821 -0.839,0 -1.534,0.273 -2.085,0.821 -0.551,0.547 -0.827,1.259 -0.827,2.136 0,0.876 0.276,1.59 0.827,2.141 0.551,0.551 1.246,0.827 2.085,0.827 0.839,0 1.533,-0.276 2.085,-0.827 0.55,-0.551 0.826,-1.265 0.826,-2.141 0,-0.877 -0.276,-1.589 -0.826,-2.136"
       style="fill:#231f20;fill-opacity:1;fill-rule:nonzero;stroke:none"
       id="path7089" /><path
       d="m 331.4807,566.7081 c -0.838,0 -1.527,0.245 -2.068,0.736 -0.539,0.492 -0.81,1.201 -0.81,2.13 0,0.514 0.103,0.973 0.306,1.377 0.204,0.404 0.472,0.723 0.804,0.957 0.688,0.476 1.44,0.714 2.255,0.714 0.249,0 0.495,-0.03 0.737,-0.091 0.241,-0.06 0.422,-0.12 0.544,-0.181 l 0.181,-0.102 0,-1.337 -0.691,0 -0.158,0.692 c -0.107,0.083 -0.311,0.124 -0.613,0.124 -0.649,0 -1.19,-0.196 -1.62,-0.589 -0.43,-0.393 -0.646,-0.888 -0.646,-1.484 0,-0.597 0.187,-1.09 0.561,-1.479 0.374,-0.389 0.87,-0.583 1.489,-0.583 0.303,0 0.584,0.032 0.844,0.096 0.262,0.064 0.445,0.13 0.551,0.198 l 0.158,0.091 0.328,-0.589 c -0.022,-0.015 -0.054,-0.04 -0.095,-0.074 -0.042,-0.034 -0.131,-0.089 -0.267,-0.164 -0.136,-0.076 -0.279,-0.144 -0.431,-0.204 -0.408,-0.159 -0.861,-0.238 -1.359,-0.238"
       style="fill:#231f20;fill-opacity:1;fill-rule:nonzero;stroke:none"
       id="path7093" /><path
       d="m 336.679,573.9249 c -0.174,-0.174 -0.386,-0.26 -0.635,-0.26 -0.249,0 -0.46,0.086 -0.634,0.26 -0.173,0.174 -0.261,0.385 -0.261,0.635 0,0.249 0.088,0.46 0.261,0.634 0.174,0.174 0.385,0.261 0.634,0.261 0.249,0 0.461,-0.087 0.635,-0.261 0.173,-0.174 0.261,-0.385 0.261,-0.634 0,-0.25 -0.088,-0.461 -0.261,-0.635 m 0.917,-7.104 -2.979,0 0,0.488 0.952,0.373 0,4.045 -0.952,0 0,0.68 c 0.294,0.143 0.636,0.215 1.026,0.215 0.389,0 0.65,-0.093 0.787,-0.277 0.136,-0.186 0.203,-0.467 0.203,-0.844 l 0,-3.819 0.963,-0.373 0,-0.488 z"
       style="fill:#231f20;fill-opacity:1;fill-rule:nonzero;stroke:none"
       id="path7097" /><path
       d="m 339.7805,568.8834 c -0.17,-0.136 -0.255,-0.319 -0.255,-0.549 0,-0.231 0.093,-0.412 0.277,-0.544 0.186,-0.133 0.444,-0.199 0.777,-0.199 0.627,0 1.14,0.17 1.541,0.51 l 0,1.224 -1.654,-0.181 c -0.288,-0.038 -0.515,-0.125 -0.686,-0.261 m 4.356,-1.292 0,-0.679 c -0.294,-0.144 -0.619,-0.216 -0.974,-0.216 -0.356,0 -0.61,0.068 -0.765,0.204 -0.155,0.136 -0.243,0.333 -0.266,0.589 -0.415,-0.528 -0.961,-0.793 -1.637,-0.793 -0.676,0 -1.188,0.136 -1.535,0.408 -0.348,0.272 -0.522,0.654 -0.522,1.145 0,0.944 0.658,1.488 1.972,1.631 l 1.711,0.181 0,0.329 c 0,0.438 -0.091,0.77 -0.273,0.997 -0.18,0.226 -0.467,0.34 -0.86,0.34 -0.726,0 -1.314,-0.079 -1.768,-0.238 l -0.226,-0.08 -0.204,0.725 c 0.211,0.122 0.533,0.233 0.963,0.335 0.43,0.102 0.831,0.153 1.201,0.153 0.808,0 1.383,-0.161 1.723,-0.482 0.339,-0.321 0.509,-0.772 0.509,-1.354 l 0,-3.195 0.951,0 z"
       style="fill:#231f20;fill-opacity:1;fill-rule:nonzero;stroke:none"
       id="path7101" /><path
       d="m 346.5735,567.9771 c 0.196,-0.234 0.495,-0.352 0.896,-0.352 0.4,0 0.728,0.061 0.985,0.182 l 0.226,-0.566 c -0.03,-0.038 -0.073,-0.087 -0.129,-0.148 -0.057,-0.06 -0.2,-0.141 -0.426,-0.243 -0.227,-0.102 -0.475,-0.153 -0.747,-0.153 -0.688,0 -1.22,0.194 -1.598,0.583 -0.378,0.389 -0.566,0.957 -0.566,1.705 l 0,2.606 -0.601,0 0,0.668 1.088,1.088 0.578,0 0,-0.861 1.902,0 0,-0.895 -1.902,0 0,-2.289 c 0,-0.649 0.098,-1.091 0.294,-1.325"
       style="fill:#231f20;fill-opacity:1;fill-rule:nonzero;stroke:none"
       id="path7105" /><path
       d="m 351.594,573.9249 c -0.174,-0.174 -0.385,-0.26 -0.635,-0.26 -0.249,0 -0.461,0.086 -0.635,0.26 -0.173,0.174 -0.259,0.385 -0.259,0.635 0,0.249 0.086,0.46 0.259,0.634 0.174,0.174 0.386,0.261 0.635,0.261 0.25,0 0.461,-0.087 0.635,-0.261 0.174,-0.174 0.26,-0.385 0.26,-0.634 0,-0.25 -0.086,-0.461 -0.26,-0.635 m 0.918,-7.104 -2.981,0 0,0.488 0.953,0.373 0,4.045 -0.953,0 0,0.68 c 0.295,0.143 0.637,0.215 1.026,0.215 0.389,0 0.652,-0.093 0.787,-0.277 0.137,-0.186 0.205,-0.467 0.205,-0.844 l 0,-3.819 0.963,-0.373 0,-0.488 z"
       style="fill:#231f20;fill-opacity:1;fill-rule:nonzero;stroke:none"
       id="path7109" /><path
       d="m 354.7717,568.1412 c 0.34,-0.366 0.774,-0.549 1.303,-0.549 0.529,0 0.963,0.183 1.302,0.549 0.34,0.366 0.51,0.859 0.51,1.479 0,0.619 -0.172,1.125 -0.515,1.518 -0.344,0.393 -0.776,0.589 -1.297,0.589 -0.522,0 -0.953,-0.196 -1.297,-0.589 -0.344,-0.393 -0.516,-0.899 -0.516,-1.518 0,-0.62 0.17,-1.113 0.51,-1.479 m 3.388,-0.623 c -0.552,-0.548 -1.246,-0.821 -2.085,-0.821 -0.838,0 -1.533,0.273 -2.084,0.821 -0.552,0.547 -0.828,1.259 -0.828,2.136 0,0.876 0.276,1.59 0.828,2.141 0.551,0.551 1.246,0.827 2.084,0.827 0.839,0 1.533,-0.276 2.085,-0.827 0.551,-0.551 0.827,-1.265 0.827,-2.141 0,-0.877 -0.276,-1.589 -0.827,-2.136"
       style="fill:#231f20;fill-opacity:1;fill-rule:nonzero;stroke:none"
       id="path7113" /><path
       d="m 366.5647,566.8214 -2.98,0 0,0.487 0.907,0.374 0,2.708 c 0,0.446 -0.073,0.778 -0.222,0.997 -0.146,0.219 -0.413,0.329 -0.799,0.329 -0.619,0 -1.174,-0.246 -1.665,-0.737 l 0,-3.297 0.964,-0.374 0,-0.487 -2.98,0 0,0.487 0.951,0.374 0,4.045 -0.951,0 0,0.679 c 0.295,0.144 0.63,0.216 1.007,0.216 0.379,0 0.637,-0.083 0.778,-0.249 0.138,-0.167 0.217,-0.416 0.231,-0.748 0.107,0.136 0.265,0.29 0.476,0.464 0.446,0.355 0.956,0.533 1.529,0.533 0.574,0 1.01,-0.164 1.304,-0.493 0.294,-0.329 0.442,-0.776 0.442,-1.343 l 0,-3.104 1.008,-0.374 0,-0.487 z"
       style="fill:#231f20;fill-opacity:1;fill-rule:nonzero;stroke:none"
       id="path7117" /><path
       d="m 304.8909,553.6304 -3.003,0 0,0.487 0.952,0.374 0,3.886 -0.885,0 0,0.68 0.885,0.363 0,0.679 c 0,0.748 0.191,1.316 0.572,1.705 0.381,0.389 0.919,0.584 1.614,0.584 0.272,0 0.523,-0.04 0.754,-0.119 0.23,-0.079 0.39,-0.16 0.482,-0.244 l 0.147,-0.124 -0.306,-0.589 c -0.212,0.12 -0.526,0.181 -0.946,0.181 -0.419,0 -0.729,-0.123 -0.929,-0.368 -0.2,-0.246 -0.3,-0.694 -0.3,-1.343 l 0,-0.487 1.823,0 0,-0.918 -1.823,0 0,-3.886 0.963,-0.374 0,-0.487 z"
       style="fill:#231f20;fill-opacity:1;fill-rule:nonzero;stroke:none"
       id="path7121" /><path
       d="m 309.6399,553.6304 -2.979,0 0,0.487 0.951,0.374 0,4.045 -0.951,0 0,0.679 c 0.294,0.144 0.626,0.216 0.996,0.216 0.371,0 0.627,-0.079 0.771,-0.238 0.143,-0.159 0.223,-0.393 0.237,-0.703 0.076,0.227 0.231,0.431 0.465,0.612 0.28,0.219 0.65,0.329 1.111,0.329 0.203,0 0.398,-0.027 0.583,-0.079 0.184,-0.054 0.319,-0.106 0.402,-0.159 l 0.136,-0.08 0,-1.337 -0.68,0 -0.146,0.681 c -0.046,0.045 -0.17,0.068 -0.375,0.068 -0.204,0 -0.401,-0.029 -0.588,-0.085 -0.19,-0.057 -0.337,-0.127 -0.443,-0.21 -0.212,-0.182 -0.362,-0.367 -0.454,-0.555 l 0,-3.184 0.964,-0.374 0,-0.487 z"
       style="fill:#231f20;fill-opacity:1;fill-rule:nonzero;stroke:none"
       id="path7125" /><path
       d="m 313.428,555.6924 c -0.17,-0.136 -0.255,-0.319 -0.255,-0.549 0,-0.231 0.093,-0.412 0.278,-0.544 0.185,-0.133 0.444,-0.199 0.776,-0.199 0.627,0 1.14,0.17 1.541,0.51 l 0,1.224 -1.654,-0.181 c -0.288,-0.038 -0.516,-0.125 -0.686,-0.261 m 4.356,-1.292 0,-0.679 c -0.294,-0.144 -0.619,-0.216 -0.973,-0.216 -0.356,0 -0.612,0.068 -0.766,0.204 -0.154,0.136 -0.243,0.333 -0.265,0.589 -0.416,-0.528 -0.962,-0.793 -1.638,-0.793 -0.676,0 -1.188,0.136 -1.535,0.408 -0.347,0.272 -0.521,0.654 -0.521,1.145 0,0.944 0.656,1.488 1.971,1.631 l 1.711,0.181 0,0.329 c 0,0.438 -0.091,0.77 -0.272,0.997 -0.181,0.226 -0.468,0.34 -0.861,0.34 -0.725,0 -1.314,-0.079 -1.768,-0.238 l -0.226,-0.08 -0.204,0.725 c 0.212,0.122 0.532,0.233 0.963,0.335 0.43,0.102 0.831,0.153 1.201,0.153 0.807,0 1.382,-0.161 1.722,-0.482 0.339,-0.321 0.509,-0.772 0.509,-1.354 l 0,-3.195 0.952,0 z"
       style="fill:#231f20;fill-opacity:1;fill-rule:nonzero;stroke:none"
       id="path7129" /><path
       d="m 325.4631,553.6304 -2.98,0 0,0.487 0.906,0.374 0,2.708 c 0,0.446 -0.073,0.778 -0.221,0.997 -0.146,0.219 -0.414,0.329 -0.799,0.329 -0.619,0 -1.174,-0.246 -1.666,-0.737 l 0,-3.297 0.964,-0.374 0,-0.487 -2.979,0 0,0.487 0.951,0.374 0,4.045 -0.951,0 0,0.679 c 0.295,0.144 0.63,0.216 1.007,0.216 0.378,0 0.637,-0.083 0.777,-0.249 0.139,-0.167 0.217,-0.416 0.231,-0.748 0.107,0.136 0.266,0.29 0.477,0.464 0.445,0.355 0.955,0.533 1.529,0.533 0.574,0 1.009,-0.164 1.303,-0.493 0.295,-0.329 0.442,-0.776 0.442,-1.343 l 0,-3.104 1.009,-0.374 0,-0.487 z"
       style="fill:#231f20;fill-opacity:1;fill-rule:nonzero;stroke:none"
       id="path7133" /><path
       d="m 328.0022,552.3726 c 0.174,-0.188 0.408,-0.283 0.703,-0.283 0.295,0 0.442,0.129 0.442,0.385 0,0.287 -0.272,0.431 -0.816,0.431 l 0.237,0.634 c -0.754,0.061 -1.369,0.333 -1.839,0.816 -0.473,0.483 -0.709,1.159 -0.709,2.028 0,0.513 0.101,0.972 0.306,1.377 0.203,0.404 0.471,0.723 0.804,0.957 0.687,0.476 1.438,0.714 2.255,0.714 0.249,0 0.494,-0.031 0.736,-0.091 0.242,-0.061 0.423,-0.121 0.544,-0.181 l 0.181,-0.102 0,-1.337 -0.692,0 -0.158,0.691 c -0.105,0.083 -0.309,0.125 -0.611,0.125 -0.651,0 -1.19,-0.197 -1.62,-0.59 -0.431,-0.392 -0.646,-0.887 -0.646,-1.484 0,-0.596 0.187,-1.09 0.561,-1.478 0.373,-0.389 0.87,-0.584 1.49,-0.584 0.301,0 0.583,0.032 0.844,0.097 0.259,0.063 0.443,0.13 0.549,0.198 l 0.159,0.091 0.329,-0.59 c -0.182,-0.151 -0.461,-0.296 -0.84,-0.436 -0.377,-0.139 -0.751,-0.217 -1.121,-0.232 l -0.113,-0.283 c 0.204,-0.008 0.378,-0.08 0.521,-0.216 0.143,-0.136 0.215,-0.334 0.215,-0.595 0,-0.26 -0.096,-0.466 -0.289,-0.617 -0.193,-0.151 -0.409,-0.227 -0.651,-0.227 -0.416,0 -0.722,0.099 -0.917,0.295 l -0.091,0.091 0.237,0.396 z"
       style="fill:#231f20;fill-opacity:1;fill-rule:nonzero;stroke:none"
       id="path7137" /><path
       d="m 333.2971,555.6924 c -0.17,-0.136 -0.256,-0.319 -0.256,-0.549 0,-0.231 0.094,-0.412 0.278,-0.544 0.185,-0.133 0.444,-0.199 0.777,-0.199 0.627,0 1.14,0.17 1.541,0.51 l 0,1.224 -1.654,-0.181 c -0.288,-0.038 -0.516,-0.125 -0.686,-0.261 m 4.355,-1.292 0,-0.679 c -0.293,-0.144 -0.619,-0.216 -0.973,-0.216 -0.356,0 -0.611,0.068 -0.765,0.204 -0.155,0.136 -0.244,0.333 -0.266,0.589 -0.415,-0.528 -0.962,-0.793 -1.638,-0.793 -0.676,0 -1.188,0.136 -1.535,0.408 -0.347,0.272 -0.521,0.654 -0.521,1.145 0,0.944 0.657,1.488 1.972,1.631 l 1.711,0.181 0,0.329 c 0,0.438 -0.092,0.77 -0.273,0.997 -0.18,0.226 -0.467,0.34 -0.86,0.34 -0.726,0 -1.314,-0.079 -1.768,-0.238 l -0.226,-0.08 -0.205,0.725 c 0.212,0.122 0.533,0.233 0.963,0.335 0.431,0.102 0.832,0.153 1.201,0.153 0.808,0 1.383,-0.161 1.723,-0.482 0.339,-0.321 0.509,-0.772 0.509,-1.354 l 0,-3.195 0.951,0 z"
       style="fill:#231f20;fill-opacity:1;fill-rule:nonzero;stroke:none"
       id="path7141" /><path
       d="m 340.6292,560.7339 c -0.174,-0.174 -0.385,-0.26 -0.635,-0.26 -0.248,0 -0.46,0.086 -0.634,0.26 -0.173,0.174 -0.26,0.385 -0.26,0.635 0,0.249 0.087,0.46 0.26,0.634 0.174,0.174 0.386,0.261 0.634,0.261 0.25,0 0.461,-0.087 0.635,-0.261 0.174,-0.174 0.261,-0.385 0.261,-0.634 0,-0.25 -0.087,-0.461 -0.261,-0.635 m 0.918,-7.104 -2.98,0 0,0.488 0.953,0.373 0,4.045 -0.953,0 0,0.68 c 0.294,0.143 0.636,0.215 1.026,0.215 0.389,0 0.651,-0.093 0.787,-0.277 0.136,-0.186 0.204,-0.467 0.204,-0.844 l 0,-3.819 0.963,-0.373 0,-0.488 z"
       style="fill:#231f20;fill-opacity:1;fill-rule:nonzero;stroke:none"
       id="path7145" /><path
       d="m 346.6711,557.6754 -0.714,0 -0.158,0.566 c -0.197,0.189 -0.498,0.284 -0.906,0.284 -0.409,0 -0.724,-0.054 -0.947,-0.159 -0.223,-0.106 -0.335,-0.248 -0.335,-0.425 0,-0.178 0.084,-0.344 0.25,-0.498 0.166,-0.155 0.336,-0.27 0.51,-0.346 0.174,-0.076 0.484,-0.189 0.93,-0.34 0.445,-0.151 0.809,-0.351 1.093,-0.601 0.283,-0.249 0.424,-0.577 0.424,-0.985 0,-0.544 -0.198,-0.957 -0.594,-1.241 -0.397,-0.283 -0.85,-0.424 -1.361,-0.424 -0.509,0 -0.947,0.064 -1.313,0.192 -0.366,0.128 -0.629,0.257 -0.788,0.385 l -0.227,0.193 0,1.212 0.68,0 0.238,-0.702 c 0.008,-0.023 0.069,-0.061 0.182,-0.113 0.355,-0.182 0.71,-0.272 1.064,-0.272 0.356,0 0.627,0.054 0.817,0.164 0.188,0.109 0.283,0.264 0.283,0.464 0,0.2 -0.106,0.391 -0.317,0.572 -0.212,0.182 -0.566,0.346 -1.06,0.493 -0.494,0.147 -0.91,0.363 -1.246,0.646 -0.336,0.283 -0.504,0.614 -0.504,0.992 0,0.566 0.198,0.991 0.595,1.274 0.396,0.283 0.908,0.425 1.535,0.425 0.309,0 0.619,-0.038 0.929,-0.113 0.31,-0.076 0.544,-0.152 0.703,-0.227 l 0.237,-0.113 0,-1.303 z"
       style="fill:#231f20;fill-opacity:1;fill-rule:nonzero;stroke:none"
       id="path7149" /><path
       d="m 351.717,558.168 c -0.268,0.245 -0.615,0.368 -1.042,0.368 -0.427,0 -0.78,-0.119 -1.06,-0.357 -0.279,-0.238 -0.461,-0.598 -0.543,-1.082 l 3.104,0 c -0.037,0.468 -0.19,0.825 -0.459,1.071 m -0.912,-4.651 c -0.854,0 -1.546,0.244 -2.078,0.731 -0.533,0.487 -0.799,1.199 -0.799,2.135 0,0.937 0.271,1.679 0.815,2.227 0.544,0.547 1.179,0.821 1.904,0.821 1.722,0 2.584,-1.019 2.584,-3.059 l -4.204,0 0,-0.057 c 0,-0.536 0.188,-0.989 0.566,-1.359 0.378,-0.37 0.892,-0.555 1.541,-0.555 0.279,0 0.544,0.032 0.793,0.096 0.249,0.064 0.431,0.13 0.544,0.198 l 0.158,0.091 0.329,-0.589 c -0.022,-0.015 -0.055,-0.04 -0.096,-0.074 -0.041,-0.034 -0.13,-0.089 -0.266,-0.164 -0.137,-0.076 -0.283,-0.144 -0.442,-0.204 -0.401,-0.159 -0.85,-0.238 -1.349,-0.238"
       style="fill:#231f20;fill-opacity:1;fill-rule:nonzero;stroke:none"
       id="path7153" /><path
       d="m 360.6731,558.5362 c -0.672,0 -1.214,-0.183 -1.626,-0.549 -0.411,-0.367 -0.617,-0.883 -0.617,-1.547 0,-0.665 0.164,-1.18 0.493,-1.547 0.328,-0.366 0.685,-0.549 1.07,-0.549 0.65,0 1.137,0.238 1.462,0.714 l 0,3.308 c -0.34,0.113 -0.6,0.17 -0.782,0.17 m 2.799,-4.135 0,-0.68 c -0.295,-0.143 -0.618,-0.215 -0.969,-0.215 -0.351,0 -0.604,0.064 -0.759,0.192 -0.155,0.129 -0.248,0.317 -0.277,0.567 -0.348,-0.499 -0.893,-0.748 -1.633,-0.748 -0.596,0 -1.147,0.204 -1.653,0.612 -0.257,0.211 -0.463,0.511 -0.618,0.901 -0.155,0.388 -0.232,0.839 -0.232,1.353 0,0.514 0.102,0.973 0.306,1.377 0.204,0.404 0.473,0.723 0.805,0.957 0.671,0.476 1.416,0.714 2.231,0.714 0.241,0 0.503,-0.053 0.782,-0.159 l 0,2.21 -0.952,0 0,0.679 c 0.295,0.144 0.636,0.216 1.025,0.216 0.39,0 0.652,-0.093 0.789,-0.278 0.134,-0.185 0.203,-0.466 0.203,-0.844 l 0,-6.854 0.952,0 z"
       style="fill:#231f20;fill-opacity:1;fill-rule:nonzero;stroke:none"
       id="path7157" /><path
       d="m 367.9875,558.168 c -0.269,0.245 -0.616,0.368 -1.042,0.368 -0.428,0 -0.78,-0.119 -1.06,-0.357 -0.28,-0.238 -0.461,-0.598 -0.544,-1.082 l 3.105,0 c -0.038,0.468 -0.19,0.825 -0.459,1.071 m -0.912,-4.651 c -0.854,0 -1.546,0.244 -2.079,0.731 -0.532,0.487 -0.799,1.199 -0.799,2.135 0,0.937 0.271,1.679 0.816,2.227 0.543,0.547 1.178,0.821 1.903,0.821 1.722,0 2.584,-1.019 2.584,-3.059 l -4.203,0 0,-0.057 c 0,-0.536 0.188,-0.989 0.566,-1.359 0.377,-0.37 0.891,-0.555 1.541,-0.555 0.279,0 0.543,0.032 0.793,0.096 0.249,0.064 0.43,0.13 0.543,0.198 l 0.159,0.091 0.329,-0.589 c -0.023,-0.015 -0.055,-0.04 -0.097,-0.074 -0.041,-0.034 -0.129,-0.089 -0.266,-0.164 -0.136,-0.076 -0.283,-0.144 -0.441,-0.204 -0.401,-0.159 -0.85,-0.238 -1.349,-0.238"
       style="fill:#231f20;fill-opacity:1;fill-rule:nonzero;stroke:none"
       id="path7161" /><path
       d="m 374.676,557.6754 -0.713,0 -0.158,0.566 c -0.197,0.189 -0.499,0.284 -0.907,0.284 -0.408,0 -0.724,-0.054 -0.947,-0.159 -0.222,-0.106 -0.334,-0.248 -0.334,-0.425 0,-0.178 0.083,-0.344 0.25,-0.498 0.166,-0.155 0.336,-0.27 0.51,-0.346 0.174,-0.076 0.483,-0.189 0.929,-0.34 0.445,-0.151 0.809,-0.351 1.093,-0.601 0.283,-0.249 0.425,-0.577 0.425,-0.985 0,-0.544 -0.199,-0.957 -0.595,-1.241 -0.397,-0.283 -0.85,-0.424 -1.36,-0.424 -0.509,0 -0.947,0.064 -1.314,0.192 -0.366,0.128 -0.629,0.257 -0.787,0.385 l -0.227,0.193 0,1.212 0.68,0 0.238,-0.702 c 0.008,-0.023 0.069,-0.061 0.182,-0.113 0.354,-0.182 0.709,-0.272 1.064,-0.272 0.356,0 0.627,0.054 0.817,0.164 0.187,0.109 0.283,0.264 0.283,0.464 0,0.2 -0.107,0.391 -0.318,0.572 -0.211,0.182 -0.565,0.346 -1.059,0.493 -0.495,0.147 -0.91,0.363 -1.246,0.646 -0.336,0.283 -0.504,0.614 -0.504,0.992 0,0.566 0.197,0.991 0.594,1.274 0.396,0.283 0.908,0.425 1.535,0.425 0.31,0 0.619,-0.038 0.93,-0.113 0.309,-0.076 0.543,-0.152 0.702,-0.227 l 0.237,-0.113 0,-1.303 z"
       style="fill:#231f20;fill-opacity:1;fill-rule:nonzero;stroke:none"
       id="path7165" /><path
       d="m 385.3948,554.4009 0,-0.68 c -0.295,-0.143 -0.627,-0.215 -0.997,-0.215 -0.37,0 -0.628,0.078 -0.771,0.232 -0.143,0.155 -0.226,0.383 -0.25,0.685 -0.097,-0.113 -0.211,-0.226 -0.339,-0.339 -0.128,-0.114 -0.342,-0.238 -0.64,-0.374 -0.298,-0.136 -0.61,-0.204 -0.935,-0.204 -0.589,0 -1.031,0.164 -1.326,0.493 -0.294,0.328 -0.441,0.776 -0.441,1.342 l 0,3.195 -0.951,0 0,0.68 c 0.295,0.143 0.635,0.215 1.025,0.215 0.389,0 0.65,-0.093 0.787,-0.277 0.136,-0.186 0.203,-0.467 0.203,-0.844 l 0,-2.572 c 0,-0.446 0.074,-0.778 0.222,-0.997 0.147,-0.219 0.413,-0.329 0.799,-0.329 0.385,0 0.714,0.074 0.985,0.221 0.272,0.147 0.477,0.3 0.611,0.459 l 0,3.444 -0.951,0 0,0.68 c 0.295,0.143 0.637,0.215 1.026,0.215 0.388,0 0.651,-0.093 0.787,-0.277 0.136,-0.186 0.204,-0.467 0.204,-0.844 l 0,-3.909 0.952,0 z"
       style="fill:#231f20;fill-opacity:1;fill-rule:nonzero;stroke:none"
       id="path7169" /><path
       d="m 387.9065,554.7862 c 0.195,-0.234 0.494,-0.352 0.895,-0.352 0.4,0 0.728,0.061 0.986,0.182 l 0.226,-0.566 c -0.031,-0.038 -0.074,-0.087 -0.13,-0.148 -0.057,-0.06 -0.199,-0.141 -0.425,-0.243 -0.227,-0.102 -0.476,-0.153 -0.747,-0.153 -0.688,0 -1.221,0.194 -1.598,0.583 -0.379,0.389 -0.566,0.957 -0.566,1.705 l 0,2.606 -0.602,0 0,0.668 1.088,1.088 0.578,0 0,-0.861 1.903,0 0,-0.895 -1.903,0 0,-2.289 c 0,-0.649 0.098,-1.091 0.295,-1.325"
       style="fill:#231f20;fill-opacity:1;fill-rule:nonzero;stroke:none"
       id="path7173" /><path
       d="m 392.926,560.7339 c -0.174,-0.174 -0.385,-0.26 -0.635,-0.26 -0.249,0 -0.461,0.086 -0.635,0.26 -0.173,0.174 -0.259,0.385 -0.259,0.635 0,0.249 0.086,0.46 0.259,0.634 0.174,0.174 0.386,0.261 0.635,0.261 0.25,0 0.461,-0.087 0.635,-0.261 0.174,-0.174 0.26,-0.385 0.26,-0.634 0,-0.25 -0.086,-0.461 -0.26,-0.635 m 0.918,-7.104 -2.981,0 0,0.488 0.953,0.373 0,4.045 -0.953,0 0,0.68 c 0.295,0.143 0.637,0.215 1.026,0.215 0.389,0 0.652,-0.093 0.787,-0.277 0.137,-0.186 0.205,-0.467 0.205,-0.844 l 0,-3.819 0.963,-0.373 0,-0.488 z"
       style="fill:#231f20;fill-opacity:1;fill-rule:nonzero;stroke:none"
       id="path7177" /><path
       d="m 397.6917,553.6304 -2.98,0 0,0.487 0.952,0.374 0,6.991 -0.952,0 0,0.679 c 0.294,0.144 0.636,0.216 1.025,0.216 0.389,0 0.652,-0.093 0.787,-0.278 0.137,-0.185 0.205,-0.467 0.205,-0.844 l 0,-6.764 0.963,-0.374 0,-0.487 z"
       style="fill:#231f20;fill-opacity:1;fill-rule:nonzero;stroke:none"
       id="path7181" /><path
       d="m 400.7131,560.7339 c -0.174,-0.174 -0.386,-0.26 -0.635,-0.26 -0.25,0 -0.461,0.086 -0.635,0.26 -0.173,0.174 -0.26,0.385 -0.26,0.635 0,0.249 0.087,0.46 0.26,0.634 0.174,0.174 0.385,0.261 0.635,0.261 0.249,0 0.461,-0.087 0.635,-0.261 0.173,-0.174 0.26,-0.385 0.26,-0.634 0,-0.25 -0.087,-0.461 -0.26,-0.635 m 0.917,-7.104 -2.98,0 0,0.488 0.952,0.373 0,4.045 -0.952,0 0,0.68 c 0.295,0.143 0.637,0.215 1.026,0.215 0.389,0 0.651,-0.093 0.787,-0.277 0.137,-0.186 0.204,-0.467 0.204,-0.844 l 0,-3.819 0.963,-0.373 0,-0.488 z"
       style="fill:#231f20;fill-opacity:1;fill-rule:nonzero;stroke:none"
       id="path7185" /><path
       d="m 406.7542,557.6754 -0.714,0 -0.158,0.566 c -0.196,0.189 -0.499,0.284 -0.907,0.284 -0.408,0 -0.723,-0.054 -0.946,-0.159 -0.222,-0.106 -0.334,-0.248 -0.334,-0.425 0,-0.178 0.082,-0.344 0.249,-0.498 0.166,-0.155 0.336,-0.27 0.51,-0.346 0.174,-0.076 0.484,-0.189 0.929,-0.34 0.445,-0.151 0.81,-0.351 1.094,-0.601 0.283,-0.249 0.424,-0.577 0.424,-0.985 0,-0.544 -0.198,-0.957 -0.594,-1.241 -0.397,-0.283 -0.85,-0.424 -1.36,-0.424 -0.509,0 -0.948,0.064 -1.314,0.192 -0.367,0.128 -0.629,0.257 -0.787,0.385 l -0.227,0.193 0,1.212 0.68,0 0.238,-0.702 c 0.007,-0.023 0.068,-0.061 0.181,-0.113 0.354,-0.182 0.71,-0.272 1.065,-0.272 0.355,0 0.627,0.054 0.816,0.164 0.188,0.109 0.283,0.264 0.283,0.464 0,0.2 -0.107,0.391 -0.317,0.572 -0.211,0.182 -0.565,0.346 -1.06,0.493 -0.495,0.147 -0.91,0.363 -1.246,0.646 -0.336,0.283 -0.504,0.614 -0.504,0.992 0,0.566 0.198,0.991 0.595,1.274 0.396,0.283 0.908,0.425 1.535,0.425 0.309,0 0.619,-0.038 0.929,-0.113 0.309,-0.076 0.544,-0.152 0.702,-0.227 l 0.238,-0.113 0,-1.303 z"
       style="fill:#231f20;fill-opacity:1;fill-rule:nonzero;stroke:none"
       id="path7189" /><path
       d="m 409.3069,555.6924 c -0.17,-0.136 -0.255,-0.319 -0.255,-0.549 0,-0.231 0.093,-0.412 0.278,-0.544 0.185,-0.133 0.444,-0.199 0.776,-0.199 0.627,0 1.14,0.17 1.541,0.51 l 0,1.224 -1.654,-0.181 c -0.288,-0.038 -0.516,-0.125 -0.686,-0.261 m 4.356,-1.292 0,-0.679 c -0.294,-0.144 -0.619,-0.216 -0.973,-0.216 -0.356,0 -0.612,0.068 -0.766,0.204 -0.154,0.136 -0.243,0.333 -0.265,0.589 -0.416,-0.528 -0.962,-0.793 -1.638,-0.793 -0.676,0 -1.188,0.136 -1.535,0.408 -0.347,0.272 -0.521,0.654 -0.521,1.145 0,0.944 0.656,1.488 1.971,1.631 l 1.711,0.181 0,0.329 c 0,0.438 -0.091,0.77 -0.272,0.997 -0.181,0.226 -0.468,0.34 -0.861,0.34 -0.725,0 -1.314,-0.079 -1.768,-0.238 l -0.226,-0.08 -0.204,0.725 c 0.212,0.122 0.532,0.233 0.963,0.335 0.43,0.102 0.831,0.153 1.201,0.153 0.807,0 1.382,-0.161 1.722,-0.482 0.339,-0.321 0.509,-0.772 0.509,-1.354 l 0,-3.195 0.952,0 z"
       style="fill:#231f20;fill-opacity:1;fill-rule:nonzero;stroke:none"
       id="path7193" /><path
       d="m 416.0999,554.7862 c 0.197,-0.234 0.495,-0.352 0.896,-0.352 0.4,0 0.729,0.061 0.985,0.182 l 0.226,-0.566 c -0.029,-0.038 -0.073,-0.087 -0.129,-0.148 -0.057,-0.06 -0.199,-0.141 -0.425,-0.243 -0.227,-0.102 -0.476,-0.153 -0.748,-0.153 -0.688,0 -1.22,0.194 -1.598,0.583 -0.377,0.389 -0.566,0.957 -0.566,1.705 l 0,2.606 -0.6,0 0,0.668 1.088,1.088 0.577,0 0,-0.861 1.903,0 0,-0.895 -1.903,0 0,-2.289 c 0,-0.649 0.099,-1.091 0.294,-1.325"
       style="fill:#231f20;fill-opacity:1;fill-rule:nonzero;stroke:none"
       id="path7197" /><path
       d="m 422.5862,558.168 c -0.268,0.245 -0.615,0.368 -1.043,0.368 -0.426,0 -0.779,-0.119 -1.059,-0.357 -0.279,-0.238 -0.461,-0.598 -0.544,-1.082 l 3.105,0 c -0.038,0.468 -0.191,0.825 -0.459,1.071 m -0.912,-4.651 c -0.854,0 -1.547,0.244 -2.079,0.731 -0.532,0.487 -0.798,1.199 -0.798,2.135 0,0.937 0.271,1.679 0.814,2.227 0.545,0.547 1.179,0.821 1.905,0.821 1.721,0 2.583,-1.019 2.583,-3.059 l -4.204,0 0,-0.057 c 0,-0.536 0.189,-0.989 0.566,-1.359 0.379,-0.37 0.892,-0.555 1.541,-0.555 0.279,0 0.545,0.032 0.793,0.096 0.25,0.064 0.432,0.13 0.545,0.198 l 0.158,0.091 0.328,-0.589 c -0.022,-0.015 -0.054,-0.04 -0.095,-0.074 -0.042,-0.034 -0.131,-0.089 -0.267,-0.164 -0.136,-0.076 -0.283,-0.144 -0.442,-0.204 -0.401,-0.159 -0.85,-0.238 -1.348,-0.238"
       style="fill:#231f20;fill-opacity:1;fill-rule:nonzero;stroke:none"
       id="path7201" /><path
       d="m 431.428,554.4009 0,-0.68 c -0.295,-0.143 -0.627,-0.215 -0.997,-0.215 -0.37,0 -0.628,0.078 -0.771,0.232 -0.143,0.155 -0.226,0.383 -0.25,0.685 -0.097,-0.113 -0.211,-0.226 -0.339,-0.339 -0.128,-0.114 -0.342,-0.238 -0.64,-0.374 -0.298,-0.136 -0.61,-0.204 -0.935,-0.204 -0.589,0 -1.031,0.164 -1.326,0.493 -0.294,0.328 -0.441,0.776 -0.441,1.342 l 0,3.195 -0.951,0 0,0.68 c 0.295,0.143 0.635,0.215 1.025,0.215 0.389,0 0.65,-0.093 0.787,-0.277 0.136,-0.186 0.203,-0.467 0.203,-0.844 l 0,-2.572 c 0,-0.446 0.074,-0.778 0.222,-0.997 0.147,-0.219 0.413,-0.329 0.799,-0.329 0.385,0 0.714,0.074 0.985,0.221 0.272,0.147 0.477,0.3 0.611,0.459 l 0,3.444 -0.951,0 0,0.68 c 0.295,0.143 0.637,0.215 1.026,0.215 0.388,0 0.651,-0.093 0.787,-0.277 0.136,-0.186 0.204,-0.467 0.204,-0.844 l 0,-3.909 0.952,0 z"
       style="fill:#231f20;fill-opacity:1;fill-rule:nonzero;stroke:none"
       id="path7205" /><path
       d="m 435.3557,553.6304 -2.98,0 0,0.487 0.952,0.374 0,4.045 -0.952,0 0,0.679 c 0.294,0.144 0.626,0.216 0.998,0.216 0.369,0 0.627,-0.079 0.769,-0.238 0.145,-0.159 0.223,-0.393 0.238,-0.703 0.077,0.227 0.231,0.431 0.465,0.612 0.28,0.219 0.65,0.329 1.111,0.329 0.204,0 0.397,-0.027 0.583,-0.079 0.185,-0.054 0.319,-0.106 0.402,-0.159 l 0.137,-0.08 0,-1.337 -0.681,0 -0.147,0.681 c -0.045,0.045 -0.17,0.068 -0.374,0.068 -0.205,0 -0.4,-0.029 -0.589,-0.085 -0.189,-0.057 -0.336,-0.127 -0.442,-0.21 -0.212,-0.182 -0.363,-0.367 -0.453,-0.555 l 0,-3.184 0.963,-0.374 0,-0.487 z"
       style="fill:#231f20;fill-opacity:1;fill-rule:nonzero;stroke:none"
       id="path7209" /><path
       d="m 442.1057,557.6754 -0.714,0 -0.158,0.566 c -0.196,0.189 -0.499,0.284 -0.907,0.284 -0.408,0 -0.723,-0.054 -0.946,-0.159 -0.222,-0.106 -0.334,-0.248 -0.334,-0.425 0,-0.178 0.082,-0.344 0.249,-0.498 0.166,-0.155 0.336,-0.27 0.51,-0.346 0.174,-0.076 0.484,-0.189 0.929,-0.34 0.445,-0.151 0.81,-0.351 1.094,-0.601 0.283,-0.249 0.424,-0.577 0.424,-0.985 0,-0.544 -0.198,-0.957 -0.594,-1.241 -0.397,-0.283 -0.85,-0.424 -1.36,-0.424 -0.509,0 -0.948,0.064 -1.314,0.192 -0.367,0.128 -0.629,0.257 -0.787,0.385 l -0.227,0.193 0,1.212 0.68,0 0.238,-0.702 c 0.007,-0.023 0.068,-0.061 0.181,-0.113 0.354,-0.182 0.71,-0.272 1.065,-0.272 0.355,0 0.627,0.054 0.816,0.164 0.188,0.109 0.283,0.264 0.283,0.464 0,0.2 -0.107,0.391 -0.317,0.572 -0.211,0.182 -0.565,0.346 -1.06,0.493 -0.495,0.147 -0.91,0.363 -1.246,0.646 -0.336,0.283 -0.504,0.614 -0.504,0.992 0,0.566 0.198,0.991 0.595,1.274 0.396,0.283 0.908,0.425 1.535,0.425 0.309,0 0.619,-0.038 0.929,-0.113 0.309,-0.076 0.544,-0.152 0.702,-0.227 l 0.238,-0.113 0,-1.303 z"
       style="fill:#231f20;fill-opacity:1;fill-rule:nonzero;stroke:none"
       id="path7213" /><path
       d="m 449.8098,558.5362 c -0.672,0 -1.214,-0.183 -1.626,-0.549 -0.411,-0.367 -0.617,-0.883 -0.617,-1.547 0,-0.665 0.164,-1.18 0.493,-1.547 0.328,-0.366 0.685,-0.549 1.07,-0.549 0.65,0 1.137,0.238 1.462,0.714 l 0,3.308 c -0.34,0.113 -0.6,0.17 -0.782,0.17 m 2.799,-4.135 0,-0.68 c -0.295,-0.143 -0.618,-0.215 -0.969,-0.215 -0.351,0 -0.604,0.064 -0.759,0.192 -0.155,0.129 -0.248,0.317 -0.277,0.567 -0.348,-0.499 -0.893,-0.748 -1.633,-0.748 -0.596,0 -1.147,0.204 -1.653,0.612 -0.257,0.211 -0.463,0.511 -0.618,0.901 -0.155,0.388 -0.232,0.839 -0.232,1.353 0,0.514 0.102,0.973 0.306,1.377 0.204,0.404 0.473,0.723 0.805,0.957 0.671,0.476 1.416,0.714 2.231,0.714 0.241,0 0.503,-0.053 0.782,-0.159 l 0,2.21 -0.952,0 0,0.679 c 0.295,0.144 0.636,0.216 1.025,0.216 0.39,0 0.652,-0.093 0.789,-0.278 0.134,-0.185 0.203,-0.466 0.203,-0.844 l 0,-6.854 0.952,0 z"
       style="fill:#231f20;fill-opacity:1;fill-rule:nonzero;stroke:none"
       id="path7217" /><path
       d="m 457.1243,558.168 c -0.269,0.245 -0.616,0.368 -1.042,0.368 -0.428,0 -0.78,-0.119 -1.06,-0.357 -0.28,-0.238 -0.461,-0.598 -0.544,-1.082 l 3.105,0 c -0.038,0.468 -0.19,0.825 -0.459,1.071 m -0.912,-4.651 c -0.854,0 -1.546,0.244 -2.079,0.731 -0.532,0.487 -0.799,1.199 -0.799,2.135 0,0.937 0.271,1.679 0.816,2.227 0.543,0.547 1.178,0.821 1.903,0.821 1.722,0 2.584,-1.019 2.584,-3.059 l -4.203,0 0,-0.057 c 0,-0.536 0.188,-0.989 0.566,-1.359 0.377,-0.37 0.891,-0.555 1.541,-0.555 0.279,0 0.543,0.032 0.793,0.096 0.249,0.064 0.43,0.13 0.543,0.198 l 0.159,0.091 0.329,-0.589 c -0.023,-0.015 -0.055,-0.04 -0.097,-0.074 -0.041,-0.034 -0.129,-0.089 -0.266,-0.164 -0.136,-0.076 -0.283,-0.144 -0.441,-0.204 -0.401,-0.159 -0.85,-0.238 -1.349,-0.238"
       style="fill:#231f20;fill-opacity:1;fill-rule:nonzero;stroke:none"
       id="path7221" /><path
       d="m 464.97,557.2335 0.815,0 c 0.59,0 1.082,0.147 1.479,0.442 0.396,0.294 0.595,0.744 0.595,1.348 0,1.17 -0.691,1.756 -2.074,1.756 l -0.815,0 0,-3.546 z m 1.02,-3.603 -3.207,0 0,0.499 1.032,0.374 0,6.253 -1.032,0.374 0,0.499 3.536,0 c 0.694,0 1.309,-0.229 1.845,-0.686 0.537,-0.457 0.805,-1.099 0.805,-1.926 0,-0.827 -0.253,-1.469 -0.759,-1.926 -0.507,-0.457 -1.137,-0.685 -1.891,-0.685 l -1.361,0 0,-1.903 1.032,-0.374 0,-0.499 z"
       style="fill:#231f20;fill-opacity:1;fill-rule:nonzero;stroke:none"
       id="path7225" /><path
       d="m 477.9846,553.6304 -3.205,0 0,0.499 1.03,0.374 0,2.82 -3.897,0 0,-2.82 1.031,-0.374 0,-0.499 -3.207,0 0,0.499 1.031,0.374 0,6.253 -1.031,0.374 0,0.499 3.207,0 0,-0.499 -1.031,-0.374 0,-2.56 3.897,0 0,2.56 -1.03,0.374 0,0.499 3.205,0 0,-0.499 -1.03,-0.374 0,-6.253 1.03,-0.374 0,-0.499 z"
       style="fill:#231f20;fill-opacity:1;fill-rule:nonzero;stroke:none"
       id="path7229" /><path
       d="m 481.3948,557.2335 0.816,0 c 0.589,0 1.082,0.147 1.479,0.442 0.396,0.294 0.594,0.744 0.594,1.348 0,1.17 -0.691,1.756 -2.073,1.756 l -0.816,0 0,-3.546 z m 1.02,-3.603 -3.207,0 0,0.499 1.032,0.374 0,6.253 -1.032,0.374 0,0.499 3.536,0 c 0.694,0 1.309,-0.229 1.846,-0.686 0.536,-0.457 0.805,-1.099 0.805,-1.926 0,-0.827 -0.254,-1.469 -0.76,-1.926 -0.506,-0.457 -1.136,-0.685 -1.891,-0.685 l -1.361,0 0,-1.903 1.032,-0.374 0,-0.499 z"
       style="fill:#231f20;fill-opacity:1;fill-rule:nonzero;stroke:none"
       id="path7233" /><path
       d="m 247.364,552.3204 8.217,-4.744 0,12.452 -10.134,-5.851 c 0.476,-0.766 1.136,-1.406 1.917,-1.857"
       style="fill:#231f20;fill-opacity:1;fill-rule:nonzero;stroke:none"
       id="path7237" /><path
       d="m 255.4089,560.3267 -10.784,6.226 0,-9.488 c 0,-0.903 0.225,-1.794 0.65,-2.589 l 10.134,5.851 z"
       style="fill:#231f20;fill-opacity:1;fill-rule:nonzero;stroke:none"
       id="path7241" /><path
       d="m 255.581,560.6247 0,12.452 -9.945,-5.741 -0.839,-0.485 10.784,-6.226 z"
       style="fill:#231f20;fill-opacity:1;fill-rule:nonzero;stroke:none"
       id="path7245" /><path
       d="m 266.8811,553.5045 -10.784,-6.226 8.217,-4.744 c 0.782,-0.452 1.666,-0.703 2.567,-0.731 l 0,11.701 z"
       style="fill:#231f20;fill-opacity:1;fill-rule:nonzero;stroke:none"
       id="path7249" /><path
       d="m 245.2753,579.2254 c -0.426,-0.794 -0.65,-1.686 -0.65,-2.589 l 0,-9.488 10.784,6.226 -10.134,5.851 z"
       style="fill:#231f20;fill-opacity:1;fill-rule:nonzero;stroke:none"
       id="path7253" /><path
       d="m 267.3974,553.8026 7.842,-4.528 2.942,-1.698 0,12.452 -10.784,-6.226 z"
       style="fill:#231f20;fill-opacity:1;fill-rule:nonzero;stroke:none"
       id="path7257" /><path
       d="m 288.8309,554.4761 c 0.426,0.794 0.65,1.686 0.65,2.589 l 0,9.488 -10.783,-6.226 10.133,-5.851 z"
       style="fill:#231f20;fill-opacity:1;fill-rule:nonzero;stroke:none"
       id="path7261" /><path
       d="m 288.6588,554.178 -10.133,5.851 0,-12.453 8.217,4.744 c 0.781,0.452 1.441,1.092 1.916,1.858"
       style="fill:#231f20;fill-opacity:1;fill-rule:nonzero;stroke:none"
       id="path7265" /><path
       d="m 278.5254,560.6247 10.784,6.226 -0.839,0.485 -9.945,5.741 0,-12.452 z"
       style="fill:#231f20;fill-opacity:1;fill-rule:nonzero;stroke:none"
       id="path7269" /><path
       d="m 267.2253,553.5045 0,-11.701 c 0.901,0.028 1.785,0.279 2.567,0.731 l 8.217,4.744 -10.784,6.226 z"
       style="fill:#231f20;fill-opacity:1;fill-rule:nonzero;stroke:none"
       id="path7273" /><path
       d="m 266.709,579.8989 -7.842,4.528 -2.942,1.698 0,-12.452 10.784,6.226 z"
       style="fill:#231f20;fill-opacity:1;fill-rule:nonzero;stroke:none"
       id="path7277" /><path
       d="m 269.8781,542.3854 0,0 0,0 z"
       style="fill:#231f20;fill-opacity:1;fill-rule:nonzero;stroke:none"
       id="path7281" /><path
       d="m 278.3531,547.2785 0,0 z"
       style="fill:#231f20;fill-opacity:1;fill-rule:nonzero;stroke:none"
       id="path7285" /><path
       d="m 267.3974,579.8989 10.784,-6.226 0,12.452 -2.942,-1.698 -7.842,-4.528 z"
       style="fill:#231f20;fill-opacity:1;fill-rule:nonzero;stroke:none"
       id="path7289" /><path
       d="m 245.4474,579.5234 10.134,-5.851 0,12.453 -8.217,-4.744 c -0.782,-0.452 -1.442,-1.092 -1.917,-1.858"
       style="fill:#231f20;fill-opacity:1;fill-rule:nonzero;stroke:none"
       id="path7293" /><path
       d="m 278.6974,573.3748 10.784,-6.226 0,9.488 c 0,0.903 -0.225,1.794 -0.651,2.589 l -10.133,-5.851 z"
       style="fill:#231f20;fill-opacity:1;fill-rule:nonzero;stroke:none"
       id="path7297" /><path
       d="m 286.7423,581.381 -8.217,4.744 0,-12.452 10.133,5.85 c -0.475,0.767 -1.134,1.406 -1.916,1.858"
       style="fill:#231f20;fill-opacity:1;fill-rule:nonzero;stroke:none"
       id="path7301" /><path
       d="m 266.8811,563.5887 c 0,0.903 -0.224,1.794 -0.65,2.589 l -10.134,-5.851 10.784,-6.226 0,9.488 z"
       style="fill:#231f20;fill-opacity:1;fill-rule:nonzero;stroke:none"
       id="path7305" /><path
       d="m 266.0589,566.4753 c -0.475,0.766 -1.135,1.406 -1.917,1.857 l -8.217,4.744 0,-12.452 10.134,5.851 z"
       style="fill:#231f20;fill-opacity:1;fill-rule:nonzero;stroke:none"
       id="path7309" /><path
       d="m 267.2253,580.1969 10.784,6.226 -8.218,4.745 c -0.781,0.451 -1.665,0.702 -2.566,0.73 l 0,-11.701 z"
       style="fill:#231f20;fill-opacity:1;fill-rule:nonzero;stroke:none"
       id="path7313" /><path
       d="m 256.0974,586.423 10.784,-6.226 0,11.701 c -0.901,-0.028 -1.785,-0.28 -2.567,-0.731 l -8.217,-4.744 z"
       style="fill:#231f20;fill-opacity:1;fill-rule:nonzero;stroke:none"
       id="path7317" /><path
       d="m 266.709,553.8026 -10.784,6.226 0,-12.452 10.784,6.226 z"
       style="fill:#231f20;fill-opacity:1;fill-rule:nonzero;stroke:none"
       id="path7321" /></g></svg>