<?xml version="1.0" encoding="UTF-8" standalone="no"?>
<svg
   xmlns:dc="http://purl.org/dc/elements/1.1/"
   xmlns:cc="http://creativecommons.org/ns#"
   xmlns:rdf="http://www.w3.org/1999/02/22-rdf-syntax-ns#"
   xmlns:svg="http://www.w3.org/2000/svg"
   xmlns="http://www.w3.org/2000/svg"
   viewBox="0 0 265.56863 89.734997"
   height="89.735001"
   width="265.56863"
   xml:space="preserve"
   version="1.1"
   id="svg5608"><metadata
     id="metadata5614"><rdf:RDF><cc:Work
         rdf:about=""><dc:format>image/svg+xml</dc:format><dc:type
           rdf:resource="http://purl.org/dc/dcmitype/StillImage" /><dc:title></dc:title></cc:Work></rdf:RDF></metadata><defs
     id="defs5612"><clipPath
       id="clipPath5622"
       clipPathUnits="userSpaceOnUse"><path
         id="path5624"
         d="m 0,870.236 623.626,0 L 623.626,0 0,0 0,870.236 Z" /></clipPath><clipPath
       id="clipPath5634"
       clipPathUnits="userSpaceOnUse"><path
         id="path5636"
         d="m 0,870.236 623.626,0 L 623.626,0 0,0 0,870.236 Z" /></clipPath><clipPath
       id="clipPath5646"
       clipPathUnits="userSpaceOnUse"><path
         id="path5648"
         d="m 0,870.236 623.626,0 L 623.626,0 0,0 0,870.236 Z" /></clipPath></defs><g
     transform="matrix(1.25,0,0,-1.25,-258.5085,445.5195)"
     id="g5616"><path
       d="m 214.2268,313.2839 c -0.939,-0.751 -1.409,-1.764 -1.409,-3.037 0,-1.274 0.511,-2.275 1.534,-3.005 1.022,-0.731 2.452,-1.096 4.29,-1.096 3.465,0 6.303,0.939 8.516,2.818 l 0,6.762 -9.142,-1.002 c -1.588,-0.209 -2.85,-0.689 -3.789,-1.44 m 24.077,-7.138 0,-3.758 c -1.628,-0.792 -3.424,-1.189 -5.385,-1.189 -1.963,0 -3.372,0.376 -4.227,1.127 -0.856,0.751 -1.346,1.836 -1.472,3.256 -2.296,-2.923 -5.312,-4.383 -9.048,-4.383 -3.736,0 -6.565,0.751 -8.485,2.254 -1.92,1.503 -2.88,3.61 -2.88,6.325 0,5.217 3.632,8.223 10.896,9.017 l 9.455,1.002 0,1.816 c 0,2.42 -0.501,4.257 -1.503,5.51 -1.001,1.252 -2.589,1.879 -4.759,1.879 -4.008,0 -7.264,-0.439 -9.769,-1.316 l -1.252,-0.438 -1.127,4.008 c 1.168,0.667 2.943,1.283 5.323,1.847 2.38,0.564 4.592,0.846 6.637,0.846 4.467,0 7.64,-0.888 9.518,-2.662 1.879,-1.774 2.818,-4.269 2.818,-7.483 l 0,-17.658 5.26,0 z"
       style="fill:#231f20;fill-opacity:1;fill-rule:nonzero;stroke:none"
       id="path5852" /><path
       d="m 258.7551,301.8874 -16.594,0 0,2.692 5.26,2.067 0,21.478 -4.884,0 0,3.758 4.884,2.004 0,3.756 c 0,4.133 1.054,7.274 3.162,9.425 2.108,2.149 5.082,3.224 8.924,3.224 1.503,0 2.89,-0.218 4.164,-0.657 1.272,-0.438 2.16,-0.888 2.661,-1.346 l 0.815,-0.689 -1.692,-3.256 c -1.169,0.667 -2.911,1.002 -5.228,1.002 -2.317,0 -4.03,-0.679 -5.135,-2.036 -1.107,-1.357 -1.659,-3.83 -1.659,-7.42 l 0,-2.692 10.081,0 0,-5.073 -10.081,0 0,-21.478 5.322,-2.067 0,-2.692 z"
       style="fill:#231f20;fill-opacity:1;fill-rule:nonzero;stroke:none"
       id="path5856" /><path
       d="m 303.6086,306.1457 0,-3.757 c -1.628,-0.793 -3.466,-1.19 -5.511,-1.19 -2.046,0 -3.465,0.428 -4.258,1.283 -0.793,0.856 -1.252,2.119 -1.377,3.789 -0.543,-0.626 -1.169,-1.252 -1.878,-1.878 -0.711,-0.627 -1.89,-1.315 -3.538,-2.067 -1.65,-0.751 -3.373,-1.127 -5.167,-1.127 -3.256,0 -5.698,0.908 -7.326,2.724 -1.629,1.816 -2.442,4.289 -2.442,7.42 l 0,17.659 -5.26,0 0,3.757 c 1.628,0.792 3.516,1.19 5.667,1.19 2.15,0 3.601,-0.512 4.352,-1.534 0.752,-1.024 1.127,-2.579 1.127,-4.665 l 0,-14.215 c 0,-2.464 0.407,-4.3 1.221,-5.511 0.814,-1.211 2.286,-1.816 4.414,-1.816 2.129,0 3.946,0.407 5.449,1.222 1.503,0.814 2.63,1.659 3.381,2.535 l 0,19.037 -5.26,0 0,3.757 c 1.628,0.792 3.516,1.19 5.667,1.19 2.149,0 3.6,-0.512 4.352,-1.534 0.751,-1.024 1.127,-2.579 1.127,-4.665 l 0,-21.604 5.26,0 z"
       style="fill:#231f20;fill-opacity:1;fill-rule:nonzero;stroke:none"
       id="path5860" /><path
       d="m 321.718,306.2082 c 3.382,0 6.021,1.002 7.921,3.006 1.899,2.003 2.85,4.8 2.85,8.39 0,3.59 -0.919,6.397 -2.755,8.423 -1.838,2.024 -3.8,3.037 -5.887,3.037 -3.632,0 -6.346,-1.149 -8.141,-3.444 l 0,-18.285 c 2.338,-0.752 4.342,-1.127 6.012,-1.127 m -0.752,-21.291 -16.469,0 0,2.693 5.324,2.066 0,39.576 -5.26,0 0,3.444 c 1.628,0.792 3.412,1.19 5.353,1.19 1.942,0 3.328,-0.356 4.164,-1.065 0.835,-0.71 1.336,-1.753 1.503,-3.131 2.045,2.838 5.093,4.258 9.143,4.258 3.297,0 6.345,-1.127 9.142,-3.381 1.418,-1.17 2.557,-2.829 3.413,-4.979 0.855,-2.15 1.284,-4.644 1.284,-7.483 0,-2.839 -0.481,-5.375 -1.441,-7.607 -0.961,-2.234 -2.254,-3.998 -3.883,-5.292 -3.297,-2.63 -7.138,-3.945 -11.521,-3.945 -1.753,0 -3.757,0.293 -6.012,0.877 l 0,-12.462 5.26,-2.066 0,-2.693 z"
       style="fill:#231f20;fill-opacity:1;fill-rule:nonzero;stroke:none"
       id="path5864" /><path
       d="m 391.0667,285.9406 0,0 0,0 z m 27.708,20.749 c 0,-1.277 -0.317,-2.536 -0.919,-3.659 l -14.323,8.269 15.242,8.801 0,-13.411 z m -15.485,-13.412 0,17.601 14.323,-8.27 c -0.671,-1.082 -1.604,-1.987 -2.709,-2.625 l -11.614,-6.706 z m -0.244,-0.421 0,0 0,0 z m -15.729,-7.739 0,16.539 15.243,-8.8 -11.614,-6.705 c -1.106,-0.639 -2.355,-0.994 -3.629,-1.034 m -15.729,7.739 15.243,8.8 0,-16.539 c -1.274,0.04 -2.523,0.395 -3.629,1.034 l -11.614,6.705 z m -0.73,18.022 0,-17.601 -11.614,6.706 c -1.105,0.638 -2.037,1.542 -2.709,2.625 l 14.323,8.27 z m -15.485,9.222 15.242,-8.801 -14.323,-8.269 c -0.602,1.122 -0.919,2.382 -0.919,3.659 l 0,13.411 z m 0,14.253 c 0,1.277 0.317,2.537 0.919,3.659 l 14.323,-8.27 -15.242,-8.8 0,13.411 z m 15.485,13.412 0,-17.601 -14.323,8.269 c 0.671,1.084 1.604,1.988 2.709,2.626 l 11.614,6.706 z m 12.345,7.127 c 1.105,0.638 2.355,0.993 3.628,1.033 l 0,-16.54 -15.243,8.801 11.615,6.706 z m 19.357,-6.706 -15.243,-8.801 0,16.54 c 1.273,-0.04 2.523,-0.395 3.628,-1.033 l 11.615,-6.706 z m 0.73,-18.022 0,17.601 11.614,-6.706 c 1.105,-0.638 2.038,-1.543 2.709,-2.626 l -14.323,-8.269 z m 15.485,-9.222 -15.242,8.8 14.323,8.27 c 0.602,-1.123 0.919,-2.383 0.919,-3.659 l 0,-13.411 z m -20.13,-25.264 -11.084,6.4 15.242,8.8 0,-17.601 -4.158,2.401 z m -27.3,15.2 15.242,-8.8 -15.242,-8.801 0,17.601 z m 4.158,34.486 11.084,-6.4 -15.242,-8.8 0,17.6 4.158,-2.4 z m 27.3,-15.2 -15.242,8.8 11.084,6.4 4.158,2.4 0,-17.6 z m -16.588,-10.139 0,0 c -0.722,1.249 -1.763,2.291 -3.013,3.012 l -11.614,6.705 15.486,8.942 15.729,-9.082 0,-18.162 -15.486,-8.941 0,13.411 c 0,1.442 -0.381,2.865 -1.102,4.115 m -14.87,9.296 11.614,-6.706 c 1.105,-0.637 2.038,-1.542 2.71,-2.625 l -14.324,-8.269 0,17.6 z m 14.567,-9.752 c 0.602,-1.123 0.919,-2.383 0.919,-3.659 l 0,-13.411 -15.243,8.8 14.324,8.27 z m -29.11,1.637 14.056,8.115 0,-17.6 -15.242,8.8 1.186,0.685 z m 61.73,-0.685 -15.242,-8.8 0,17.6 14.056,-8.115 1.186,-0.685 z m -0.373,17.947 0,0 c -0.721,1.249 -1.762,2.291 -3.012,3.012 l -11.979,6.916 0,0 0,0.001 -6.492,3.748 -5.488,3.168 c -1.249,0.721 -2.672,1.102 -4.114,1.102 -1.442,0 -2.865,-0.381 -4.114,-1.102 l -11.98,-6.916 0,-0.001 0,0 -11.979,-6.916 c -1.249,-0.721 -2.291,-1.762 -3.012,-3.012 l 0,0 c -0.722,-1.249 -1.103,-2.672 -1.103,-4.115 l 0,-13.832 0,-13.832 c 0,-1.443 0.381,-2.866 1.103,-4.115 l 0,0 c 0.721,-1.25 1.763,-2.292 3.012,-3.012 l 11.979,-6.916 0,0 0,-10e-4 11.979,-6.916 c 1.25,-0.721 2.673,-1.102 4.115,-1.102 1.442,0 2.865,0.381 4.115,1.102 l 11.979,6.916 0,10e-4 0,0 11.979,6.916 c 1.25,0.721 2.291,1.763 3.012,3.012 l 0,0 c 0.722,1.25 1.103,2.672 1.103,4.115 l 0,13.832 0,13.832 c 0,1.443 -0.381,2.865 -1.103,4.115"
       style="fill:#231f20;fill-opacity:1;fill-rule:nonzero;stroke:none"
       id="path5868" /></g></svg>