<?xml version="1.0" encoding="UTF-8" standalone="no"?>
<svg
   xmlns:dc="http://purl.org/dc/elements/1.1/"
   xmlns:cc="http://creativecommons.org/ns#"
   xmlns:rdf="http://www.w3.org/1999/02/22-rdf-syntax-ns#"
   xmlns:svg="http://www.w3.org/2000/svg"
   xmlns="http://www.w3.org/2000/svg"
   viewBox="0 0 115.9975 129.35499"
   height="129.355"
   width="115.9975"
   xml:space="preserve"
   version="1.1"
   id="svg2"><metadata
     id="metadata8"><rdf:RDF><cc:Work
         rdf:about=""><dc:format>image/svg+xml</dc:format><dc:type
           rdf:resource="http://purl.org/dc/dcmitype/StillImage" /><dc:title></dc:title></cc:Work></rdf:RDF></metadata><defs
     id="defs6"><clipPath
       id="clipPath16"
       clipPathUnits="userSpaceOnUse"><path
         id="path18"
         d="m 0,870.236 623.626,0 L 623.626,0 0,0 0,870.236 Z" /></clipPath><clipPath
       id="clipPath28"
       clipPathUnits="userSpaceOnUse"><path
         id="path30"
         d="m 0,870.236 623.626,0 L 623.626,0 0,0 0,870.236 Z" /></clipPath><clipPath
       id="clipPath256"
       clipPathUnits="userSpaceOnUse"><path
         id="path258"
         d="m 0,870.236 623.626,0 L 623.626,0 0,0 0,870.236 Z" /></clipPath><clipPath
       id="clipPath264"
       clipPathUnits="userSpaceOnUse"><path
         id="path266"
         d="m -80.514,14.173 -595.276,0 0,841.89 595.276,0 0,-841.89 z" /></clipPath></defs><g
     transform="matrix(1.25,0,0,-1.25,-331.76775,485.159)"
     id="g10"><path
       d="m 317.5692,286.5362 0,0 0,0 z m 39.942,29.909 c 0,-1.839 -0.457,-3.655 -1.325,-5.274 l -20.647,11.921 21.972,12.686 0,-19.333 z m -22.323,-19.332 0,25.372 20.647,-11.921 c -0.968,-1.561 -2.312,-2.865 -3.905,-3.785 l -16.742,-9.666 z m -0.351,-0.607 0,0 0,0 z m -22.673,-11.156 0,23.841 21.972,-12.685 -16.742,-9.666 c -1.593,-0.92 -3.394,-1.433 -5.23,-1.49 m -22.674,11.156 21.972,12.685 0,-23.841 c -1.835,0.057 -3.637,0.57 -5.23,1.49 l -16.742,9.666 z m -1.052,25.978 0,-25.371 -16.742,9.666 c -1.592,0.919 -2.937,2.223 -3.905,3.785 l 20.647,11.92 z m -22.323,13.294 21.973,-12.686 -20.648,-11.921 c -0.868,1.618 -1.325,3.434 -1.325,5.274 l 0,19.333 z m 0,20.546 c 0,1.84 0.457,3.656 1.325,5.274 l 20.648,-11.92 -21.973,-12.686 0,19.332 z m 22.323,19.333 0,-25.372 -20.647,11.921 c 0.968,1.561 2.312,2.865 3.905,3.785 l 16.742,9.666 z m 17.795,10.273 c 1.593,0.92 3.394,1.432 5.229,1.49 l 0,-23.842 -21.972,12.686 16.743,9.666 z m 27.903,-9.666 -21.972,-12.686 0,23.842 c 1.835,-0.058 3.636,-0.57 5.229,-1.489 l 16.743,-9.667 z m 1.052,-25.979 0,25.372 16.742,-9.666 c 1.593,-0.92 2.937,-2.224 3.905,-3.785 l -20.647,-11.921 z m 22.323,-13.293 -21.972,12.686 20.647,11.92 c 0.868,-1.618 1.325,-3.434 1.325,-5.274 l 0,-19.332 z m -29.019,-36.418 -15.978,9.225 21.973,12.686 0,-25.372 -5.995,3.461 z m -39.352,21.911 21.972,-12.686 -21.972,-12.686 0,25.372 z m 5.994,49.711 15.978,-9.225 -21.972,-12.686 0,25.371 5.994,-3.46 z m 39.353,-21.911 -21.973,12.686 15.978,9.225 5.995,3.46 0,-25.371 z m -23.912,-14.616 -10e-4,0.001 c -1.04,1.801 -2.541,3.302 -4.342,4.341 l -16.742,9.667 22.323,12.888 22.674,-13.09 0,-26.182 -22.323,-12.888 0,19.332 c 0,2.079 -0.55,4.13 -1.589,5.931 m -21.435,13.401 16.742,-9.666 c 1.593,-0.919 2.936,-2.223 3.905,-3.784 l -20.647,-11.921 0,25.371 z m 20.998,-14.057 c 0.867,-1.62 1.324,-3.436 1.324,-5.275 l 0,-19.332 -21.972,12.686 20.648,11.921 z m -41.962,2.359 20.262,11.698 0,-25.371 -21.972,12.686 1.71,0.987 z m 88.984,-0.987 -21.972,-12.686 0,25.371 20.263,-11.698 1.709,-0.987 z m -0.538,25.87 10e-4,0 c -1.04,1.801 -2.541,3.302 -4.343,4.342 l -17.268,9.97 0,0 0,10e-4 -9.358,5.402 -7.911,4.568 c -1.8,1.039 -3.851,1.589 -5.93,1.589 -2.079,0 -4.129,-0.55 -5.931,-1.59 l -17.268,-9.969 0,-10e-4 0,0 -17.268,-9.97 c -1.801,-1.039 -3.302,-2.54 -4.342,-4.341 l 0,0 c -1.04,-1.801 -1.59,-3.852 -1.59,-5.932 l 0,-19.939 0,-19.94 c 0,-2.08 0.55,-4.131 1.59,-5.931 l 0,-0.001 c 1.04,-1.801 2.541,-3.302 4.342,-4.341 l 17.268,-9.97 0,0 0,0 17.268,-9.97 c 1.801,-1.04 3.852,-1.589 5.931,-1.589 2.079,0 4.131,0.549 5.931,1.589 l 17.268,9.97 0,0 0,0 17.268,9.97 c 1.802,1.04 3.303,2.541 4.343,4.342 l -10e-4,0 c 1.041,1.801 1.59,3.852 1.59,5.931 l 0,19.94 0,19.939 c 0,2.08 -0.549,4.13 -1.59,5.931"
       style="fill:#181817;fill-opacity:1;fill-rule:nonzero;stroke:none"
       id="path114" /></g></svg>