<?xml version="1.0" encoding="UTF-8" standalone="no"?>
<svg
   xmlns:dc="http://purl.org/dc/elements/1.1/"
   xmlns:cc="http://creativecommons.org/ns#"
   xmlns:rdf="http://www.w3.org/1999/02/22-rdf-syntax-ns#"
   xmlns:svg="http://www.w3.org/2000/svg"
   xmlns="http://www.w3.org/2000/svg"
   viewBox="0 0 266.14664 90.466244"
   height="90.466248"
   width="266.14664"
   xml:space="preserve"
   version="1.1"
   id="svg5608"><metadata
     id="metadata5614"><rdf:RDF><cc:Work
         rdf:about=""><dc:format>image/svg+xml</dc:format><dc:type
           rdf:resource="http://purl.org/dc/dcmitype/StillImage" /><dc:title></dc:title></cc:Work></rdf:RDF></metadata><defs
     id="defs5612"><clipPath
       id="clipPath5622"
       clipPathUnits="userSpaceOnUse"><path
         id="path5624"
         d="m 0,870.236 623.626,0 L 623.626,0 0,0 0,870.236 Z" /></clipPath><clipPath
       id="clipPath5634"
       clipPathUnits="userSpaceOnUse"><path
         id="path5636"
         d="m 0,870.236 623.626,0 L 623.626,0 0,0 0,870.236 Z" /></clipPath><clipPath
       id="clipPath5646"
       clipPathUnits="userSpaceOnUse"><path
         id="path5648"
         d="m 0,870.236 623.626,0 L 623.626,0 0,0 0,870.236 Z" /></clipPath></defs><g
     transform="matrix(1.25,0,0,-1.25,-258.21912,732.27512)"
     id="g5616"><path
       d="m 213.9953,542.3024 c -0.939,-0.751 -1.409,-1.764 -1.409,-3.037 0,-1.274 0.511,-2.275 1.534,-3.005 1.022,-0.731 2.452,-1.096 4.29,-1.096 3.465,0 6.303,0.939 8.516,2.818 l 0,6.762 -9.142,-1.002 c -1.588,-0.209 -2.85,-0.689 -3.789,-1.44 m 24.077,-7.138 0,-3.758 c -1.628,-0.792 -3.424,-1.189 -5.385,-1.189 -1.963,0 -3.372,0.376 -4.227,1.127 -0.856,0.751 -1.346,1.836 -1.472,3.256 -2.296,-2.923 -5.312,-4.383 -9.048,-4.383 -3.736,0 -6.565,0.751 -8.485,2.254 -1.92,1.503 -2.88,3.61 -2.88,6.325 0,5.217 3.632,8.223 10.896,9.017 l 9.455,1.002 0,1.816 c 0,2.42 -0.501,4.257 -1.503,5.51 -1.001,1.252 -2.589,1.879 -4.759,1.879 -4.008,0 -7.264,-0.439 -9.769,-1.316 l -1.252,-0.438 -1.127,4.008 c 1.168,0.667 2.943,1.283 5.323,1.847 2.38,0.564 4.592,0.846 6.637,0.846 4.467,0 7.64,-0.888 9.518,-2.662 1.879,-1.774 2.818,-4.269 2.818,-7.483 l 0,-17.658 5.26,0 z"
       style="fill:#18213e;fill-opacity:1;fill-rule:nonzero;stroke:none"
       id="path5652" /><path
       d="m 258.5237,530.9059 -16.594,0 0,2.692 5.26,2.067 0,21.478 -4.884,0 0,3.758 4.884,2.004 0,3.756 c 0,4.133 1.054,7.274 3.162,9.425 2.108,2.149 5.082,3.224 8.924,3.224 1.503,0 2.89,-0.218 4.164,-0.657 1.272,-0.438 2.16,-0.888 2.661,-1.346 l 0.815,-0.689 -1.692,-3.256 c -1.169,0.667 -2.911,1.002 -5.228,1.002 -2.317,0 -4.03,-0.679 -5.135,-2.036 -1.107,-1.357 -1.659,-3.83 -1.659,-7.42 l 0,-2.692 10.081,0 0,-5.073 -10.081,0 0,-21.478 5.322,-2.067 0,-2.692 z"
       style="fill:#18213e;fill-opacity:1;fill-rule:nonzero;stroke:none"
       id="path5656" /><path
       d="m 303.3772,535.1642 0,-3.757 c -1.628,-0.793 -3.466,-1.19 -5.511,-1.19 -2.046,0 -3.465,0.428 -4.258,1.283 -0.793,0.856 -1.252,2.119 -1.377,3.789 -0.543,-0.626 -1.169,-1.252 -1.878,-1.878 -0.711,-0.627 -1.89,-1.315 -3.538,-2.067 -1.65,-0.751 -3.373,-1.127 -5.167,-1.127 -3.256,0 -5.698,0.908 -7.326,2.724 -1.629,1.816 -2.442,4.289 -2.442,7.42 l 0,17.659 -5.26,0 0,3.757 c 1.628,0.792 3.516,1.19 5.667,1.19 2.15,0 3.601,-0.512 4.352,-1.534 0.752,-1.024 1.127,-2.579 1.127,-4.665 l 0,-14.215 c 0,-2.464 0.407,-4.3 1.221,-5.511 0.814,-1.211 2.286,-1.816 4.414,-1.816 2.129,0 3.946,0.407 5.449,1.222 1.503,0.814 2.63,1.659 3.381,2.535 l 0,19.037 -5.26,0 0,3.757 c 1.628,0.792 3.516,1.19 5.667,1.19 2.149,0 3.6,-0.512 4.352,-1.534 0.751,-1.024 1.127,-2.579 1.127,-4.665 l 0,-21.604 5.26,0 z"
       style="fill:#18213e;fill-opacity:1;fill-rule:nonzero;stroke:none"
       id="path5660" /><path
       d="m 321.4865,535.2267 c 3.382,0 6.021,1.002 7.921,3.006 1.899,2.003 2.85,4.8 2.85,8.39 0,3.59 -0.919,6.397 -2.755,8.423 -1.838,2.024 -3.8,3.037 -5.887,3.037 -3.632,0 -6.346,-1.149 -8.141,-3.444 l 0,-18.285 c 2.338,-0.752 4.342,-1.127 6.012,-1.127 m -0.752,-21.291 -16.469,0 0,2.693 5.324,2.066 0,39.576 -5.26,0 0,3.444 c 1.628,0.792 3.412,1.19 5.353,1.19 1.942,0 3.328,-0.356 4.164,-1.065 0.835,-0.71 1.336,-1.753 1.503,-3.131 2.045,2.838 5.093,4.258 9.143,4.258 3.297,0 6.345,-1.127 9.142,-3.381 1.418,-1.17 2.557,-2.829 3.413,-4.979 0.855,-2.15 1.284,-4.644 1.284,-7.483 0,-2.839 -0.481,-5.375 -1.441,-7.607 -0.961,-2.234 -2.254,-3.998 -3.883,-5.292 -3.297,-2.63 -7.138,-3.945 -11.521,-3.945 -1.753,0 -3.757,0.293 -6.012,0.877 l 0,-12.462 5.26,-2.066 0,-2.693 z"
       style="fill:#18213e;fill-opacity:1;fill-rule:nonzero;stroke:none"
       id="path5664" /><path
       d="m 370.8558,540.2734 0,0 -15.126,-8.733 c 0.699,-1.212 1.713,-2.243 2.967,-2.967 l 12.159,-7.02 0,18.72 z"
       style="fill:#4c9edc;fill-opacity:1;fill-rule:nonzero;stroke:none"
       id="path5668" /><path
       d="m 354.6436,549.6335 0,-14.04 c 0,-1.448 0.386,-2.841 1.086,-4.053 l 15.126,8.733 -16.212,9.36 z"
       style="fill:#498cd2;fill-opacity:1;fill-rule:nonzero;stroke:none"
       id="path5672" /><path
       d="m 370.8558,540.2734 0,18.72 -16.212,-9.36 0,0 16.212,-9.36 z"
       style="fill:#487dc8;fill-opacity:1;fill-rule:nonzero;stroke:none"
       id="path5676" /><path
       d="m 370.8558,521.5531 0,0 12.159,-7.02 c 1.254,-0.724 2.654,-1.086 4.053,-1.086 l 0,17.466 -16.212,-9.36 z"
       style="fill:#5295d6;fill-opacity:1;fill-rule:nonzero;stroke:none"
       id="path5680" /><path
       d="m 355.7296,567.7269 c -0.7,-1.212 -1.086,-2.605 -1.086,-4.053 l 0,-14.04 16.212,9.36 -15.126,8.733 z"
       style="fill:#476bbc;fill-opacity:1;fill-rule:nonzero;stroke:none"
       id="path5684" /><path
       d="m 403.2804,521.5531 0,18.72 -16.212,-9.36 16.212,-9.36 z"
       style="fill:#7f9ad6;fill-opacity:1;fill-rule:nonzero;stroke:none"
       id="path5688" /><path
       d="m 418.4066,531.5403 c 0.7,1.212 1.086,2.605 1.086,4.053 l 0,14.04 -16.212,-9.36 15.126,-8.733 z"
       style="fill:#727ebd;fill-opacity:1;fill-rule:nonzero;stroke:none"
       id="path5692" /><path
       d="m 403.2804,540.2734 0,-18.72 12.159,7.02 c 1.254,0.724 2.267,1.755 2.967,2.967 l -15.126,8.733 z"
       style="fill:#8f9fd8;fill-opacity:1;fill-rule:nonzero;stroke:none"
       id="path5696" /><path
       d="m 403.2804,558.9938 0,0 0,-18.72 16.212,9.36 0,0 -16.212,9.36 z"
       style="fill:#425da2;fill-opacity:1;fill-rule:nonzero;stroke:none"
       id="path5700" /><path
       d="m 387.0681,530.9133 0,-17.466 c 1.399,0 2.799,0.362 4.053,1.086 l 12.159,7.02 -16.212,9.36 z"
       style="fill:#6495d5;fill-opacity:1;fill-rule:nonzero;stroke:none"
       id="path5704" /><path
       d="m 387.0681,568.3539 -16.212,9.36 0,-18.72 16.212,9.36 z"
       style="fill:#3a64ad;fill-opacity:1;fill-rule:nonzero;stroke:none"
       id="path5708" /><path
       d="m 387.0681,568.3539 16.212,-9.36 0,18.72 -16.212,-9.36 z"
       style="fill:#3a61a3;fill-opacity:1;fill-rule:nonzero;stroke:none"
       id="path5712" /><path
       d="m 355.7296,567.7269 15.126,-8.733 0,18.72 -12.159,-7.02 c -1.254,-0.724 -2.267,-1.755 -2.967,-2.967"
       style="fill:#32549d;fill-opacity:1;fill-rule:nonzero;stroke:none"
       id="path5716" /><path
       d="m 403.2804,558.9938 16.212,-9.36 0,14.04 c 0,1.448 -0.386,2.841 -1.086,4.053 l -15.126,-8.733 z"
       style="fill:#2f5296;fill-opacity:1;fill-rule:nonzero;stroke:none"
       id="path5720" /><path
       d="m 403.2804,558.9938 15.126,8.733 c -0.699,1.212 -1.713,2.243 -2.967,2.967 l -12.159,7.02 0,-18.72 z"
       style="fill:#325295;fill-opacity:1;fill-rule:nonzero;stroke:none"
       id="path5724" /><path
       d="m 370.8558,540.2734 16.212,-9.36 0,14.04 c 0,1.448 -0.386,2.841 -1.086,4.053 l -15.126,-8.733 z"
       style="fill:#6aaee3;fill-opacity:1;fill-rule:nonzero;stroke:none"
       id="path5728" /><path
       d="m 370.8558,540.2734 15.126,8.733 c -0.699,1.212 -1.713,2.243 -2.967,2.967 l -12.159,7.02 0,-18.72 z"
       style="fill:#50a0dd;fill-opacity:1;fill-rule:nonzero;stroke:none"
       id="path5732" /><path
       d="m 403.2804,577.7141 -12.16,7.02 c -1.254,0.724 -2.653,1.086 -4.052,1.086 l 0,-17.466 16.212,9.36 z"
       style="fill:#4379c6;fill-opacity:1;fill-rule:nonzero;stroke:none"
       id="path5736" /><path
       d="m 387.0681,568.3539 0,17.466 c -1.399,0 -2.799,-0.362 -4.053,-1.085 l -12.159,-7.021 16.212,-9.36 z"
       style="fill:#3f73bd;fill-opacity:1;fill-rule:nonzero;stroke:none"
       id="path5740" /><path
       d="m 370.8558,521.5531 16.212,9.36 -16.212,9.36 0,-18.72 z"
       style="fill:#50a0dd;fill-opacity:1;fill-rule:nonzero;stroke:none"
       id="path5744" /></g></svg>