<?xml version="1.0" encoding="utf-8"?>
<!-- Generator: Adobe Illustrator 24.3.0, SVG Export Plug-In . SVG Version: 6.00 Build 0)  -->
<svg version="1.1" id="Calque_1" xmlns="http://www.w3.org/2000/svg" xmlns:xlink="http://www.w3.org/1999/xlink" x="0px" y="0px"
	 viewBox="0 0 252 241" style="enable-background:new 0 0 252 241;" xml:space="preserve" width="252" height="241">
<style type="text/css">
	.st0{fill:#234077;}
	.st1{fill:#476BBC;}
	.st2{fill:#3F73BD;}
	.st3{fill:#487DC8;}
	.st4{fill:#425DA2;}
	.st5{fill:#6AAEE3;}
	.st6{fill:#498CD2;}
	.st7{fill:#2F5296;}
	.st8{fill:#325295;}
	.st9{fill:#3A64AD;}
	.st10{fill:#7F9AD6;}
	.st11{fill:#4C9EDC;}
	.st12{fill:#727EBD;}
	.st13{fill:#32549D;}
	.st14{fill:#6495D5;}
	.st15{fill:#50A0DD;}
	.st16{fill-rule:evenodd;clip-rule:evenodd;fill:#FFFFFF;}
	.st17{fill:#FFFFFF;}
</style>
<g transform="translate(-.078)">
	<path class="st0" d="M0.4,182.7v-65.6V34.7L128.1,0.5c4.3-1.1,7.7,1.5,7.7,5.9v41l76.7-20.2c4.4-1.2,8,1.6,8,6.2v90.2l21.6-5.8
		c5-1.3,9.1,1.8,9.1,7v38.7c0,5.2-4.1,10.5-9.1,11.9L0.4,240.3V182.7z"/>
	<polygon class="st1" points="37.1,25 0.4,34.8 37.1,67.4 	"/>
	<polygon class="st2" points="110.3,47.6 73.6,57.4 110.3,90 	"/>
	<polygon class="st3" points="73.6,99.8 36.9,109.7 73.6,142.3 	"/>
	<polygon class="st4" points="147,122.5 110.3,132.4 147,164.9 	"/>
	<polygon class="st5" points="183.7,70.2 147,80.1 183.7,112.6 	"/>
	<polygon class="st6" points="37.1,152.2 0.4,162 37.1,194.6 	"/>
	<polygon class="st3" points="73.6,15.1 36.9,24.9 73.6,57.5 	"/>
	<polygon class="st3" points="110.3,5.3 73.6,15.1 110.3,47.7 	"/>
	<polygon class="st7" points="110.3,89.9 73.6,99.8 110.3,132.3 	"/>
	<polygon class="st1" points="37.1,67.4 0.4,77.2 37.1,109.8 	"/>
	<polygon class="st3" points="73.6,142.2 36.9,152.1 73.6,184.6 	"/>
	<polygon class="st4" points="73.6,57.4 36.9,67.2 73.6,99.8 	"/>
	<polygon class="st8" points="147,80.1 110.3,89.9 147,122.5 	"/>
	<polygon class="st9" points="220.4,144.7 183.7,154.6 215.4,182.7 220.4,181.3 	"/>
	<polygon class="st9" points="220.4,102.7 183.7,112.6 220.4,145.1 	"/>
	<polygon class="st10" points="110.3,132.3 73.6,142.2 110.3,174.7 	"/>
	<polygon class="st11" points="37.1,109.8 0.4,119.6 37.1,152.2 	"/>
	<polygon class="st1" points="36.9,67.3 73.6,57.4 36.9,24.9 	"/>
	<polygon class="st9" points="110.3,90 147,80.1 110.3,47.6 	"/>
	<polygon class="st4" points="73.6,142.2 110.3,132.4 73.6,99.8 	"/>
	<polygon class="st8" points="183.7,112.6 220.4,102.8 183.7,70.2 	"/>
	<polygon class="st6" points="0.4,119.6 37.1,109.8 0.4,77.2 	"/>
	<polygon class="st10" points="36.9,194.5 73.6,184.7 36.9,152.1 	"/>
	<polygon class="st10" points="73.6,57.5 110.3,47.6 73.6,15.1 	"/>
	<polygon class="st12" points="36.9,109.6 73.6,99.8 36.9,67.2 	"/>
	<polygon class="st13" points="183.7,155 220.4,145.1 183.7,112.6 	"/>
	<polygon class="st14" points="73.6,184.6 110.3,174.7 73.6,142.2 	"/>
	<polygon class="st15" points="0.4,162 37.1,152.2 0.4,119.6 	"/>
	<polygon class="st9" points="73.6,99.8 110.3,89.9 73.6,57.4 	"/>
	<polygon class="st3" points="147,122.5 183.7,112.6 147,80.1 	"/>
	<polygon class="st7" points="0.4,77.2 37.1,67.4 0.4,34.8 	"/>
	<polygon class="st1" points="110.3,174.7 147,164.9 110.3,132.3 	"/>
	<polygon class="st10" points="36.9,152.1 73.6,142.3 36.9,109.7 	"/>
	<path class="st16" d="M129.6,149.2l-4.3-15.4l-22.3,6l-4.3,17.7l-17.3,4.6l25.3-87.7l14.9-4l25.4,74.1L129.6,149.2L129.6,149.2z
		 M114.1,94.4l-7.6,30.9l15.1-4L114.1,94.4L114.1,94.4z M158.7,60.6l12.2,33.1L183.1,54l17.8-4.8l-21.7,57.4V136l-16.6,4.4v-29.3
		l-21.7-45.7L158.7,60.6L158.7,60.6z M43.4,172.3l-21,5.7V97.1l21.4-5.7l0,0c9.4-2.5,17-1.5,22.6,2.9l0,0l0,0
		c5.6,4.5,8.5,12,8.6,22.4l0,0v13.1l0,0c0,10.6-2.8,19.7-8.4,27.3l0,0l0,0C61,164.6,53.2,169.7,43.4,172.3L43.4,172.3L43.4,172.3z
		 M44.7,104.7l-5.9,1.6V160l4.9-1.3l0,0c5.4-1.5,9.3-3.9,11.5-7.4l0,0l0,0c2.2-3.5,3.4-8.7,3.5-15.8l0,0v-14.1l0,0
		c0-7.6-1.1-12.5-3.2-15l0,0l0,0C53.4,104.1,49.8,103.5,44.7,104.7L44.7,104.7L44.7,104.7z M42.8,77.2l-4.9,1.3l0,0
		c-0.3-0.5-0.5-1.5-0.6-3l0,0l0,0c-1.7,2.9-3.8,4.7-6.4,5.4l0,0l0,0c-2.6,0.7-4.7,0.5-6.1-0.6l0,0l0,0c-1.5-1.1-2.2-3-2.2-5.6l0,0
		l0,0c0-2.9,1-5.6,3-7.8l0,0l0,0c2-2.3,4.7-3.9,8.2-4.9l0,0l3.5-0.9V58l0,0c0-1.7-0.4-2.9-1.2-3.4l0,0l0,0c-0.8-0.5-1.9-0.6-3.5-0.2
		l0,0l0,0c-1.4,0.4-2.6,1.1-3.5,2.2l0,0l0,0c-0.9,1.1-1.3,2.3-1.3,3.6l0,0l-4.7,1.3l0,0c0-1.5,0.4-3,1.3-4.6l0,0l0,0
		c0.9-1.6,2.1-3,3.5-4.1l0,0l0,0c1.5-1.2,3.1-2,5-2.5l0,0l0,0c3-0.8,5.2-0.7,6.8,0.4l0,0l0,0c1.5,1.1,2.3,3,2.4,5.8l0,0v14.6l0,0
		c0,2.2,0.3,4.1,0.9,5.6l0,0v0.5H42.8z M31.5,76.4L31.5,76.4L31.5,76.4c1.2-0.3,2.3-0.9,3.3-1.9l0,0l0,0c1.1-0.9,1.8-1.9,2.3-3l0,0
		v-6.9l-2.7,0.7l0,0c-2.3,0.6-4,1.6-5.3,2.9l0,0l0,0c-1.3,1.3-2,2.9-2,4.6l0,0l0,0c0,1.6,0.3,2.7,1,3.3l0,0l0,0
		C28.8,76.8,29.9,76.8,31.5,76.4z M56,73.6l-4.7,1.3V49.7l-3.8,1v-3.8l3.8-1v-3.3l0,0c0.1-3,0.8-5.5,2.2-7.5l0,0l0,0
		c1.4-2,3.5-3.4,6.1-4.1l0,0l0,0c0.9-0.3,1.9-0.4,2.9-0.3l0,0l-0.2,4.1l0,0c-0.7,0-1.4,0.1-2.2,0.3l0,0l0,0c-2.7,0.7-4,3-4,6.8l0,0
		v2.7l5-1.3v3.8l-5,1.3L56,73.6L56,73.6z M81.4,66.8l-0.1-2.5l0,0c-1.6,2.5-3.9,4.1-6.9,4.9l0,0l0,0c-2.6,0.7-4.6,0.3-5.9-1.1l0,0
		l0,0c-1.3-1.5-2-3.9-2-7.4l0,0V41.8l4.7-1.3V59l0,0c0,4.5,1.4,6.4,4.1,5.7l0,0l0,0c2.9-0.8,4.9-2.6,5.9-5.5l0,0V37.9l4.7-1.3v29
		L81.4,66.8L81.4,66.8z M114,41.8V45l0,0c0,4.6-0.8,8.2-2.5,10.9l0,0l0,0c-1.7,2.7-4,4.4-7,5.3l0,0l0,0c-2.9,0.8-5.2,0.3-6.7-1.5
		l0,0v13.9l-4.7,1.3V34.7l4.3-1.1l0.2,3.1l0,0c1.6-2.9,3.9-4.8,6.8-5.6l0,0l0,0c3.2-0.9,5.6-0.4,7.1,1.4l0,0l0,0
		C113.1,34.3,114,37.4,114,41.8L114,41.8L114,41.8z M109.3,46.4v-2.9l0,0c0-3.2-0.5-5.5-1.5-6.8l0,0l0,0c-1-1.3-2.6-1.6-4.8-1l0,0
		l0,0c-2.3,0.6-4,2.2-5.2,4.8l0,0v15.1l0,0c1.2,1.9,2.9,2.5,5.2,1.9l0,0l0,0c2.1-0.6,3.7-1.8,4.7-3.6l0,0l0,0
		C108.8,52.1,109.3,49.6,109.3,46.4L109.3,46.4L109.3,46.4z"/>
</g>
<g>
	<g>
		<path class="st17" d="M39.8,186.5l-7.1,1.9v24l-3.4,0.9v-24l-7.1,1.9v-2.9l17.5-4.6V186.5z"/>
		<path class="st17" d="M60.8,193.9c0,3.7-0.8,6.7-2.3,9.1c-1.6,2.4-3.8,4-6.7,4.7c-2.8,0.7-5,0.3-6.6-1.2c-1.6-1.5-2.4-4-2.5-7.5
			V194c0-3.6,0.8-6.6,2.4-9.1c1.6-2.5,3.8-4.1,6.6-4.8c2.8-0.7,5-0.4,6.6,1.2c1.6,1.5,2.4,4.1,2.4,7.7V193.9z M57.4,190.1
			c0-2.8-0.5-4.8-1.4-6c-0.9-1.1-2.4-1.5-4.3-0.9c-1.9,0.5-3.3,1.6-4.2,3.2c-1,1.7-1.4,3.8-1.4,6.6v4.8c0,2.7,0.5,4.7,1.4,5.9
			c1,1.2,2.4,1.5,4.3,1c1.9-0.5,3.3-1.5,4.2-3.1c0.9-1.6,1.4-3.7,1.4-6.5V190.1z"/>
		<path class="st17" d="M82,172.5v19.1c0,2.6-0.8,4.7-2.2,6.6c-1.5,1.8-3.5,3.1-6.1,3.8c-2.7,0.7-4.7,0.5-6.1-0.5
			c-1.4-1-2.1-2.9-2.1-5.5v-19.1l3.4-0.9v19c0,1.8,0.4,3.1,1.2,3.7c0.8,0.7,2,0.8,3.7,0.4c1.7-0.5,3-1.2,3.7-2.3
			c0.8-1.1,1.2-2.5,1.2-4.4v-19L82,172.5z"/>
		<path class="st17" d="M90.6,194.2l10.5-2.8v2.9L87.2,198v-26.9l3.4-0.9V194.2z"/>
		<path class="st17" d="M121.5,177.9c0,3.7-0.8,6.7-2.3,9.1c-1.6,2.4-3.8,4-6.7,4.7c-2.8,0.7-5,0.3-6.6-1.2c-1.6-1.5-2.4-4-2.5-7.5
			V178c0-3.6,0.8-6.6,2.4-9.1c1.6-2.5,3.8-4.1,6.6-4.8c2.8-0.7,5-0.4,6.6,1.2c1.6,1.5,2.4,4.1,2.4,7.7V177.9z M118.1,174.1
			c0-2.8-0.5-4.8-1.4-6c-0.9-1.1-2.4-1.5-4.3-0.9c-1.9,0.5-3.3,1.6-4.2,3.2c-1,1.7-1.4,3.8-1.4,6.6v4.8c0,2.7,0.5,4.7,1.4,5.9
			c1,1.2,2.4,1.5,4.3,1c1.9-0.5,3.3-1.5,4.2-3.1c0.9-1.6,1.4-3.7,1.4-6.5V174.1z"/>
		<path class="st17" d="M142.7,156.5v19.1c0,2.6-0.8,4.7-2.2,6.6c-1.5,1.8-3.5,3.1-6.1,3.8c-2.7,0.7-4.7,0.5-6.1-0.5
			c-1.4-1-2.1-2.9-2.1-5.5v-19.1l3.4-0.9v19c0,1.8,0.4,3.1,1.2,3.7c0.8,0.7,2,0.8,3.7,0.4c1.7-0.5,3-1.2,3.7-2.3
			c0.8-1.1,1.2-2.5,1.2-4.4v-19L142.7,156.5z"/>
		<path class="st17" d="M159.7,172.1c0-1.3-0.4-2.3-1.1-2.8c-0.7-0.5-2-0.9-3.9-1.1c-1.9-0.2-3.3-0.5-4.3-1c-1-0.5-1.8-1.1-2.3-2
			c-0.5-0.8-0.7-1.8-0.7-3.1c0-2.1,0.7-4.1,2.1-5.8c1.4-1.8,3.3-2.9,5.6-3.5c1.6-0.4,3-0.4,4.2-0.1c1.2,0.4,2.2,1.1,2.8,2.2
			c0.7,1.1,1,2.4,1,3.9l-3.4,0.9c0-1.7-0.4-2.8-1.2-3.5c-0.8-0.7-2-0.9-3.5-0.5c-1.4,0.4-2.4,1-3.2,2c-0.8,1-1.1,2.1-1.1,3.5
			c0,1.1,0.4,2,1.2,2.5c0.8,0.6,2.1,0.9,3.8,1.1c2.6,0.2,4.5,0.8,5.7,1.7c1.1,1,1.7,2.5,1.7,4.6c0,2.2-0.7,4.1-2.1,5.8
			c-1.4,1.7-3.3,2.8-5.8,3.5c-1.6,0.4-3,0.5-4.3,0.1c-1.3-0.3-2.4-1-3.1-2.1c-0.8-1-1.1-2.4-1.1-4l3.4-0.9c0,1.7,0.5,2.8,1.4,3.5
			c0.9,0.7,2.2,0.8,3.8,0.4c1.5-0.4,2.6-1.1,3.4-2C159.3,174.6,159.7,173.4,159.7,172.1z"/>
		<path class="st17" d="M180.4,161l-9.5,2.5v9.5l11.1-2.9v2.9l-14.5,3.8v-26.9l14.3-3.8v2.9l-10.9,2.9v8.7l9.5-2.5V161z"/>
	</g>
</g>
</svg>
