<?xml version="1.0" encoding="UTF-8" standalone="no"?>
<svg
   xmlns:dc="http://purl.org/dc/elements/1.1/"
   xmlns:cc="http://creativecommons.org/ns#"
   xmlns:rdf="http://www.w3.org/1999/02/22-rdf-syntax-ns#"
   xmlns:svg="http://www.w3.org/2000/svg"
   xmlns="http://www.w3.org/2000/svg"
   xmlns:xlink="http://www.w3.org/1999/xlink"
   xmlns:sodipodi="http://sodipodi.sourceforge.net/DTD/sodipodi-0.dtd"
   xmlns:inkscape="http://www.inkscape.org/namespaces/inkscape"
   viewBox="0 0 1025.5807 186.31835"
   height="186.31836"
   width="1025.5808"
   xml:space="preserve"
   version="1.1"
   id="svg6693"
   sodipodi:docname="afup-poitiers_icon-and-text_colors-and-white_for-dark-background.svg"
   inkscape:version="0.92.2 (5c3e80d, 2017-08-06)"
   inkscape:export-filename="/home/agallou/Projets/afup/identity/assets/local_user_groups/poitiers/afup-poitiers_icon-and-text_colors-and-white_for-dark-background.png"
   inkscape:export-xdpi="93.610001"
   inkscape:export-ydpi="93.610001"><sodipodi:namedview
     pagecolor="#ffffff"
     bordercolor="#666666"
     borderopacity="1"
     objecttolerance="10"
     gridtolerance="10"
     guidetolerance="10"
     inkscape:pageopacity="0"
     inkscape:pageshadow="2"
     inkscape:window-width="1853"
     inkscape:window-height="1025"
     id="namedview67"
     showgrid="false"
     inkscape:zoom="1.0287426"
     inkscape:cx="486.28689"
     inkscape:cy="46.419934"
     inkscape:window-x="67"
     inkscape:window-y="27"
     inkscape:window-maximized="1"
     inkscape:current-layer="svg6693" /><metadata
     id="metadata6699"><rdf:RDF><cc:Work
         rdf:about=""><dc:format>image/svg+xml</dc:format><dc:type
           rdf:resource="http://purl.org/dc/dcmitype/StillImage" /><dc:title /></cc:Work></rdf:RDF></metadata><defs
     id="defs6697"><clipPath
       id="clipPath6707"
       clipPathUnits="userSpaceOnUse"><path
         id="path6709"
         d="M 0,870.236 H 623.626 V 0 H 0 Z"
         inkscape:connector-curvature="0" /></clipPath><clipPath
       id="clipPath6719"
       clipPathUnits="userSpaceOnUse"><path
         id="path6721"
         d="M 0,870.236 H 623.626 V 0 H 0 Z"
         inkscape:connector-curvature="0" /></clipPath><clipPath
       id="clipPath6731"
       clipPathUnits="userSpaceOnUse"><path
         id="path6733"
         d="M 0,870.236 H 623.626 V 0 H 0 Z"
         inkscape:connector-curvature="0" /></clipPath><clipPath
       clipPathUnits="userSpaceOnUse"
       id="clipPath4150"><path
         d="M 0,870.236 H 623.626 V 0 H 0 Z"
         id="path4152"
         inkscape:connector-curvature="0" /></clipPath><clipPath
       clipPathUnits="userSpaceOnUse"
       id="clipPath4162"><path
         d="M 0,870.236 H 623.626 V 0 H 0 Z"
         id="path4164"
         inkscape:connector-curvature="0" /></clipPath><clipPath
       clipPathUnits="userSpaceOnUse"
       id="clipPath4390"><path
         d="M 0,870.236 H 623.626 V 0 H 0 Z"
         id="path4392"
         inkscape:connector-curvature="0" /></clipPath><clipPath
       clipPathUnits="userSpaceOnUse"
       id="clipPath4398"><path
         d="M -80.514,14.173 H -675.79 v 841.89 h 595.276 z"
         id="path4400"
         inkscape:connector-curvature="0" /></clipPath><clipPath
       id="clipPath6707-5"
       clipPathUnits="userSpaceOnUse"><path
         id="path6709-3"
         d="M 0,870.236 H 623.626 V 0 H 0 Z"
         inkscape:connector-curvature="0" /></clipPath><clipPath
       id="clipPath6719-5"
       clipPathUnits="userSpaceOnUse"><path
         id="path6721-6"
         d="M 0,870.236 H 623.626 V 0 H 0 Z"
         inkscape:connector-curvature="0" /></clipPath><clipPath
       id="clipPath6731-2"
       clipPathUnits="userSpaceOnUse"><path
         id="path6733-9"
         d="M 0,870.236 H 623.626 V 0 H 0 Z"
         inkscape:connector-curvature="0" /></clipPath><clipPath
       clipPathUnits="userSpaceOnUse"
       id="clipPath4150-12"><path
         d="M 0,870.236 H 623.626 V 0 H 0 Z"
         id="path4152-7"
         inkscape:connector-curvature="0" /></clipPath><clipPath
       clipPathUnits="userSpaceOnUse"
       id="clipPath4162-0"><path
         d="M 0,870.236 H 623.626 V 0 H 0 Z"
         id="path4164-9"
         inkscape:connector-curvature="0" /></clipPath><clipPath
       clipPathUnits="userSpaceOnUse"
       id="clipPath4390-3"><path
         d="M 0,870.236 H 623.626 V 0 H 0 Z"
         id="path4392-6"
         inkscape:connector-curvature="0" /></clipPath><clipPath
       clipPathUnits="userSpaceOnUse"
       id="clipPath4398-0"><path
         d="M -80.514,14.173 H -675.79 v 841.89 h 595.276 z"
         id="path4400-6"
         inkscape:connector-curvature="0" /></clipPath><clipPath
       clipPathUnits="userSpaceOnUse"
       id="clipPath6707-4"><path
         d="M 0,870.236 H 623.626 V 0 H 0 Z"
         id="path6709-2"
         inkscape:connector-curvature="0" /></clipPath><clipPath
       clipPathUnits="userSpaceOnUse"
       id="clipPath6719-3"><path
         d="M 0,870.236 H 623.626 V 0 H 0 Z"
         id="path6721-3"
         inkscape:connector-curvature="0" /></clipPath><clipPath
       clipPathUnits="userSpaceOnUse"
       id="clipPath6731-1"><path
         d="M 0,870.236 H 623.626 V 0 H 0 Z"
         id="path6733-5"
         inkscape:connector-curvature="0" /></clipPath><clipPath
       id="clipPath4150-1"
       clipPathUnits="userSpaceOnUse"><path
         id="path4152-0"
         d="M 0,870.236 H 623.626 V 0 H 0 Z"
         inkscape:connector-curvature="0" /></clipPath><clipPath
       id="clipPath4162-3"
       clipPathUnits="userSpaceOnUse"><path
         id="path4164-5"
         d="M 0,870.236 H 623.626 V 0 H 0 Z"
         inkscape:connector-curvature="0" /></clipPath><clipPath
       id="clipPath4390-2"
       clipPathUnits="userSpaceOnUse"><path
         id="path4392-2"
         d="M 0,870.236 H 623.626 V 0 H 0 Z"
         inkscape:connector-curvature="0" /></clipPath><clipPath
       id="clipPath4398-1"
       clipPathUnits="userSpaceOnUse"><path
         id="path4400-4"
         d="M -80.514,14.173 H -675.79 v 841.89 h 595.276 z"
         inkscape:connector-curvature="0" /></clipPath><clipPath
       id="clipPath3427"
       clipPathUnits="userSpaceOnUse"><g
         mask="none"
         clip-path="none"
         style="display:inline;fill:#ffffff;stroke:none"
         transform="matrix(0.06483916,0,0,0.06709863,307.54738,474.29433)"
         id="g3429"><path
           inkscape:connector-curvature="0"
           d="m 1638,1790 c -4,-12 -99,-15 -155,-5 -35,6 -44,5 -49,-9 -8,-20 14,-77 37,-93 19,-14 32,-53 17,-53 -6,0 -8,-7 -4,-15 3,-8 1,-15 -3,-15 -5,0 -8,-11 -6,-25 1,-14 -1,-25 -5,-25 -4,0 -6,-11 -5,-24 5,-38 -9,-49 -30,-26 -23,25 -88,43 -130,36 -18,-4 -46,0 -66,8 -55,23 -207,55 -308,66 -133,13 -295,-9 -416,-58 -68,-27 -218,-101 -225,-110 -3,-4 -49,-38 -103,-75 -53,-38 -97,-72 -97,-78 0,-20 31,-20 73,0 24,12 48,21 54,21 5,0 34,13 64,30 30,16 61,30 69,30 8,0 27,6 42,14 14,8 43,19 65,26 21,7 43,17 50,22 27,22 165,49 271,55 61,3 112,3 112,0 0,-3 -26,-13 -58,-22 -31,-9 -59,-20 -62,-24 -3,-4 -48,-27 -100,-51 -107,-49 -225,-117 -281,-161 -20,-16 -41,-29 -46,-29 -17,0 -52,-56 -43,-70 7,-11 19,-9 65,8 31,12 70,32 88,45 18,13 51,31 74,40 23,9 61,25 85,35 101,45 174,69 187,64 11,-4 9,-8 -7,-15 -28,-13 -28,-18 3,-47 29,-27 31,-47 7,-76 -25,-31 -49,-37 -55,-13 -7,25 -24,24 -32,-1 -5,-15 -15,-20 -44,-20 -26,0 -44,-7 -59,-23 -25,-27 -28,-47 -8,-47 8,0 24,-13 35,-28 18,-26 19,-31 5,-51 -11,-15 -22,-20 -35,-16 -10,4 -24,1 -31,-4 -7,-6 -23,-19 -35,-29 -13,-10 -23,-30 -23,-47 -3,-48 -1,-55 15,-49 11,5 15,-1 15,-25 0,-24 4,-31 20,-31 13,0 18,-5 14,-15 -4,-8 -15,-15 -25,-15 -12,0 -19,-7 -19,-20 0,-26 30,-100 40,-100 5,0 10,-10 12,-23 2,-18 9,-22 36,-20 27,1 32,-2 27,-17 -3,-10 1,-24 8,-32 8,-7 14,-25 13,-38 -1,-21 4,-25 29,-26 45,-2 67,-14 111,-63 34,-38 39,-50 38,-90 -2,-53 -13,-111 -23,-111 -10,0 -12,-68 -1,-75 5,-3 26,-1 47,4 29,8 40,7 53,-4 26,-23 40,-18 40,14 0,17 5,33 11,37 8,4 7,9 -2,15 -12,8 -11,12 3,23 10,7 14,17 9,22 -4,5 -4,28 1,51 7,31 14,43 27,43 10,0 30,14 45,32 46,56 31,96 -51,136 -72,34 -90,60 -107,151 -18,100 -46,115 -80,44 -14,-31 -19,-34 -30,-22 -26,28 -36,97 -20,143 8,22 13,49 10,59 -2,10 1,17 10,17 8,0 14,3 14,8 0,4 18,26 40,49 24,24 36,44 30,48 -5,3 -10,10 -10,16 0,5 8,4 18,-2 15,-10 28,-7 67,12 26,13 50,32 53,41 2,9 9,15 16,12 6,-2 47,2 91,11 75,14 82,14 149,-6 38,-12 84,-23 100,-25 179,-21 201,-26 232,-49 17,-13 34,-22 37,-18 3,3 21,0 39,-7 18,-7 56,-16 83,-20 28,-5 66,-11 86,-15 26,-5 47,-2 72,10 19,9 41,15 49,14 7,-2 46,0 86,5 51,5 72,11 72,21 0,8 5,17 12,21 8,5 9,0 5,-15 -5,-21 -4,-22 12,-7 10,9 27,16 39,16 h 22 v 380 380 h -284 c -174,0 -286,-4 -288,-10 z m -628,-454 c 0,-50 -30,-77 -44,-40 -6,16 -45,11 -57,-9 -4,-5 -10,-4 -15,4 -5,8 -22,21 -38,29 l -28,14 53,12 c 30,6 71,12 92,13 33,1 37,-2 37,-23 z m 874,-172 c 9,-3 16,-16 16,-29 0,-31 -49,-46 -94,-29 -19,7 -21,50 -3,57 18,8 63,8 81,1 z M 885,682 c 4,-26 9,-55 12,-64 8,-31 -13,-19 -40,22 -22,34 -24,45 -16,69 15,42 37,29 44,-27 z m 125,-177 c 56,-28 69,-55 45,-91 -23,-35 -57,-29 -65,11 -4,17 -14,44 -23,62 -27,52 -26,53 43,18 z"
           id="path3431" /></g></clipPath><radialGradient
       id="Gradient1"
       gradientUnits="userSpaceOnUse"
       cx="-80"
       cy="-80"
       r="405"><stop
         style="stop-color:#fff;stop-opacity:0.31"
         offset="0"
         id="stop7" /><stop
         style="stop-color:#fff;stop-opacity:0.25"
         offset="0.19"
         id="stop9" /><stop
         style="stop-color:#6b6b6b;stop-opacity:0.125"
         offset="0.6"
         id="stop11" /><stop
         style="stop-color:#000;stop-opacity:0.125"
         offset="1"
         id="stop13" /></radialGradient><clipPath
       id="shield_cut"><path
         id="shield"
         d="m -298.5,-298.5 h 597 V -40 C 298.5,246.31 0,358.5 0,358.5 0,358.5 -298.5,246.31 -298.5,-40 Z"
         inkscape:connector-curvature="0" /></clipPath><g
       id="f-2"><rect
         id="rect1964"
         style="fill:#28166f"
         y="-30"
         x="-50"
         height="60"
         width="100" /><g
         id="g1966"
         style="fill:#ffffff"
         transform="translate(0,-20)"><path
           id="path1968"
           d="m -1.2116,27.8178 c 0,-5.6426 -0.8798,-7.3463 -3.3301,-13.8374 C -5.709,10.8879 -5.0241,7.1025 -2.8585,3.6009 -2.0824,2.346 -1.1136,1.2135 0,0 1.1136,1.2135 2.0824,2.346 2.8585,3.6009 5.0241,7.1025 5.709,10.8879 4.5417,13.9804 2.0914,20.4715 1.2116,22.1752 1.2116,27.8178 Z"
           inkscape:connector-curvature="0" /><path
           id="rwi"
           d="m 2.9221,27.6725 c 0,-5.9516 2.3166,-9.8432 5.5786,-11.0121 1.4485,-0.519 3.3069,-0.2735 5.0186,1.4466 2.1186,2.129 2.7358,7.9934 -3.4838,9.1213 0.6583,-0.9559 0.6191,-3.0816 -0.714,-3.7874 -0.9904,-0.5244 -2.1125,-0.2532 -2.6753,0.1234 -0.8237,0.5513 -1.7291,2.1059 -1.679,4.1082 z"
           inkscape:connector-curvature="0" /><path
           id="path1971"
           d="M 1.7773,30.1835 C 1.7899,32.1913 2.7952,33.5181 4.5165,34.257 4.2948,34.9549 3.2566,36.3776 1.8314,36.2812 1.5499,37.787 1.2822,38.6324 0,40 c -1.2822,-1.3676 -1.5499,-2.213 -1.8314,-3.7188 -1.4252,0.0964 -2.4634,-1.3263 -2.6851,-2.0242 1.7213,-0.7389 2.7266,-2.0657 2.7392,-4.0735 z"
           inkscape:connector-curvature="0" /><use
           xlink:href="#rwi"
           height="400"
           width="800"
           y="0"
           x="0"
           id="use1973"
           transform="scale(-1,1)" /><rect
           id="rect1975"
           y="27.33077"
           x="-7.9229999"
           height="3.2179999"
           width="15.846" /></g></g></defs><g
     transform="matrix(1.25,0,0,-1.25,-101.84723,636.18477)"
     id="g6701"
     style="fill:#ffffff"><g
       id="g14487"
       style="fill:#ffffff"><g
         id="afup"
         style="fill:#ffffff"><title
           id="title14389">Association Française des Utilisateurs de PHP</title><g
           transform="matrix(1.838491,0,0,1.838491,103.11939,426.47736)"
           id="a"
           style="fill:#ffffff"><title
             id="title14365">association</title><path
             id="path6737"
             style="fill:#ffffff;fill-opacity:1;fill-rule:nonzero;stroke:none"
             d="m 0,0 c -0.939,-0.751 -1.409,-1.764 -1.409,-3.037 0,-1.274 0.511,-2.275 1.534,-3.005 1.022,-0.731 2.452,-1.096 4.29,-1.096 3.465,0 6.303,0.939 8.516,2.818 V 2.442 L 3.789,1.44 C 2.201,1.231 0.939,0.751 0,0 m 24.077,-7.138 v -3.758 c -1.628,-0.792 -3.424,-1.189 -5.385,-1.189 -1.963,0 -3.372,0.376 -4.227,1.127 -0.856,0.751 -1.346,1.836 -1.472,3.256 -2.296,-2.923 -5.312,-4.383 -9.048,-4.383 -3.736,0 -6.565,0.751 -8.485,2.254 -1.92,1.503 -2.88,3.61 -2.88,6.325 0,5.217 3.632,8.223 10.896,9.017 l 9.455,1.002 v 1.816 c 0,2.42 -0.501,4.257 -1.503,5.51 -1.001,1.252 -2.589,1.879 -4.759,1.879 -4.008,0 -7.264,-0.439 -9.769,-1.316 l -1.252,-0.438 -1.127,4.008 c 1.168,0.667 2.943,1.283 5.323,1.847 2.38,0.564 4.592,0.846 6.637,0.846 4.467,0 7.64,-0.888 9.518,-2.662 1.879,-1.774 2.818,-4.269 2.818,-7.483 V -7.138 Z"
             inkscape:connector-curvature="0" /></g><g
           transform="matrix(1.838491,0,0,1.838491,184.98446,405.525)"
           id="f"
           style="fill:#ffffff"><title
             id="title14367">française</title><path
             id="path6741"
             style="fill:#ffffff;fill-opacity:1;fill-rule:nonzero;stroke:none"
             d="m 0,0 h -16.594 v 2.692 l 5.26,2.067 v 21.478 h -4.884 v 3.758 l 4.884,2.004 v 3.756 c 0,4.133 1.054,7.274 3.162,9.425 2.108,2.149 5.082,3.224 8.924,3.224 1.503,0 2.89,-0.218 4.164,-0.657 1.272,-0.438 2.16,-0.888 2.661,-1.346 L 8.392,45.712 6.7,42.456 c -1.169,0.667 -2.911,1.002 -5.228,1.002 -2.317,0 -4.03,-0.679 -5.135,-2.036 -1.107,-1.357 -1.659,-3.83 -1.659,-7.42 V 31.31 H 4.759 V 26.237 H -5.322 V 4.759 L 0,2.692 Z"
             inkscape:connector-curvature="0" /></g><g
           transform="matrix(1.838491,0,0,1.838491,267.44721,413.35385)"
           id="u"
           style="fill:#ffffff"><title
             id="title14369">utilisateurs</title><path
             id="path6745"
             style="fill:#ffffff;fill-opacity:1;fill-rule:nonzero;stroke:none"
             d="m 0,0 v -3.757 c -1.628,-0.793 -3.466,-1.19 -5.511,-1.19 -2.046,0 -3.465,0.428 -4.258,1.283 -0.793,0.856 -1.252,2.119 -1.377,3.789 -0.543,-0.626 -1.169,-1.252 -1.878,-1.878 -0.711,-0.627 -1.89,-1.315 -3.538,-2.067 -1.65,-0.751 -3.373,-1.127 -5.167,-1.127 -3.256,0 -5.698,0.908 -7.326,2.724 -1.629,1.816 -2.442,4.289 -2.442,7.42 v 17.659 h -5.26 v 3.757 c 1.628,0.792 3.516,1.19 5.667,1.19 2.15,0 3.601,-0.512 4.352,-1.534 0.752,-1.024 1.127,-2.579 1.127,-4.665 V 7.389 c 0,-2.464 0.407,-4.3 1.221,-5.511 0.814,-1.211 2.286,-1.816 4.414,-1.816 2.129,0 3.946,0.407 5.449,1.222 1.503,0.814 2.63,1.659 3.381,2.535 v 19.037 h -5.26 v 3.757 c 1.628,0.792 3.516,1.19 5.667,1.19 2.149,0 3.6,-0.512 4.352,-1.534 0.751,-1.024 1.127,-2.579 1.127,-4.665 L -5.26,0 Z"
             inkscape:connector-curvature="0" /></g><g
           transform="matrix(1.838491,0,0,1.838491,300.741,413.46875)"
           id="p"
           style="fill:#ffffff"><title
             id="title14371">PHP</title><path
             id="path6749"
             style="fill:#ffffff;fill-opacity:1;fill-rule:nonzero;stroke:none"
             d="m 0,0 c 3.382,0 6.021,1.002 7.921,3.006 1.899,2.003 2.85,4.8 2.85,8.39 0,3.59 -0.919,6.397 -2.755,8.423 -1.838,2.024 -3.8,3.037 -5.887,3.037 -3.632,0 -6.346,-1.149 -8.141,-3.444 V 1.127 C -3.674,0.375 -1.67,0 0,0 m -0.752,-21.291 h -16.469 v 2.693 l 5.324,2.066 v 39.576 h -5.26 v 3.444 c 1.628,0.792 3.412,1.19 5.353,1.19 1.942,0 3.328,-0.356 4.164,-1.065 0.835,-0.71 1.336,-1.753 1.503,-3.131 2.045,2.838 5.093,4.258 9.143,4.258 3.297,0 6.345,-1.127 9.142,-3.381 1.418,-1.17 2.557,-2.829 3.413,-4.979 0.855,-2.15 1.284,-4.644 1.284,-7.483 0,-2.839 -0.481,-5.375 -1.441,-7.607 C 14.443,2.056 13.15,0.292 11.521,-1.002 8.224,-3.632 4.383,-4.947 0,-4.947 c -1.753,0 -3.757,0.293 -6.012,0.877 v -12.462 l 5.26,-2.066 z"
             inkscape:connector-curvature="0" /></g><text
           transform="scale(1,-1)"
           id="text11751"
           y="-422.40115"
           x="261.39328"
           style="font-style:normal;font-weight:normal;font-size:32px;line-height:125%;font-family:sans-serif;letter-spacing:0px;word-spacing:0px;fill:#ffffff;fill-opacity:1;stroke:none;stroke-width:1px;stroke-linecap:butt;stroke-linejoin:miter;stroke-opacity:1"
           xml:space="preserve"><tspan
             y="-422.40115"
             x="261.39328"
             id="tspan11753"
             style="fill:#ffffff" /></text>
</g></g></g><g
     aria-label="POITIERS"
     style="font-style:normal;font-weight:normal;font-size:40px;line-height:1.25;font-family:sans-serif;letter-spacing:17px;word-spacing:0px;fill:#ffffff;fill-opacity:1;stroke:none"
     id="text71"><path
       d="m 555.58236,105.09892 v 24.71485 H 541.12923 V 59.66793 h 27.36459 q 7.90104,0 13.875,2.890625 6.02213,2.890625 9.25,8.238281 3.22786,5.29948 3.22786,12.092449 0,10.309896 -7.08203,16.283855 -7.03385,5.92578 -19.51172,5.92578 z m 0,-11.70703 h 12.91146 q 5.73307,0 8.72005,-2.697917 3.03516,-2.697917 3.03516,-7.708334 0,-5.154948 -3.03516,-8.334636 -3.03516,-3.179687 -8.38281,-3.276042 h -13.2487 z"
       style="font-style:normal;font-variant:normal;font-weight:bold;font-stretch:normal;font-size:98.66667175px;font-family:Roboto;-inkscape-font-specification:'Roboto Bold';letter-spacing:8px;fill:#ffffff;fill-opacity:1"
       id="path116" /><path
       d="m 670.34278,96.330692 q 0,10.358078 -3.66146,18.162758 -3.66146,7.80469 -10.50261,12.04427 -6.79297,4.23959 -15.60937,4.23959 -8.72005,0 -15.5612,-4.19141 -6.84115,-4.1914 -10.59896,-11.94792 -3.75781,-7.80468 -3.80599,-17.921871 v -3.468751 q 0,-10.358073 3.70964,-18.210938 3.75781,-7.901042 10.55078,-12.092449 6.84114,-4.239583 15.60937,-4.239583 8.76823,0 15.5612,4.239583 6.84115,4.191407 10.55078,12.092449 3.75782,7.852865 3.75782,18.162761 z m -14.64584,-3.179688 q 0,-11.032552 -3.95052,-16.765626 -3.95052,-5.733073 -11.27344,-5.733073 -7.27474,0 -11.22526,5.684896 -3.95052,5.636719 -3.9987,16.572918 v 3.420573 q 0,10.743488 3.95053,16.669268 3.95052,5.92579 11.36979,5.92579 7.27474,0 11.17708,-5.6849 3.90235,-5.73307 3.95052,-16.669273 z"
       style="font-style:normal;font-variant:normal;font-weight:bold;font-stretch:normal;font-size:98.66667175px;font-family:Roboto;-inkscape-font-specification:'Roboto Bold';letter-spacing:8px;fill:#ffffff;fill-opacity:1"
       id="path118" /><path
       d="M 704.31022,129.81377 H 689.8571 V 59.66793 h 14.45312 z"
       style="font-style:normal;font-variant:normal;font-weight:bold;font-stretch:normal;font-size:98.66667175px;font-family:Roboto;-inkscape-font-specification:'Roboto Bold';letter-spacing:8px;fill:#ffffff;fill-opacity:1"
       id="path120" /><path
       d="M 777.10841,71.374961 H 755.62143 V 129.81377 H 741.16831 V 71.374961 H 719.97039 V 59.66793 h 57.13802 z"
       style="font-style:normal;font-variant:normal;font-weight:bold;font-stretch:normal;font-size:98.66667175px;font-family:Roboto;-inkscape-font-specification:'Roboto Bold';letter-spacing:8px;fill:#ffffff;fill-opacity:1"
       id="path122" /><path
       d="M 808.76335,129.81377 H 794.31022 V 59.66793 h 14.45313 z"
       style="font-style:normal;font-variant:normal;font-weight:bold;font-stretch:normal;font-size:98.66667175px;font-family:Roboto;-inkscape-font-specification:'Roboto Bold';letter-spacing:8px;fill:#ffffff;fill-opacity:1"
       id="path124" /><path
       d="m 872.31155,99.414025 h -27.75001 v 18.789065 h 32.56771 v 11.61068 H 830.10842 V 59.66793 H 877.0329 V 71.374961 H 844.56154 V 88.09241 h 27.75001 z"
       style="font-style:normal;font-variant:normal;font-weight:bold;font-stretch:normal;font-size:98.66667175px;font-family:Roboto;-inkscape-font-specification:'Roboto Bold';letter-spacing:8px;fill:#ffffff;fill-opacity:1"
       id="path126" /><path
       d="m 919.57587,104.13538 h -11.51433 v 25.67839 H 893.60842 V 59.66793 h 26.0638 q 12.42969,0 19.17448,5.540364 6.74479,5.540365 6.74479,15.657553 0,7.178386 -3.13151,11.996095 -3.08333,4.769531 -9.39453,7.611978 l 15.17578,28.66537 v 0.67448 H 932.72821 Z M 908.06154,92.428348 h 11.65886 q 5.44401,0 8.43099,-2.746094 2.98698,-2.794271 2.98698,-7.660157 0,-4.962239 -2.84245,-7.804688 -2.79427,-2.842448 -8.6237,-2.842448 h -11.61068 z"
       style="font-style:normal;font-variant:normal;font-weight:bold;font-stretch:normal;font-size:98.66667175px;font-family:Roboto;-inkscape-font-specification:'Roboto Bold';letter-spacing:8px;fill:#ffffff;fill-opacity:1"
       id="path128" /><path
       d="m 1000.9977,111.41012 q 0,-4.09505 -2.89058,-6.26302 -2.89063,-2.21615 -10.40625,-4.625 -7.51563,-2.457033 -11.89974,-4.81771 -11.94792,-6.45573 -11.94792,-17.391928 0,-5.684896 3.17969,-10.117188 3.22786,-4.480469 9.20182,-6.985678 6.02214,-2.505208 13.48959,-2.505208 7.51562,0 13.39319,2.746094 5.8776,2.697917 9.1055,7.660156 3.276,4.96224 3.276,11.273438 h -14.4531 q 0,-4.817708 -3.03514,-7.467448 -3.03515,-2.697917 -8.52734,-2.697917 -5.29948,0 -8.23828,2.264323 -2.9388,2.216146 -2.9388,5.877605 0,3.420573 3.42057,5.733073 3.46875,2.3125 10.16536,4.335938 12.33333,3.709635 17.97003,9.201823 5.6367,5.492187 5.6367,13.682297 0,9.10546 -6.8893,14.30859 -6.8893,5.15495 -18.54815,5.15495 -8.09376,0 -14.74219,-2.9388 -6.64844,-2.98698 -10.16537,-8.14193 -3.46875,-5.15495 -3.46875,-11.94792 h 14.5013 q 0,11.61068 13.87501,11.61068 5.15494,0 8.04557,-2.07162 2.89058,-2.11979 2.89058,-5.8776 z"
       style="font-style:normal;font-variant:normal;font-weight:bold;font-stretch:normal;font-size:98.66667175px;font-family:Roboto;-inkscape-font-specification:'Roboto Bold';letter-spacing:8px;fill:#ffffff;fill-opacity:1"
       id="path130" /></g><g
     transform="translate(338.40425,0.39301486)"
     style="display:inline"
     id="g393"><g
       mask="none"
       clip-path="none"
       id="lion"
       transform="matrix(1.2945423,0,0,1.2945423,-418.17995,-611.33282)"><title
         id="title17040">lion</title><g
         transform="matrix(1.25,0,0,-1.25,-1.3964844e-4,1275.3973)"
         id="g5080"><path
           id="path5082-8"
           style="fill:#4c9edc;fill-opacity:1;fill-rule:nonzero;stroke:none"
           d="m 288.7891,571.9068 v 0 l -21.482,-12.403 c 0.994,-1.721 2.433,-3.185 4.214,-4.213 l 17.268,-9.97 z"
           inkscape:connector-curvature="0" /><path
           id="path5084-8"
           style="fill:#498cd2;fill-opacity:1;fill-rule:nonzero;stroke:none"
           d="m 265.7649,585.1998 v -19.939 c 0,-2.057 0.549,-4.035 1.542,-5.756 l 21.482,12.402 z"
           inkscape:connector-curvature="0" /><path
           id="path5086-9"
           style="fill:#487dc8;fill-opacity:1;fill-rule:nonzero;stroke:none"
           d="m 288.7891,571.9068 v 26.586 l -23.024,-13.293 v 0 z"
           inkscape:connector-curvature="0" /><path
           id="path5088-6"
           style="fill:#5295d6;fill-opacity:1;fill-rule:nonzero;stroke:none"
           d="m 288.7891,545.3209 v 0 l 17.268,-9.97 c 1.781,-1.028 3.769,-1.542 5.756,-1.542 v 24.805 z"
           inkscape:connector-curvature="0" /><path
           id="path5090-0"
           style="fill:#476bbc;fill-opacity:1;fill-rule:nonzero;stroke:none"
           d="m 267.3072,610.8954 c -0.994,-1.721 -1.542,-3.7 -1.542,-5.756 v -19.94 l 23.024,13.293 z"
           inkscape:connector-curvature="0" /><path
           id="path5092-2"
           style="fill:#7f9ad6;fill-opacity:1;fill-rule:nonzero;stroke:none"
           d="m 334.8373,545.3209 v 26.586 l -23.024,-13.293 z"
           inkscape:connector-curvature="0" /><path
           id="path5094-5"
           style="fill:#727ebd;fill-opacity:1;fill-rule:nonzero;stroke:none"
           d="m 356.3192,559.5043 c 0.994,1.721 1.542,3.7 1.542,5.756 v 19.939 l -23.024,-13.293 z"
           inkscape:connector-curvature="0" /><path
           id="path5096-0"
           style="fill:#8f9fd8;fill-opacity:1;fill-rule:nonzero;stroke:none"
           d="m 334.8373,571.9068 v -26.586 l 17.268,9.97 c 1.781,1.028 3.22,2.492 4.214,4.214 z"
           inkscape:connector-curvature="0" /><path
           id="path5098-9"
           style="fill:#425da2;fill-opacity:1;fill-rule:nonzero;stroke:none"
           d="m 334.8373,598.4928 v 0 -26.586 l 23.024,13.293 v 0 z"
           inkscape:connector-curvature="0" /><path
           id="path5100-5"
           style="fill:#6495d5;fill-opacity:1;fill-rule:nonzero;stroke:none"
           d="m 311.8132,558.6138 v -24.805 c 1.987,0 3.975,0.514 5.756,1.542 l 17.268,9.97 z"
           inkscape:connector-curvature="0" /><path
           id="path5102-1"
           style="fill:#3a64ad;fill-opacity:1;fill-rule:nonzero;stroke:none"
           d="m 311.8132,611.7858 -23.024,13.293 v -26.586 z"
           inkscape:connector-curvature="0" /><path
           id="path5104-7"
           style="fill:#3a61a3;fill-opacity:1;fill-rule:nonzero;stroke:none"
           d="m 311.8132,611.7858 23.024,-13.293 v 26.586 z"
           inkscape:connector-curvature="0" /><path
           id="path5106-7"
           style="fill:#32549d;fill-opacity:1;fill-rule:nonzero;stroke:none"
           d="m 267.3072,610.8954 21.482,-12.403 v 26.586 l -17.268,-9.969 c -1.781,-1.029 -3.22,-2.493 -4.214,-4.214"
           inkscape:connector-curvature="0" /><path
           id="path5108-7"
           style="fill:#2f5296;fill-opacity:1;fill-rule:nonzero;stroke:none"
           d="m 334.8373,598.4928 23.024,-13.293 v 19.939 c 0,2.057 -0.548,4.035 -1.542,5.757 z"
           inkscape:connector-curvature="0" /><path
           id="path5110-4"
           style="fill:#325295;fill-opacity:1;fill-rule:nonzero;stroke:none"
           d="m 334.8373,598.4928 21.482,12.403 c -0.994,1.721 -2.433,3.185 -4.214,4.213 l -17.268,9.97 z"
           inkscape:connector-curvature="0" /><path
           id="path5112-0"
           style="fill:#4379c6;fill-opacity:1;fill-rule:nonzero;stroke:none"
           d="m 334.8373,625.0788 -17.269,9.97 c -1.781,1.028 -3.768,1.542 -5.755,1.542 v -24.805 z"
           inkscape:connector-curvature="0" /><path
           id="path5114-8"
           style="fill:#3f73bd;fill-opacity:1;fill-rule:nonzero;stroke:none"
           d="m 311.8132,611.7858 v 24.805 c -1.987,0 -3.975,-0.514 -5.755,-1.542 l -17.269,-9.97 z"
           inkscape:connector-curvature="0" /><path
           id="path5116-4"
           style="fill:#50a0dd;fill-opacity:1;fill-rule:nonzero;stroke:none"
           d="m 288.7891,545.3209 23.024,13.293 -23.024,13.293 z"
           inkscape:connector-curvature="0" /><path
           d="m 288.7891,598.4929 v 0 -26.586 l 23.024,13.293 v 0 z"
           style="fill:#425da2;fill-opacity:1;fill-rule:nonzero;stroke:none"
           id="path5118-4"
           inkscape:connector-curvature="0" /><path
           d="m 334.8371,571.9069 v 26.586 l -23.024,-13.293 v 0 z"
           style="fill:#487dc8;fill-opacity:1;fill-rule:nonzero;stroke:none"
           id="path5120-6"
           inkscape:connector-curvature="0" /><path
           style="fill:#3f73bd;fill-opacity:1;fill-rule:nonzero;stroke:none"
           d="m 389.76562,543.89648 v 0.002 l -28.77929,16.61523 28.77929,16.61719 28.78126,-16.61719 -28.78126,-16.61719 z"
           transform="matrix(0.8,0,0,-0.8,1.1171875e-4,1020.3178)"
           id="path5122-9"
           inkscape:connector-curvature="0" /><path
           d="m 311.8133,585.1998 v 26.586 l -23.024,-13.293 z"
           style="fill:#2f5296;fill-opacity:1;fill-rule:nonzero;stroke:none"
           id="path5124-5"
           inkscape:connector-curvature="0" /><path
           d="m 311.8132,585.1998 23.024,13.293 -23.024,13.293 z"
           style="fill:#498cd2;fill-opacity:1;fill-rule:nonzero;stroke:none"
           id="path5126-1"
           inkscape:connector-curvature="0" /></g><path
         inkscape:connector-curvature="0"
         id="path3146"
         d=""
         style="fill:#000000" /></g><g
       transform="matrix(0.16722367,0,0,0.16722367,36.320814,43.964523)"
       id="g4584"><path
         inkscape:connector-curvature="0"
         id="path335"
         d="m 286.70517,717.52072 c -0.29593,-0.29585 -5.58807,-1.13228 -11.7604,-1.85873 -40.58989,-4.77718 -79.36016,-22.29136 -103.70343,-46.84736 -15.64078,-15.77738 -22.38698,-29.71341 -22.37549,-46.22259 0.009,-11.61091 2.25145,-18.51334 13.51444,-41.58137 21.58284,-44.2042 52.56031,-73.90216 90.07583,-86.35526 4.89197,-1.6238 14.95282,-3.83784 22.35748,-4.91998 11.38298,-1.66354 15.30247,-1.75373 25.36892,-0.58341 39.55159,4.59813 71.54299,24.24478 97.55841,59.91289 12.1771,16.69522 25.48393,42.47454 30.91383,59.88907 2.13627,6.8516 2.13713,21.56653 0,28.60268 -11.53875,38.01744 -66.41718,73.01925 -124.26939,79.25989 -12.58519,1.35751 -16.85828,1.52772 -17.68175,0.70417 z m -55.07983,-44.49765 c 1.94123,-0.73802 3.04193,-2.06363 3.04193,-3.66353 0,-1.37885 -4.72937,-9.79728 -10.50977,-18.70762 -5.78047,-8.91033 -11.98463,-18.56427 -13.78709,-21.45323 -9.45843,-15.15941 -17.12883,-16.49123 -22.77861,-3.95511 -3.58312,7.95035 -3.96186,15.84389 -1.03224,21.50926 2.61537,5.05752 14.32611,16.41155 19.81569,19.2121 3.22494,1.6453 20.08679,7.92141 21.98875,8.18443 0.12061,0.0163 1.58818,-0.49012 3.26134,-1.1263 z m 129.49789,-1.8911 c 11.50126,-4.30289 17.15856,-7.86808 23.26865,-14.66403 10.17634,-11.31848 11.51515,-18.71725 5.70558,-31.53007 -3.2854,-7.24562 -3.71087,-7.68242 -7.48336,-7.68242 -2.87328,0 -5.05853,1.03488 -7.75795,3.67406 -3.55891,3.47951 -31.08404,46.46559 -31.08404,48.54404 0,1.94846 3.78895,4.70609 6.4661,4.70609 1.50637,0 6.40463,-1.3714 10.88502,-3.04767 z M 184.22662,620.69078 c 1.89055,-3.98087 5.20769,-8.65048 7.37129,-10.3768 4.45478,-3.55448 4.93217,-4.91774 1.72205,-4.91774 -3.79406,0 -8.20965,4.53426 -12.08862,12.41367 -3.35114,6.80695 -3.77731,10.11882 -1.30226,10.11882 0.47305,0 2.40691,-3.25707 4.29754,-7.23795 z m 216.46978,5.09896 c 0,-3.60345 -5.90885,-14.2356 -9.67063,-17.40085 -3.54369,-2.98186 -8.11822,-4.02341 -8.11822,-1.84849 0,0.62936 1.17862,1.77499 2.61917,2.54599 3.60283,1.92819 6.24436,5.30176 9.8787,12.61622 3.13709,6.31382 5.29098,7.97759 5.29098,4.08713 z M 145.27636,594.08311 c -0.40653,-1.05932 -0.75858,-4.68412 -0.7824,-8.05512 -0.0241,-3.44264 -2.27202,-14.18602 -5.12799,-24.51084 l -5.0846,-18.3818 -6.13834,-0.35849 c -3.37605,-0.19714 -6.14315,-0.7308 -6.14913,-1.18592 -0.008,-0.45511 1.09798,-6.71919 2.45332,-13.92019 l 2.46426,-13.09278 -2.4544,-9.37034 c -1.34983,-5.15375 -3.12094,-9.79371 -3.93571,-10.31108 -0.81478,-0.51736 -6.95148,-0.9488 -13.63715,-0.95882 -6.68558,-0.0101 -12.155681,-0.27699 -12.155681,-0.59342 0,-0.31635 2.96858,-13.2577 6.596871,-28.75862 3.62829,-15.50077 6.38042,-29.78434 6.11576,-31.7411 -0.26458,-1.95675 -2.17842,-12.89688 -4.25299,-24.31137 -2.07449,-11.41449 -4.050271,-22.48803 -4.390591,-24.60785 l -0.61873,-3.85429 H 84.514551 c -12.447506,0 -13.611765,-0.1848 -13.074845,-2.07535 0.324186,-1.14144 6.019517,-21.28729 12.656283,-44.76852 6.63677,-23.48123 13.82489,-47.06608 15.973661,-52.41068 7.09111,-17.63743 15.01623,-29.30788 29.70905,-43.74901 l 13.37428,-13.14524 -2.14497,-8.20135 c -3.98367,-15.23192 -5.20412,-27.71435 -4.94707,-50.59812 l 0.24983,-22.23602 h -7.6073 -7.60723 l 1.7739,-5.04021 c 0.97566,-2.77207 4.32074,-12.51146 7.43361,-21.64307 l 5.65971,-16.602861 0.43261,-29.055089 0.43268,-29.0551 -6.85183,-0.35663 c -4.03916,-0.21025 -6.56023,-0.82843 -6.14152,-1.50599 0.3907,-0.63215 3.53097,-9.54396 6.97849,-19.80404 l 6.26819,-18.6546898 0.70386,-21.9395502 c 1.09395,-34.09538 6.18833,-51.77371 21.87195,-75.898971 15.75479,-24.234689 36.44493,-36.674589 53.19688,-31.984339 10.74656,3.00887 31.42763,21.401 42.20647,37.535234 11.01766,16.491716 16.51912,30.658496 18.67138,48.080316 0.66684,5.39854 3.13312,55.44391 5.48058,111.21193 2.34738,55.76794 4.47504,102.06333 4.72821,102.87872 0.28002,0.90209 2.57843,1.48239 5.87127,1.48239 3.29852,0 5.58652,-0.57875 5.86057,-1.48239 0.2472,-0.81539 2.39216,-47.64444 4.76655,-104.06463 2.37439,-56.42028 4.84486,-106.68692 5.48997,-111.70369 2.96144,-23.0317 15.1058,-45.951331 34.73188,-65.54815 20.08151,-20.05163 32.26506,-23.6644 50.13548,-14.86683 18.85695,9.28318 38.38089,37.327613 46.64697,67.00392 2.71091,9.73272 4.68598,27.76946 4.74,43.28614 L 442.24,1.1691102 448.74452,20.09334 c 3.57753,10.40841 6.50459,19.31936 6.50459,19.80227 0,0.4829 -2.8018,1.0393 -6.22612,1.23636 l -6.22612,0.35849 0.24727,34.08878 c 0.19139,26.38455 0.64092,35.22938 1.98912,39.13544 0.95797,2.77564 3.379,9.58277 5.38,15.12699 2.00099,5.54414 3.64086,10.74741 3.64404,11.56272 0,0.96092 -1.81946,1.4824 -5.18325,1.4824 h -5.18914 l -0.61694,28.16566 c -0.59265,27.05876 -1.94589,38.69491 -5.62548,48.37306 -1.14245,3.00491 -0.47413,3.8855 12.88469,16.97819 10.64194,10.42998 15.58971,16.33246 20.21982,24.12138 10.49998,17.66382 15.72297,32.49797 17.24665,48.98371 0.42198,4.56577 4.47907,21.28761 9.01565,37.15951 4.53666,15.87199 8.24846,29.08017 8.24846,29.35158 0,0.27141 -4.96306,0.49346 -11.02899,0.49346 h -11.02906 l -2.13876,13.71763 c -1.17637,7.54459 -3.6421,21.35885 -5.47957,30.6983 -2.34979,11.94349 -3.06133,18.16434 -2.3986,20.97064 8.58591,36.35886 11.91431,50.86402 11.91431,51.92172 0,0.84325 -4.46922,1.28386 -13.02254,1.28386 h -13.02253 l -0.7443,3.26133 c -0.4094,1.7937 -1.5174,6.0376 -2.46217,9.43088 -1.56675,5.6268 -1.50319,7.34475 0.72172,19.52566 1.34176,7.34583 2.43958,13.74735 2.43958,14.2256 0,0.47816 -2.75376,1.03076 -6.11941,1.2279 l -6.11948,0.35849 -5.13101,18.3818 c -3.12746,11.20393 -5.14436,20.92873 -5.16501,24.90433 -0.0186,3.58739 -0.57549,7.32309 -1.23745,8.30147 -2.01457,2.97774 -7.87328,-5.10362 -18.21913,-25.13103 -12.99684,-25.15936 -15.86919,-29.34809 -29.58457,-43.14333 -34.98419,-35.18793 -82.10786,-49.29991 -126.78247,-37.9673 -26.14752,6.63289 -44.9714,16.99868 -64.44412,35.48752 -13.85687,13.1568 -19.61056,21.18088 -30.88519,43.07238 -8.395,16.30025 -15.59779,27.87501 -17.76697,28.55132 -0.73498,0.22911 -1.66889,-0.45007 -2.07534,-1.5094 z m 64.99921,-175.93243 c 0.35888,-0.58077 -1.18987,-1.40152 -3.44163,-1.82396 -10.97971,-2.05983 -16.2505,-16.96228 -8.55604,-24.19084 3.32925,-3.12769 10.47189,-6.13516 14.57067,-6.13516 8.42176,0 19.44687,7.12262 19.44687,12.56346 0,0.99413 0.53366,1.47773 1.18591,1.07462 2.11284,-1.30575 1.42853,-20.8574 -0.89121,-25.46523 -3.04387,-6.04606 -10.60756,-11.23901 -18.94791,-13.00896 -6.20354,-1.31653 -8.02773,-1.25071 -14.07504,0.5072 -8.37807,2.43562 -12.51363,5.2205 -15.9076,10.71202 -2.32581,3.7631 -2.51735,5.45668 -2.15902,19.08916 l 0.39318,14.95974 5.52374,4.99806 c 3.03804,2.74887 7.30733,5.56851 9.48738,6.26578 4.97889,1.59252 12.50905,1.84826 13.3707,0.45411 z m 171.44606,-1.41564 c 11.93737,-5.4119 14.23104,-9.83385 14.23104,-27.43534 0,-12.41041 -0.2264,-13.75488 -3.00522,-17.84419 -3.23992,-4.76802 -8.73625,-8.09207 -17.10726,-10.34616 -10.55098,-2.84106 -25.30193,2.96952 -30.91694,12.17859 -1.86137,3.05271 -2.32906,5.97838 -2.33263,14.59045 0,5.92468 0.33661,11.1132 0.75346,11.53005 0.41685,0.41686 1.78461,-1.31715 3.03945,-3.85328 7.96633,-16.10141 38.19431,-9.69763 36.06649,7.64068 -0.68151,5.55353 -6.89994,12.08622 -12.58751,13.22378 -1.93565,0.38713 -3.22975,1.17256 -2.87569,1.74534 1.14059,1.84546 9.24477,1.05902 14.73481,-1.42992 z M 210.80186,176.09592 c 7.89214,-3.58553 14.54171,-7.0544 14.77688,-7.70844 0.23516,-0.65411 -0.008,-11.10978 -0.5384,-23.23481 -0.53125,-12.12511 -1.78756,-40.67611 -2.79171,-63.44688 -1.00414,-22.77069 -2.37151,-54.47601 -3.03859,-70.45635 -1.88093,-45.05949 -2.73466,-53.11042 -6.42581,-60.5972 -4.84572,-9.82848 -6.24871,-11.41309 -8.25064,-9.31818 -0.90658,0.94865 -3.11302,5.72738 -4.90314,10.61935 l -3.25474,8.89435 -0.92366,57.51724 c -1.29279,80.505089 -1.31988,165.12099 -0.0528,164.64546 0.5793,-0.21739 7.51044,-3.32894 15.40259,-6.91454 z M 384.71335,77.36463 c -0.63293,-78.7412802 -1.25064,-108.18863 -2.41242,-115.00196 -1.60129,-9.39091 -6.64864,-22.26854 -8.7281,-22.26854 -1.59671,0 -7.92932,11.38903 -9.5615,17.19589 -0.73336,2.60901 -1.83266,15.41702 -2.44292,28.46214 -1.6245,34.72598 -7.0641,162.02116 -7.41498,173.52227 l -0.30098,9.86511 14.82399,6.92355 c 8.15323,3.80796 15.28834,6.97337 15.85592,7.03429 0.58387,0.0629 0.66249,-45.83204 0.18099,-105.73275 z"
         style="fill:#ffffff;stroke-width:1.18592167" /></g></g></svg>