<?xml version="1.0" encoding="UTF-8" standalone="no"?>
<svg
   xmlns:dc="http://purl.org/dc/elements/1.1/"
   xmlns:cc="http://creativecommons.org/ns#"
   xmlns:rdf="http://www.w3.org/1999/02/22-rdf-syntax-ns#"
   xmlns:svg="http://www.w3.org/2000/svg"
   xmlns="http://www.w3.org/2000/svg"
   xmlns:xlink="http://www.w3.org/1999/xlink"
   xmlns:sodipodi="http://sodipodi.sourceforge.net/DTD/sodipodi-0.dtd"
   xmlns:inkscape="http://www.inkscape.org/namespaces/inkscape"
   viewBox="0 0 1269.9999 186.31835"
   height="186.31836"
   width="1270"
   xml:space="preserve"
   version="1.1"
   id="svg6693"
   sodipodi:docname="afup-paris_icon-and-text_colors-and-white_for-dark-background.svg"
   inkscape:version="0.92.2 (5c3e80d, 2017-08-06)"
   inkscape:export-xdpi="75.589996"
   inkscape:export-ydpi="75.589996"><sodipodi:namedview
     pagecolor="#ffffff"
     bordercolor="#666666"
     borderopacity="1"
     objecttolerance="10"
     gridtolerance="10"
     guidetolerance="10"
     inkscape:pageopacity="0"
     inkscape:pageshadow="2"
     inkscape:window-width="1853"
     inkscape:window-height="1025"
     id="namedview67"
     showgrid="false"
     inkscape:zoom="0.72743085"
     inkscape:cx="624.45712"
     inkscape:cy="41.711587"
     inkscape:window-x="67"
     inkscape:window-y="27"
     inkscape:window-maximized="1"
     inkscape:current-layer="text71" /><metadata
     id="metadata6699"><rdf:RDF><cc:Work
         rdf:about=""><dc:format>image/svg+xml</dc:format><dc:type
           rdf:resource="http://purl.org/dc/dcmitype/StillImage" /><dc:title /></cc:Work></rdf:RDF></metadata><defs
     id="defs6697"><clipPath
       id="clipPath6707"
       clipPathUnits="userSpaceOnUse"><path
         id="path6709"
         d="M 0,870.236 H 623.626 V 0 H 0 Z"
         inkscape:connector-curvature="0" /></clipPath><clipPath
       id="clipPath6719"
       clipPathUnits="userSpaceOnUse"><path
         id="path6721"
         d="M 0,870.236 H 623.626 V 0 H 0 Z"
         inkscape:connector-curvature="0" /></clipPath><clipPath
       id="clipPath6731"
       clipPathUnits="userSpaceOnUse"><path
         id="path6733"
         d="M 0,870.236 H 623.626 V 0 H 0 Z"
         inkscape:connector-curvature="0" /></clipPath><clipPath
       clipPathUnits="userSpaceOnUse"
       id="clipPath4150"><path
         d="M 0,870.236 H 623.626 V 0 H 0 Z"
         id="path4152"
         inkscape:connector-curvature="0" /></clipPath><clipPath
       clipPathUnits="userSpaceOnUse"
       id="clipPath4162"><path
         d="M 0,870.236 H 623.626 V 0 H 0 Z"
         id="path4164"
         inkscape:connector-curvature="0" /></clipPath><clipPath
       clipPathUnits="userSpaceOnUse"
       id="clipPath4390"><path
         d="M 0,870.236 H 623.626 V 0 H 0 Z"
         id="path4392"
         inkscape:connector-curvature="0" /></clipPath><clipPath
       clipPathUnits="userSpaceOnUse"
       id="clipPath4398"><path
         d="M -80.514,14.173 H -675.79 v 841.89 h 595.276 z"
         id="path4400"
         inkscape:connector-curvature="0" /></clipPath><clipPath
       id="clipPath6707-5"
       clipPathUnits="userSpaceOnUse"><path
         id="path6709-3"
         d="M 0,870.236 H 623.626 V 0 H 0 Z"
         inkscape:connector-curvature="0" /></clipPath><clipPath
       id="clipPath6719-5"
       clipPathUnits="userSpaceOnUse"><path
         id="path6721-6"
         d="M 0,870.236 H 623.626 V 0 H 0 Z"
         inkscape:connector-curvature="0" /></clipPath><clipPath
       id="clipPath6731-2"
       clipPathUnits="userSpaceOnUse"><path
         id="path6733-9"
         d="M 0,870.236 H 623.626 V 0 H 0 Z"
         inkscape:connector-curvature="0" /></clipPath><clipPath
       clipPathUnits="userSpaceOnUse"
       id="clipPath4150-12"><path
         d="M 0,870.236 H 623.626 V 0 H 0 Z"
         id="path4152-7"
         inkscape:connector-curvature="0" /></clipPath><clipPath
       clipPathUnits="userSpaceOnUse"
       id="clipPath4162-0"><path
         d="M 0,870.236 H 623.626 V 0 H 0 Z"
         id="path4164-9"
         inkscape:connector-curvature="0" /></clipPath><clipPath
       clipPathUnits="userSpaceOnUse"
       id="clipPath4390-3"><path
         d="M 0,870.236 H 623.626 V 0 H 0 Z"
         id="path4392-6"
         inkscape:connector-curvature="0" /></clipPath><clipPath
       clipPathUnits="userSpaceOnUse"
       id="clipPath4398-0"><path
         d="M -80.514,14.173 H -675.79 v 841.89 h 595.276 z"
         id="path4400-6"
         inkscape:connector-curvature="0" /></clipPath><clipPath
       clipPathUnits="userSpaceOnUse"
       id="clipPath6707-4"><path
         d="M 0,870.236 H 623.626 V 0 H 0 Z"
         id="path6709-2"
         inkscape:connector-curvature="0" /></clipPath><clipPath
       clipPathUnits="userSpaceOnUse"
       id="clipPath6719-3"><path
         d="M 0,870.236 H 623.626 V 0 H 0 Z"
         id="path6721-3"
         inkscape:connector-curvature="0" /></clipPath><clipPath
       clipPathUnits="userSpaceOnUse"
       id="clipPath6731-1"><path
         d="M 0,870.236 H 623.626 V 0 H 0 Z"
         id="path6733-5"
         inkscape:connector-curvature="0" /></clipPath><clipPath
       id="clipPath4150-1"
       clipPathUnits="userSpaceOnUse"><path
         id="path4152-0"
         d="M 0,870.236 H 623.626 V 0 H 0 Z"
         inkscape:connector-curvature="0" /></clipPath><clipPath
       id="clipPath4162-3"
       clipPathUnits="userSpaceOnUse"><path
         id="path4164-5"
         d="M 0,870.236 H 623.626 V 0 H 0 Z"
         inkscape:connector-curvature="0" /></clipPath><clipPath
       id="clipPath4390-2"
       clipPathUnits="userSpaceOnUse"><path
         id="path4392-2"
         d="M 0,870.236 H 623.626 V 0 H 0 Z"
         inkscape:connector-curvature="0" /></clipPath><clipPath
       id="clipPath4398-1"
       clipPathUnits="userSpaceOnUse"><path
         id="path4400-4"
         d="M -80.514,14.173 H -675.79 v 841.89 h 595.276 z"
         inkscape:connector-curvature="0" /></clipPath><clipPath
       id="clipPath3427"
       clipPathUnits="userSpaceOnUse"><g
         mask="none"
         clip-path="none"
         style="display:inline;fill:#ffffff;stroke:none"
         transform="matrix(0.06483916,0,0,0.06709863,307.54738,474.29433)"
         id="g3429"><path
           inkscape:connector-curvature="0"
           d="m 1638,1790 c -4,-12 -99,-15 -155,-5 -35,6 -44,5 -49,-9 -8,-20 14,-77 37,-93 19,-14 32,-53 17,-53 -6,0 -8,-7 -4,-15 3,-8 1,-15 -3,-15 -5,0 -8,-11 -6,-25 1,-14 -1,-25 -5,-25 -4,0 -6,-11 -5,-24 5,-38 -9,-49 -30,-26 -23,25 -88,43 -130,36 -18,-4 -46,0 -66,8 -55,23 -207,55 -308,66 -133,13 -295,-9 -416,-58 -68,-27 -218,-101 -225,-110 -3,-4 -49,-38 -103,-75 -53,-38 -97,-72 -97,-78 0,-20 31,-20 73,0 24,12 48,21 54,21 5,0 34,13 64,30 30,16 61,30 69,30 8,0 27,6 42,14 14,8 43,19 65,26 21,7 43,17 50,22 27,22 165,49 271,55 61,3 112,3 112,0 0,-3 -26,-13 -58,-22 -31,-9 -59,-20 -62,-24 -3,-4 -48,-27 -100,-51 -107,-49 -225,-117 -281,-161 -20,-16 -41,-29 -46,-29 -17,0 -52,-56 -43,-70 7,-11 19,-9 65,8 31,12 70,32 88,45 18,13 51,31 74,40 23,9 61,25 85,35 101,45 174,69 187,64 11,-4 9,-8 -7,-15 -28,-13 -28,-18 3,-47 29,-27 31,-47 7,-76 -25,-31 -49,-37 -55,-13 -7,25 -24,24 -32,-1 -5,-15 -15,-20 -44,-20 -26,0 -44,-7 -59,-23 -25,-27 -28,-47 -8,-47 8,0 24,-13 35,-28 18,-26 19,-31 5,-51 -11,-15 -22,-20 -35,-16 -10,4 -24,1 -31,-4 -7,-6 -23,-19 -35,-29 -13,-10 -23,-30 -23,-47 -3,-48 -1,-55 15,-49 11,5 15,-1 15,-25 0,-24 4,-31 20,-31 13,0 18,-5 14,-15 -4,-8 -15,-15 -25,-15 -12,0 -19,-7 -19,-20 0,-26 30,-100 40,-100 5,0 10,-10 12,-23 2,-18 9,-22 36,-20 27,1 32,-2 27,-17 -3,-10 1,-24 8,-32 8,-7 14,-25 13,-38 -1,-21 4,-25 29,-26 45,-2 67,-14 111,-63 34,-38 39,-50 38,-90 -2,-53 -13,-111 -23,-111 -10,0 -12,-68 -1,-75 5,-3 26,-1 47,4 29,8 40,7 53,-4 26,-23 40,-18 40,14 0,17 5,33 11,37 8,4 7,9 -2,15 -12,8 -11,12 3,23 10,7 14,17 9,22 -4,5 -4,28 1,51 7,31 14,43 27,43 10,0 30,14 45,32 46,56 31,96 -51,136 -72,34 -90,60 -107,151 -18,100 -46,115 -80,44 -14,-31 -19,-34 -30,-22 -26,28 -36,97 -20,143 8,22 13,49 10,59 -2,10 1,17 10,17 8,0 14,3 14,8 0,4 18,26 40,49 24,24 36,44 30,48 -5,3 -10,10 -10,16 0,5 8,4 18,-2 15,-10 28,-7 67,12 26,13 50,32 53,41 2,9 9,15 16,12 6,-2 47,2 91,11 75,14 82,14 149,-6 38,-12 84,-23 100,-25 179,-21 201,-26 232,-49 17,-13 34,-22 37,-18 3,3 21,0 39,-7 18,-7 56,-16 83,-20 28,-5 66,-11 86,-15 26,-5 47,-2 72,10 19,9 41,15 49,14 7,-2 46,0 86,5 51,5 72,11 72,21 0,8 5,17 12,21 8,5 9,0 5,-15 -5,-21 -4,-22 12,-7 10,9 27,16 39,16 h 22 v 380 380 h -284 c -174,0 -286,-4 -288,-10 z m -628,-454 c 0,-50 -30,-77 -44,-40 -6,16 -45,11 -57,-9 -4,-5 -10,-4 -15,4 -5,8 -22,21 -38,29 l -28,14 53,12 c 30,6 71,12 92,13 33,1 37,-2 37,-23 z m 874,-172 c 9,-3 16,-16 16,-29 0,-31 -49,-46 -94,-29 -19,7 -21,50 -3,57 18,8 63,8 81,1 z M 885,682 c 4,-26 9,-55 12,-64 8,-31 -13,-19 -40,22 -22,34 -24,45 -16,69 15,42 37,29 44,-27 z m 125,-177 c 56,-28 69,-55 45,-91 -23,-35 -57,-29 -65,11 -4,17 -14,44 -23,62 -27,52 -26,53 43,18 z"
           id="path3431" /></g></clipPath><radialGradient
       id="Gradient1"
       gradientUnits="userSpaceOnUse"
       cx="-80"
       cy="-80"
       r="405"><stop
         style="stop-color:#fff;stop-opacity:0.31"
         offset="0"
         id="stop7" /><stop
         style="stop-color:#fff;stop-opacity:0.25"
         offset="0.19"
         id="stop9" /><stop
         style="stop-color:#6b6b6b;stop-opacity:0.125"
         offset="0.6"
         id="stop11" /><stop
         style="stop-color:#000;stop-opacity:0.125"
         offset="1"
         id="stop13" /></radialGradient><clipPath
       id="shield_cut"><path
         id="shield"
         d="m -298.5,-298.5 h 597 V -40 C 298.5,246.31 0,358.5 0,358.5 0,358.5 -298.5,246.31 -298.5,-40 Z"
         inkscape:connector-curvature="0" /></clipPath><g
       id="f-2"><rect
         id="rect1964"
         style="fill:#28166f"
         y="-30"
         x="-50"
         height="60"
         width="100" /><g
         id="g1966"
         style="fill:#ffffff"
         transform="translate(0,-20)"><path
           id="path1968"
           d="m -1.2116,27.8178 c 0,-5.6426 -0.8798,-7.3463 -3.3301,-13.8374 C -5.709,10.8879 -5.0241,7.1025 -2.8585,3.6009 -2.0824,2.346 -1.1136,1.2135 0,0 1.1136,1.2135 2.0824,2.346 2.8585,3.6009 5.0241,7.1025 5.709,10.8879 4.5417,13.9804 2.0914,20.4715 1.2116,22.1752 1.2116,27.8178 Z"
           inkscape:connector-curvature="0" /><path
           id="rwi"
           d="m 2.9221,27.6725 c 0,-5.9516 2.3166,-9.8432 5.5786,-11.0121 1.4485,-0.519 3.3069,-0.2735 5.0186,1.4466 2.1186,2.129 2.7358,7.9934 -3.4838,9.1213 0.6583,-0.9559 0.6191,-3.0816 -0.714,-3.7874 -0.9904,-0.5244 -2.1125,-0.2532 -2.6753,0.1234 -0.8237,0.5513 -1.7291,2.1059 -1.679,4.1082 z"
           inkscape:connector-curvature="0" /><path
           id="path1971"
           d="M 1.7773,30.1835 C 1.7899,32.1913 2.7952,33.5181 4.5165,34.257 4.2948,34.9549 3.2566,36.3776 1.8314,36.2812 1.5499,37.787 1.2822,38.6324 0,40 c -1.2822,-1.3676 -1.5499,-2.213 -1.8314,-3.7188 -1.4252,0.0964 -2.4634,-1.3263 -2.6851,-2.0242 1.7213,-0.7389 2.7266,-2.0657 2.7392,-4.0735 z"
           inkscape:connector-curvature="0" /><use
           xlink:href="#rwi"
           height="400"
           width="800"
           y="0"
           x="0"
           id="use1973"
           transform="scale(-1,1)" /><rect
           id="rect1975"
           y="27.33077"
           x="-7.9229999"
           height="3.2179999"
           width="15.846" /></g></g><clipPath
       id="clipPath6707-53"
       clipPathUnits="userSpaceOnUse"><path
         id="path6709-5"
         d="M 0,870.236 H 623.626 V 0 H 0 Z"
         inkscape:connector-curvature="0" /></clipPath><clipPath
       id="clipPath6719-6"
       clipPathUnits="userSpaceOnUse"><path
         id="path6721-2"
         d="M 0,870.236 H 623.626 V 0 H 0 Z"
         inkscape:connector-curvature="0" /></clipPath><clipPath
       id="clipPath6731-9"
       clipPathUnits="userSpaceOnUse"><path
         id="path6733-1"
         d="M 0,870.236 H 623.626 V 0 H 0 Z"
         inkscape:connector-curvature="0" /></clipPath><clipPath
       clipPathUnits="userSpaceOnUse"
       id="clipPath4150-2"><path
         d="M 0,870.236 H 623.626 V 0 H 0 Z"
         id="path4152-70"
         inkscape:connector-curvature="0" /></clipPath><clipPath
       clipPathUnits="userSpaceOnUse"
       id="clipPath4162-9"><path
         d="M 0,870.236 H 623.626 V 0 H 0 Z"
         id="path4164-3"
         inkscape:connector-curvature="0" /></clipPath><clipPath
       clipPathUnits="userSpaceOnUse"
       id="clipPath4390-6"><path
         d="M 0,870.236 H 623.626 V 0 H 0 Z"
         id="path4392-0"
         inkscape:connector-curvature="0" /></clipPath><clipPath
       clipPathUnits="userSpaceOnUse"
       id="clipPath4398-6"><path
         d="M -80.514,14.173 H -675.79 v 841.89 h 595.276 z"
         id="path4400-2"
         inkscape:connector-curvature="0" /></clipPath><clipPath
       clipPathUnits="userSpaceOnUse"
       id="clipPath6707-4-6"><path
         d="M 0,870.236 H 623.626 V 0 H 0 Z"
         id="path6709-2-1"
         inkscape:connector-curvature="0" /></clipPath><clipPath
       clipPathUnits="userSpaceOnUse"
       id="clipPath6719-3-8"><path
         d="M 0,870.236 H 623.626 V 0 H 0 Z"
         id="path6721-3-7"
         inkscape:connector-curvature="0" /></clipPath><clipPath
       clipPathUnits="userSpaceOnUse"
       id="clipPath6731-1-9"><path
         d="M 0,870.236 H 623.626 V 0 H 0 Z"
         id="path6733-5-2"
         inkscape:connector-curvature="0" /></clipPath><clipPath
       id="clipPath4150-1-0"
       clipPathUnits="userSpaceOnUse"><path
         id="path4152-0-2"
         d="M 0,870.236 H 623.626 V 0 H 0 Z"
         inkscape:connector-curvature="0" /></clipPath><clipPath
       id="clipPath4162-3-3"
       clipPathUnits="userSpaceOnUse"><path
         id="path4164-5-7"
         d="M 0,870.236 H 623.626 V 0 H 0 Z"
         inkscape:connector-curvature="0" /></clipPath><clipPath
       id="clipPath4390-2-5"
       clipPathUnits="userSpaceOnUse"><path
         id="path4392-2-9"
         d="M 0,870.236 H 623.626 V 0 H 0 Z"
         inkscape:connector-curvature="0" /></clipPath><clipPath
       id="clipPath4398-1-2"
       clipPathUnits="userSpaceOnUse"><path
         id="path4400-4-2"
         d="M -80.514,14.173 H -675.79 v 841.89 h 595.276 z"
         inkscape:connector-curvature="0" /></clipPath></defs><g
     transform="matrix(1.25,0,0,-1.25,-101.84723,636.18478)"
     id="g6701"
     style="fill:#ffffff"><g
       id="g14487"
       style="fill:#ffffff"><g
         id="afup"
         style="fill:#ffffff"><title
           id="title14389">Association Française des Utilisateurs de PHP</title><g
           transform="matrix(1.838491,0,0,1.838491,103.11939,426.47736)"
           id="a"
           style="fill:#ffffff"><title
             id="title14365">association</title><path
             id="path6737"
             style="fill:#ffffff;fill-opacity:1;fill-rule:nonzero;stroke:none"
             d="m 0,0 c -0.939,-0.751 -1.409,-1.764 -1.409,-3.037 0,-1.274 0.511,-2.275 1.534,-3.005 1.022,-0.731 2.452,-1.096 4.29,-1.096 3.465,0 6.303,0.939 8.516,2.818 V 2.442 L 3.789,1.44 C 2.201,1.231 0.939,0.751 0,0 m 24.077,-7.138 v -3.758 c -1.628,-0.792 -3.424,-1.189 -5.385,-1.189 -1.963,0 -3.372,0.376 -4.227,1.127 -0.856,0.751 -1.346,1.836 -1.472,3.256 -2.296,-2.923 -5.312,-4.383 -9.048,-4.383 -3.736,0 -6.565,0.751 -8.485,2.254 -1.92,1.503 -2.88,3.61 -2.88,6.325 0,5.217 3.632,8.223 10.896,9.017 l 9.455,1.002 v 1.816 c 0,2.42 -0.501,4.257 -1.503,5.51 -1.001,1.252 -2.589,1.879 -4.759,1.879 -4.008,0 -7.264,-0.439 -9.769,-1.316 l -1.252,-0.438 -1.127,4.008 c 1.168,0.667 2.943,1.283 5.323,1.847 2.38,0.564 4.592,0.846 6.637,0.846 4.467,0 7.64,-0.888 9.518,-2.662 1.879,-1.774 2.818,-4.269 2.818,-7.483 V -7.138 Z"
             inkscape:connector-curvature="0" /></g><g
           transform="matrix(1.838491,0,0,1.838491,184.98446,405.525)"
           id="f"
           style="fill:#ffffff"><title
             id="title14367">française</title><path
             id="path6741"
             style="fill:#ffffff;fill-opacity:1;fill-rule:nonzero;stroke:none"
             d="m 0,0 h -16.594 v 2.692 l 5.26,2.067 v 21.478 h -4.884 v 3.758 l 4.884,2.004 v 3.756 c 0,4.133 1.054,7.274 3.162,9.425 2.108,2.149 5.082,3.224 8.924,3.224 1.503,0 2.89,-0.218 4.164,-0.657 1.272,-0.438 2.16,-0.888 2.661,-1.346 L 8.392,45.712 6.7,42.456 c -1.169,0.667 -2.911,1.002 -5.228,1.002 -2.317,0 -4.03,-0.679 -5.135,-2.036 -1.107,-1.357 -1.659,-3.83 -1.659,-7.42 V 31.31 H 4.759 V 26.237 H -5.322 V 4.759 L 0,2.692 Z"
             inkscape:connector-curvature="0" /></g><g
           transform="matrix(1.838491,0,0,1.838491,267.44721,413.35385)"
           id="u"
           style="fill:#ffffff"><title
             id="title14369">utilisateurs</title><path
             id="path6745"
             style="fill:#ffffff;fill-opacity:1;fill-rule:nonzero;stroke:none"
             d="m 0,0 v -3.757 c -1.628,-0.793 -3.466,-1.19 -5.511,-1.19 -2.046,0 -3.465,0.428 -4.258,1.283 -0.793,0.856 -1.252,2.119 -1.377,3.789 -0.543,-0.626 -1.169,-1.252 -1.878,-1.878 -0.711,-0.627 -1.89,-1.315 -3.538,-2.067 -1.65,-0.751 -3.373,-1.127 -5.167,-1.127 -3.256,0 -5.698,0.908 -7.326,2.724 -1.629,1.816 -2.442,4.289 -2.442,7.42 v 17.659 h -5.26 v 3.757 c 1.628,0.792 3.516,1.19 5.667,1.19 2.15,0 3.601,-0.512 4.352,-1.534 0.752,-1.024 1.127,-2.579 1.127,-4.665 V 7.389 c 0,-2.464 0.407,-4.3 1.221,-5.511 0.814,-1.211 2.286,-1.816 4.414,-1.816 2.129,0 3.946,0.407 5.449,1.222 1.503,0.814 2.63,1.659 3.381,2.535 v 19.037 h -5.26 v 3.757 c 1.628,0.792 3.516,1.19 5.667,1.19 2.149,0 3.6,-0.512 4.352,-1.534 0.751,-1.024 1.127,-2.579 1.127,-4.665 L -5.26,0 Z"
             inkscape:connector-curvature="0" /></g><g
           transform="matrix(1.838491,0,0,1.838491,300.741,413.46875)"
           id="p"
           style="fill:#ffffff"><title
             id="title14371">PHP</title><path
             id="path6749"
             style="fill:#ffffff;fill-opacity:1;fill-rule:nonzero;stroke:none"
             d="m 0,0 c 3.382,0 6.021,1.002 7.921,3.006 1.899,2.003 2.85,4.8 2.85,8.39 0,3.59 -0.919,6.397 -2.755,8.423 -1.838,2.024 -3.8,3.037 -5.887,3.037 -3.632,0 -6.346,-1.149 -8.141,-3.444 V 1.127 C -3.674,0.375 -1.67,0 0,0 m -0.752,-21.291 h -16.469 v 2.693 l 5.324,2.066 v 39.576 h -5.26 v 3.444 c 1.628,0.792 3.412,1.19 5.353,1.19 1.942,0 3.328,-0.356 4.164,-1.065 0.835,-0.71 1.336,-1.753 1.503,-3.131 2.045,2.838 5.093,4.258 9.143,4.258 3.297,0 6.345,-1.127 9.142,-3.381 1.418,-1.17 2.557,-2.829 3.413,-4.979 0.855,-2.15 1.284,-4.644 1.284,-7.483 0,-2.839 -0.481,-5.375 -1.441,-7.607 C 14.443,2.056 13.15,0.292 11.521,-1.002 8.224,-3.632 4.383,-4.947 0,-4.947 c -1.753,0 -3.757,0.293 -6.012,0.877 v -12.462 l 5.26,-2.066 z"
             inkscape:connector-curvature="0" /></g><text
           transform="scale(1,-1)"
           id="text11751"
           y="-422.40115"
           x="261.39328"
           style="font-style:normal;font-weight:normal;font-size:32px;line-height:125%;font-family:sans-serif;letter-spacing:0px;word-spacing:0px;fill:#ffffff;fill-opacity:1;stroke:none;stroke-width:1px;stroke-linecap:butt;stroke-linejoin:miter;stroke-opacity:1"
           xml:space="preserve"><tspan
             y="-422.40115"
             x="261.39328"
             id="tspan11753"
             style="fill:#ffffff" /></text>
</g></g></g><g
     aria-label="MONTPELLIER"
     style="font-style:normal;font-weight:normal;font-size:40px;line-height:1.25;font-family:sans-serif;letter-spacing:17px;word-spacing:0px;fill:#ffffff;fill-opacity:1;stroke:none"
     id="text71"><path
       d="m 560.01465,59.66793 18.01823,50.875 17.92188,-50.875 h 18.98177 v 70.14584 h -14.50131 v -19.17448 l 1.44532,-33.097662 -18.9336,52.272142 h -9.92448 l -18.88541,-52.223965 1.44531,33.049485 v 19.17448 H 541.12923 V 59.66793 Z"
       style="font-style:normal;font-variant:normal;font-weight:bold;font-stretch:normal;font-size:98.66667175px;font-family:Roboto;-inkscape-font-specification:'Roboto Bold';letter-spacing:6px;fill:#ffffff;fill-opacity:1"
       id="path953" /><path
       d="m 691.27507,96.330692 q 0,10.358078 -3.66146,18.162758 -3.66145,7.80469 -10.5026,12.04427 -6.79297,4.23959 -15.60938,4.23959 -8.72005,0 -15.56119,-4.19141 -6.84115,-4.1914 -10.59896,-11.94792 -3.75782,-7.80468 -3.80599,-17.921871 v -3.468751 q 0,-10.358073 3.70963,-18.210938 3.75782,-7.901042 10.55078,-12.092449 6.84115,-4.239583 15.60938,-4.239583 8.76823,0 15.5612,4.239583 6.84115,4.191407 10.55078,12.092449 3.75781,7.852865 3.75781,18.162761 z m -14.64583,-3.179688 q 0,-11.032552 -3.95052,-16.765626 -3.95052,-5.733073 -11.27344,-5.733073 -7.27474,0 -11.22526,5.684896 -3.95052,5.636719 -3.9987,16.572918 v 3.420573 q 0,10.743488 3.95052,16.669268 3.95052,5.92579 11.36979,5.92579 7.27474,0 11.17709,-5.6849 3.90234,-5.73307 3.95052,-16.669273 z"
       style="font-style:normal;font-variant:normal;font-weight:bold;font-stretch:normal;font-size:98.66667175px;font-family:Roboto;-inkscape-font-specification:'Roboto Bold';letter-spacing:6px;fill:#ffffff;fill-opacity:1"
       id="path955" /><path
       d="M 764.9157,129.81377 H 750.46257 L 722.32715,83.660118 V 129.81377 H 707.87403 V 59.66793 h 14.45312 l 28.1836,46.25 v -46.25 h 14.40495 z"
       style="font-style:normal;font-variant:normal;font-weight:bold;font-stretch:normal;font-size:98.66667175px;font-family:Roboto;-inkscape-font-specification:'Roboto Bold';letter-spacing:6px;fill:#ffffff;fill-opacity:1"
       id="path957" /><path
       d="M 835.08757,71.374961 H 813.60059 V 129.81377 H 799.14746 V 71.374961 H 777.94954 V 59.66793 h 57.13803 z"
       style="font-style:normal;font-variant:normal;font-weight:bold;font-stretch:normal;font-size:98.66667175px;font-family:Roboto;-inkscape-font-specification:'Roboto Bold';letter-spacing:6px;fill:#ffffff;fill-opacity:1"
       id="path959" /><path
       d="m 863.82717,105.09892 v 24.71485 H 849.37404 V 59.66793 h 27.36459 q 7.90104,0 13.875,2.890625 6.02214,2.890625 9.25,8.238281 3.22786,5.29948 3.22786,12.092449 0,10.309896 -7.08203,16.283855 -7.03385,5.92578 -19.51172,5.92578 z m 0,-11.70703 h 12.91146 q 5.73307,0 8.72005,-2.697917 3.03516,-2.697917 3.03516,-7.708334 0,-5.154948 -3.03516,-8.334636 -3.03516,-3.179687 -8.38281,-3.276042 h -13.2487 z"
       style="font-style:normal;font-variant:normal;font-weight:bold;font-stretch:normal;font-size:98.66667175px;font-family:Roboto;-inkscape-font-specification:'Roboto Bold';letter-spacing:6px;fill:#ffffff;fill-opacity:1"
       id="path961" /><path
       d="m 961.17092,99.414025 h -27.75 v 18.789065 h 32.56771 v 11.61068 H 918.96779 V 59.66793 h 46.92449 V 71.374961 H 933.42092 V 88.09241 h 27.75 z"
       style="font-style:normal;font-variant:normal;font-weight:bold;font-stretch:normal;font-size:98.66667175px;font-family:Roboto;-inkscape-font-specification:'Roboto Bold';letter-spacing:6px;fill:#ffffff;fill-opacity:1"
       id="path963" /><path
       d="m 994.92092,118.20309 h 30.68878 v 11.61068 H 980.46779 V 59.66793 h 14.45313 z"
       style="font-style:normal;font-variant:normal;font-weight:bold;font-stretch:normal;font-size:98.66667175px;font-family:Roboto;-inkscape-font-specification:'Roboto Bold';letter-spacing:6px;fill:#ffffff;fill-opacity:1"
       id="path965" /><path
       d="m 1054.3011,118.20309 h 30.6888 v 11.61068 H 1039.848 V 59.66793 h 14.4531 z"
       style="font-style:normal;font-variant:normal;font-weight:bold;font-stretch:normal;font-size:98.66667175px;font-family:Roboto;-inkscape-font-specification:'Roboto Bold';letter-spacing:6px;fill:#ffffff;fill-opacity:1"
       id="path967" /><path
       d="m 1114.5967,129.81377 h -14.4531 V 59.66793 h 14.4531 z"
       style="font-style:normal;font-variant:normal;font-weight:bold;font-stretch:normal;font-size:98.66667175px;font-family:Roboto;-inkscape-font-specification:'Roboto Bold';letter-spacing:6px;fill:#ffffff;fill-opacity:1"
       id="path969" /><path
       d="m 1176.1449,99.414025 h -27.75 v 18.789065 h 32.5677 v 11.61068 h -47.0209 V 59.66793 h 46.9245 v 11.707031 h -32.4713 V 88.09241 h 27.75 z"
       style="font-style:normal;font-variant:normal;font-weight:bold;font-stretch:normal;font-size:98.66667175px;font-family:Roboto;-inkscape-font-specification:'Roboto Bold';letter-spacing:6px;fill:#ffffff;fill-opacity:1"
       id="path971" /><path
       d="m 1221.4092,104.13538 h -11.5143 v 25.67839 h -14.4532 V 59.66793 h 26.0638 q 12.4297,0 19.1745,5.540364 6.7448,5.540365 6.7448,15.657553 0,7.178386 -3.1315,11.996095 -3.0833,4.769531 -9.3945,7.611978 l 15.1757,28.66537 v 0.67448 h -15.513 z m -11.5143,-11.707032 h 11.6588 q 5.444,0 8.431,-2.746094 2.987,-2.794271 2.987,-7.660157 0,-4.962239 -2.8425,-7.804688 -2.7942,-2.842448 -8.6237,-2.842448 h -11.6106 z"
       style="font-style:normal;font-variant:normal;font-weight:bold;font-stretch:normal;font-size:98.66667175px;font-family:Roboto;-inkscape-font-specification:'Roboto Bold';letter-spacing:6px;fill:#ffffff;fill-opacity:1"
       id="path973" /></g><g
     id="lion"
     transform="matrix(1.2945423,0,0,1.2945423,-79.7767,-610.9388)"><title
       id="title17040">lion</title><g
       transform="matrix(1.25,0,0,-1.25,-1.3964844e-4,1275.3973)"
       id="g5080"><path
         id="path5082-8"
         style="fill:#4c9edc;fill-opacity:1;fill-rule:nonzero;stroke:none"
         d="m 288.7891,571.9068 v 0 l -21.482,-12.403 c 0.994,-1.721 2.433,-3.185 4.214,-4.213 l 17.268,-9.97 z"
         inkscape:connector-curvature="0" /><path
         id="path5084-8"
         style="fill:#498cd2;fill-opacity:1;fill-rule:nonzero;stroke:none"
         d="m 265.7649,585.1998 v -19.939 c 0,-2.057 0.549,-4.035 1.542,-5.756 l 21.482,12.402 z"
         inkscape:connector-curvature="0" /><path
         id="path5086-9"
         style="fill:#487dc8;fill-opacity:1;fill-rule:nonzero;stroke:none"
         d="m 288.7891,571.9068 v 26.586 l -23.024,-13.293 v 0 z"
         inkscape:connector-curvature="0" /><path
         id="path5088-6"
         style="fill:#5295d6;fill-opacity:1;fill-rule:nonzero;stroke:none"
         d="m 288.7891,545.3209 v 0 l 17.268,-9.97 c 1.781,-1.028 3.769,-1.542 5.756,-1.542 v 24.805 z"
         inkscape:connector-curvature="0" /><path
         id="path5090-0"
         style="fill:#476bbc;fill-opacity:1;fill-rule:nonzero;stroke:none"
         d="m 267.3072,610.8954 c -0.994,-1.721 -1.542,-3.7 -1.542,-5.756 v -19.94 l 23.024,13.293 z"
         inkscape:connector-curvature="0" /><path
         id="path5092-2"
         style="fill:#7f9ad6;fill-opacity:1;fill-rule:nonzero;stroke:none"
         d="m 334.8373,545.3209 v 26.586 l -23.024,-13.293 z"
         inkscape:connector-curvature="0" /><path
         id="path5094-5"
         style="fill:#727ebd;fill-opacity:1;fill-rule:nonzero;stroke:none"
         d="m 356.3192,559.5043 c 0.994,1.721 1.542,3.7 1.542,5.756 v 19.939 l -23.024,-13.293 z"
         inkscape:connector-curvature="0" /><path
         id="path5096-0"
         style="fill:#8f9fd8;fill-opacity:1;fill-rule:nonzero;stroke:none"
         d="m 334.8373,571.9068 v -26.586 l 17.268,9.97 c 1.781,1.028 3.22,2.492 4.214,4.214 z"
         inkscape:connector-curvature="0" /><path
         id="path5098-9"
         style="fill:#425da2;fill-opacity:1;fill-rule:nonzero;stroke:none"
         d="m 334.8373,598.4928 v 0 -26.586 l 23.024,13.293 v 0 z"
         inkscape:connector-curvature="0" /><path
         id="path5100-5"
         style="fill:#6495d5;fill-opacity:1;fill-rule:nonzero;stroke:none"
         d="m 311.8132,558.6138 v -24.805 c 1.987,0 3.975,0.514 5.756,1.542 l 17.268,9.97 z"
         inkscape:connector-curvature="0" /><path
         id="path5102-1"
         style="fill:#3a64ad;fill-opacity:1;fill-rule:nonzero;stroke:none"
         d="m 311.8132,611.7858 -23.024,13.293 v -26.586 z"
         inkscape:connector-curvature="0" /><path
         id="path5104-7"
         style="fill:#3a61a3;fill-opacity:1;fill-rule:nonzero;stroke:none"
         d="m 311.8132,611.7858 23.024,-13.293 v 26.586 z"
         inkscape:connector-curvature="0" /><path
         id="path5106-7"
         style="fill:#32549d;fill-opacity:1;fill-rule:nonzero;stroke:none"
         d="m 267.3072,610.8954 21.482,-12.403 v 26.586 l -17.268,-9.969 c -1.781,-1.029 -3.22,-2.493 -4.214,-4.214"
         inkscape:connector-curvature="0" /><path
         id="path5108-7"
         style="fill:#2f5296;fill-opacity:1;fill-rule:nonzero;stroke:none"
         d="m 334.8373,598.4928 23.024,-13.293 v 19.939 c 0,2.057 -0.548,4.035 -1.542,5.757 z"
         inkscape:connector-curvature="0" /><path
         id="path5110-4"
         style="fill:#325295;fill-opacity:1;fill-rule:nonzero;stroke:none"
         d="m 334.8373,598.4928 21.482,12.403 c -0.994,1.721 -2.433,3.185 -4.214,4.213 l -17.268,9.97 z"
         inkscape:connector-curvature="0" /><path
         id="path5112-0"
         style="fill:#4379c6;fill-opacity:1;fill-rule:nonzero;stroke:none"
         d="m 334.8373,625.0788 -17.269,9.97 c -1.781,1.028 -3.768,1.542 -5.755,1.542 v -24.805 z"
         inkscape:connector-curvature="0" /><path
         id="path5114-8"
         style="fill:#3f73bd;fill-opacity:1;fill-rule:nonzero;stroke:none"
         d="m 311.8132,611.7858 v 24.805 c -1.987,0 -3.975,-0.514 -5.755,-1.542 l -17.269,-9.97 z"
         inkscape:connector-curvature="0" /><path
         id="path5116-4"
         style="fill:#50a0dd;fill-opacity:1;fill-rule:nonzero;stroke:none"
         d="m 288.7891,545.3209 23.024,13.293 -23.024,13.293 z"
         inkscape:connector-curvature="0" /><path
         d="m 288.7891,598.4929 v 0 -26.586 l 23.024,13.293 v 0 z"
         style="fill:#425da2;fill-opacity:1;fill-rule:nonzero;stroke:none"
         id="path5118-4"
         inkscape:connector-curvature="0" /><path
         d="m 334.8371,571.9069 v 26.586 l -23.024,-13.293 v 0 z"
         style="fill:#487dc8;fill-opacity:1;fill-rule:nonzero;stroke:none"
         id="path5120-6"
         inkscape:connector-curvature="0" /><path
         style="fill:#3f73bd;fill-opacity:1;fill-rule:nonzero;stroke:none"
         d="m 389.76562,543.89648 v 0.002 l -28.77929,16.61523 28.77929,16.61719 28.78126,-16.61719 -28.78126,-16.61719 z"
         transform="matrix(0.8,0,0,-0.8,1.1171875e-4,1020.3178)"
         id="path5122-9"
         inkscape:connector-curvature="0" /><path
         d="m 311.8133,585.1998 v 26.586 l -23.024,-13.293 z"
         style="fill:#2f5296;fill-opacity:1;fill-rule:nonzero;stroke:none"
         id="path5124-5"
         inkscape:connector-curvature="0" /><path
         d="m 311.8132,585.1998 23.024,13.293 -23.024,13.293 z"
         style="fill:#498cd2;fill-opacity:1;fill-rule:nonzero;stroke:none"
         id="path5126-1"
         inkscape:connector-curvature="0" /></g><g
       style="fill:#ffffff;fill-opacity:1"
       id="g4785"
       transform="matrix(0.23628996,0,0,0.23628996,318.87926,472.77428)"><path
         style="fill:#ffffff;fill-opacity:1"
         class="st19"
         d="M 436.1,310.4 C 409.4,295 384.5,280.6 374.4,274.8 v 63.6 l 55.3,37.5 -55.3,-26.8 v 64 c 0.6,0.4 1.2,0.7 1.8,1.1 34.8,20.1 64,-32.2 84.9,-20.1 -20.9,-12.1 9.9,-63.5 -25,-83.7 z"
         id="path4224"
         inkscape:connector-curvature="0" /><path
         style="fill:#ffffff;fill-opacity:1"
         class="st19"
         d="m 163.9,291.6 c 26.7,15.4 51.6,29.8 61.7,35.6 v -63.6 l -55.3,-37.5 55.3,26.8 v -64 c -0.6,-0.4 -1.2,-0.7 -1.8,-1.1 -34.8,-20.1 -64,32.2 -84.9,20.1 20.9,12.2 -9.9,63.6 25,83.7 z"
         id="path4226"
         inkscape:connector-curvature="0" /><path
         style="fill:#ffffff;fill-opacity:1"
         class="st19"
         d="m 300,151.3 4.5,61.2 55.4,-32 v -2.1 c 0,-40.2 -59.9,-39.3 -59.9,-63.5 0,24.1 -59.9,23.2 -59.9,63.5 v 71.3 l 55.1,-31.8 z"
         id="path4228"
         inkscape:connector-curvature="0" /><path
         style="fill:#ffffff;fill-opacity:1"
         class="st19"
         d="m 230.5,346.8 -60.1,29.1 50.8,-34.5 -55.4,-32 c -0.6,0.4 -1.2,0.7 -1.8,1.1 -34.8,20.1 -4.1,71.5 -25,83.6 20.9,-12.1 50.1,40.2 84.9,20.1 26.7,-15.4 51.6,-29.8 61.7,-35.6 z"
         id="path4230"
         inkscape:connector-curvature="0" /><path
         style="fill:#ffffff;fill-opacity:1"
         class="st19"
         d="m 378.8,260.6 55.4,32 c 0.6,-0.4 1.2,-0.7 1.8,-1.1 34.8,-20.1 4.1,-71.5 25,-83.6 -20.9,12.1 -50.1,-40.2 -84.9,-20.1 -26.7,15.4 -51.6,29.8 -61.7,35.6 l 55,31.8 60.1,-29.1 z"
         id="path4232"
         inkscape:connector-curvature="0" /><path
         style="fill:#ffffff;fill-opacity:1"
         class="st19"
         d="m 300,487.1 c 0,-24.1 59.9,-23.2 59.9,-63.5 v -71.3 l -55.1,31.8 -4.8,66.6 -4.5,-61.2 -55.4,32 v 2.1 c 0,40.2 59.9,39.3 59.9,63.5"
         id="path4234"
         inkscape:connector-curvature="0" /><polygon
         style="fill:#ffffff;fill-opacity:1"
         class="st19"
         points="300,357.7 250.7,329.2 250.7,272.3 300,243.9 349.3,272.3 349.3,329.2 "
         id="polygon4236" /></g></g></svg>