<?xml version="1.0" encoding="UTF-8" standalone="no"?>
<svg
   xmlns:dc="http://purl.org/dc/elements/1.1/"
   xmlns:cc="http://creativecommons.org/ns#"
   xmlns:rdf="http://www.w3.org/1999/02/22-rdf-syntax-ns#"
   xmlns:svg="http://www.w3.org/2000/svg"
   xmlns="http://www.w3.org/2000/svg"
   xmlns:sodipodi="http://sodipodi.sourceforge.net/DTD/sodipodi-0.dtd"
   xmlns:inkscape="http://www.inkscape.org/namespaces/inkscape"
   viewBox="0 0 209.7655 101.64337"
   height="108.41959"
   width="223.74986"
   xml:space="preserve"
   version="1.1"
   id="svg2"
   inkscape:version="0.92.2 (5c3e80d, 2017-08-06)"
   sodipodi:docname="forumphp-2018-vecto.svg"><sodipodi:namedview
     pagecolor="#ffffff"
     bordercolor="#666666"
     borderopacity="1"
     objecttolerance="10"
     gridtolerance="10"
     guidetolerance="10"
     inkscape:pageopacity="0"
     inkscape:pageshadow="2"
     inkscape:window-width="1920"
     inkscape:window-height="1029"
     id="namedview39"
     showgrid="false"
     inkscape:zoom="2.1833905"
     inkscape:cx="25.419182"
     inkscape:cy="50.821686"
     inkscape:window-x="0"
     inkscape:window-y="27"
     inkscape:window-maximized="1"
     inkscape:current-layer="g10" /><metadata
     id="metadata8"><rdf:RDF><cc:Work
         rdf:about=""><dc:format>image/svg+xml</dc:format><dc:type
           rdf:resource="http://purl.org/dc/dcmitype/StillImage" /><dc:title /></cc:Work></rdf:RDF></metadata><defs
     id="defs6"><clipPath
       id="clipPath16"
       clipPathUnits="userSpaceOnUse"><path
         id="path18"
         d="M 0,870.236 H 623.626 V 0 H 0 Z"
         inkscape:connector-curvature="0" /></clipPath><clipPath
       id="clipPath100"
       clipPathUnits="userSpaceOnUse"><path
         id="path102"
         d="M 0,870.236 H 623.626 V 0 H 0 Z"
         inkscape:connector-curvature="0" /></clipPath><clipPath
       id="clipPath208"
       clipPathUnits="userSpaceOnUse"><path
         id="path210"
         d="M 0,870.236 H 623.626 V 0 H 0 Z"
         inkscape:connector-curvature="0" /></clipPath></defs><g
     transform="matrix(1.25,0,0,-1.25,-167.96612,673.17512)"
     id="g10"><path
       d="m 180.0953,473.9794 -9.211,-15.954 h 14.167 c 1.316,0 2.583,0.352 3.685,0.988 z"
       style="fill:#87a2d4;fill-opacity:1;fill-rule:nonzero;stroke:none"
       id="path22"
       inkscape:connector-curvature="0" /><path
       d="m 188.7361,459.0132 c 1.102,0.636 2.039,1.557 2.698,2.698 l 7.083,12.268 h -18.422 z"
       style="fill:#6499d1;fill-opacity:1;fill-rule:nonzero;stroke:none"
       id="path26"
       inkscape:connector-curvature="0" /><path
       d="m 152.4548,489.9377 -9.211,-15.954 0.003,-0.004 h 18.422 z"
       style="fill:#2d508b;fill-opacity:1;fill-rule:nonzero;stroke:none"
       id="path30"
       inkscape:connector-curvature="0" /><path
       d="m 135.1732,489.9377 c 0,-1.272 0.329,-2.545 0.987,-3.685 l 7.084,-12.269 9.211,15.954 z"
       style="fill:#32619a;fill-opacity:1;fill-rule:nonzero;stroke:none"
       id="path34"
       inkscape:connector-curvature="0" /><path
       d="m 143.2439,505.8914 -7.083,-12.269 c -0.659,-1.14 -0.988,-2.412 -0.988,-3.685 h 17.282 z"
       style="fill:#2e73b4;fill-opacity:1;fill-rule:nonzero;stroke:none"
       id="path38"
       inkscape:connector-curvature="0" /><path
       d="m 153.0275,459.0132 c 1.102,-0.636 2.368,-0.987 3.685,-0.987 h 14.167 l -9.211,15.953 z"
       style="fill:#415e99;fill-opacity:1;fill-rule:nonzero;stroke:none"
       id="path42"
       inkscape:connector-curvature="0" /><path
       d="m 143.2466,473.9794 7.083,-12.269 c 0.659,-1.14 1.596,-2.061 2.698,-2.697 l 8.641,14.966 z"
       style="fill:#264f8b;fill-opacity:1;fill-rule:nonzero;stroke:none"
       id="path46"
       inkscape:connector-curvature="0" /><path
       d="m 161.6683,473.9794 9.211,-15.954 h 0.005 l 9.211,15.954 z"
       style="fill:#7a86ba;fill-opacity:1;fill-rule:nonzero;stroke:none"
       id="path50"
       inkscape:connector-curvature="0" /><path
       d="m 301.385,505.8279 c 0,1.272 -0.329,2.545 -0.987,3.685 l -7.084,12.269 -9.211,-15.954 z"
       style="fill:#3c7fc0;fill-opacity:1;fill-rule:nonzero;stroke:none"
       id="path54"
       inkscape:connector-curvature="0" /><path
       d="m 284.1035,505.8279 9.211,15.954 -0.003,0.004 h -18.422 z"
       style="fill:#416bb2;fill-opacity:1;fill-rule:nonzero;stroke:none"
       id="path58"
       inkscape:connector-curvature="0" /><path
       d="m 293.3143,489.8742 7.083,12.269 c 0.659,1.14 0.988,2.412 0.988,3.685 h -17.282 z"
       style="fill:#368ccb;fill-opacity:1;fill-rule:nonzero;stroke:none"
       id="path62"
       inkscape:connector-curvature="0" /><path
       d="m 293.3117,521.7861 -7.083,12.269 c -0.659,1.14 -1.596,2.061 -2.698,2.697 l -8.641,-14.966 z"
       style="fill:#2e63a3;fill-opacity:1;fill-rule:nonzero;stroke:none"
       id="path66"
       inkscape:connector-curvature="0" /><path
       d="m 283.5308,536.7524 c -1.102,0.636 -2.368,0.987 -3.685,0.987 h -14.167 l 9.211,-15.953 z"
       style="fill:#416bb2;fill-opacity:1;fill-rule:nonzero;stroke:none"
       id="path70"
       inkscape:connector-curvature="0" /><path
       d="m 274.89,521.7861 -9.211,15.954 h -0.005 l -9.211,-15.954 z"
       style="fill:#32619a;fill-opacity:1;fill-rule:nonzero;stroke:none"
       id="path74"
       inkscape:connector-curvature="0" /><path
       d="m 247.8222,536.7524 c -1.102,-0.636 -2.039,-1.557 -2.697,-2.698 l -7.084,-12.268 h 18.422 z"
       style="fill:#264f8b;fill-opacity:1;fill-rule:nonzero;stroke:none"
       id="path78"
       inkscape:connector-curvature="0" /><path
       d="m 265.6738,537.7398 h -14.167 c -1.316,0 -2.583,-0.351 -3.685,-0.987 l 8.641,-14.967 z"
       style="fill:#415e99;fill-opacity:1;fill-rule:nonzero;stroke:none"
       id="path82"
       inkscape:connector-curvature="0" /><path
       d="m 168.70557,503.68554 h -5.35546 v -6.96094 h -3.44532 v 17.0625 h 9.44532 v -2.87109 h -6 v -4.3711 h 5.35546 z"
       style="font-variant:normal;font-weight:bold;font-stretch:condensed;font-size:medium;font-family:'Roboto Condensed';-inkscape-font-specification:RobotoCondensed-Bold;writing-mode:lr-tb;fill:#1d2241;fill-opacity:1;fill-rule:nonzero;stroke:none"
       id="path4429"
       inkscape:connector-curvature="0" /><path
       d="m 183.15811,503.72069 q 0,-3.43359 -1.6289,-5.33203 -1.61719,-1.89844 -4.5,-1.89844 -2.8711,0 -4.51172,1.875 -1.64063,1.88672 -1.66406,5.27344 v 2.91797 q 0,3.51563 1.6289,5.48438 1.62891,1.98046 4.52344,1.98046 2.84766,0 4.48828,-1.94531 1.64063,-1.93359 1.66406,-5.4375 z m -3.45703,2.85938 q 0,2.30859 -0.65625,3.43359 -0.65625,1.125 -2.03906,1.125 -1.37109,0 -2.02734,-1.08984 -0.65625,-1.07813 -0.67969,-3.29297 v -3.03516 q 0,-2.23828 0.66797,-3.30468 0.66797,-1.05469 2.0625,-1.05469 1.34765,0 2.0039,1.03125 0.65625,1.04297 0.66797,3.22265 z"
       style="font-variant:normal;font-weight:bold;font-stretch:condensed;font-size:medium;font-family:'Roboto Condensed';-inkscape-font-specification:RobotoCondensed-Bold;writing-mode:lr-tb;fill:#1d2241;fill-opacity:1;fill-rule:nonzero;stroke:none"
       id="path4431"
       inkscape:connector-curvature="0" /><path
       d="m 190.77436,502.95897 h -1.71094 v -6.23437 h -3.44531 v 17.0625 h 5.4961 q 2.58984,0 3.99609,-1.34766 1.41797,-1.33593 1.41797,-3.80859 0,-3.39844 -2.47266,-4.75781 l 2.98828,-6.98438 v -0.16406 h -3.70312 z m -1.71094,2.8711 h 1.95704 q 1.03125,0 1.54687,0.67969 0.51563,0.6914 0.51563,1.83984 0,2.56641 -2.00391,2.56641 h -2.01563 z"
       style="font-variant:normal;font-weight:bold;font-stretch:condensed;font-size:medium;font-family:'Roboto Condensed';-inkscape-font-specification:RobotoCondensed-Bold;writing-mode:lr-tb;fill:#1d2241;fill-opacity:1;fill-rule:nonzero;stroke:none"
       id="path4433"
       inkscape:connector-curvature="0" /><path
       d="m 209.86805,513.7871 v -11.8125 q -0.0234,-2.66016 -1.46484,-4.07813 -1.44141,-1.40625 -4.13672,-1.40625 -2.74219,0 -4.19531,1.42969 -1.44141,1.42969 -1.44141,4.13672 v 11.73047 h 3.46875 v -11.74219 q 0,-1.45312 0.46875,-2.07422 0.46875,-0.62109 1.69922,-0.62109 1.23047,0 1.6875,0.60937 0.45703,0.6211 0.46875,2.02735 v 11.80078 z"
       style="font-variant:normal;font-weight:bold;font-stretch:condensed;font-size:medium;font-family:'Roboto Condensed';-inkscape-font-specification:RobotoCondensed-Bold;writing-mode:lr-tb;fill:#1d2241;fill-opacity:1;fill-rule:nonzero;stroke:none"
       id="path4435"
       inkscape:connector-curvature="0" /><path
       d="m 217.07519,513.7871 3.22266,-12.33984 3.21094,12.33984 h 4.5 v -17.0625 h -3.45703 v 4.61719 l 0.3164,7.11328 -3.41015,-11.73047 h -2.34375 l -3.41016,11.73047 0.31641,-7.11328 v -4.61719 h -3.44532 v 17.0625 z"
       style="font-variant:normal;font-weight:bold;font-stretch:condensed;font-size:medium;font-family:'Roboto Condensed';-inkscape-font-specification:RobotoCondensed-Bold;writing-mode:lr-tb;fill:#1d2241;fill-opacity:1;fill-rule:nonzero;stroke:none"
       id="path4437"
       inkscape:connector-curvature="0" /><path
       d="m 234.2701,502.7246 v -6 h -3.44531 v 17.0625 h 5.8125 q 2.53125,0 4.03125,-1.57031 1.51172,-1.57032 1.51172,-4.07813 0,-2.50781 -1.48828,-3.96094 -1.48828,-1.45312 -4.125,-1.45312 z m 0,2.87109 h 2.36719 q 0.98438,0 1.52344,0.64453 0.53906,0.64454 0.53906,1.875 0,1.27735 -0.55078,2.02735 -0.55078,0.76172 -1.47656,0.77344 h -2.40235 z"
       style="font-variant:normal;font-weight:bold;font-stretch:condensed;font-size:medium;font-family:'Roboto Condensed';-inkscape-font-specification:RobotoCondensed-Bold;writing-mode:lr-tb;fill:#36a7df;fill-opacity:1;fill-rule:nonzero;stroke:none"
       id="path4439"
       inkscape:connector-curvature="0" /><path
       d="m 256.27764,496.7246 h -3.4336 v 7.30078 h -5.08594 v -7.30078 h -3.44531 v 17.0625 h 3.44531 v -6.90234 h 5.08594 v 6.90234 h 3.4336 z"
       style="font-variant:normal;font-weight:bold;font-stretch:condensed;font-size:medium;font-family:'Roboto Condensed';-inkscape-font-specification:RobotoCondensed-Bold;writing-mode:lr-tb;fill:#36a7df;fill-opacity:1;fill-rule:nonzero;stroke:none"
       id="path4441"
       inkscape:connector-curvature="0" /><path
       d="m 262.5229,502.7246 v -6 h -3.44531 v 17.0625 h 5.8125 q 2.53125,0 4.03125,-1.57031 1.51172,-1.57032 1.51172,-4.07813 0,-2.50781 -1.48828,-3.96094 -1.48828,-1.45312 -4.125,-1.45312 z m 0,2.87109 h 2.36719 q 0.98438,0 1.52344,0.64453 0.53906,0.64454 0.53906,1.875 0,1.27735 -0.55078,2.02735 -0.55078,0.76172 -1.47656,0.77344 h -2.40235 z"
       style="font-variant:normal;font-weight:bold;font-stretch:condensed;font-size:medium;font-family:'Roboto Condensed';-inkscape-font-specification:RobotoCondensed-Bold;writing-mode:lr-tb;fill:#36a7df;fill-opacity:1;fill-rule:nonzero;stroke:none"
       id="path4443"
       inkscape:connector-curvature="0" /><g
       aria-label="PARIS2018"
       transform="matrix(1,0,0,-1,176.4966,482.7109)"
       style="font-variant:normal;font-weight:normal;font-stretch:normal;font-size:14px;line-height:0%;font-family:Belgrano;-inkscape-font-specification:Belgrano-Regular;writing-mode:lr-tb;fill:#36a7df;fill-opacity:1;fill-rule:nonzero;stroke:none"
       id="text90"><path
         d="M 4.676,0 H 0.714 V -0.616 L 1.988,-1.078 V -8.806 L 0.714,-9.268 v -0.616 h 4.368 q 1.288,0 2.282,0.854 0.994,0.84 0.994,2.38 0,1.526 -0.938,2.38 -0.938,0.84 -2.338,0.84 h -1.68 v 2.352 l 1.274,0.462 z m -1.26,-4.452 h 1.008 q 1.092,0 1.82,-0.546 0.742,-0.546 0.742,-1.666 0,-2.17 -2.562,-2.17 H 3.416 Z"
         style="fill:#1d2241;fill-opacity:1"
         id="path3729" /><path
         d="m 18.795,0 h -3.808 v -0.616 l 1.148,-0.462 -0.994,-2.478 h -3.64 l -0.994,2.478 1.12,0.462 V 0 H 7.959 v -0.616 l 1.148,-0.462 3.444,-8.806 h 1.442 l 3.584,8.806 1.218,0.462 z m -4.018,-4.508 -1.484,-3.934 -1.428,3.934 z"
         style="fill:#1d2241;fill-opacity:1"
         id="path3731" /><path
         d="m 28.866601,0 h -3.682 v -0.672 l 0.896,-0.364 -1.876,-3.01 h -1.75 v 2.968 l 1.274,0.462 V 0 h -3.962 v -0.616 l 1.274,-0.462 v -7.728 l -1.274,-0.462 v -0.616 h 4.368 q 1.442,0 2.352,0.728 0.924,0.728 0.924,2.212 0,1.974 -1.848,2.632 l 2.03,3.178 1.274,0.462 z m -6.398,-5.068 h 1.624 q 0.84,0 1.386,-0.448 0.56,-0.462 0.56,-1.442 0,-0.98 -0.728,-1.428 -0.728,-0.448 -1.834,-0.448 h -1.008 z"
         style="fill:#1d2241;fill-opacity:1"
         id="path3733" /><path
         d="m 33.9612,0 h -3.962 v -0.616 l 1.274,-0.462 v -7.728 l -1.274,-0.462 v -0.616 h 3.962 v 0.616 l -1.274,0.462 v 7.728 l 1.274,0.462 z"
         style="fill:#1d2241;fill-opacity:1"
         id="path3735" /><path
         d="m 35.533402,-2.66 h 0.84 l 0.392,1.302 q 0.546,0.434 1.778,0.434 0.798,0 1.274,-0.42 0.49,-0.42 0.49,-1.05 0,-0.644 -0.532,-1.204 -0.518,-0.574 -1.792,-1.05 -2.408,-0.91 -2.408,-2.548 0,-1.372 0.868,-2.086 0.868,-0.728 2.128,-0.728 1.54,0 2.632,0.518 0.126,0.056 0.238,0.126 v 1.918 l -0.826,0.028 -0.322,-1.134 q -0.574,-0.294 -1.498,-0.294 -1.89,0 -1.89,1.204 0,0.672 0.504,1.12 0.518,0.434 1.596,0.826 2.632,0.966 2.632,3.08 0,1.232 -0.826,2.002 -0.826,0.77 -2.394,0.77 -0.714,0 -1.414,-0.182 -1.022,-0.28 -1.47,-0.63 z"
         style="fill:#1d2241;fill-opacity:1"
         id="path3737" /><path
         d="m 50.119998,0 h -6.818 v -1.05 q 0.784,-0.518 1.694,-1.26 0.924,-0.756 1.582,-1.428 0.658,-0.672 1.204,-1.54 0.546,-0.882 0.546,-1.694 0,-0.812 -0.532,-1.358 -0.532,-0.546 -1.456,-0.546 -0.56,0 -0.994,0.196 -0.42,0.196 -0.574,0.392 l -0.154,0.196 -0.28,1.736 h -1.064 v -2.142 q 0.098,-0.196 0.378,-0.49 0.294,-0.294 0.602,-0.49 0.322,-0.21 0.868,-0.364 0.56,-0.168 1.19,-0.168 1.61,0 2.548,0.868 0.938,0.854 0.938,2.268 0,0.742 -0.434,1.582 -0.42,0.826 -1.022,1.498 -0.602,0.672 -1.302,1.274 -1.26,1.092 -2.002,1.456 h 3.598 l 0.462,-1.554 h 1.022 z"
         style=""
         id="path3739" /><path
         d="m 60.435199,-4.9 q 0,2.296 -1.232,3.668 -1.218,1.372 -3.15,1.372 -1.918,0 -3.136,-1.358 -1.218,-1.372 -1.218,-3.682 0,-2.31 1.218,-3.71 1.218,-1.4 3.136,-1.4 1.918,0 3.15,1.4 1.232,1.4 1.232,3.71 z m -7.28,0 q 0,1.652 0.77,2.786 0.784,1.134 2.128,1.134 1.358,0 2.128,-1.134 0.77,-1.134 0.77,-2.786 0,-1.666 -0.77,-2.814 -0.77,-1.162 -2.142,-1.162 -1.358,0 -2.128,1.162 -0.756,1.148 -0.756,2.814 z"
         style=""
         id="path3741" /><path
         d="m 67.799201,0 h -5.88 v -0.63 l 2.226,-0.476 v -7.336 l -2.03,1.414 -0.588,-0.938 2.716,-1.918 h 1.316 v 8.778 l 2.24,0.476 z"
         style=""
         id="path3743" /><path
         d="m 74.449201,-5.432 v 0.014 q 0.42,0 1.05,0.518 0.322,0.266 0.546,0.798 0.224,0.532 0.224,1.218 0,1.344 -1.036,2.198 -1.022,0.84 -2.688,0.84 -1.652,0 -2.688,-0.84 -1.036,-0.854 -1.036,-2.198 0,-0.686 0.224,-1.218 0.224,-0.532 0.532,-0.798 0.616,-0.518 1.064,-0.518 v -0.014 q -0.392,0 -0.938,-0.532 -0.546,-0.546 -0.546,-1.512 0,-0.98 0.84,-1.75 0.84,-0.77 2.548,-0.77 1.708,-0.014 2.548,0.77 0.84,0.77 0.84,1.75 0,0.966 -0.56,1.512 -0.546,0.532 -0.924,0.532 z m -1.512,0.658 h -0.784 q -0.91,0 -1.498,0.49 -0.574,0.49 -0.574,1.358 0,0.868 0.672,1.414 0.672,0.532 1.792,0.532 1.12,0 1.778,-0.546 0.672,-0.546 0.672,-1.4 0,-0.868 -0.588,-1.358 -0.574,-0.49 -1.47,-0.49 z m -0.084,-1.05 q 0.728,-0.014 1.274,-0.392 0.546,-0.378 0.546,-1.064 0,-0.7 -0.56,-1.148 -0.546,-0.462 -1.568,-0.462 -1.022,0 -1.582,0.462 -0.546,0.448 -0.546,1.148 0,0.7 0.56,1.078 0.56,0.378 1.232,0.378 0.028,0 0.056,0 z"
         style=""
         id="path3745" /></g></g></svg>