<?xml version="1.0" encoding="UTF-8" standalone="no"?>
<svg
   xmlns:dc="http://purl.org/dc/elements/1.1/"
   xmlns:cc="http://creativecommons.org/ns#"
   xmlns:rdf="http://www.w3.org/1999/02/22-rdf-syntax-ns#"
   xmlns:svg="http://www.w3.org/2000/svg"
   xmlns="http://www.w3.org/2000/svg"
   viewBox="0 0 209.7655 101.64337"
   height="101.64337"
   width="209.7655"
   xml:space="preserve"
   version="1.1"
   id="svg2"><metadata
     id="metadata8"><rdf:RDF><cc:Work
         rdf:about=""><dc:format>image/svg+xml</dc:format><dc:type
           rdf:resource="http://purl.org/dc/dcmitype/StillImage" /><dc:title></dc:title></cc:Work></rdf:RDF></metadata><defs
     id="defs6"><clipPath
       id="clipPath16"
       clipPathUnits="userSpaceOnUse"><path
         id="path18"
         d="m 0,870.236 623.626,0 L 623.626,0 0,0 0,870.236 Z" /></clipPath><clipPath
       id="clipPath100"
       clipPathUnits="userSpaceOnUse"><path
         id="path102"
         d="m 0,870.236 623.626,0 L 623.626,0 0,0 0,870.236 Z" /></clipPath><clipPath
       id="clipPath208"
       clipPathUnits="userSpaceOnUse"><path
         id="path210"
         d="m 0,870.236 623.626,0 L 623.626,0 0,0 0,870.236 Z" /></clipPath></defs><g
     transform="matrix(1.25,0,0,-1.25,-167.96612,673.17512)"
     id="g10"><path
       d="m 180.0953,473.9794 -9.211,-15.954 14.167,0 c 1.316,0 2.583,0.352 3.685,0.988 l -8.641,14.966 z"
       style="fill:#87a2d4;fill-opacity:1;fill-rule:nonzero;stroke:none"
       id="path22" /><path
       d="m 188.7361,459.0132 c 1.102,0.636 2.039,1.557 2.698,2.698 l 7.083,12.268 -18.422,0 8.641,-14.966 z"
       style="fill:#6499d1;fill-opacity:1;fill-rule:nonzero;stroke:none"
       id="path26" /><path
       d="m 152.4548,489.9377 -9.211,-15.954 0.003,-0.004 18.422,0 -9.214,15.958 z"
       style="fill:#2d508b;fill-opacity:1;fill-rule:nonzero;stroke:none"
       id="path30" /><path
       d="m 135.1732,489.9377 c 0,-1.272 0.329,-2.545 0.987,-3.685 l 7.084,-12.269 9.211,15.954 -17.282,0 z"
       style="fill:#32619a;fill-opacity:1;fill-rule:nonzero;stroke:none"
       id="path34" /><path
       d="m 143.2439,505.8914 -7.083,-12.269 c -0.659,-1.14 -0.988,-2.412 -0.988,-3.685 l 17.282,0 -9.211,15.954 z"
       style="fill:#2e73b4;fill-opacity:1;fill-rule:nonzero;stroke:none"
       id="path38" /><path
       d="m 153.0275,459.0132 c 1.102,-0.636 2.368,-0.987 3.685,-0.987 l 14.167,0 -9.211,15.953 -8.641,-14.966 z"
       style="fill:#415e99;fill-opacity:1;fill-rule:nonzero;stroke:none"
       id="path42" /><path
       d="m 143.2466,473.9794 7.083,-12.269 c 0.659,-1.14 1.596,-2.061 2.698,-2.697 l 8.641,14.966 -18.422,0 z"
       style="fill:#264f8b;fill-opacity:1;fill-rule:nonzero;stroke:none"
       id="path46" /><path
       d="m 161.6683,473.9794 9.211,-15.954 0.005,0 9.211,15.954 -18.427,0 z"
       style="fill:#7a86ba;fill-opacity:1;fill-rule:nonzero;stroke:none"
       id="path50" /><path
       d="m 301.385,505.8279 c 0,1.272 -0.329,2.545 -0.987,3.685 l -7.084,12.269 -9.211,-15.954 17.282,0 z"
       style="fill:#3c7fc0;fill-opacity:1;fill-rule:nonzero;stroke:none"
       id="path54" /><path
       d="m 284.1035,505.8279 9.211,15.954 -0.003,0.004 -18.422,0 9.214,-15.958 z"
       style="fill:#416bb2;fill-opacity:1;fill-rule:nonzero;stroke:none"
       id="path58" /><path
       d="m 293.3143,489.8742 7.083,12.269 c 0.659,1.14 0.988,2.412 0.988,3.685 l -17.282,0 9.211,-15.954 z"
       style="fill:#368ccb;fill-opacity:1;fill-rule:nonzero;stroke:none"
       id="path62" /><path
       d="m 293.3117,521.7861 -7.083,12.269 c -0.659,1.14 -1.596,2.061 -2.698,2.697 l -8.641,-14.966 18.422,0 z"
       style="fill:#2e63a3;fill-opacity:1;fill-rule:nonzero;stroke:none"
       id="path66" /><path
       d="m 283.5308,536.7524 c -1.102,0.636 -2.368,0.987 -3.685,0.987 l -14.167,0 9.211,-15.953 8.641,14.966 z"
       style="fill:#416bb2;fill-opacity:1;fill-rule:nonzero;stroke:none"
       id="path70" /><path
       d="m 274.89,521.7861 -9.211,15.954 -0.005,0 -9.211,-15.954 18.427,0 z"
       style="fill:#32619a;fill-opacity:1;fill-rule:nonzero;stroke:none"
       id="path74" /><path
       d="m 247.8222,536.7524 c -1.102,-0.636 -2.039,-1.557 -2.697,-2.698 l -7.084,-12.268 18.422,0 -8.641,14.966 z"
       style="fill:#264f8b;fill-opacity:1;fill-rule:nonzero;stroke:none"
       id="path78" /><path
       d="m 265.6738,537.7398 -14.167,0 c -1.316,0 -2.583,-0.351 -3.685,-0.987 l 8.641,-14.967 9.211,15.954 z"
       style="fill:#415e99;fill-opacity:1;fill-rule:nonzero;stroke:none"
       id="path82" /><path
       d="m 168.70557,503.68554 -5.35546,0 0,-6.96094 -3.44532,0 0,17.0625 9.44532,0 0,-2.87109 -6,0 0,-4.3711 5.35546,0 0,-2.85937 z"
       style="font-variant:normal;font-weight:bold;font-stretch:condensed;font-size:medium;font-family:'Roboto Condensed';-inkscape-font-specification:RobotoCondensed-Bold;writing-mode:lr-tb;fill:#36a7df;fill-opacity:1;fill-rule:nonzero;stroke:none"
       id="path4429" /><path
       d="m 183.15811,503.72069 q 0,-3.43359 -1.6289,-5.33203 -1.61719,-1.89844 -4.5,-1.89844 -2.8711,0 -4.51172,1.875 -1.64063,1.88672 -1.66406,5.27344 l 0,2.91797 q 0,3.51563 1.6289,5.48438 1.62891,1.98046 4.52344,1.98046 2.84766,0 4.48828,-1.94531 1.64063,-1.93359 1.66406,-5.4375 l 0,-2.91797 z m -3.45703,2.85938 q 0,2.30859 -0.65625,3.43359 -0.65625,1.125 -2.03906,1.125 -1.37109,0 -2.02734,-1.08984 -0.65625,-1.07813 -0.67969,-3.29297 l 0,-3.03516 q 0,-2.23828 0.66797,-3.30468 0.66797,-1.05469 2.0625,-1.05469 1.34765,0 2.0039,1.03125 0.65625,1.04297 0.66797,3.22265 l 0,2.96485 z"
       style="font-variant:normal;font-weight:bold;font-stretch:condensed;font-size:medium;font-family:'Roboto Condensed';-inkscape-font-specification:RobotoCondensed-Bold;writing-mode:lr-tb;fill:#36a7df;fill-opacity:1;fill-rule:nonzero;stroke:none"
       id="path4431" /><path
       d="m 190.77436,502.95897 -1.71094,0 0,-6.23437 -3.44531,0 0,17.0625 5.4961,0 q 2.58984,0 3.99609,-1.34766 1.41797,-1.33593 1.41797,-3.80859 0,-3.39844 -2.47266,-4.75781 l 2.98828,-6.98438 0,-0.16406 -3.70312,0 -2.56641,6.23437 z m -1.71094,2.8711 1.95704,0 q 1.03125,0 1.54687,0.67969 0.51563,0.6914 0.51563,1.83984 0,2.56641 -2.00391,2.56641 l -2.01563,0 0,-5.08594 z"
       style="font-variant:normal;font-weight:bold;font-stretch:condensed;font-size:medium;font-family:'Roboto Condensed';-inkscape-font-specification:RobotoCondensed-Bold;writing-mode:lr-tb;fill:#36a7df;fill-opacity:1;fill-rule:nonzero;stroke:none"
       id="path4433" /><path
       d="m 209.86805,513.7871 0,-11.8125 q -0.0234,-2.66016 -1.46484,-4.07813 -1.44141,-1.40625 -4.13672,-1.40625 -2.74219,0 -4.19531,1.42969 -1.44141,1.42969 -1.44141,4.13672 l 0,11.73047 3.46875,0 0,-11.74219 q 0,-1.45312 0.46875,-2.07422 0.46875,-0.62109 1.69922,-0.62109 1.23047,0 1.6875,0.60937 0.45703,0.6211 0.46875,2.02735 l 0,11.80078 3.44531,0 z"
       style="font-variant:normal;font-weight:bold;font-stretch:condensed;font-size:medium;font-family:'Roboto Condensed';-inkscape-font-specification:RobotoCondensed-Bold;writing-mode:lr-tb;fill:#36a7df;fill-opacity:1;fill-rule:nonzero;stroke:none"
       id="path4435" /><path
       d="m 217.07519,513.7871 3.22266,-12.33984 3.21094,12.33984 4.5,0 0,-17.0625 -3.45703,0 0,4.61719 0.3164,7.11328 -3.41015,-11.73047 -2.34375,0 -3.41016,11.73047 0.31641,-7.11328 0,-4.61719 -3.44532,0 0,17.0625 4.5,0 z"
       style="font-variant:normal;font-weight:bold;font-stretch:condensed;font-size:medium;font-family:'Roboto Condensed';-inkscape-font-specification:RobotoCondensed-Bold;writing-mode:lr-tb;fill:#36a7df;fill-opacity:1;fill-rule:nonzero;stroke:none"
       id="path4437" /><path
       d="m 234.2701,502.7246 0,-6 -3.44531,0 0,17.0625 5.8125,0 q 2.53125,0 4.03125,-1.57031 1.51172,-1.57032 1.51172,-4.07813 0,-2.50781 -1.48828,-3.96094 -1.48828,-1.45312 -4.125,-1.45312 l -2.29688,0 z m 0,2.87109 2.36719,0 q 0.98438,0 1.52344,0.64453 0.53906,0.64454 0.53906,1.875 0,1.27735 -0.55078,2.02735 -0.55078,0.76172 -1.47656,0.77344 l -2.40235,0 0,-5.32032 z"
       style="font-variant:normal;font-weight:bold;font-stretch:condensed;font-size:medium;font-family:'Roboto Condensed';-inkscape-font-specification:RobotoCondensed-Bold;writing-mode:lr-tb;fill:#36a7df;fill-opacity:1;fill-rule:nonzero;stroke:none"
       id="path4439" /><path
       d="m 256.27764,496.7246 -3.4336,0 0,7.30078 -5.08594,0 0,-7.30078 -3.44531,0 0,17.0625 3.44531,0 0,-6.90234 5.08594,0 0,6.90234 3.4336,0 0,-17.0625 z"
       style="font-variant:normal;font-weight:bold;font-stretch:condensed;font-size:medium;font-family:'Roboto Condensed';-inkscape-font-specification:RobotoCondensed-Bold;writing-mode:lr-tb;fill:#36a7df;fill-opacity:1;fill-rule:nonzero;stroke:none"
       id="path4441" /><path
       d="m 262.5229,502.7246 0,-6 -3.44531,0 0,17.0625 5.8125,0 q 2.53125,0 4.03125,-1.57031 1.51172,-1.57032 1.51172,-4.07813 0,-2.50781 -1.48828,-3.96094 -1.48828,-1.45312 -4.125,-1.45312 l -2.29688,0 z m 0,2.87109 2.36719,0 q 0.98438,0 1.52344,0.64453 0.53906,0.64454 0.53906,1.875 0,1.27735 -0.55078,2.02735 -0.55078,0.76172 -1.47656,0.77344 l -2.40235,0 0,-5.32032 z"
       style="font-variant:normal;font-weight:bold;font-stretch:condensed;font-size:medium;font-family:'Roboto Condensed';-inkscape-font-specification:RobotoCondensed-Bold;writing-mode:lr-tb;fill:#36a7df;fill-opacity:1;fill-rule:nonzero;stroke:none"
       id="path4443" /><text
       id="text90"
       style="font-variant:normal;font-weight:normal;font-stretch:normal;font-size:14px;font-family:Belgrano;-inkscape-font-specification:Belgrano-Regular;writing-mode:lr-tb;fill:#36a7df;fill-opacity:1;fill-rule:nonzero;stroke:none"
       transform="matrix(1,0,0,-1,176.4966,482.7109)"><tspan
         id="tspan92"
         y="0"
         x="0 8.099 19.052601 29.2852 34.595402">PARIS</tspan><tspan
         id="tspan94"
         y="0"
         x="42.377998 50.901199 61.009201">2016</tspan></text>
</g></svg>