<?xml version="1.0" encoding="UTF-8" standalone="no"?>
<svg
   viewBox="0 0 209.7655 101.64337"
   height="101.64337"
   width="209.7655"
   xml:space="preserve"
   version="1.1"
   id="svg3336"
   xmlns="http://www.w3.org/2000/svg"
   xmlns:svg="http://www.w3.org/2000/svg"
   xmlns:rdf="http://www.w3.org/1999/02/22-rdf-syntax-ns#"
   xmlns:cc="http://creativecommons.org/ns#"
   xmlns:dc="http://purl.org/dc/elements/1.1/"><metadata
     id="metadata3342"><rdf:RDF><cc:Work
         rdf:about=""><dc:format>image/svg+xml</dc:format><dc:type
           rdf:resource="http://purl.org/dc/dcmitype/StillImage" /></cc:Work></rdf:RDF></metadata><defs
     id="defs3340"><rect
       x="128.77698"
       y="55.989994"
       width="29.287073"
       height="18.089075"
       id="rect291" /></defs><g
     transform="matrix(1.25,0,0,-1.25,-284.88375,856.92513)"
     id="g3344"><g
       id="g3971"><g
         id="g3366"
         transform="translate(273.6293,620.9794)"><path
           d="M 0,0 -9.211,-15.954 H 4.956 c 1.316,0 2.583,0.352 3.685,0.988 z"
           style="fill:#7f9ad6;fill-opacity:1;fill-rule:nonzero;stroke:none"
           id="path3368" /></g><g
         id="g3370"
         transform="translate(282.2701,606.0132)"><path
           d="M 0,0 C 1.102,0.636 2.039,1.557 2.698,2.697 L 9.781,14.966 H -8.641 Z"
           style="fill:#6495d5;fill-opacity:1;fill-rule:nonzero;stroke:none"
           id="path3372" /></g><g
         id="g3374"
         transform="translate(245.9888,636.9377)"><path
           d="m 0,0 -9.211,-15.954 0.003,-0.004 H 9.214 Z"
           style="fill:#325295;fill-opacity:1;fill-rule:nonzero;stroke:none"
           id="path3376" /></g><g
         id="g3378"
         transform="translate(228.7073,636.9377)"><path
           d="M 0,0 C 0,-1.272 0.329,-2.545 0.987,-3.685 L 8.071,-15.954 17.282,0 Z"
           style="fill:#3a61a3;fill-opacity:1;fill-rule:nonzero;stroke:none"
           id="path3380" /></g><g
         id="g3382"
         transform="translate(236.778,652.8914)"><path
           d="m 0,0 -7.083,-12.269 c -0.659,-1.14 -0.988,-2.412 -0.988,-3.685 H 9.211 Z"
           style="fill:#3f73bd;fill-opacity:1;fill-rule:nonzero;stroke:none"
           id="path3384" /></g><g
         id="g3386"
         transform="translate(246.5616,606.0131)"><path
           d="M 0,0 C 1.102,-0.636 2.368,-0.987 3.685,-0.987 H 17.852 L 8.641,14.966 Z"
           style="fill:#425da2;fill-opacity:1;fill-rule:nonzero;stroke:none"
           id="path3388" /></g><g
         id="g3390"
         transform="translate(236.7807,620.9794)"><path
           d="m 0,0 7.083,-12.269 c 0.659,-1.14 1.596,-2.061 2.698,-2.697 L 18.422,0 Z"
           style="fill:#2f5296;fill-opacity:1;fill-rule:nonzero;stroke:none"
           id="path3392" /></g><g
         id="g3394"
         transform="translate(255.2023,620.9794)"><path
           d="M 0,0 9.211,-15.954 H 9.216 L 18.427,0 Z"
           style="fill:#727ebd;fill-opacity:1;fill-rule:nonzero;stroke:none"
           id="path3396" /></g><g
         id="g3398"
         transform="translate(262.2079,650.6584)"><path
           d="M 0,0 H -5.355 V -6.961 H -8.801 V 10.102 H 0.645 V 7.23 h -6 V 2.859 H 0 Z"
           style="fill:#18213e;fill-opacity:1;fill-rule:nonzero;stroke:none"
           id="path3400" /></g><g
         id="g3402"
         transform="translate(273.203,653.5529)"><path
           d="m 0,0 c 0,1.539 -0.219,2.684 -0.656,3.434 -0.438,0.75 -1.117,1.125 -2.039,1.125 -0.914,0 -1.59,-0.362 -2.028,-1.084 C -5.16,2.752 -5.387,1.652 -5.402,0.176 v -3.035 c 0,-1.493 0.222,-2.592 0.668,-3.299 0.445,-0.707 1.132,-1.061 2.062,-1.061 0.899,0 1.567,0.346 2.004,1.037 0.438,0.692 0.66,1.764 0.668,3.217 z m 3.457,-2.859 c 0,-2.289 -0.541,-4.067 -1.623,-5.332 -1.082,-1.266 -2.584,-1.899 -4.506,-1.899 -1.914,0 -3.418,0.627 -4.512,1.881 -1.093,1.254 -1.648,3.01 -1.664,5.268 v 2.918 c 0,2.343 0.543,4.173 1.629,5.49 1.086,1.316 2.594,1.974 4.524,1.974 1.898,0 3.394,-0.646 4.488,-1.939 C 2.887,4.209 3.441,2.395 3.457,0.059 Z"
           style="fill:#18213e;fill-opacity:1;fill-rule:nonzero;stroke:none"
           id="path3404" /></g><g
         id="g3406"
         transform="translate(282.5653,652.8029)"><path
           d="M 0,0 H 1.957 C 2.645,0 3.16,0.229 3.504,0.686 3.848,1.143 4.02,1.754 4.02,2.52 4.02,4.23 3.352,5.086 2.016,5.086 H 0 Z M 1.711,-2.871 H 0 V -9.105 H -3.445 V 7.957 H 2.051 C 3.777,7.957 5.111,7.51 6.053,6.615 6.994,5.721 7.465,4.449 7.465,2.801 7.465,0.535 6.641,-1.051 4.992,-1.957 L 7.98,-8.941 V -9.105 H 4.277 Z"
           style="fill:#18213e;fill-opacity:1;fill-rule:nonzero;stroke:none"
           id="path3408" /></g><g
         id="g3410"
         transform="translate(303.371,660.7599)"><path
           d="m 0,0 v -11.813 c -0.016,-1.773 -0.504,-3.13 -1.465,-4.072 -0.961,-0.941 -2.34,-1.412 -4.137,-1.412 -1.828,0 -3.224,0.477 -4.189,1.43 -0.965,0.953 -1.447,2.332 -1.447,4.137 V 0 h 3.468 v -11.742 c 0,-0.969 0.157,-1.66 0.469,-2.074 0.313,-0.414 0.879,-0.622 1.699,-0.622 0.821,0 1.383,0.206 1.688,0.616 0.305,0.41 0.461,1.084 0.469,2.021 V 0 Z"
           style="fill:#18213e;fill-opacity:1;fill-rule:nonzero;stroke:none"
           id="path3412" /></g><g
         id="g3414"
         transform="translate(310.578,660.7599)"><path
           d="M 0,0 3.223,-12.34 6.434,0 h 4.5 V -17.062 H 7.477 v 4.617 l 0.316,7.113 -3.41,-11.73 H 2.039 l -3.41,11.73 0.316,-7.113 v -4.617 H -4.5 V 0 Z"
           style="fill:#18213e;fill-opacity:1;fill-rule:nonzero;stroke:none"
           id="path3416" /></g><g
         id="g3418"
         transform="translate(327.7606,652.5685)"><path
           d="M 0,0 H 2.367 C 3.023,0 3.531,0.215 3.891,0.645 4.25,1.074 4.43,1.699 4.43,2.52 4.43,3.371 4.246,4.049 3.879,4.553 3.512,5.057 3.02,5.312 2.402,5.32 H 0 Z m 0,-2.871 v -6 H -3.445 V 8.191 H 2.367 C 4.055,8.191 5.4,7.668 6.404,6.621 7.408,5.574 7.91,4.215 7.91,2.543 7.91,0.871 7.414,-0.449 6.422,-1.418 5.43,-2.387 4.055,-2.871 2.297,-2.871 Z"
           style="fill:#51ace4;fill-opacity:1;fill-rule:nonzero;stroke:none"
           id="path3420" /></g><g
         id="g3422"
         transform="translate(349.7694,643.6974)"><path
           d="M 0,0 H -3.434 V 7.301 H -8.52 V 0 h -3.445 V 17.062 H -8.52 V 10.16 h 5.086 v 6.902 H 0 Z"
           style="fill:#51ace4;fill-opacity:1;fill-rule:nonzero;stroke:none"
           id="path3424" /></g><g
         id="g3426"
         transform="translate(356.0135,652.5685)"><path
           d="M 0,0 H 2.367 C 3.023,0 3.531,0.215 3.891,0.645 4.25,1.074 4.43,1.699 4.43,2.52 4.43,3.371 4.246,4.049 3.879,4.553 3.512,5.057 3.02,5.312 2.402,5.32 H 0 Z m 0,-2.871 v -6 H -3.445 V 8.191 H 2.367 C 4.055,8.191 5.4,7.668 6.404,6.621 7.408,5.574 7.91,4.215 7.91,2.543 7.91,0.871 7.414,-0.449 6.422,-1.418 5.43,-2.387 4.055,-2.871 2.297,-2.871 Z"
           style="fill:#51ace4;fill-opacity:1;fill-rule:nonzero;stroke:none"
           id="path3428" /></g><g
         id="g3430"
         transform="translate(273.4364,634.1496)"><path
           d="m 0,0 h 1.008 c 0.728,0 1.337,0.182 1.827,0.546 0.49,0.364 0.735,0.919 0.735,1.666 0,1.446 -0.854,2.17 -2.562,2.17 H 0 Z m 1.26,-4.452 h -3.962 v 0.616 l 1.274,0.462 V 4.354 L -2.702,4.815 V 5.432 H 1.666 C 2.524,5.432 3.285,5.149 3.948,4.585 4.61,4.021 4.942,3.227 4.942,2.205 4.942,1.183 4.629,0.39 4.004,-0.175 3.379,-0.74 2.6,-1.022 1.666,-1.022 h -1.68 V -3.374 L 1.26,-3.836 Z"
           style="fill:#18213e;fill-opacity:1;fill-rule:nonzero;stroke:none"
           id="path3432" /></g><g
         id="g3434"
         transform="translate(284.7968,634.2053)"><path
           d="M 0,0 -1.483,3.935 -2.912,0 Z M 4.019,-4.508 H 0.21 v 0.616 L 1.358,-3.43 0.364,-0.952 H -3.275 L -4.27,-3.43 -3.149,-3.892 v -0.616 h -3.668 v 0.616 l 1.147,0.462 3.444,8.806 h 1.442 L 2.8,-3.43 4.019,-3.892 Z"
           style="fill:#18213e;fill-opacity:1;fill-rule:nonzero;stroke:none"
           id="path3436" /></g><g
         id="g3438"
         transform="translate(292.4891,634.7658)"><path
           d="M 0,0 H 1.624 C 2.184,0 2.648,0.151 3.017,0.455 3.386,0.758 3.57,1.236 3.57,1.89 3.57,2.543 3.327,3.019 2.842,3.317 2.356,3.616 1.745,3.766 1.008,3.766 H 0 Z M 6.398,-5.068 H 2.716 v 0.672 l 0.896,0.364 -1.876,3.01 h -1.75 V -3.99 L 1.26,-4.452 v -0.616 h -3.962 v 0.616 l 1.274,0.462 V 3.737 L -2.702,4.199 V 4.815 H 1.666 C 2.627,4.815 3.414,4.573 4.025,4.088 4.636,3.603 4.942,2.865 4.942,1.876 4.942,0.56 4.326,-0.317 3.094,-0.757 l 2.03,-3.178 1.274,-0.461 z"
           style="fill:#18213e;fill-opacity:1;fill-rule:nonzero;stroke:none"
           id="path3440" /></g><g
         id="g3442"
         transform="translate(303.9813,629.6974)"><path
           d="m 0,0 h -3.962 v 0.616 l 1.274,0.462 V 8.806 L -3.962,9.268 V 9.884 H 0 V 9.268 L -1.273,8.806 V 1.078 L 0,0.616 Z"
           style="fill:#18213e;fill-opacity:1;fill-rule:nonzero;stroke:none"
           id="path3444" /></g><g
         id="g3446"
         transform="translate(305.5536,632.3576)"><path
           d="m 0,0 h 0.84 l 0.391,-1.302 c 0.365,-0.29 0.957,-0.434 1.779,-0.434 0.532,0 0.959,0.14 1.28,0.42 0.322,0.28 0.483,0.632 0.483,1.057 0,0.424 -0.174,0.825 -0.525,1.204 C 3.898,1.323 3.299,1.671 2.449,1.988 0.844,2.595 0.042,3.443 0.042,4.536 0.042,5.45 0.331,6.148 0.909,6.629 1.488,7.109 2.197,7.35 3.037,7.35 4.064,7.35 4.941,7.177 5.67,6.832 5.754,6.795 5.833,6.752 5.907,6.706 V 4.788 L 5.081,4.76 4.76,5.894 C 4.377,6.09 3.878,6.187 3.262,6.187 2.002,6.187 1.371,5.786 1.371,4.983 1.371,4.536 1.542,4.165 1.883,3.871 2.223,3.577 2.753,3.299 3.472,3.038 5.227,2.394 6.104,1.367 6.104,-0.042 c 0,-0.821 -0.276,-1.489 -0.827,-2.002 -0.55,-0.514 -1.348,-0.77 -2.393,-0.77 -0.477,0 -0.947,0.061 -1.414,0.182 -0.682,0.187 -1.172,0.397 -1.47,0.63 z"
           style="fill:#18213e;fill-opacity:1;fill-rule:nonzero;stroke:none"
           id="path3448" /></g><g
         id="g3466"
         transform="translate(394.9191,652.8279)"><path
           d="M 0,0 C 0,1.272 -0.329,2.545 -0.987,3.685 L -8.071,15.954 -17.282,0 Z"
           style="fill:#487dc8;fill-opacity:1;fill-rule:nonzero;stroke:none"
           id="path3468" /></g><g
         id="g3470"
         transform="translate(377.6375,652.8279)"><path
           d="M 0,0 9.211,15.954 9.208,15.958 H -9.214 Z"
           style="fill:#476bbc;fill-opacity:1;fill-rule:nonzero;stroke:none"
           id="path3472" /></g><g
         id="g3474"
         transform="translate(386.8484,636.8742)"><path
           d="m 0,0 7.083,12.269 c 0.659,1.14 0.988,2.412 0.988,3.685 H -9.211 Z"
           style="fill:#498cd2;fill-opacity:1;fill-rule:nonzero;stroke:none"
           id="path3476" /></g><g
         id="g3478"
         transform="translate(386.8457,668.7861)"><path
           d="m 0,0 -7.083,12.269 c -0.659,1.14 -1.596,2.061 -2.698,2.697 L -18.422,0 Z"
           style="fill:#3a64ad;fill-opacity:1;fill-rule:nonzero;stroke:none"
           id="path3480" /></g><g
         id="g3482"
         transform="translate(377.0648,683.7524)"><path
           d="m 0,0 c -1.102,0.636 -2.368,0.987 -3.685,0.987 h -14.167 l 9.211,-15.953 z"
           style="fill:#476bbc;fill-opacity:1;fill-rule:nonzero;stroke:none"
           id="path3484" /></g><g
         id="g3486"
         transform="translate(368.424,668.7861)"><path
           d="M 0,0 -9.211,15.954 H -9.216 L -18.427,0 Z"
           style="fill:#3a61a3;fill-opacity:1;fill-rule:nonzero;stroke:none"
           id="path3488" /></g><g
         id="g3490"
         transform="translate(341.3562,683.7524)"><path
           d="M 0,0 C -1.102,-0.636 -2.039,-1.557 -2.697,-2.698 L -9.781,-14.966 H 8.641 Z"
           style="fill:#2f5296;fill-opacity:1;fill-rule:nonzero;stroke:none"
           id="path3492" /></g><g
         id="g3494"
         transform="translate(359.2079,684.7398)"><path
           d="m 0,0 h -14.167 c -1.316,0 -2.583,-0.351 -3.685,-0.987 l 8.641,-14.967 z"
           style="fill:#425da2;fill-opacity:1;fill-rule:nonzero;stroke:none"
           id="path3496" /></g><text
         xml:space="preserve"
         transform="matrix(0.8,0,0,-0.8,227.907,685.5401)"
         id="text289"
         style="font-size:17.3333px;font-family:Belgrano;-inkscape-font-specification:Belgrano;white-space:pre;shape-inside:url(#rect291);fill:#51ace4;fill-opacity:1" /><text
         xml:space="preserve"
         style="font-size:13.8666px;font-family:Belgrano;-inkscape-font-specification:Belgrano;fill:#51ace4;fill-opacity:1;stroke-width:0.8"
         x="312.45822"
         y="-629.57776"
         id="text1539"
         transform="scale(1,-1)"><tspan
           id="tspan1537"
           style="stroke-width:0.8"
           x="312.45822"
           y="-629.57776">2023</tspan></text></g></g></svg>
