<?xml version="1.0" encoding="utf-8"?>
<!-- Generator: Adobe Illustrator 24.0.1, SVG Export Plug-In . SVG Version: 6.00 Build 0)  -->
<svg version="1.1"
	 id="svg2" xmlns:cc="http://creativecommons.org/ns#" xmlns:dc="http://purl.org/dc/elements/1.1/" xmlns:inkscape="http://www.inkscape.org/namespaces/inkscape" xmlns:rdf="http://www.w3.org/1999/02/22-rdf-syntax-ns#" xmlns:sodipodi="http://sodipodi.sourceforge.net/DTD/sodipodi-0.dtd" xmlns:svg="http://www.w3.org/2000/svg"
	 xmlns="http://www.w3.org/2000/svg" xmlns:xlink="http://www.w3.org/1999/xlink" x="0px" y="0px" viewBox="0 0 209.8 101.6"
	 style="enable-background:new 0 0 209.8 101.6;" xml:space="preserve">
<style type="text/css">
	.st0{fill:#87A2D4;}
	.st1{fill:#6499D1;}
	.st2{fill:#2D508B;}
	.st3{fill:#32619A;}
	.st4{fill:#2E73B4;}
	.st5{fill:#415E99;}
	.st6{fill:#264F8B;}
	.st7{fill:#7A86BA;}
	.st8{fill:#3C7FC0;}
	.st9{fill:#416BB2;}
	.st10{fill:#368CCB;}
	.st11{fill:#2E63A3;}
	.st12{fill:#1D2241;}
	.st13{fill:#36A7DF;}
</style>
<sodipodi:namedview  bordercolor="#666666" borderopacity="1" gridtolerance="10" guidetolerance="10" id="namedview39" inkscape:current-layer="text90" inkscape:cx="-24.732177" inkscape:cy="50.821686" inkscape:pageopacity="0" inkscape:pageshadow="2" inkscape:window-height="1025" inkscape:window-maximized="1" inkscape:window-width="1853" inkscape:window-x="67" inkscape:window-y="27" inkscape:zoom="2.1833905" objecttolerance="10" pagecolor="#ffffff" showgrid="false">
	</sodipodi:namedview>
<g>
	<path id="path22" class="st0" d="M57.2,80.7l-11.5,19.9h17.7c1.6,0,3.2-0.4,4.6-1.2L57.2,80.7L57.2,80.7z"/>
	<path id="path26" class="st1" d="M68,99.4c1.4-0.8,2.5-1.9,3.4-3.4l8.9-15.3h-23L68,99.4z"/>
	<path id="path30" class="st2" d="M22.6,60.8L11.1,80.7l0,0h23L22.6,60.8z"/>
	<path id="path34" class="st3" d="M1,60.8c0,1.6,0.4,3.2,1.2,4.6l8.9,15.3l11.5-19.9H1z"/>
	<path id="path38" class="st4" d="M11.1,40.8L2.2,56.1c-0.8,1.4-1.2,3-1.2,4.6h21.6L11.1,40.8L11.1,40.8z"/>
	<path id="path42" class="st5" d="M23.3,99.4c1.4,0.8,3,1.2,4.6,1.2h17.7L34.1,80.7L23.3,99.4L23.3,99.4z"/>
	<path id="path46" class="st6" d="M11.1,80.7L19.9,96c0.8,1.4,2,2.6,3.4,3.4l10.8-18.7H11.1z"/>
	<path id="path50" class="st7" d="M34.1,80.7l11.5,19.9h0l11.5-19.9H34.1z"/>
	<path id="path54" class="st8" d="M208.8,40.9c0-1.6-0.4-3.2-1.2-4.6l-8.9-15.3l-11.5,19.9H208.8z"/>
	<path id="path58" class="st9" d="M187.2,40.9l11.5-19.9l0,0h-23L187.2,40.9L187.2,40.9z"/>
	<path id="path62" class="st10" d="M198.7,60.8l8.9-15.3c0.8-1.4,1.2-3,1.2-4.6h-21.6L198.7,60.8z"/>
	<path id="path66" class="st11" d="M198.7,20.9l-8.9-15.3c-0.8-1.4-2-2.6-3.4-3.4l-10.8,18.7H198.7z"/>
	<path id="path70" class="st9" d="M186.4,2.2c-1.4-0.8-3-1.2-4.6-1.2h-17.7l11.5,19.9L186.4,2.2z"/>
	<path id="path74" class="st3" d="M175.6,20.9L164.1,1h0l-11.5,19.9H175.6z"/>
	<path id="path78" class="st6" d="M141.8,2.2c-1.4,0.8-2.5,1.9-3.4,3.4l-8.9,15.3h23L141.8,2.2L141.8,2.2z"/>
	<path id="path82" class="st5" d="M164.1,1h-17.7c-1.6,0-3.2,0.4-4.6,1.2l10.8,18.7L164.1,1z"/>
	<path id="path4429" class="st12" d="M42.9,43.6h-6.7v8.7h-4.3V30.9h11.8v3.6h-7.5V40h6.7L42.9,43.6L42.9,43.6z"/>
	<path id="path4431" class="st12" d="M61,43.5c0,2.9-0.7,5.1-2,6.7c-1.3,1.6-3.2,2.4-5.6,2.4c-2.4,0-4.3-0.8-5.6-2.3
		c-1.4-1.6-2.1-3.8-2.1-6.6V40c0-2.9,0.7-5.2,2-6.9c1.4-1.7,3.2-2.5,5.7-2.5c2.4,0,4.2,0.8,5.6,2.4c1.4,1.6,2.1,3.9,2.1,6.8V43.5z
		 M56.7,40c0-1.9-0.3-3.4-0.8-4.3c-0.5-0.9-1.4-1.4-2.5-1.4c-1.1,0-2,0.5-2.5,1.4c-0.5,0.9-0.8,2.3-0.8,4.1v3.8
		c0,1.9,0.3,3.2,0.8,4.1c0.6,0.9,1.4,1.3,2.6,1.3c1.1,0,2-0.4,2.5-1.3c0.5-0.9,0.8-2.2,0.8-4V40z"/>
	<path id="path4433" class="st12" d="M70.5,44.5h-2.1v7.8h-4.3V30.9h6.9c2.2,0,3.8,0.6,5,1.7c1.2,1.1,1.8,2.7,1.8,4.8
		c0,2.8-1,4.8-3.1,5.9l3.7,8.7v0.2h-4.6L70.5,44.5z M68.4,40.9h2.4c0.9,0,1.5-0.3,1.9-0.8c0.4-0.6,0.6-1.3,0.6-2.3
		c0-2.1-0.8-3.2-2.5-3.2h-2.5L68.4,40.9L68.4,40.9z"/>
	<path id="path4435" class="st12" d="M94.4,30.9v14.8c0,2.2-0.6,3.9-1.8,5.1c-1.2,1.2-2.9,1.8-5.2,1.8c-2.3,0-4-0.6-5.2-1.8
		c-1.2-1.2-1.8-2.9-1.8-5.2V30.9h4.3v14.7c0,1.2,0.2,2.1,0.6,2.6s1.1,0.8,2.1,0.8s1.7-0.3,2.1-0.8c0.4-0.5,0.6-1.4,0.6-2.5V30.9
		H94.4z"/>
	<path id="path4437" class="st12" d="M103.4,30.9l4,15.4l4-15.4h5.6v21.3h-4.3v-5.8l0.4-8.9l-4.3,14.7h-2.9l-4.3-14.7l0.4,8.9v5.8
		h-4.3V30.9H103.4z"/>
	<path id="path4439" class="st13" d="M124.9,44.8v7.5h-4.3V30.9h7.3c2.1,0,3.8,0.7,5,2c1.3,1.3,1.9,3,1.9,5.1s-0.6,3.7-1.9,5
		s-3,1.8-5.2,1.8H124.9z M124.9,41.2h3c0.8,0,1.5-0.3,1.9-0.8s0.7-1.3,0.7-2.3c0-1.1-0.2-1.9-0.7-2.5c-0.5-0.6-1.1-1-1.8-1h-3V41.2z
		"/>
	<path id="path4441" class="st13" d="M152.4,52.3h-4.3v-9.1h-6.4v9.1h-4.3V30.9h4.3v8.6h6.4v-8.6h4.3V52.3z"/>
	<path id="path4443" class="st13" d="M160.2,44.8v7.5h-4.3V30.9h7.3c2.1,0,3.8,0.7,5,2c1.3,1.3,1.9,3,1.9,5.1s-0.6,3.7-1.9,5
		s-3,1.8-5.2,1.8H160.2z M160.2,41.2h3c0.8,0,1.5-0.3,1.9-0.8s0.7-1.3,0.7-2.3c0-1.1-0.2-1.9-0.7-2.5c-0.5-0.6-1.1-1-1.8-1h-3V41.2z
		"/>
	<path id="path845" class="st12" d="M58.5,69.8h-5V69l1.6-0.6v-9.7l-1.6-0.6v-0.8H59c1.1,0,2,0.4,2.9,1.1c0.8,0.7,1.2,1.7,1.2,3
		c0,1.3-0.4,2.3-1.2,3c-0.8,0.7-1.8,1.1-2.9,1.1h-2.1v2.9l1.6,0.6V69.8z M56.9,64.2h1.3c0.9,0,1.7-0.2,2.3-0.7
		c0.6-0.5,0.9-1.1,0.9-2.1c0-1.8-1.1-2.7-3.2-2.7h-1.3V64.2z"/>
	<path id="path847" class="st12" d="M76.1,69.8h-4.8V69l1.4-0.6l-1.2-3.1H67l-1.2,3.1l1.4,0.6v0.8h-4.6V69l1.4-0.6l4.3-11h1.8
		l4.5,11l1.5,0.6L76.1,69.8z M71.1,64.2l-1.9-4.9l-1.8,4.9H71.1z"/>
	<path id="path849" class="st12" d="M88.7,69.8h-4.6v-0.8l1.1-0.5l-2.3-3.8h-2.2v3.7l1.6,0.6v0.8h-5V69l1.6-0.6v-9.7l-1.6-0.6v-0.8
		h5.5c1.2,0,2.2,0.3,2.9,0.9c0.8,0.6,1.2,1.5,1.2,2.8c0,1.6-0.8,2.7-2.3,3.3l2.5,4l1.6,0.6V69.8z M80.7,63.5h2
		c0.7,0,1.3-0.2,1.7-0.6c0.5-0.4,0.7-1,0.7-1.8c0-0.8-0.3-1.4-0.9-1.8c-0.6-0.4-1.4-0.6-2.3-0.6h-1.3V63.5z"/>
	<path id="path851" class="st12" d="M95.1,69.8h-5V69l1.6-0.6v-9.7l-1.6-0.6v-0.8h5v0.8l-1.6,0.6v9.7l1.6,0.6V69.8z"/>
	<path id="path853" class="st12" d="M97.1,66.5h1.1l0.5,1.6c0.5,0.4,1.2,0.5,2.2,0.5c0.7,0,1.2-0.2,1.6-0.5c0.4-0.3,0.6-0.8,0.6-1.3
		c0-0.5-0.2-1-0.7-1.5c-0.4-0.5-1.2-0.9-2.2-1.3c-2-0.8-3-1.8-3-3.2c0-1.1,0.4-2,1.1-2.6c0.7-0.6,1.6-0.9,2.7-0.9
		c1.3,0,2.4,0.2,3.3,0.6c0.1,0,0.2,0.1,0.3,0.2v2.4l-1,0l-0.4-1.4c-0.5-0.2-1.1-0.4-1.9-0.4c-1.6,0-2.4,0.5-2.4,1.5
		c0,0.6,0.2,1,0.6,1.4c0.4,0.4,1.1,0.7,2,1c2.2,0.8,3.3,2.1,3.3,3.8c0,1-0.3,1.9-1,2.5c-0.7,0.6-1.7,1-3,1c-0.6,0-1.2-0.1-1.8-0.2
		c-0.9-0.2-1.5-0.5-1.8-0.8L97.1,66.5z"/>
	<g>
		<path class="st13" d="M115.3,69.8h-8.5v-1.3c0.7-0.4,1.4-1,2.1-1.6c0.8-0.6,1.4-1.2,2-1.8s1-1.2,1.5-1.9c0.5-0.7,0.7-1.4,0.7-2.1
			c0-0.7-0.2-1.2-0.7-1.7c-0.4-0.5-1-0.7-1.8-0.7c-0.5,0-0.9,0.1-1.2,0.2c-0.4,0.2-0.6,0.3-0.7,0.5l-0.2,0.2l-0.3,2.2h-1.3v-2.7
			c0.1-0.2,0.2-0.4,0.5-0.6c0.2-0.2,0.5-0.4,0.7-0.6c0.3-0.2,0.6-0.3,1.1-0.5c0.5-0.1,0.9-0.2,1.5-0.2c1.3,0,2.4,0.4,3.2,1.1
			s1.2,1.7,1.2,2.8c0,0.6-0.2,1.3-0.5,2c-0.4,0.7-0.8,1.3-1.3,1.9c-0.5,0.6-1,1.1-1.6,1.6c-1,0.9-1.9,1.5-2.5,1.8h4.5l0.6-1.9h1.3
			V69.8z"/>
		<path class="st13" d="M128.2,63.7c0,1.9-0.5,3.4-1.5,4.6c-1,1.1-2.3,1.7-3.9,1.7c-1.6,0-2.9-0.6-3.9-1.7c-1-1.1-1.5-2.7-1.5-4.6
			c0-1.9,0.5-3.5,1.5-4.6c1-1.2,2.3-1.7,3.9-1.7c1.6,0,2.9,0.6,3.9,1.7S128.2,61.8,128.2,63.7z M119.2,63.7c0,1.4,0.3,2.5,1,3.5
			c0.6,0.9,1.5,1.4,2.6,1.4s2-0.5,2.6-1.4c0.6-0.9,1-2.1,1-3.5c0-1.4-0.3-2.5-1-3.5c-0.6-1-1.5-1.4-2.7-1.4s-2,0.5-2.6,1.4
			C119.5,61.1,119.2,62.3,119.2,63.7z"/>
		<path class="st13" d="M138.8,69.8h-8.5v-1.3c0.6-0.4,1.4-1,2.1-1.6c0.8-0.6,1.4-1.2,2-1.8c0.5-0.6,1-1.2,1.5-1.9
			c0.5-0.7,0.7-1.4,0.7-2.1c0-0.7-0.2-1.2-0.7-1.7c-0.4-0.5-1-0.7-1.8-0.7c-0.5,0-0.9,0.1-1.2,0.2c-0.4,0.2-0.6,0.3-0.7,0.5
			l-0.2,0.2l-0.3,2.2h-1.3v-2.7c0.1-0.2,0.2-0.4,0.5-0.6c0.2-0.2,0.5-0.4,0.7-0.6c0.3-0.2,0.6-0.3,1.1-0.5c0.5-0.1,0.9-0.2,1.5-0.2
			c1.3,0,2.4,0.4,3.2,1.1s1.2,1.7,1.2,2.8c0,0.6-0.2,1.3-0.5,2c-0.4,0.7-0.8,1.3-1.3,1.9c-0.5,0.6-1,1.1-1.6,1.6
			c-1,0.9-1.9,1.5-2.5,1.8h4.5l0.6-1.9h1.3V69.8z"/>
		<path class="st13" d="M151.8,63.7c0,1.9-0.5,3.4-1.5,4.6s-2.3,1.7-3.9,1.7s-2.9-0.6-3.9-1.7c-1-1.1-1.5-2.7-1.5-4.6
			c0-1.9,0.5-3.5,1.5-4.6c1-1.2,2.3-1.7,3.9-1.7s2.9,0.6,3.9,1.7C151.3,60.2,151.8,61.8,151.8,63.7z M142.7,63.7
			c0,1.4,0.3,2.5,1,3.5c0.6,0.9,1.5,1.4,2.6,1.4s2-0.5,2.6-1.4c0.6-0.9,1-2.1,1-3.5c0-1.4-0.3-2.5-1-3.5c-0.6-1-1.5-1.4-2.7-1.4
			c-1.1,0-2,0.5-2.6,1.4C143,61.1,142.7,62.3,142.7,63.7z"/>
	</g>
</g>
</svg>
