<?xml version="1.0" encoding="utf-8"?>
<!-- Generator: Adobe Illustrator 25.2.3, SVG Export Plug-In . SVG Version: 6.00 Build 0)  -->
<svg version="1.1"
	 id="svg2" xmlns:cc="http://creativecommons.org/ns#" xmlns:dc="http://purl.org/dc/elements/1.1/" xmlns:rdf="http://www.w3.org/1999/02/22-rdf-syntax-ns#" xmlns:svg="http://www.w3.org/2000/svg"
	 xmlns="http://www.w3.org/2000/svg" xmlns:xlink="http://www.w3.org/1999/xlink" x="0px" y="0px" viewBox="0 0 250.9 240.07"
	 style="enable-background:new 0 0 250.9 240.07;" xml:space="preserve">
<style type="text/css">
	.st0{fill:#234077;}
	.st1{fill:#476BBC;}
	.st2{fill:#3F73BD;}
	.st3{fill:#487DC8;}
	.st4{fill:#425DA2;}
	.st5{fill:#6AAEE3;}
	.st6{fill:#498CD2;}
	.st7{fill:#2F5296;}
	.st8{fill:#325295;}
	.st9{fill:#3A64AD;}
	.st10{fill:#7F9AD6;}
	.st11{fill:#4C9EDC;}
	.st12{fill:#727EBD;}
	.st13{fill:#32549D;}
	.st14{fill:#6495D5;}
	.st15{fill:#50A0DD;}
	.st16{fill-rule:evenodd;clip-rule:evenodd;fill:#FFFFFF;}
	.st17{fill:#FFFFFF;}
	.st18{font-family:'RobotoCondensed-Regular';}
	.st19{font-size:36.7052px;}
</style>
<g id="layer_Paper">
	<path id="_x39_87F82AD" class="st0" d="M0,182.49V116.9V34.46L127.68,0.26c4.28-1.15,7.75,1.52,7.75,5.94v41.04l76.74-20.16
		c4.44-1.17,8.04,1.61,8.04,6.2v90.19l21.59-5.79c5.02-1.35,9.1,1.78,9.1,6.99v38.74c0,5.2-4.08,10.52-9.1,11.86L0,240.07V182.49z"
		/>
	<polygon id="_x39_97F82AD" class="st1" points="36.73,24.73 0,34.59 36.73,67.14 	"/>
	<polygon id="E97F82AD" class="st2" points="109.91,47.34 73.18,57.2 109.91,89.75 	"/>
	<polygon id="_x32_A7F82AD" class="st3" points="73.22,99.62 36.49,109.48 73.22,142.03 	"/>
	<polygon id="_x37_A7F82AD" class="st4" points="146.63,122.29 109.9,132.15 146.63,164.7 	"/>
	<polygon id="BA7F82AD" class="st5" points="183.32,70.02 146.59,79.87 183.32,112.43 	"/>
	<polygon id="_x30_B7F82AD" class="st6" points="36.73,151.96 0,161.82 36.73,194.37 	"/>
	<polygon id="_x34_B7F82AD" class="st3" points="73.22,14.86 36.49,24.71 73.22,57.27 	"/>
	<polygon id="_x39_B7F82AD" class="st3" points="109.96,5.04 73.23,14.9 109.96,47.45 	"/>
	<polygon id="DB7F82AD" class="st7" points="109.91,89.69 73.18,99.55 109.91,132.1 	"/>
	<polygon id="_x33_C7F82AD" class="st1" points="36.73,67.14 0,77 36.73,109.55 	"/>
	<polygon id="_x37_C7F82AD" class="st3" points="73.22,142.02 36.49,151.88 73.22,184.43 	"/>
	<polygon id="BC7F82AD" class="st4" points="73.22,57.16 36.49,67.02 73.22,99.57 	"/>
	<polygon id="_x30_D7F82AD" class="st8" points="146.63,79.84 109.9,89.69 146.63,122.25 	"/>
	<polygon id="_x34_D7F82AD" class="st9" points="220.04,144.51 183.32,154.37 215.01,182.44 220.04,181.11 	"/>
	<polygon id="_x38_D7F82AD" class="st9" points="220.04,102.51 183.32,112.37 220.04,144.93 	"/>
	<polygon id="CD7F82AD" class="st10" points="109.91,132.08 73.18,141.94 109.91,174.49 	"/>
	<polygon id="_x30_E7F82AD" class="st11" points="36.73,109.55 0,119.41 36.73,151.96 	"/>
	<polygon id="_x35_E7F82AD" class="st1" points="36.49,67.07 73.22,57.21 36.49,24.66 	"/>
	<polygon id="_x38_E7F82AD" class="st9" points="109.9,89.75 146.63,79.89 109.9,47.34 	"/>
	<polygon id="CE7F82AD" class="st4" points="73.18,142.02 109.91,132.16 73.18,99.61 	"/>
	<polygon id="FE7F82AD" class="st8" points="183.32,112.43 220.04,102.57 183.32,70.01 	"/>
	<polygon id="_x33_F7F82AD" class="st6" points="0,119.41 36.73,109.55 0,77 	"/>
	<polygon id="_x36_F7F82AD" class="st10" points="36.49,194.29 73.22,184.44 36.49,151.88 	"/>
	<polygon id="AF7F82AD" class="st10" points="73.18,57.25 109.91,47.4 73.18,14.84 	"/>
	<polygon id="EF7F82AD" class="st12" points="36.49,109.42 73.22,99.56 36.49,67.01 	"/>
	<polygon id="_x32_08F82AD" class="st13" points="183.32,154.78 220.04,144.92 183.32,112.37 	"/>
	<polygon id="_x36_08F82AD" class="st14" points="73.18,184.35 109.91,174.49 73.18,141.94 	"/>
	<polygon id="A08F82AD" class="st15" points="0,161.82 36.73,151.96 0,119.41 	"/>
	<polygon id="F08F82AD" class="st9" points="73.18,99.56 109.91,89.7 73.18,57.15 	"/>
	<polygon id="_x33_18F82AD" class="st3" points="146.63,122.25 183.36,112.39 146.63,79.84 	"/>
	<polygon id="_x37_18F82AD" class="st7" points="0,77 36.73,67.14 0,34.59 	"/>
	<polygon id="A18F82AD" class="st1" points="109.9,174.49 146.63,164.63 109.9,132.08 	"/>
	<polygon id="E18F82AD" class="st10" points="36.49,151.89 73.22,142.03 36.49,109.48 	"/>
	<path id="B38F82AD" class="st16" d="M129.26,149.01l-4.33-15.39l-22.28,5.97l-4.33,17.72l-17.28,4.63l25.28-87.66l14.94-4
		l25.44,74.07L129.26,149.01z M113.76,94.17l-7.56,30.86l15.11-4.05L113.76,94.17z M158.3,60.35l12.22,33.06l12.17-39.59l17.78-4.76
		l-21.67,57.36v29.33l-16.56,4.44v-29.33l-21.72-45.73L158.3,60.35z M42.99,172.13l-20.94,5.61V96.86l21.39-5.73l0,0
		c9.44-2.53,16.97-1.55,22.58,2.95l0,0l0,0c5.61,4.5,8.47,11.95,8.58,22.37l0,0v13.11l0,0c0,10.63-2.81,19.72-8.42,27.28l0,0l0,0
		C60.57,164.39,52.84,169.49,42.99,172.13z M44.32,104.5l-5.94,1.59v53.72l4.89-1.31l0,0c5.44-1.46,9.28-3.92,11.5-7.39l0,0l0,0
		c2.22-3.47,3.39-8.73,3.5-15.8l0,0v-14.05l0,0c0-7.55-1.06-12.54-3.17-14.96l0,0l0,0C52.99,103.89,49.4,103.29,44.32,104.5z
		 M42.38,76.95l-4.93,1.32l0,0c-0.29-0.55-0.49-1.55-0.62-3l0,0l0,0c-1.68,2.91-3.82,4.72-6.43,5.42l0,0l0,0
		c-2.63,0.7-4.67,0.52-6.15-0.56l0,0l0,0c-1.47-1.08-2.21-2.96-2.21-5.64l0,0l0,0c0-2.95,1-5.55,3-7.82l0,0l0,0
		c2-2.27,4.74-3.89,8.22-4.86l0,0l3.48-0.93v-3.08l0,0c0-1.73-0.38-2.86-1.15-3.39l0,0l0,0c-0.77-0.53-1.94-0.58-3.51-0.16l0,0l0,0
		c-1.43,0.38-2.59,1.12-3.48,2.21l0,0l0,0c-0.89,1.09-1.34,2.28-1.34,3.59l0,0l-4.74,1.27l0,0c0-1.48,0.44-3.01,1.31-4.6l0,0l0,0
		c0.87-1.58,2.05-2.96,3.54-4.12l0,0l0,0c1.48-1.16,3.13-1.99,4.96-2.48l0,0l0,0c2.96-0.79,5.22-0.66,6.76,0.4l0,0l0,0
		c1.54,1.06,2.33,3,2.37,5.81l0,0v14.62l0,0c0.02,2.23,0.32,4.08,0.91,5.57l0,0V76.95z M31.13,76.19L31.13,76.19L31.13,76.19
		c1.16-0.31,2.27-0.93,3.32-1.85l0,0l0,0c1.05-0.93,1.82-1.93,2.3-3.03l0,0V64.4l-2.68,0.72l0,0c-2.25,0.64-4.03,1.62-5.33,2.94l0,0
		l0,0c-1.3,1.32-1.96,2.86-1.96,4.61l0,0l0,0c0,1.64,0.33,2.75,0.99,3.31l0,0l0,0C28.44,76.54,29.56,76.61,31.13,76.19z M55.64,73.4
		l-4.74,1.27V49.52l-3.78,1.01V46.7l3.78-1.01v-3.35l0,0c0.05-2.96,0.8-5.46,2.24-7.5l0,0l0,0c1.44-2.04,3.47-3.41,6.09-4.11l0,0
		l0,0c0.95-0.25,1.9-0.36,2.87-0.31l0,0l-0.24,4.08l0,0c-0.68,0.02-1.4,0.13-2.17,0.34l0,0l0,0c-2.7,0.72-4.04,3-4.04,6.84l0,0v2.73
		l4.96-1.33v3.83l-4.96,1.33V73.4z M81.05,66.59l-0.11-2.52l0,0c-1.57,2.47-3.87,4.12-6.88,4.92l0,0l0,0
		c-2.62,0.7-4.61,0.33-5.95-1.13l0,0l0,0c-1.34-1.45-2.02-3.91-2.04-7.37l0,0V41.62l4.71-1.26v18.53l0,0c0,4.52,1.36,6.41,4.07,5.69
		l0,0l0,0c2.88-0.77,4.86-2.59,5.95-5.45l0,0V37.67l4.74-1.27v28.98L81.05,66.59z M113.62,41.61v3.16l0,0
		c0,4.59-0.83,8.23-2.48,10.92l0,0l0,0c-1.65,2.69-3.99,4.44-7,5.25l0,0l0,0c-2.91,0.78-5.15,0.28-6.72-1.49l0,0v13.9l-4.71,1.26
		V34.49l4.29-1.15l0.24,3.15l0,0c1.59-2.93,3.87-4.79,6.83-5.58l0,0l0,0c3.18-0.85,5.55-0.38,7.12,1.41l0,0l0,0
		C112.76,34.12,113.57,37.21,113.62,41.61z M108.91,46.22v-2.89l0,0c0-3.25-0.5-5.51-1.5-6.79l0,0l0,0c-1-1.28-2.61-1.62-4.82-1.03
		l0,0l0,0c-2.27,0.61-3.99,2.2-5.17,4.79l0,0v15.08l0,0c1.16,1.9,2.9,2.54,5.22,1.92l0,0l0,0c2.14-0.57,3.72-1.77,4.73-3.58l0,0l0,0
		C108.38,51.9,108.89,49.4,108.91,46.22z"/>
	<text transform="matrix(1.0718 -0.2679 0 1 20.4366 216.5248)" class="st17 st18 st19">2022</text>
</g>
</svg>
