<?xml version="1.0" encoding="UTF-8" standalone="no"?>
<svg
   xmlns:dc="http://purl.org/dc/elements/1.1/"
   xmlns:cc="http://creativecommons.org/ns#"
   xmlns:rdf="http://www.w3.org/1999/02/22-rdf-syntax-ns#"
   xmlns:svg="http://www.w3.org/2000/svg"
   xmlns="http://www.w3.org/2000/svg"
   viewBox="0 0 849.58084 186.31835"
   height="186.31836"
   width="849.58087"
   xml:space="preserve"
   version="1.1"
   id="svg6693"><metadata
     id="metadata6699"><rdf:RDF><cc:Work
         rdf:about=""><dc:format>image/svg+xml</dc:format><dc:type
           rdf:resource="http://purl.org/dc/dcmitype/StillImage" /><dc:title></dc:title></cc:Work></rdf:RDF></metadata><defs
     id="defs6697"><clipPath
       id="clipPath6707"
       clipPathUnits="userSpaceOnUse"><path
         id="path6709"
         d="m 0,870.236 623.626,0 L 623.626,0 0,0 0,870.236 Z" /></clipPath><clipPath
       id="clipPath6719"
       clipPathUnits="userSpaceOnUse"><path
         id="path6721"
         d="m 0,870.236 623.626,0 L 623.626,0 0,0 0,870.236 Z" /></clipPath><clipPath
       id="clipPath6731"
       clipPathUnits="userSpaceOnUse"><path
         id="path6733"
         d="m 0,870.236 623.626,0 L 623.626,0 0,0 0,870.236 Z" /></clipPath><clipPath
       clipPathUnits="userSpaceOnUse"
       id="clipPath4150"><path
         d="m 0,870.236 623.626,0 L 623.626,0 0,0 0,870.236 Z"
         id="path4152" /></clipPath><clipPath
       clipPathUnits="userSpaceOnUse"
       id="clipPath4162"><path
         d="m 0,870.236 623.626,0 L 623.626,0 0,0 0,870.236 Z"
         id="path4164" /></clipPath><clipPath
       clipPathUnits="userSpaceOnUse"
       id="clipPath4390"><path
         d="m 0,870.236 623.626,0 L 623.626,0 0,0 0,870.236 Z"
         id="path4392" /></clipPath><clipPath
       clipPathUnits="userSpaceOnUse"
       id="clipPath4398"><path
         d="m -80.514,14.173 -595.276,0 0,841.89 595.276,0 0,-841.89 z"
         id="path4400" /></clipPath><clipPath
       clipPathUnits="userSpaceOnUse"
       id="clipPath6707-4"><path
         d="m 0,870.236 623.626,0 L 623.626,0 0,0 0,870.236 Z"
         id="path6709-2" /></clipPath><clipPath
       clipPathUnits="userSpaceOnUse"
       id="clipPath6719-3"><path
         d="m 0,870.236 623.626,0 L 623.626,0 0,0 0,870.236 Z"
         id="path6721-3" /></clipPath><clipPath
       clipPathUnits="userSpaceOnUse"
       id="clipPath6731-1"><path
         d="m 0,870.236 623.626,0 L 623.626,0 0,0 0,870.236 Z"
         id="path6733-5" /></clipPath><clipPath
       id="clipPath4150-1"
       clipPathUnits="userSpaceOnUse"><path
         id="path4152-0"
         d="m 0,870.236 623.626,0 L 623.626,0 0,0 0,870.236 Z" /></clipPath><clipPath
       id="clipPath4162-3"
       clipPathUnits="userSpaceOnUse"><path
         id="path4164-5"
         d="m 0,870.236 623.626,0 L 623.626,0 0,0 0,870.236 Z" /></clipPath><clipPath
       id="clipPath4390-2"
       clipPathUnits="userSpaceOnUse"><path
         id="path4392-2"
         d="m 0,870.236 623.626,0 L 623.626,0 0,0 0,870.236 Z" /></clipPath><clipPath
       id="clipPath4398-1"
       clipPathUnits="userSpaceOnUse"><path
         id="path4400-4"
         d="m -80.514,14.173 -595.276,0 0,841.89 595.276,0 0,-841.89 z" /></clipPath></defs><g
     transform="matrix(1.25,0,0,-1.25,-101.84723,636.18477)"
     id="g6701"><g
       id="g17042"><g
         id="LYON"><title
           id="title14355">LYON</title><path
           d="m 525.79218,415.21745 25.11759,0 0,-9.50288 -36.94691,0 0,57.41162 11.82932,0 0,-47.90874 z"
           style="font-style:normal;font-variant:normal;font-weight:bold;font-stretch:normal;font-size:medium;line-height:125%;font-family:Roboto;-inkscape-font-specification:'Roboto Bold';letter-spacing:-2.4000001px;word-spacing:0px;fill:#ffffff;fill-opacity:1;stroke:none;stroke-width:1px;stroke-linecap:butt;stroke-linejoin:miter;stroke-opacity:1"
           id="L" /><path
           d="m 591.87557,437.25942 11.94761,25.86677 12.93339,0 -18.84804,-36.59202 0,-20.8196 -12.02648,0 0,20.8196 -18.84805,36.59202 12.97282,0 11.86875,-25.86677 z"
           style="font-style:normal;font-variant:normal;font-weight:bold;font-stretch:normal;font-size:medium;line-height:125%;font-family:Roboto;-inkscape-font-specification:'Roboto Bold';letter-spacing:-2.4000001px;word-spacing:0px;fill:#ffffff;fill-opacity:1;stroke:none;stroke-width:1px;stroke-linecap:butt;stroke-linejoin:miter;stroke-opacity:1"
           id="Y" /><path
           d="m 683.51029,433.11916 q 0,-8.47768 -2.99676,-14.86551 -2.99676,-6.38784 -8.59597,-9.85777 -5.55978,-3.46993 -12.77566,-3.46993 -7.13702,0 -12.73623,3.4305 -5.59922,3.4305 -8.67484,9.7789 -3.07562,6.38784 -3.11505,14.66836 l 0,2.83903 q 0,8.47768 3.03619,14.90495 3.07562,6.46669 8.6354,9.89719 5.59921,3.46994 12.77567,3.46994 7.17645,0 12.73623,-3.46994 5.59921,-3.4305 8.6354,-9.89719 3.07562,-6.42727 3.07562,-14.86551 l 0,-2.56302 z m -11.98704,2.60245 q 0,9.02971 -3.23335,13.72201 -3.23334,4.69229 -9.22686,4.69229 -5.95409,0 -9.18744,-4.65286 -3.23335,-4.61344 -3.27278,-13.56429 l 0,-2.7996 q 0,-8.79313 3.23335,-13.64315 3.23334,-4.85002 9.30573,-4.85002 5.95409,0 9.148,4.65286 3.19392,4.6923 3.23335,13.64315 l 0,2.79961 z"
           style="font-style:normal;font-variant:normal;font-weight:bold;font-stretch:normal;font-size:medium;line-height:125%;font-family:Roboto;-inkscape-font-specification:'Roboto Bold';letter-spacing:-2.4000001px;word-spacing:0px;fill:#ffffff;fill-opacity:1;stroke:none;stroke-width:1px;stroke-linecap:butt;stroke-linejoin:miter;stroke-opacity:1"
           id="O" /><path
           d="m 753.14248,405.71457 -11.82932,0 -23.02774,37.77496 0,-37.77496 -11.82931,0 0,57.41162 11.82931,0 23.06718,-37.85381 0,37.85381 11.78988,0 0,-57.41162 z"
           style="font-style:normal;font-variant:normal;font-weight:bold;font-stretch:normal;font-size:medium;line-height:125%;font-family:Roboto;-inkscape-font-specification:'Roboto Bold';letter-spacing:-2.4000001px;word-spacing:0px;fill:#ffffff;fill-opacity:1;stroke:none;stroke-width:1px;stroke-linecap:butt;stroke-linejoin:miter;stroke-opacity:1"
           id="N" /></g><g
         id="afup"><title
           id="title14389">Association Française des Utilisateurs de PHP</title><g
           transform="matrix(1.838491,0,0,1.838491,103.11939,426.47736)"
           id="a"><title
             id="title14365">association</title><path
             id="path6737"
             style="fill:#ffffff;fill-opacity:1;fill-rule:nonzero;stroke:none"
             d="m 0,0 c -0.939,-0.751 -1.409,-1.764 -1.409,-3.037 0,-1.274 0.511,-2.275 1.534,-3.005 1.022,-0.731 2.452,-1.096 4.29,-1.096 3.465,0 6.303,0.939 8.516,2.818 l 0,6.762 L 3.789,1.44 C 2.201,1.231 0.939,0.751 0,0 m 24.077,-7.138 0,-3.758 c -1.628,-0.792 -3.424,-1.189 -5.385,-1.189 -1.963,0 -3.372,0.376 -4.227,1.127 -0.856,0.751 -1.346,1.836 -1.472,3.256 -2.296,-2.923 -5.312,-4.383 -9.048,-4.383 -3.736,0 -6.565,0.751 -8.485,2.254 -1.92,1.503 -2.88,3.61 -2.88,6.325 0,5.217 3.632,8.223 10.896,9.017 l 9.455,1.002 0,1.816 c 0,2.42 -0.501,4.257 -1.503,5.51 -1.001,1.252 -2.589,1.879 -4.759,1.879 -4.008,0 -7.264,-0.439 -9.769,-1.316 l -1.252,-0.438 -1.127,4.008 c 1.168,0.667 2.943,1.283 5.323,1.847 2.38,0.564 4.592,0.846 6.637,0.846 4.467,0 7.64,-0.888 9.518,-2.662 1.879,-1.774 2.818,-4.269 2.818,-7.483 l 0,-17.658 5.26,0 z" /></g><g
           transform="matrix(1.838491,0,0,1.838491,184.98446,405.525)"
           id="f"><title
             id="title14367">française</title><path
             id="path6741"
             style="fill:#ffffff;fill-opacity:1;fill-rule:nonzero;stroke:none"
             d="m 0,0 -16.594,0 0,2.692 5.26,2.067 0,21.478 -4.884,0 0,3.758 4.884,2.004 0,3.756 c 0,4.133 1.054,7.274 3.162,9.425 2.108,2.149 5.082,3.224 8.924,3.224 1.503,0 2.89,-0.218 4.164,-0.657 1.272,-0.438 2.16,-0.888 2.661,-1.346 L 8.392,45.712 6.7,42.456 c -1.169,0.667 -2.911,1.002 -5.228,1.002 -2.317,0 -4.03,-0.679 -5.135,-2.036 -1.107,-1.357 -1.659,-3.83 -1.659,-7.42 l 0,-2.692 10.081,0 0,-5.073 -10.081,0 0,-21.478 L 0,2.692 0,0 Z" /></g><g
           transform="matrix(1.838491,0,0,1.838491,267.44721,413.35385)"
           id="u"><title
             id="title14369">utilisateurs</title><path
             id="path6745"
             style="fill:#ffffff;fill-opacity:1;fill-rule:nonzero;stroke:none"
             d="m 0,0 0,-3.757 c -1.628,-0.793 -3.466,-1.19 -5.511,-1.19 -2.046,0 -3.465,0.428 -4.258,1.283 -0.793,0.856 -1.252,2.119 -1.377,3.789 -0.543,-0.626 -1.169,-1.252 -1.878,-1.878 -0.711,-0.627 -1.89,-1.315 -3.538,-2.067 -1.65,-0.751 -3.373,-1.127 -5.167,-1.127 -3.256,0 -5.698,0.908 -7.326,2.724 -1.629,1.816 -2.442,4.289 -2.442,7.42 l 0,17.659 -5.26,0 0,3.757 c 1.628,0.792 3.516,1.19 5.667,1.19 2.15,0 3.601,-0.512 4.352,-1.534 0.752,-1.024 1.127,-2.579 1.127,-4.665 l 0,-14.215 c 0,-2.464 0.407,-4.3 1.221,-5.511 0.814,-1.211 2.286,-1.816 4.414,-1.816 2.129,0 3.946,0.407 5.449,1.222 1.503,0.814 2.63,1.659 3.381,2.535 l 0,19.037 -5.26,0 0,3.757 c 1.628,0.792 3.516,1.19 5.667,1.19 2.149,0 3.6,-0.512 4.352,-1.534 0.751,-1.024 1.127,-2.579 1.127,-4.665 L -5.26,0 0,0 Z" /></g><g
           transform="matrix(1.838491,0,0,1.838491,300.741,413.46875)"
           id="p"><title
             id="title14371">PHP</title><path
             id="path6749"
             style="fill:#ffffff;fill-opacity:1;fill-rule:nonzero;stroke:none"
             d="m 0,0 c 3.382,0 6.021,1.002 7.921,3.006 1.899,2.003 2.85,4.8 2.85,8.39 0,3.59 -0.919,6.397 -2.755,8.423 -1.838,2.024 -3.8,3.037 -5.887,3.037 -3.632,0 -6.346,-1.149 -8.141,-3.444 l 0,-18.285 C -3.674,0.375 -1.67,0 0,0 m -0.752,-21.291 -16.469,0 0,2.693 5.324,2.066 0,39.576 -5.26,0 0,3.444 c 1.628,0.792 3.412,1.19 5.353,1.19 1.942,0 3.328,-0.356 4.164,-1.065 0.835,-0.71 1.336,-1.753 1.503,-3.131 2.045,2.838 5.093,4.258 9.143,4.258 3.297,0 6.345,-1.127 9.142,-3.381 1.418,-1.17 2.557,-2.829 3.413,-4.979 0.855,-2.15 1.284,-4.644 1.284,-7.483 0,-2.839 -0.481,-5.375 -1.441,-7.607 C 14.443,2.056 13.15,0.292 11.521,-1.002 8.224,-3.632 4.383,-4.947 0,-4.947 c -1.753,0 -3.757,0.293 -6.012,0.877 l 0,-12.462 5.26,-2.066 0,-2.693 z" /></g><text
           transform="scale(1,-1)"
           id="text11751"
           y="-422.40115"
           x="261.39328"
           style="font-style:normal;font-weight:normal;font-size:32px;line-height:125%;font-family:sans-serif;letter-spacing:0px;word-spacing:0px;fill:#000000;fill-opacity:1;stroke:none;stroke-width:1px;stroke-linecap:butt;stroke-linejoin:miter;stroke-opacity:1"
           xml:space="preserve"><tspan
             y="-422.40115"
             x="261.39328"
             id="tspan11753" /></text>
</g><g
         id="lion"
         transform="matrix(1.0356338,0,0,-1.0356338,17.657053,997.69918)"><title
           id="title17040">lion</title><g
           transform="matrix(1.25,0,0,-1.25,-1.3964844e-4,1275.3973)"
           id="g5080"><path
             id="path5082-8"
             style="fill:#4c9edc;fill-opacity:1;fill-rule:nonzero;stroke:none"
             d="m 288.7891,571.9068 0,0 -21.482,-12.403 c 0.994,-1.721 2.433,-3.185 4.214,-4.213 l 17.268,-9.97 0,26.586 z" /><path
             id="path5084-8"
             style="fill:#498cd2;fill-opacity:1;fill-rule:nonzero;stroke:none"
             d="m 265.7649,585.1998 0,-19.939 c 0,-2.057 0.549,-4.035 1.542,-5.756 l 21.482,12.402 -23.024,13.293 z" /><path
             id="path5086-9"
             style="fill:#487dc8;fill-opacity:1;fill-rule:nonzero;stroke:none"
             d="m 288.7891,571.9068 0,26.586 -23.024,-13.293 0,0 23.024,-13.293 z" /><path
             id="path5088-6"
             style="fill:#5295d6;fill-opacity:1;fill-rule:nonzero;stroke:none"
             d="m 288.7891,545.3209 0,0 17.268,-9.97 c 1.781,-1.028 3.769,-1.542 5.756,-1.542 l 0,24.805 -23.024,-13.293 z" /><path
             id="path5090-0"
             style="fill:#476bbc;fill-opacity:1;fill-rule:nonzero;stroke:none"
             d="m 267.3072,610.8954 c -0.994,-1.721 -1.542,-3.7 -1.542,-5.756 l 0,-19.94 23.024,13.293 -21.482,12.403 z" /><path
             id="path5092-2"
             style="fill:#7f9ad6;fill-opacity:1;fill-rule:nonzero;stroke:none"
             d="m 334.8373,545.3209 0,26.586 -23.024,-13.293 23.024,-13.293 z" /><path
             id="path5094-5"
             style="fill:#727ebd;fill-opacity:1;fill-rule:nonzero;stroke:none"
             d="m 356.3192,559.5043 c 0.994,1.721 1.542,3.7 1.542,5.756 l 0,19.939 -23.024,-13.293 21.482,-12.402 z" /><path
             id="path5096-0"
             style="fill:#8f9fd8;fill-opacity:1;fill-rule:nonzero;stroke:none"
             d="m 334.8373,571.9068 0,-26.586 17.268,9.97 c 1.781,1.028 3.22,2.492 4.214,4.214 l -21.482,12.402 z" /><path
             id="path5098-9"
             style="fill:#425da2;fill-opacity:1;fill-rule:nonzero;stroke:none"
             d="m 334.8373,598.4928 0,0 0,-26.586 23.024,13.293 0,0 -23.024,13.293 z" /><path
             id="path5100-5"
             style="fill:#6495d5;fill-opacity:1;fill-rule:nonzero;stroke:none"
             d="m 311.8132,558.6138 0,-24.805 c 1.987,0 3.975,0.514 5.756,1.542 l 17.268,9.97 -23.024,13.293 z" /><path
             id="path5102-1"
             style="fill:#3a64ad;fill-opacity:1;fill-rule:nonzero;stroke:none"
             d="m 311.8132,611.7858 -23.024,13.293 0,-26.586 23.024,13.293 z" /><path
             id="path5104-7"
             style="fill:#3a61a3;fill-opacity:1;fill-rule:nonzero;stroke:none"
             d="m 311.8132,611.7858 23.024,-13.293 0,26.586 -23.024,-13.293 z" /><path
             id="path5106-7"
             style="fill:#32549d;fill-opacity:1;fill-rule:nonzero;stroke:none"
             d="m 267.3072,610.8954 21.482,-12.403 0,26.586 -17.268,-9.969 c -1.781,-1.029 -3.22,-2.493 -4.214,-4.214" /><path
             id="path5108-7"
             style="fill:#2f5296;fill-opacity:1;fill-rule:nonzero;stroke:none"
             d="m 334.8373,598.4928 23.024,-13.293 0,19.939 c 0,2.057 -0.548,4.035 -1.542,5.757 l -21.482,-12.403 z" /><path
             id="path5110-4"
             style="fill:#325295;fill-opacity:1;fill-rule:nonzero;stroke:none"
             d="m 334.8373,598.4928 21.482,12.403 c -0.994,1.721 -2.433,3.185 -4.214,4.213 l -17.268,9.97 0,-26.586 z" /><path
             id="path5112-0"
             style="fill:#4379c6;fill-opacity:1;fill-rule:nonzero;stroke:none"
             d="m 334.8373,625.0788 -17.269,9.97 c -1.781,1.028 -3.768,1.542 -5.755,1.542 l 0,-24.805 23.024,13.293 z" /><path
             id="path5114-8"
             style="fill:#3f73bd;fill-opacity:1;fill-rule:nonzero;stroke:none"
             d="m 311.8132,611.7858 0,24.805 c -1.987,0 -3.975,-0.514 -5.755,-1.542 l -17.269,-9.97 23.024,-13.293 z" /><path
             id="path5116-4"
             style="fill:#50a0dd;fill-opacity:1;fill-rule:nonzero;stroke:none"
             d="m 288.7891,545.3209 23.024,13.293 -23.024,13.293 0,-26.586 z" /><path
             d="m 288.7891,598.4929 0,0 0,-26.586 23.024,13.293 0,0 -23.024,13.293 z"
             style="fill:#425da2;fill-opacity:1;fill-rule:nonzero;stroke:none"
             id="path5118-4" /><path
             d="m 334.8371,571.9069 0,26.586 -23.024,-13.293 0,0 23.024,-13.293 z"
             style="fill:#487dc8;fill-opacity:1;fill-rule:nonzero;stroke:none"
             id="path5120-6" /><path
             style="fill:#3f73bd;fill-opacity:1;fill-rule:nonzero;stroke:none"
             d="m 389.76562,543.89648 0,0.002 -28.77929,16.61523 28.77929,16.61719 28.78126,-16.61719 -28.78126,-16.61719 z"
             transform="matrix(0.8,0,0,-0.8,1.1171875e-4,1020.3178)"
             id="path5122-9" /><path
             d="m 311.8133,585.1998 0,26.586 -23.024,-13.293 23.024,-13.293 z"
             style="fill:#2f5296;fill-opacity:1;fill-rule:nonzero;stroke:none"
             id="path5124-5" /><path
             d="m 311.8132,585.1998 23.024,13.293 -23.024,13.293 0,-26.586 z"
             style="fill:#498cd2;fill-opacity:1;fill-rule:nonzero;stroke:none"
             id="path5126-1" /></g><path
           style="fill:#ffffff;fill-opacity:1;fill-rule:nonzero;stroke:none"
           d="m 389.76562,499.9747 c -2.43618,0 -4.81861,0.73157 -7.05664,1.89258 l -10.54882,5.47265 -11.48243,6.52735 c -1.36182,0.78605 -2.4626,1.90476 -3.22265,3.2207 -0.76004,1.31671 -1.17969,2.82948 -1.17969,4.40234 0,0 -1.4862,16.50709 0.71875,19.79102 2.20495,3.28392 10.63858,8.48146 12.62891,11.96094 0.49758,0.86987 0.71983,2.69769 0.80273,4.98242 0.16526,4.89501 -0.88215,12.6834 1.38867,14.15039 2.16685,1.39985 5.93202,1.66441 7.9375,1.35352 4.01098,-0.62179 9.63182,-3.29493 9.63182,-3.29493 0,0 0.20899,-4.79283 0,-5.07812 -1.93633,-4.74047 -9.23997,-7.30188 -9.05565,-7.66992 0.21099,-0.42127 5.37,0.62535 9.43165,0.59765 4.06165,0.0277 9.23236,-1.01892 9.44335,-0.59765 0.18433,0.36804 -7.13984,2.94507 -9.07617,7.68554 -0.20899,0.28529 0,5.07812 0,5.07812 0,0 5.64137,2.65752 9.65235,3.27931 2.00548,0.31089 5.77065,0.0463 7.9375,-1.35352 2.27082,-1.46699 1.22341,-9.25538 1.38867,-14.15039 0.0829,-2.28473 0.30515,-4.11255 0.80273,-4.98242 1.99033,-3.47948 10.42396,-8.67702 12.62891,-11.96094 2.20495,-3.28393 0.71875,-19.79102 0.71875,-19.79102 0,-1.57286 -0.41965,-3.08563 -1.17969,-4.40234 -0.76005,-1.31594 -1.86083,-2.43465 -3.22265,-3.2207 l -11.48243,-6.52735 -10.54882,-5.47265 c -2.23803,-1.16101 -4.62045,-1.89258 -7.05665,-1.89258 z m -21.06445,24.85156 c 2.78571,0.0133 8.24037,0.8023 9.30274,1.94727 1.24078,1.33726 2.33203,10.49414 2.33203,10.49414 l -2.9375,-5.44922 c 0,0 -3.11148,-0.33872 -4.06836,-1.4082 -1.10471,-1.23509 -2.0918,-3.74414 -2.0918,-3.74414 0,0 -4.43761,-0.91886 -4.17187,-1.58008 0.0737,-0.1835 0.70619,-0.26421 1.63476,-0.25977 z m 42.12891,0 c 0.92857,-0.004 1.56102,0.0763 1.63476,0.25977 0.26574,0.66122 -4.17187,1.58008 -4.17187,1.58008 0,0 -0.98709,2.50905 -2.0918,3.74414 -0.95688,1.06948 -4.06836,1.4082 -4.06836,1.4082 l -2.9375,5.44922 c 0,0 1.09125,-9.15688 2.33203,-10.49414 1.06237,-1.14497 6.51703,-1.93394 9.30274,-1.94727 z m -21.0586,47.54883 c -5.85256,0 -7.4826,2.17737 -12.9082,2.38281 -2.27783,0.0863 -3.45481,-0.41025 -4.77148,-0.92578 -1.1879,1.53319 -0.7397,6.61381 2.82422,8.25781 2.53809,1.1708 8.45915,3.96005 10.01757,4.51368 1.67687,0.59572 3.3127,1.21679 4.83203,1.21679 1.51934,0 3.15517,-0.62107 4.83204,-1.21679 1.55842,-0.55363 7.47948,-3.34288 10.01757,-4.51368 3.56392,-1.644 4.01212,-6.72462 2.82422,-8.25781 -1.31667,0.51553 -2.49365,1.01203 -4.77148,0.92578 -5.4256,-0.20544 -7.04393,-2.38281 -12.89649,-2.38281 z"
           id="path5128" /></g></g></g></svg>