<?xml version="1.0" encoding="UTF-8" standalone="no"?>
<svg
   xmlns:dc="http://purl.org/dc/elements/1.1/"
   xmlns:cc="http://creativecommons.org/ns#"
   xmlns:rdf="http://www.w3.org/1999/02/22-rdf-syntax-ns#"
   xmlns:svg="http://www.w3.org/2000/svg"
   xmlns="http://www.w3.org/2000/svg"
   viewBox="0 0 849.58084 186.31835"
   height="186.31836"
   width="849.58087"
   xml:space="preserve"
   version="1.1"
   id="svg6693"><metadata
     id="metadata6699"><rdf:RDF><cc:Work
         rdf:about=""><dc:format>image/svg+xml</dc:format><dc:type
           rdf:resource="http://purl.org/dc/dcmitype/StillImage" /><dc:title></dc:title></cc:Work></rdf:RDF></metadata><defs
     id="defs6697"><clipPath
       id="clipPath6707"
       clipPathUnits="userSpaceOnUse"><path
         id="path6709"
         d="m 0,870.236 623.626,0 L 623.626,0 0,0 0,870.236 Z" /></clipPath><clipPath
       id="clipPath6719"
       clipPathUnits="userSpaceOnUse"><path
         id="path6721"
         d="m 0,870.236 623.626,0 L 623.626,0 0,0 0,870.236 Z" /></clipPath><clipPath
       id="clipPath6731"
       clipPathUnits="userSpaceOnUse"><path
         id="path6733"
         d="m 0,870.236 623.626,0 L 623.626,0 0,0 0,870.236 Z" /></clipPath><clipPath
       clipPathUnits="userSpaceOnUse"
       id="clipPath4150"><path
         d="m 0,870.236 623.626,0 L 623.626,0 0,0 0,870.236 Z"
         id="path4152" /></clipPath><clipPath
       clipPathUnits="userSpaceOnUse"
       id="clipPath4162"><path
         d="m 0,870.236 623.626,0 L 623.626,0 0,0 0,870.236 Z"
         id="path4164" /></clipPath><clipPath
       clipPathUnits="userSpaceOnUse"
       id="clipPath4390"><path
         d="m 0,870.236 623.626,0 L 623.626,0 0,0 0,870.236 Z"
         id="path4392" /></clipPath><clipPath
       clipPathUnits="userSpaceOnUse"
       id="clipPath4398"><path
         d="m -80.514,14.173 -595.276,0 0,841.89 595.276,0 0,-841.89 z"
         id="path4400" /></clipPath></defs><g
     transform="matrix(1.25,0,0,-1.25,-101.84723,636.18477)"
     id="g6701"><g
       id="g14487"><g
         id="lion"><path
           d="m 391.50664,417.21205 0,0 -27.80936,-16.0562 c 1.28678,-2.22791 3.14962,-4.12312 5.4552,-5.45391 l 22.35416,-12.90659 0,34.4167 z"
           style="fill:#4c9edc;fill-opacity:1;fill-rule:nonzero;stroke:none"
           id="path5082" /><path
           d="m 361.70084,434.42041 0,-25.81188 c 0,-2.66288 0.7107,-5.22348 1.99618,-7.45139 l 27.80936,16.05491 -29.80554,17.20836 z"
           style="fill:#498cd2;fill-opacity:1;fill-rule:nonzero;stroke:none"
           id="path5084" /><path
           id="path5086"
           transform="matrix(0.8,0,0,-0.8,0,623.62597)"
           d="m 482.67969,218.86719 -30.55274,17.64062 37.25586,21.50977 0,-19.8125 c -2.22366,-1.85819 -4.18564,-3.62097 -5.16797,-5.08399 -1.41508,-2.10755 -1.65222,-8.42148 -1.53515,-14.2539 z"
           style="fill:#487dc8;fill-opacity:1;fill-rule:nonzero;stroke:none" /><path
           id="path5088"
           transform="matrix(0.8,0,0,-0.8,0,623.62597)"
           d="m 511.91406,288.03125 -22.53125,13.00781 27.94336,16.13282 c 2.88198,1.66348 6.09914,2.49414 9.31445,2.49414 l 0,-26.29883 c -6.4e-4,0 -10e-4,0 -0.002,0 -1.96684,0 -4.08313,-0.805 -6.2539,-1.57617 -1.36543,-0.48507 -5.0399,-2.17009 -8.47071,-3.75977 z"
           style="fill:#5295d6;fill-opacity:1;fill-rule:nonzero;stroke:none" /><path
           id="path5090"
           transform="matrix(0.8,0,0,-0.8,0,623.62597)"
           d="m 454.62109,194.92773 c -1.60846,2.78489 -2.49414,5.98553 -2.49414,9.3125 l 0,32.26758 30.55274,-17.63867 c 0.0566,-2.82261 0.19449,-5.48727 0.32617,-7.55273 l -28.38477,-16.38868 z"
           style="fill:#476bbc;fill-opacity:1;fill-rule:nonzero;stroke:none" /><path
           id="path5092"
           transform="matrix(0.8,0,0,-0.8,0,623.62597)"
           d="m 563.89844,258.01758 -12.10352,6.98828 c -0.006,3.91697 -0.32945,7.34224 -1.91601,8.36719 -2.80508,1.81218 -7.67922,2.15441 -10.27539,1.75195 -1.18479,-0.18367 -2.48267,-0.51449 -3.7754,-0.90039 l -0.88867,0.51172 c 2.44137,0.76137 4.76253,1.58288 8.40235,1.7207 2.94875,0.11165 4.47324,-0.53184 6.17773,-1.19922 1.53779,1.98478 0.95739,8.56317 -3.65625,10.69141 -1.06109,0.48947 -2.85923,1.32162 -4.49609,2.08008 l 22.53125,13.00976 0,-43.02148 z"
           style="fill:#7f9ad6;fill-opacity:1;fill-rule:nonzero;stroke:none" /><path
           d="m 478.92721,401.15649 c 1.28678,2.22791 1.99619,4.78981 1.99619,7.45139 l 0,25.81188 -29.80555,-17.20835 27.80936,-16.05492 z"
           style="fill:#727ebd;fill-opacity:1;fill-rule:nonzero;stroke:none"
           id="path5094" /><path
           d="m 451.11798,417.21205 0,-34.4167 22.35416,12.90659 c 2.30558,1.33079 4.16843,3.226 5.4552,5.4552 l -27.80936,16.05491 z"
           style="fill:#8f9fd8;fill-opacity:1;fill-rule:nonzero;stroke:none"
           id="path5096" /><path
           id="path5098"
           transform="matrix(0.8,0,0,-0.8,0,623.62597)"
           d="m 570.59961,218.86523 c 0.11716,5.83297 -0.11991,12.14808 -1.53516,14.25586 -0.98215,1.46277 -2.94284,3.22616 -5.16601,5.08399 l 0,19.8125 37.25586,-21.50977 -30.55469,-17.64258 z"
           style="fill:#425da2;fill-opacity:1;fill-rule:nonzero;stroke:none" /><path
           id="path5100"
           transform="matrix(0.8,0,0,-0.8,0,623.62597)"
           d="m 541.36523,288.0293 c -3.43125,1.58989 -7.10501,3.27655 -8.4707,3.76172 -2.17007,0.77092 -4.2876,1.57564 -6.25391,1.57617 l 0,26.29883 c 3.21533,0 6.43248,-0.83066 9.31446,-2.49414 l 27.9414,-16.13282 -22.53125,-13.00976 z"
           style="fill:#6495d5;fill-opacity:1;fill-rule:nonzero;stroke:none" /><path
           id="path5102"
           transform="matrix(0.8,0,0,-0.8,0,623.62597)"
           d="m 489.38281,171.97656 0,25.42774 14.46485,-8.22266 8.07812,-4.19141 -22.54297,-13.01367 z"
           style="fill:#3a64ad;fill-opacity:1;fill-rule:nonzero;stroke:none" /><path
           id="path5104"
           transform="matrix(0.8,0,0,-0.8,0,623.62597)"
           d="m 563.89648,171.97656 -22.54296,13.01563 8.07617,4.18945 14.46679,8.22266 0,-25.42774 z"
           style="fill:#3a61a3;fill-opacity:1;fill-rule:nonzero;stroke:none" /><path
           id="path5106"
           transform="matrix(0.8,0,0,-0.8,0,623.62597)"
           d="m 489.38281,171.97656 -27.9414,16.13086 c -2.88198,1.66511 -5.21184,4.03544 -6.82032,6.82031 l 28.38477,16.38868 c 0.1451,-2.27607 0.2793,-3.81641 0.2793,-3.81641 0,-2.03614 0.54344,-3.99468 1.52734,-5.69922 0.98393,-1.70354 2.40894,-3.15235 4.17188,-4.16992 l 0.39843,-0.22656 0,-25.42774 z"
           style="fill:#32549d;fill-opacity:1;fill-rule:nonzero;stroke:none" /><path
           id="path5108"
           transform="matrix(0.8,0,0,-0.8,0,623.62597)"
           d="m 598.6582,194.92578 -28.38476,16.38867 c 0.13165,2.06474 0.26949,4.72877 0.32617,7.55078 l 30.55469,17.64258 0,-32.26562 c 0,-3.3286 -0.88762,-6.52991 -2.4961,-9.31641 z"
           style="fill:#2f5296;fill-opacity:1;fill-rule:nonzero;stroke:none" /><path
           id="path5110"
           transform="matrix(0.8,0,0,-0.8,0,623.62597)"
           d="m 563.89844,171.97656 0,25.42969 0.39648,0.22461 c 1.76294,1.01757 3.18795,2.46638 4.17188,4.16992 0.9839,1.70454 1.52734,3.66308 1.52734,5.69922 0,0 0.13424,1.53937 0.2793,3.81445 l 28.38476,-16.38867 c -1.60846,-2.78489 -3.93638,-5.15292 -6.81836,-6.8164 l -27.9414,-16.13282 z"
           style="fill:#325295;fill-opacity:1;fill-rule:nonzero;stroke:none" /><path
           id="path5112"
           transform="matrix(0.8,0,0,-0.8,0,623.62597)"
           d="m 526.64062,153.34766 0,26.29882 c 3.15309,4e-4 6.23814,0.94851 9.13477,2.45118 l 5.57813,2.89453 22.54492,-13.01563 -27.94532,-16.13476 c -2.88197,-1.66349 -6.09717,-2.49414 -9.3125,-2.49414 z"
           style="fill:#4379c6;fill-opacity:1;fill-rule:nonzero;stroke:none" /><path
           id="path5114"
           transform="matrix(0.8,0,0,-0.8,0,623.62597)"
           d="m 526.64062,153.34766 c -3.21531,0 -6.43213,0.83065 -9.3125,2.49414 l -27.94531,16.13476 22.54297,13.01367 5.57813,-2.89257 c 2.89721,-1.50298 5.98102,-2.45118 9.13476,-2.45118 6.5e-4,0 10e-4,0 0.002,0 l 0,-26.29882 z"
           style="fill:#3f73bd;fill-opacity:1;fill-rule:nonzero;stroke:none" /><path
           id="path5116"
           transform="matrix(0.8,0,0,-0.8,0,623.62597)"
           d="m 489.38281,258.01758 0,43.02148 22.53125,-13.00781 c -1.63828,-0.7591 -3.43615,-1.59219 -4.49804,-2.08203 -4.61364,-2.12824 -5.19403,-8.70663 -3.65625,-10.69141 1.70448,0.66738 3.22898,1.31097 6.17773,1.19922 3.6387,-0.13778 5.9618,-0.95952 8.40625,-1.7207 l -0.89453,-0.51563 c -1.29178,0.38802 -2.58756,0.72046 -3.77344,0.9043 -2.59619,0.40246 -7.47031,0.0602 -10.27539,-1.75195 -1.58683,-1.02512 -1.90994,-4.45136 -1.91601,-8.36914 l -12.10157,-6.98633 z"
           style="fill:#50a0dd;fill-opacity:1;fill-rule:nonzero;stroke:none" /><path
           id="path5118"
           transform="matrix(0.8,0,0,-0.8,0,623.62597)"
           d="m 489.38281,238.20508 0,19.8125 11.90235,-6.87305 c -0.16588,-1.10285 -0.39847,-1.97767 -0.72071,-2.54101 -1.68985,-2.95419 -6.94389,-6.85719 -11.18164,-10.39844 z"
           style="fill:#425da2;fill-opacity:1;fill-rule:nonzero;stroke:none" /><path
           id="path5120"
           transform="matrix(0.8,0,0,-0.8,0,623.62597)"
           d="m 563.89648,238.20508 c -4.23775,3.54125 -9.49178,7.44425 -11.18164,10.39844 -0.32224,0.56334 -0.55483,1.43816 -0.7207,2.54101 l 11.90234,6.87305 0,-19.8125 z"
           style="fill:#487dc8;fill-opacity:1;fill-rule:nonzero;stroke:none" /><path
           id="path5122"
           transform="matrix(0.8,0,0,-0.8,0,623.62597)"
           d="m 551.99414,251.14453 c -0.16569,1.10168 -0.2647,2.4321 -0.31836,3.91016 -0.0985,2.91678 0.12441,6.61057 0.11914,9.95117 l 12.10352,-6.98828 -11.9043,-6.87305 z m -50.70898,0.002 -11.90235,6.8711 12.10157,6.98633 c -0.005,-3.3401 0.21759,-7.03301 0.11914,-9.94922 -0.0536,-1.47727 -0.15282,-2.80687 -0.31836,-3.90821 z m 13.52343,3.0879 c -0.21902,0.0152 -0.35257,0.0529 -0.38671,0.12109 -0.23862,0.47644 9.21599,3.79295 11.72265,9.92969 0.27055,0.36931 0,6.57422 0,6.57422 0,0 -4.3322,2.05241 -8.69726,3.36328 l 0.89257,0.51562 c 2.27523,-0.70859 4.65312,-1.36523 8.30664,-1.36523 3.65014,0 6.0233,0.65545 8.29297,1.36328 l 0.88867,-0.51172 c -4.37272,-1.30535 -8.7207,-3.3457 -8.7207,-3.3457 0,0 -0.27055,-6.2049 0,-6.57422 2.50665,-6.13674 11.98863,-9.47278 11.75,-9.94922 -0.27312,-0.54535 -6.96663,0.81126 -12.22461,0.77539 -4.60073,0.0314 -10.29104,-1.00298 -11.82422,-0.89648 z"
           style="fill:#3f73bd;fill-opacity:1;fill-rule:nonzero;stroke:none" /><path
           id="path5124"
           transform="matrix(0.8,0,0,-0.8,0,623.62597)"
           d="m 499.37109,211.81836 c -0.30051,-0.001 -0.57683,0.005 -0.82421,0.0176 -0.28693,0.0147 -0.52089,0.0414 -0.72071,0.0762 -0.31616,0.0551 -0.52847,0.1331 -0.57226,0.24219 -0.043,0.10699 0.009,0.21955 0.13281,0.33398 0.21277,0.19613 0.66019,0.3975 1.17969,0.5918 0.0863,0.0323 0.15311,0.0659 0.24414,0.0976 0,0 0.002,0 0.002,0 0.31932,0.11126 0.66405,0.21944 1.01172,0.32032 0,0 0.002,0 0.002,0 0.69591,0.20187 1.40289,0.37723 1.93555,0.50195 0,0 0.002,0 0.002,0 0.53133,0.12437 0.89063,0.19922 0.89063,0.19922 0,0 1.27888,3.24878 2.70898,4.84766 0.46453,0.51917 1.32163,0.90578 2.21094,1.18554 0.88949,0.27989 1.81079,0.45277 2.40625,0.54688 0.39688,0.0627 0.64844,0.0898 0.64844,0.0898 l 3.80273,7.05469 c 0,0 -0.79431,-6.66867 -1.86914,-10.73242 -0.0896,-0.33869 -0.18026,-0.65792 -0.27344,-0.95508 -0.1863,-0.59428 -0.37903,-1.09517 -0.57617,-1.45899 -0.0986,-0.1819 -0.19844,-0.3293 -0.29883,-0.4375 -0.13997,-0.15085 -0.35342,-0.29481 -0.60156,-0.43554 -0.0561,-0.0318 -0.10107,-0.0664 -0.16211,-0.0977 0,0 -0.002,0 -0.002,0 -0.33175,-0.16981 -0.73358,-0.33215 -1.18946,-0.48437 -1.36811,-0.45694 -3.21394,-0.82949 -5.05664,-1.08985 -0.614,-0.0867 -1.22696,-0.16003 -1.82226,-0.2207 -1.19063,-0.1214 -2.30743,-0.18905 -3.20899,-0.19336 z"
           style="fill:#2f5296;fill-opacity:1;fill-rule:nonzero;stroke:none" /><path
           id="path5126"
           transform="matrix(0.8,0,0,-0.8,0,623.62597)"
           d="m 553.9082,211.81836 c -3.60622,0.0173 -10.66768,1.03927 -12.04297,2.52148 -1.60623,1.73114 -3.01953,13.58399 -3.01953,13.58399 l 3.80274,-7.05469 c 0,0 4.02885,-0.43778 5.26758,-1.82226 1.4301,-1.59888 2.70703,-4.84766 2.70703,-4.84766 0,0 5.74635,-1.18895 5.40234,-2.04492 -0.0955,-0.23754 -0.91511,-0.34094 -2.11719,-0.33594 z"
           style="fill:#498cd2;fill-opacity:1;fill-rule:nonzero;stroke:none" /></g><g
         id="LYON"><title
           id="title14355">LYON</title><path
           d="m 525.79218,415.21745 25.11759,0 0,-9.50288 -36.94691,0 0,57.41162 11.82932,0 0,-47.90874 z"
           style="font-style:normal;font-variant:normal;font-weight:bold;font-stretch:normal;font-size:medium;line-height:125%;font-family:Roboto;-inkscape-font-specification:'Roboto Bold';letter-spacing:-2.4000001px;word-spacing:0px;fill:#50a0dd;fill-opacity:1;stroke:none;stroke-width:1px;stroke-linecap:butt;stroke-linejoin:miter;stroke-opacity:1"
           id="L" /><path
           d="m 591.87557,437.25942 11.94761,25.86677 12.93339,0 -18.84804,-36.59202 0,-20.8196 -12.02648,0 0,20.8196 -18.84805,36.59202 12.97282,0 11.86875,-25.86677 z"
           style="font-style:normal;font-variant:normal;font-weight:bold;font-stretch:normal;font-size:medium;line-height:125%;font-family:Roboto;-inkscape-font-specification:'Roboto Bold';letter-spacing:-2.4000001px;word-spacing:0px;fill:#50a0dd;fill-opacity:1;stroke:none;stroke-width:1px;stroke-linecap:butt;stroke-linejoin:miter;stroke-opacity:1"
           id="Y" /><path
           d="m 683.51029,433.11916 q 0,-8.47768 -2.99676,-14.86551 -2.99676,-6.38784 -8.59597,-9.85777 -5.55978,-3.46993 -12.77566,-3.46993 -7.13702,0 -12.73623,3.4305 -5.59922,3.4305 -8.67484,9.7789 -3.07562,6.38784 -3.11505,14.66836 l 0,2.83903 q 0,8.47768 3.03619,14.90495 3.07562,6.46669 8.6354,9.89719 5.59921,3.46994 12.77567,3.46994 7.17645,0 12.73623,-3.46994 5.59921,-3.4305 8.6354,-9.89719 3.07562,-6.42727 3.07562,-14.86551 l 0,-2.56302 z m -11.98704,2.60245 q 0,9.02971 -3.23335,13.72201 -3.23334,4.69229 -9.22686,4.69229 -5.95409,0 -9.18744,-4.65286 -3.23335,-4.61344 -3.27278,-13.56429 l 0,-2.7996 q 0,-8.79313 3.23335,-13.64315 3.23334,-4.85002 9.30573,-4.85002 5.95409,0 9.148,4.65286 3.19392,4.6923 3.23335,13.64315 l 0,2.79961 z"
           style="font-style:normal;font-variant:normal;font-weight:bold;font-stretch:normal;font-size:medium;line-height:125%;font-family:Roboto;-inkscape-font-specification:'Roboto Bold';letter-spacing:-2.4000001px;word-spacing:0px;fill:#50a0dd;fill-opacity:1;stroke:none;stroke-width:1px;stroke-linecap:butt;stroke-linejoin:miter;stroke-opacity:1"
           id="O" /><path
           d="m 753.14248,405.71457 -11.82932,0 -23.02774,37.77496 0,-37.77496 -11.82931,0 0,57.41162 11.82931,0 23.06718,-37.85381 0,37.85381 11.78988,0 0,-57.41162 z"
           style="font-style:normal;font-variant:normal;font-weight:bold;font-stretch:normal;font-size:medium;line-height:125%;font-family:Roboto;-inkscape-font-specification:'Roboto Bold';letter-spacing:-2.4000001px;word-spacing:0px;fill:#50a0dd;fill-opacity:1;stroke:none;stroke-width:1px;stroke-linecap:butt;stroke-linejoin:miter;stroke-opacity:1"
           id="N" /></g><g
         id="afup"><title
           id="title14389">Association Française des Utilisateurs de PHP</title><g
           transform="matrix(1.838491,0,0,1.838491,103.11939,426.47736)"
           id="a"><title
             id="title14365">association</title><path
             id="path6737"
             style="fill:#18213e;fill-opacity:1;fill-rule:nonzero;stroke:none"
             d="m 0,0 c -0.939,-0.751 -1.409,-1.764 -1.409,-3.037 0,-1.274 0.511,-2.275 1.534,-3.005 1.022,-0.731 2.452,-1.096 4.29,-1.096 3.465,0 6.303,0.939 8.516,2.818 l 0,6.762 L 3.789,1.44 C 2.201,1.231 0.939,0.751 0,0 m 24.077,-7.138 0,-3.758 c -1.628,-0.792 -3.424,-1.189 -5.385,-1.189 -1.963,0 -3.372,0.376 -4.227,1.127 -0.856,0.751 -1.346,1.836 -1.472,3.256 -2.296,-2.923 -5.312,-4.383 -9.048,-4.383 -3.736,0 -6.565,0.751 -8.485,2.254 -1.92,1.503 -2.88,3.61 -2.88,6.325 0,5.217 3.632,8.223 10.896,9.017 l 9.455,1.002 0,1.816 c 0,2.42 -0.501,4.257 -1.503,5.51 -1.001,1.252 -2.589,1.879 -4.759,1.879 -4.008,0 -7.264,-0.439 -9.769,-1.316 l -1.252,-0.438 -1.127,4.008 c 1.168,0.667 2.943,1.283 5.323,1.847 2.38,0.564 4.592,0.846 6.637,0.846 4.467,0 7.64,-0.888 9.518,-2.662 1.879,-1.774 2.818,-4.269 2.818,-7.483 l 0,-17.658 5.26,0 z" /></g><g
           transform="matrix(1.838491,0,0,1.838491,184.98446,405.525)"
           id="f"><title
             id="title14367">française</title><path
             id="path6741"
             style="fill:#18213e;fill-opacity:1;fill-rule:nonzero;stroke:none"
             d="m 0,0 -16.594,0 0,2.692 5.26,2.067 0,21.478 -4.884,0 0,3.758 4.884,2.004 0,3.756 c 0,4.133 1.054,7.274 3.162,9.425 2.108,2.149 5.082,3.224 8.924,3.224 1.503,0 2.89,-0.218 4.164,-0.657 1.272,-0.438 2.16,-0.888 2.661,-1.346 L 8.392,45.712 6.7,42.456 c -1.169,0.667 -2.911,1.002 -5.228,1.002 -2.317,0 -4.03,-0.679 -5.135,-2.036 -1.107,-1.357 -1.659,-3.83 -1.659,-7.42 l 0,-2.692 10.081,0 0,-5.073 -10.081,0 0,-21.478 L 0,2.692 0,0 Z" /></g><g
           transform="matrix(1.838491,0,0,1.838491,267.44721,413.35385)"
           id="u"><title
             id="title14369">utilisateurs</title><path
             id="path6745"
             style="fill:#18213e;fill-opacity:1;fill-rule:nonzero;stroke:none"
             d="m 0,0 0,-3.757 c -1.628,-0.793 -3.466,-1.19 -5.511,-1.19 -2.046,0 -3.465,0.428 -4.258,1.283 -0.793,0.856 -1.252,2.119 -1.377,3.789 -0.543,-0.626 -1.169,-1.252 -1.878,-1.878 -0.711,-0.627 -1.89,-1.315 -3.538,-2.067 -1.65,-0.751 -3.373,-1.127 -5.167,-1.127 -3.256,0 -5.698,0.908 -7.326,2.724 -1.629,1.816 -2.442,4.289 -2.442,7.42 l 0,17.659 -5.26,0 0,3.757 c 1.628,0.792 3.516,1.19 5.667,1.19 2.15,0 3.601,-0.512 4.352,-1.534 0.752,-1.024 1.127,-2.579 1.127,-4.665 l 0,-14.215 c 0,-2.464 0.407,-4.3 1.221,-5.511 0.814,-1.211 2.286,-1.816 4.414,-1.816 2.129,0 3.946,0.407 5.449,1.222 1.503,0.814 2.63,1.659 3.381,2.535 l 0,19.037 -5.26,0 0,3.757 c 1.628,0.792 3.516,1.19 5.667,1.19 2.149,0 3.6,-0.512 4.352,-1.534 0.751,-1.024 1.127,-2.579 1.127,-4.665 L -5.26,0 0,0 Z" /></g><g
           transform="matrix(1.838491,0,0,1.838491,300.741,413.46875)"
           id="p"><title
             id="title14371">PHP</title><path
             id="path6749"
             style="fill:#18213e;fill-opacity:1;fill-rule:nonzero;stroke:none"
             d="m 0,0 c 3.382,0 6.021,1.002 7.921,3.006 1.899,2.003 2.85,4.8 2.85,8.39 0,3.59 -0.919,6.397 -2.755,8.423 -1.838,2.024 -3.8,3.037 -5.887,3.037 -3.632,0 -6.346,-1.149 -8.141,-3.444 l 0,-18.285 C -3.674,0.375 -1.67,0 0,0 m -0.752,-21.291 -16.469,0 0,2.693 5.324,2.066 0,39.576 -5.26,0 0,3.444 c 1.628,0.792 3.412,1.19 5.353,1.19 1.942,0 3.328,-0.356 4.164,-1.065 0.835,-0.71 1.336,-1.753 1.503,-3.131 2.045,2.838 5.093,4.258 9.143,4.258 3.297,0 6.345,-1.127 9.142,-3.381 1.418,-1.17 2.557,-2.829 3.413,-4.979 0.855,-2.15 1.284,-4.644 1.284,-7.483 0,-2.839 -0.481,-5.375 -1.441,-7.607 C 14.443,2.056 13.15,0.292 11.521,-1.002 8.224,-3.632 4.383,-4.947 0,-4.947 c -1.753,0 -3.757,0.293 -6.012,0.877 l 0,-12.462 5.26,-2.066 0,-2.693 z" /></g><text
           transform="scale(1,-1)"
           id="text11751"
           y="-422.40115"
           x="261.39328"
           style="font-style:normal;font-weight:normal;font-size:32px;line-height:125%;font-family:sans-serif;letter-spacing:0px;word-spacing:0px;fill:#000000;fill-opacity:1;stroke:none;stroke-width:1px;stroke-linecap:butt;stroke-linejoin:miter;stroke-opacity:1"
           xml:space="preserve"><tspan
             y="-422.40115"
             x="261.39328"
             id="tspan11753"> </tspan></text>
</g></g></g></svg>