<?xml version="1.0" encoding="UTF-8" standalone="no"?>
<svg
   xmlns:dc="http://purl.org/dc/elements/1.1/"
   xmlns:cc="http://creativecommons.org/ns#"
   xmlns:rdf="http://www.w3.org/1999/02/22-rdf-syntax-ns#"
   xmlns:svg="http://www.w3.org/2000/svg"
   xmlns="http://www.w3.org/2000/svg"
   xmlns:xlink="http://www.w3.org/1999/xlink"
   xmlns:sodipodi="http://sodipodi.sourceforge.net/DTD/sodipodi-0.dtd"
   xmlns:inkscape="http://www.inkscape.org/namespaces/inkscape"
   viewBox="0 0 1249.9999 186.31835"
   height="186.31836"
   width="1250"
   xml:space="preserve"
   version="1.1"
   id="svg6693"
   sodipodi:docname="afup-luxembourg_icon-and-text_colors-and-white_for-dark-background.svg"
   inkscape:version="0.92.2 (5c3e80d, 2017-08-06)"
   inkscape:export-xdpi="76.800003"
   inkscape:export-ydpi="76.800003"><sodipodi:namedview
     pagecolor="#ffffff"
     bordercolor="#666666"
     borderopacity="1"
     objecttolerance="10"
     gridtolerance="10"
     guidetolerance="10"
     inkscape:pageopacity="0"
     inkscape:pageshadow="2"
     inkscape:window-width="1853"
     inkscape:window-height="1025"
     id="namedview67"
     showgrid="false"
     inkscape:zoom="0.72743085"
     inkscape:cx="557.78411"
     inkscape:cy="-68.264503"
     inkscape:window-x="67"
     inkscape:window-y="27"
     inkscape:window-maximized="1"
     inkscape:current-layer="svg6693" /><metadata
     id="metadata6699"><rdf:RDF><cc:Work
         rdf:about=""><dc:format>image/svg+xml</dc:format><dc:type
           rdf:resource="http://purl.org/dc/dcmitype/StillImage" /><dc:title /></cc:Work></rdf:RDF></metadata><defs
     id="defs6697"><clipPath
       id="clipPath6707"
       clipPathUnits="userSpaceOnUse"><path
         id="path6709"
         d="M 0,870.236 H 623.626 V 0 H 0 Z"
         inkscape:connector-curvature="0" /></clipPath><clipPath
       id="clipPath6719"
       clipPathUnits="userSpaceOnUse"><path
         id="path6721"
         d="M 0,870.236 H 623.626 V 0 H 0 Z"
         inkscape:connector-curvature="0" /></clipPath><clipPath
       id="clipPath6731"
       clipPathUnits="userSpaceOnUse"><path
         id="path6733"
         d="M 0,870.236 H 623.626 V 0 H 0 Z"
         inkscape:connector-curvature="0" /></clipPath><clipPath
       clipPathUnits="userSpaceOnUse"
       id="clipPath4150"><path
         d="M 0,870.236 H 623.626 V 0 H 0 Z"
         id="path4152"
         inkscape:connector-curvature="0" /></clipPath><clipPath
       clipPathUnits="userSpaceOnUse"
       id="clipPath4162"><path
         d="M 0,870.236 H 623.626 V 0 H 0 Z"
         id="path4164"
         inkscape:connector-curvature="0" /></clipPath><clipPath
       clipPathUnits="userSpaceOnUse"
       id="clipPath4390"><path
         d="M 0,870.236 H 623.626 V 0 H 0 Z"
         id="path4392"
         inkscape:connector-curvature="0" /></clipPath><clipPath
       clipPathUnits="userSpaceOnUse"
       id="clipPath4398"><path
         d="M -80.514,14.173 H -675.79 v 841.89 h 595.276 z"
         id="path4400"
         inkscape:connector-curvature="0" /></clipPath><clipPath
       id="clipPath6707-5"
       clipPathUnits="userSpaceOnUse"><path
         id="path6709-3"
         d="M 0,870.236 H 623.626 V 0 H 0 Z"
         inkscape:connector-curvature="0" /></clipPath><clipPath
       id="clipPath6719-5"
       clipPathUnits="userSpaceOnUse"><path
         id="path6721-6"
         d="M 0,870.236 H 623.626 V 0 H 0 Z"
         inkscape:connector-curvature="0" /></clipPath><clipPath
       id="clipPath6731-2"
       clipPathUnits="userSpaceOnUse"><path
         id="path6733-9"
         d="M 0,870.236 H 623.626 V 0 H 0 Z"
         inkscape:connector-curvature="0" /></clipPath><clipPath
       clipPathUnits="userSpaceOnUse"
       id="clipPath4150-12"><path
         d="M 0,870.236 H 623.626 V 0 H 0 Z"
         id="path4152-7"
         inkscape:connector-curvature="0" /></clipPath><clipPath
       clipPathUnits="userSpaceOnUse"
       id="clipPath4162-0"><path
         d="M 0,870.236 H 623.626 V 0 H 0 Z"
         id="path4164-9"
         inkscape:connector-curvature="0" /></clipPath><clipPath
       clipPathUnits="userSpaceOnUse"
       id="clipPath4390-3"><path
         d="M 0,870.236 H 623.626 V 0 H 0 Z"
         id="path4392-6"
         inkscape:connector-curvature="0" /></clipPath><clipPath
       clipPathUnits="userSpaceOnUse"
       id="clipPath4398-0"><path
         d="M -80.514,14.173 H -675.79 v 841.89 h 595.276 z"
         id="path4400-6"
         inkscape:connector-curvature="0" /></clipPath><clipPath
       clipPathUnits="userSpaceOnUse"
       id="clipPath6707-4"><path
         d="M 0,870.236 H 623.626 V 0 H 0 Z"
         id="path6709-2"
         inkscape:connector-curvature="0" /></clipPath><clipPath
       clipPathUnits="userSpaceOnUse"
       id="clipPath6719-3"><path
         d="M 0,870.236 H 623.626 V 0 H 0 Z"
         id="path6721-3"
         inkscape:connector-curvature="0" /></clipPath><clipPath
       clipPathUnits="userSpaceOnUse"
       id="clipPath6731-1"><path
         d="M 0,870.236 H 623.626 V 0 H 0 Z"
         id="path6733-5"
         inkscape:connector-curvature="0" /></clipPath><clipPath
       id="clipPath4150-1"
       clipPathUnits="userSpaceOnUse"><path
         id="path4152-0"
         d="M 0,870.236 H 623.626 V 0 H 0 Z"
         inkscape:connector-curvature="0" /></clipPath><clipPath
       id="clipPath4162-3"
       clipPathUnits="userSpaceOnUse"><path
         id="path4164-5"
         d="M 0,870.236 H 623.626 V 0 H 0 Z"
         inkscape:connector-curvature="0" /></clipPath><clipPath
       id="clipPath4390-2"
       clipPathUnits="userSpaceOnUse"><path
         id="path4392-2"
         d="M 0,870.236 H 623.626 V 0 H 0 Z"
         inkscape:connector-curvature="0" /></clipPath><clipPath
       id="clipPath4398-1"
       clipPathUnits="userSpaceOnUse"><path
         id="path4400-4"
         d="M -80.514,14.173 H -675.79 v 841.89 h 595.276 z"
         inkscape:connector-curvature="0" /></clipPath><clipPath
       id="clipPath3427"
       clipPathUnits="userSpaceOnUse"><g
         mask="none"
         clip-path="none"
         style="display:inline;fill:#ffffff;stroke:none"
         transform="matrix(0.06483916,0,0,0.06709863,307.54738,474.29433)"
         id="g3429"><path
           inkscape:connector-curvature="0"
           d="m 1638,1790 c -4,-12 -99,-15 -155,-5 -35,6 -44,5 -49,-9 -8,-20 14,-77 37,-93 19,-14 32,-53 17,-53 -6,0 -8,-7 -4,-15 3,-8 1,-15 -3,-15 -5,0 -8,-11 -6,-25 1,-14 -1,-25 -5,-25 -4,0 -6,-11 -5,-24 5,-38 -9,-49 -30,-26 -23,25 -88,43 -130,36 -18,-4 -46,0 -66,8 -55,23 -207,55 -308,66 -133,13 -295,-9 -416,-58 -68,-27 -218,-101 -225,-110 -3,-4 -49,-38 -103,-75 -53,-38 -97,-72 -97,-78 0,-20 31,-20 73,0 24,12 48,21 54,21 5,0 34,13 64,30 30,16 61,30 69,30 8,0 27,6 42,14 14,8 43,19 65,26 21,7 43,17 50,22 27,22 165,49 271,55 61,3 112,3 112,0 0,-3 -26,-13 -58,-22 -31,-9 -59,-20 -62,-24 -3,-4 -48,-27 -100,-51 -107,-49 -225,-117 -281,-161 -20,-16 -41,-29 -46,-29 -17,0 -52,-56 -43,-70 7,-11 19,-9 65,8 31,12 70,32 88,45 18,13 51,31 74,40 23,9 61,25 85,35 101,45 174,69 187,64 11,-4 9,-8 -7,-15 -28,-13 -28,-18 3,-47 29,-27 31,-47 7,-76 -25,-31 -49,-37 -55,-13 -7,25 -24,24 -32,-1 -5,-15 -15,-20 -44,-20 -26,0 -44,-7 -59,-23 -25,-27 -28,-47 -8,-47 8,0 24,-13 35,-28 18,-26 19,-31 5,-51 -11,-15 -22,-20 -35,-16 -10,4 -24,1 -31,-4 -7,-6 -23,-19 -35,-29 -13,-10 -23,-30 -23,-47 -3,-48 -1,-55 15,-49 11,5 15,-1 15,-25 0,-24 4,-31 20,-31 13,0 18,-5 14,-15 -4,-8 -15,-15 -25,-15 -12,0 -19,-7 -19,-20 0,-26 30,-100 40,-100 5,0 10,-10 12,-23 2,-18 9,-22 36,-20 27,1 32,-2 27,-17 -3,-10 1,-24 8,-32 8,-7 14,-25 13,-38 -1,-21 4,-25 29,-26 45,-2 67,-14 111,-63 34,-38 39,-50 38,-90 -2,-53 -13,-111 -23,-111 -10,0 -12,-68 -1,-75 5,-3 26,-1 47,4 29,8 40,7 53,-4 26,-23 40,-18 40,14 0,17 5,33 11,37 8,4 7,9 -2,15 -12,8 -11,12 3,23 10,7 14,17 9,22 -4,5 -4,28 1,51 7,31 14,43 27,43 10,0 30,14 45,32 46,56 31,96 -51,136 -72,34 -90,60 -107,151 -18,100 -46,115 -80,44 -14,-31 -19,-34 -30,-22 -26,28 -36,97 -20,143 8,22 13,49 10,59 -2,10 1,17 10,17 8,0 14,3 14,8 0,4 18,26 40,49 24,24 36,44 30,48 -5,3 -10,10 -10,16 0,5 8,4 18,-2 15,-10 28,-7 67,12 26,13 50,32 53,41 2,9 9,15 16,12 6,-2 47,2 91,11 75,14 82,14 149,-6 38,-12 84,-23 100,-25 179,-21 201,-26 232,-49 17,-13 34,-22 37,-18 3,3 21,0 39,-7 18,-7 56,-16 83,-20 28,-5 66,-11 86,-15 26,-5 47,-2 72,10 19,9 41,15 49,14 7,-2 46,0 86,5 51,5 72,11 72,21 0,8 5,17 12,21 8,5 9,0 5,-15 -5,-21 -4,-22 12,-7 10,9 27,16 39,16 h 22 v 380 380 h -284 c -174,0 -286,-4 -288,-10 z m -628,-454 c 0,-50 -30,-77 -44,-40 -6,16 -45,11 -57,-9 -4,-5 -10,-4 -15,4 -5,8 -22,21 -38,29 l -28,14 53,12 c 30,6 71,12 92,13 33,1 37,-2 37,-23 z m 874,-172 c 9,-3 16,-16 16,-29 0,-31 -49,-46 -94,-29 -19,7 -21,50 -3,57 18,8 63,8 81,1 z M 885,682 c 4,-26 9,-55 12,-64 8,-31 -13,-19 -40,22 -22,34 -24,45 -16,69 15,42 37,29 44,-27 z m 125,-177 c 56,-28 69,-55 45,-91 -23,-35 -57,-29 -65,11 -4,17 -14,44 -23,62 -27,52 -26,53 43,18 z"
           id="path3431" /></g></clipPath><radialGradient
       id="Gradient1"
       gradientUnits="userSpaceOnUse"
       cx="-80"
       cy="-80"
       r="405"><stop
         style="stop-color:#fff;stop-opacity:0.31"
         offset="0"
         id="stop7" /><stop
         style="stop-color:#fff;stop-opacity:0.25"
         offset="0.19"
         id="stop9" /><stop
         style="stop-color:#6b6b6b;stop-opacity:0.125"
         offset="0.6"
         id="stop11" /><stop
         style="stop-color:#000;stop-opacity:0.125"
         offset="1"
         id="stop13" /></radialGradient><clipPath
       id="shield_cut"><path
         id="shield"
         d="m -298.5,-298.5 h 597 V -40 C 298.5,246.31 0,358.5 0,358.5 0,358.5 -298.5,246.31 -298.5,-40 Z"
         inkscape:connector-curvature="0" /></clipPath><g
       id="f-2"><rect
         id="rect1964"
         style="fill:#28166f"
         y="-30"
         x="-50"
         height="60"
         width="100" /><g
         id="g1966"
         style="fill:#ffffff"
         transform="translate(0,-20)"><path
           id="path1968"
           d="m -1.2116,27.8178 c 0,-5.6426 -0.8798,-7.3463 -3.3301,-13.8374 C -5.709,10.8879 -5.0241,7.1025 -2.8585,3.6009 -2.0824,2.346 -1.1136,1.2135 0,0 1.1136,1.2135 2.0824,2.346 2.8585,3.6009 5.0241,7.1025 5.709,10.8879 4.5417,13.9804 2.0914,20.4715 1.2116,22.1752 1.2116,27.8178 Z"
           inkscape:connector-curvature="0" /><path
           id="rwi"
           d="m 2.9221,27.6725 c 0,-5.9516 2.3166,-9.8432 5.5786,-11.0121 1.4485,-0.519 3.3069,-0.2735 5.0186,1.4466 2.1186,2.129 2.7358,7.9934 -3.4838,9.1213 0.6583,-0.9559 0.6191,-3.0816 -0.714,-3.7874 -0.9904,-0.5244 -2.1125,-0.2532 -2.6753,0.1234 -0.8237,0.5513 -1.7291,2.1059 -1.679,4.1082 z"
           inkscape:connector-curvature="0" /><path
           id="path1971"
           d="M 1.7773,30.1835 C 1.7899,32.1913 2.7952,33.5181 4.5165,34.257 4.2948,34.9549 3.2566,36.3776 1.8314,36.2812 1.5499,37.787 1.2822,38.6324 0,40 c -1.2822,-1.3676 -1.5499,-2.213 -1.8314,-3.7188 -1.4252,0.0964 -2.4634,-1.3263 -2.6851,-2.0242 1.7213,-0.7389 2.7266,-2.0657 2.7392,-4.0735 z"
           inkscape:connector-curvature="0" /><use
           xlink:href="#rwi"
           height="400"
           width="800"
           y="0"
           x="0"
           id="use1973"
           transform="scale(-1,1)" /><rect
           id="rect1975"
           y="27.33077"
           x="-7.9229999"
           height="3.2179999"
           width="15.846" /></g></g><clipPath
       id="clipPath6707-53"
       clipPathUnits="userSpaceOnUse"><path
         id="path6709-5"
         d="M 0,870.236 H 623.626 V 0 H 0 Z"
         inkscape:connector-curvature="0" /></clipPath><clipPath
       id="clipPath6719-6"
       clipPathUnits="userSpaceOnUse"><path
         id="path6721-2"
         d="M 0,870.236 H 623.626 V 0 H 0 Z"
         inkscape:connector-curvature="0" /></clipPath><clipPath
       id="clipPath6731-9"
       clipPathUnits="userSpaceOnUse"><path
         id="path6733-1"
         d="M 0,870.236 H 623.626 V 0 H 0 Z"
         inkscape:connector-curvature="0" /></clipPath><clipPath
       clipPathUnits="userSpaceOnUse"
       id="clipPath4150-2"><path
         d="M 0,870.236 H 623.626 V 0 H 0 Z"
         id="path4152-70"
         inkscape:connector-curvature="0" /></clipPath><clipPath
       clipPathUnits="userSpaceOnUse"
       id="clipPath4162-9"><path
         d="M 0,870.236 H 623.626 V 0 H 0 Z"
         id="path4164-3"
         inkscape:connector-curvature="0" /></clipPath><clipPath
       clipPathUnits="userSpaceOnUse"
       id="clipPath4390-6"><path
         d="M 0,870.236 H 623.626 V 0 H 0 Z"
         id="path4392-0"
         inkscape:connector-curvature="0" /></clipPath><clipPath
       clipPathUnits="userSpaceOnUse"
       id="clipPath4398-6"><path
         d="M -80.514,14.173 H -675.79 v 841.89 h 595.276 z"
         id="path4400-2"
         inkscape:connector-curvature="0" /></clipPath><clipPath
       clipPathUnits="userSpaceOnUse"
       id="clipPath6707-4-6"><path
         d="M 0,870.236 H 623.626 V 0 H 0 Z"
         id="path6709-2-1"
         inkscape:connector-curvature="0" /></clipPath><clipPath
       clipPathUnits="userSpaceOnUse"
       id="clipPath6719-3-8"><path
         d="M 0,870.236 H 623.626 V 0 H 0 Z"
         id="path6721-3-7"
         inkscape:connector-curvature="0" /></clipPath><clipPath
       clipPathUnits="userSpaceOnUse"
       id="clipPath6731-1-9"><path
         d="M 0,870.236 H 623.626 V 0 H 0 Z"
         id="path6733-5-2"
         inkscape:connector-curvature="0" /></clipPath><clipPath
       id="clipPath4150-1-0"
       clipPathUnits="userSpaceOnUse"><path
         id="path4152-0-2"
         d="M 0,870.236 H 623.626 V 0 H 0 Z"
         inkscape:connector-curvature="0" /></clipPath><clipPath
       id="clipPath4162-3-3"
       clipPathUnits="userSpaceOnUse"><path
         id="path4164-5-7"
         d="M 0,870.236 H 623.626 V 0 H 0 Z"
         inkscape:connector-curvature="0" /></clipPath><clipPath
       id="clipPath4390-2-5"
       clipPathUnits="userSpaceOnUse"><path
         id="path4392-2-9"
         d="M 0,870.236 H 623.626 V 0 H 0 Z"
         inkscape:connector-curvature="0" /></clipPath><clipPath
       id="clipPath4398-1-2"
       clipPathUnits="userSpaceOnUse"><path
         id="path4400-4-2"
         d="M -80.514,14.173 H -675.79 v 841.89 h 595.276 z"
         inkscape:connector-curvature="0" /></clipPath><clipPath
       id="clipPath6707-535"
       clipPathUnits="userSpaceOnUse"><path
         id="path6709-6"
         d="M 0,870.236 H 623.626 V 0 H 0 Z"
         inkscape:connector-curvature="0" /></clipPath><clipPath
       id="clipPath6719-2"
       clipPathUnits="userSpaceOnUse"><path
         id="path6721-9"
         d="M 0,870.236 H 623.626 V 0 H 0 Z"
         inkscape:connector-curvature="0" /></clipPath><clipPath
       id="clipPath6731-12"
       clipPathUnits="userSpaceOnUse"><path
         id="path6733-7"
         d="M 0,870.236 H 623.626 V 0 H 0 Z"
         inkscape:connector-curvature="0" /></clipPath><clipPath
       clipPathUnits="userSpaceOnUse"
       id="clipPath4150-0"><path
         d="M 0,870.236 H 623.626 V 0 H 0 Z"
         id="path4152-9"
         inkscape:connector-curvature="0" /></clipPath><clipPath
       clipPathUnits="userSpaceOnUse"
       id="clipPath4162-36"><path
         d="M 0,870.236 H 623.626 V 0 H 0 Z"
         id="path4164-0"
         inkscape:connector-curvature="0" /></clipPath><clipPath
       clipPathUnits="userSpaceOnUse"
       id="clipPath4390-62"><path
         d="M 0,870.236 H 623.626 V 0 H 0 Z"
         id="path4392-61"
         inkscape:connector-curvature="0" /></clipPath><clipPath
       clipPathUnits="userSpaceOnUse"
       id="clipPath4398-8"><path
         d="M -80.514,14.173 H -675.79 v 841.89 h 595.276 z"
         id="path4400-7"
         inkscape:connector-curvature="0" /></clipPath><clipPath
       clipPathUnits="userSpaceOnUse"
       id="clipPath6707-4-9"><path
         d="M 0,870.236 H 623.626 V 0 H 0 Z"
         id="path6709-2-2"
         inkscape:connector-curvature="0" /></clipPath><clipPath
       clipPathUnits="userSpaceOnUse"
       id="clipPath6719-3-0"><path
         d="M 0,870.236 H 623.626 V 0 H 0 Z"
         id="path6721-3-2"
         inkscape:connector-curvature="0" /></clipPath><clipPath
       clipPathUnits="userSpaceOnUse"
       id="clipPath6731-1-3"><path
         d="M 0,870.236 H 623.626 V 0 H 0 Z"
         id="path6733-5-7"
         inkscape:connector-curvature="0" /></clipPath><clipPath
       id="clipPath4150-1-5"
       clipPathUnits="userSpaceOnUse"><path
         id="path4152-0-9"
         d="M 0,870.236 H 623.626 V 0 H 0 Z"
         inkscape:connector-curvature="0" /></clipPath><clipPath
       id="clipPath4162-3-2"
       clipPathUnits="userSpaceOnUse"><path
         id="path4164-5-2"
         d="M 0,870.236 H 623.626 V 0 H 0 Z"
         inkscape:connector-curvature="0" /></clipPath><clipPath
       id="clipPath4390-2-8"
       clipPathUnits="userSpaceOnUse"><path
         id="path4392-2-97"
         d="M 0,870.236 H 623.626 V 0 H 0 Z"
         inkscape:connector-curvature="0" /></clipPath><clipPath
       id="clipPath4398-1-3"
       clipPathUnits="userSpaceOnUse"><path
         id="path4400-4-6"
         d="M -80.514,14.173 H -675.79 v 841.89 h 595.276 z"
         inkscape:connector-curvature="0" /></clipPath><clipPath
       id="clipPath6707-7"
       clipPathUnits="userSpaceOnUse"><path
         id="path6709-4"
         d="M 0,870.236 H 623.626 V 0 H 0 Z"
         inkscape:connector-curvature="0" /></clipPath><clipPath
       id="clipPath6719-4"
       clipPathUnits="userSpaceOnUse"><path
         id="path6721-30"
         d="M 0,870.236 H 623.626 V 0 H 0 Z"
         inkscape:connector-curvature="0" /></clipPath><clipPath
       id="clipPath6731-7"
       clipPathUnits="userSpaceOnUse"><path
         id="path6733-8"
         d="M 0,870.236 H 623.626 V 0 H 0 Z"
         inkscape:connector-curvature="0" /></clipPath><clipPath
       clipPathUnits="userSpaceOnUse"
       id="clipPath4150-6"><path
         d="M 0,870.236 H 623.626 V 0 H 0 Z"
         id="path4152-8"
         inkscape:connector-curvature="0" /></clipPath><clipPath
       clipPathUnits="userSpaceOnUse"
       id="clipPath4162-8"><path
         d="M 0,870.236 H 623.626 V 0 H 0 Z"
         id="path4164-4"
         inkscape:connector-curvature="0" /></clipPath><clipPath
       clipPathUnits="userSpaceOnUse"
       id="clipPath4390-31"><path
         d="M 0,870.236 H 623.626 V 0 H 0 Z"
         id="path4392-4"
         inkscape:connector-curvature="0" /></clipPath><clipPath
       clipPathUnits="userSpaceOnUse"
       id="clipPath4398-9"><path
         d="M -80.514,14.173 H -675.79 v 841.89 h 595.276 z"
         id="path4400-20"
         inkscape:connector-curvature="0" /></clipPath><clipPath
       clipPathUnits="userSpaceOnUse"
       id="clipPath6707-4-68"><path
         d="M 0,870.236 H 623.626 V 0 H 0 Z"
         id="path6709-2-9"
         inkscape:connector-curvature="0" /></clipPath><clipPath
       clipPathUnits="userSpaceOnUse"
       id="clipPath6719-3-2"><path
         d="M 0,870.236 H 623.626 V 0 H 0 Z"
         id="path6721-3-6"
         inkscape:connector-curvature="0" /></clipPath><clipPath
       clipPathUnits="userSpaceOnUse"
       id="clipPath6731-1-6"><path
         d="M 0,870.236 H 623.626 V 0 H 0 Z"
         id="path6733-5-4"
         inkscape:connector-curvature="0" /></clipPath><clipPath
       id="clipPath4150-1-9"
       clipPathUnits="userSpaceOnUse"><path
         id="path4152-0-5"
         d="M 0,870.236 H 623.626 V 0 H 0 Z"
         inkscape:connector-curvature="0" /></clipPath><clipPath
       id="clipPath4162-3-0"
       clipPathUnits="userSpaceOnUse"><path
         id="path4164-5-4"
         d="M 0,870.236 H 623.626 V 0 H 0 Z"
         inkscape:connector-curvature="0" /></clipPath><clipPath
       id="clipPath4390-2-87"
       clipPathUnits="userSpaceOnUse"><path
         id="path4392-2-1"
         d="M 0,870.236 H 623.626 V 0 H 0 Z"
         inkscape:connector-curvature="0" /></clipPath><clipPath
       id="clipPath4398-1-7"
       clipPathUnits="userSpaceOnUse"><path
         id="path4400-4-27"
         d="M -80.514,14.173 H -675.79 v 841.89 h 595.276 z"
         inkscape:connector-curvature="0" /></clipPath><clipPath
       id="clipPath6707-5356"
       clipPathUnits="userSpaceOnUse"><path
         id="path6709-29"
         d="M 0,870.236 H 623.626 V 0 H 0 Z"
         inkscape:connector-curvature="0" /></clipPath><clipPath
       id="clipPath6719-1"
       clipPathUnits="userSpaceOnUse"><path
         id="path6721-27"
         d="M 0,870.236 H 623.626 V 0 H 0 Z"
         inkscape:connector-curvature="0" /></clipPath><clipPath
       id="clipPath6731-0"
       clipPathUnits="userSpaceOnUse"><path
         id="path6733-93"
         d="M 0,870.236 H 623.626 V 0 H 0 Z"
         inkscape:connector-curvature="0" /></clipPath><clipPath
       clipPathUnits="userSpaceOnUse"
       id="clipPath4150-60"><path
         d="M 0,870.236 H 623.626 V 0 H 0 Z"
         id="path4152-6"
         inkscape:connector-curvature="0" /></clipPath><clipPath
       clipPathUnits="userSpaceOnUse"
       id="clipPath4162-2"><path
         d="M 0,870.236 H 623.626 V 0 H 0 Z"
         id="path4164-6"
         inkscape:connector-curvature="0" /></clipPath><clipPath
       clipPathUnits="userSpaceOnUse"
       id="clipPath4390-1"><path
         d="M 0,870.236 H 623.626 V 0 H 0 Z"
         id="path4392-8"
         inkscape:connector-curvature="0" /></clipPath><clipPath
       clipPathUnits="userSpaceOnUse"
       id="clipPath4398-7"><path
         d="M -80.514,14.173 H -675.79 v 841.89 h 595.276 z"
         id="path4400-9"
         inkscape:connector-curvature="0" /></clipPath><clipPath
       clipPathUnits="userSpaceOnUse"
       id="clipPath6707-4-2"><path
         d="M 0,870.236 H 623.626 V 0 H 0 Z"
         id="path6709-2-0"
         inkscape:connector-curvature="0" /></clipPath><clipPath
       clipPathUnits="userSpaceOnUse"
       id="clipPath6719-3-23"><path
         d="M 0,870.236 H 623.626 V 0 H 0 Z"
         id="path6721-3-75"
         inkscape:connector-curvature="0" /></clipPath><clipPath
       clipPathUnits="userSpaceOnUse"
       id="clipPath6731-1-92"><path
         d="M 0,870.236 H 623.626 V 0 H 0 Z"
         id="path6733-5-28"
         inkscape:connector-curvature="0" /></clipPath><clipPath
       id="clipPath4150-1-97"
       clipPathUnits="userSpaceOnUse"><path
         id="path4152-0-3"
         d="M 0,870.236 H 623.626 V 0 H 0 Z"
         inkscape:connector-curvature="0" /></clipPath><clipPath
       id="clipPath4162-3-6"
       clipPathUnits="userSpaceOnUse"><path
         id="path4164-5-1"
         d="M 0,870.236 H 623.626 V 0 H 0 Z"
         inkscape:connector-curvature="0" /></clipPath><clipPath
       id="clipPath4390-2-2"
       clipPathUnits="userSpaceOnUse"><path
         id="path4392-2-93"
         d="M 0,870.236 H 623.626 V 0 H 0 Z"
         inkscape:connector-curvature="0" /></clipPath><clipPath
       id="clipPath4398-1-1"
       clipPathUnits="userSpaceOnUse"><path
         id="path4400-4-9"
         d="M -80.514,14.173 H -675.79 v 841.89 h 595.276 z"
         inkscape:connector-curvature="0" /></clipPath></defs><g
     transform="matrix(1.25,0,0,-1.25,-101.84723,636.18478)"
     id="g6701"
     style="fill:#ffffff"><g
       id="g14487"
       style="fill:#ffffff"><g
         id="afup"
         style="fill:#ffffff"><title
           id="title14389">Association Française des Utilisateurs de PHP</title><g
           transform="matrix(1.838491,0,0,1.838491,103.11939,426.47736)"
           id="a"
           style="fill:#ffffff"><title
             id="title14365">association</title><path
             id="path6737"
             style="fill:#ffffff;fill-opacity:1;fill-rule:nonzero;stroke:none"
             d="m 0,0 c -0.939,-0.751 -1.409,-1.764 -1.409,-3.037 0,-1.274 0.511,-2.275 1.534,-3.005 1.022,-0.731 2.452,-1.096 4.29,-1.096 3.465,0 6.303,0.939 8.516,2.818 V 2.442 L 3.789,1.44 C 2.201,1.231 0.939,0.751 0,0 m 24.077,-7.138 v -3.758 c -1.628,-0.792 -3.424,-1.189 -5.385,-1.189 -1.963,0 -3.372,0.376 -4.227,1.127 -0.856,0.751 -1.346,1.836 -1.472,3.256 -2.296,-2.923 -5.312,-4.383 -9.048,-4.383 -3.736,0 -6.565,0.751 -8.485,2.254 -1.92,1.503 -2.88,3.61 -2.88,6.325 0,5.217 3.632,8.223 10.896,9.017 l 9.455,1.002 v 1.816 c 0,2.42 -0.501,4.257 -1.503,5.51 -1.001,1.252 -2.589,1.879 -4.759,1.879 -4.008,0 -7.264,-0.439 -9.769,-1.316 l -1.252,-0.438 -1.127,4.008 c 1.168,0.667 2.943,1.283 5.323,1.847 2.38,0.564 4.592,0.846 6.637,0.846 4.467,0 7.64,-0.888 9.518,-2.662 1.879,-1.774 2.818,-4.269 2.818,-7.483 V -7.138 Z"
             inkscape:connector-curvature="0" /></g><g
           transform="matrix(1.838491,0,0,1.838491,184.98446,405.525)"
           id="f"
           style="fill:#ffffff"><title
             id="title14367">française</title><path
             id="path6741"
             style="fill:#ffffff;fill-opacity:1;fill-rule:nonzero;stroke:none"
             d="m 0,0 h -16.594 v 2.692 l 5.26,2.067 v 21.478 h -4.884 v 3.758 l 4.884,2.004 v 3.756 c 0,4.133 1.054,7.274 3.162,9.425 2.108,2.149 5.082,3.224 8.924,3.224 1.503,0 2.89,-0.218 4.164,-0.657 1.272,-0.438 2.16,-0.888 2.661,-1.346 L 8.392,45.712 6.7,42.456 c -1.169,0.667 -2.911,1.002 -5.228,1.002 -2.317,0 -4.03,-0.679 -5.135,-2.036 -1.107,-1.357 -1.659,-3.83 -1.659,-7.42 V 31.31 H 4.759 V 26.237 H -5.322 V 4.759 L 0,2.692 Z"
             inkscape:connector-curvature="0" /></g><g
           transform="matrix(1.838491,0,0,1.838491,267.44721,413.35385)"
           id="u"
           style="fill:#ffffff"><title
             id="title14369">utilisateurs</title><path
             id="path6745"
             style="fill:#ffffff;fill-opacity:1;fill-rule:nonzero;stroke:none"
             d="m 0,0 v -3.757 c -1.628,-0.793 -3.466,-1.19 -5.511,-1.19 -2.046,0 -3.465,0.428 -4.258,1.283 -0.793,0.856 -1.252,2.119 -1.377,3.789 -0.543,-0.626 -1.169,-1.252 -1.878,-1.878 -0.711,-0.627 -1.89,-1.315 -3.538,-2.067 -1.65,-0.751 -3.373,-1.127 -5.167,-1.127 -3.256,0 -5.698,0.908 -7.326,2.724 -1.629,1.816 -2.442,4.289 -2.442,7.42 v 17.659 h -5.26 v 3.757 c 1.628,0.792 3.516,1.19 5.667,1.19 2.15,0 3.601,-0.512 4.352,-1.534 0.752,-1.024 1.127,-2.579 1.127,-4.665 V 7.389 c 0,-2.464 0.407,-4.3 1.221,-5.511 0.814,-1.211 2.286,-1.816 4.414,-1.816 2.129,0 3.946,0.407 5.449,1.222 1.503,0.814 2.63,1.659 3.381,2.535 v 19.037 h -5.26 v 3.757 c 1.628,0.792 3.516,1.19 5.667,1.19 2.149,0 3.6,-0.512 4.352,-1.534 0.751,-1.024 1.127,-2.579 1.127,-4.665 L -5.26,0 Z"
             inkscape:connector-curvature="0" /></g><g
           transform="matrix(1.838491,0,0,1.838491,300.741,413.46875)"
           id="p"
           style="fill:#ffffff"><title
             id="title14371">PHP</title><path
             id="path6749"
             style="fill:#ffffff;fill-opacity:1;fill-rule:nonzero;stroke:none"
             d="m 0,0 c 3.382,0 6.021,1.002 7.921,3.006 1.899,2.003 2.85,4.8 2.85,8.39 0,3.59 -0.919,6.397 -2.755,8.423 -1.838,2.024 -3.8,3.037 -5.887,3.037 -3.632,0 -6.346,-1.149 -8.141,-3.444 V 1.127 C -3.674,0.375 -1.67,0 0,0 m -0.752,-21.291 h -16.469 v 2.693 l 5.324,2.066 v 39.576 h -5.26 v 3.444 c 1.628,0.792 3.412,1.19 5.353,1.19 1.942,0 3.328,-0.356 4.164,-1.065 0.835,-0.71 1.336,-1.753 1.503,-3.131 2.045,2.838 5.093,4.258 9.143,4.258 3.297,0 6.345,-1.127 9.142,-3.381 1.418,-1.17 2.557,-2.829 3.413,-4.979 0.855,-2.15 1.284,-4.644 1.284,-7.483 0,-2.839 -0.481,-5.375 -1.441,-7.607 C 14.443,2.056 13.15,0.292 11.521,-1.002 8.224,-3.632 4.383,-4.947 0,-4.947 c -1.753,0 -3.757,0.293 -6.012,0.877 v -12.462 l 5.26,-2.066 z"
             inkscape:connector-curvature="0" /></g><text
           transform="scale(1,-1)"
           id="text11751"
           y="-422.40115"
           x="261.39328"
           style="font-style:normal;font-weight:normal;font-size:32px;line-height:125%;font-family:sans-serif;letter-spacing:0px;word-spacing:0px;fill:#ffffff;fill-opacity:1;stroke:none;stroke-width:1px;stroke-linecap:butt;stroke-linejoin:miter;stroke-opacity:1"
           xml:space="preserve"><tspan
             y="-422.40115"
             x="261.39328"
             id="tspan11753"
             style="fill:#ffffff" /></text>
</g></g></g><g
     aria-label="LUXEMBOURG"
     style="font-style:normal;font-weight:normal;font-size:40px;line-height:1.25;font-family:sans-serif;letter-spacing:17px;word-spacing:0px;fill:#ffffff;fill-opacity:1;stroke:none"
     id="text71"><path
       d="m 555.58236,118.20309 h 30.6888 v 11.61068 H 541.12923 V 59.66793 h 14.45313 z"
       style="font-style:normal;font-variant:normal;font-weight:bold;font-stretch:normal;font-size:98.66667175px;font-family:Roboto;-inkscape-font-specification:'Roboto Bold';letter-spacing:6px;fill:#ffffff;fill-opacity:1"
       id="path1033" /><path
       d="m 652.44434,59.66793 v 46.20182 q 0,11.51433 -7.22656,18.21094 -7.17839,6.69662 -19.65625,6.69662 -12.28516,0 -19.51172,-6.50391 -7.22656,-6.5039 -7.3711,-17.8737 V 59.66793 h 14.45313 v 46.29818 q 0,6.88932 3.27604,10.06901 3.32422,3.13151 9.15365,3.13151 12.1888,0 12.38151,-12.8151 v -46.6836 z"
       style="font-style:normal;font-variant:normal;font-weight:bold;font-stretch:normal;font-size:98.66667175px;font-family:Roboto;-inkscape-font-specification:'Roboto Bold';letter-spacing:6px;fill:#ffffff;fill-opacity:1"
       id="path1035" /><path
       d="M 695.39617,83.852827 708.54851,59.66793 h 16.62109 l -20.42708,34.783855 20.95703,35.361985 h -16.8138 l -13.48958,-24.57032 -13.48959,24.57032 h -16.8138 L 686.04981,94.451785 665.62273,59.66793 h 16.62109 z"
       style="font-style:normal;font-variant:normal;font-weight:bold;font-stretch:normal;font-size:98.66667175px;font-family:Roboto;-inkscape-font-specification:'Roboto Bold';letter-spacing:6px;fill:#ffffff;fill-opacity:1"
       id="path1037" /><path
       d="m 781.12923,99.414025 h -27.75 v 18.789065 h 32.56771 v 11.61068 H 738.92611 V 59.66793 h 46.92448 V 71.374961 H 753.37923 V 88.09241 h 27.75 z"
       style="font-style:normal;font-variant:normal;font-weight:bold;font-stretch:normal;font-size:98.66667175px;font-family:Roboto;-inkscape-font-specification:'Roboto Bold';letter-spacing:6px;fill:#ffffff;fill-opacity:1"
       id="path1039" /><path
       d="m 819.31152,59.66793 18.01823,50.875 17.92188,-50.875 h 18.98177 v 70.14584 h -14.5013 v -19.17448 l 1.44531,-33.097662 -18.93359,52.272142 h -9.92448 l -18.88542,-52.223965 1.44531,33.049485 v 19.17448 H 800.42611 V 59.66793 Z"
       style="font-style:normal;font-variant:normal;font-weight:bold;font-stretch:normal;font-size:98.66667175px;font-family:Roboto;-inkscape-font-specification:'Roboto Bold';letter-spacing:6px;fill:#ffffff;fill-opacity:1"
       id="path1041" /><path
       d="M 892.95217,129.81377 V 59.66793 h 24.57031 q 12.76693,0 19.36719,4.914062 6.60026,4.865886 6.60026,14.308595 0,5.154948 -2.64974,9.105469 -2.64974,3.902344 -7.37109,5.733073 5.39583,1.348959 8.47917,5.444011 3.13151,4.09505 3.13151,10.02083 0,10.11719 -6.45573,15.32032 -6.45573,5.20312 -18.40365,5.29948 z m 14.45312,-30.544276 v 18.933596 h 12.38152 q 5.10677,0 7.94922,-2.40886 2.89062,-2.45703 2.89062,-6.74479 0,-9.635415 -9.97266,-9.779946 z m 0,-10.213542 h 10.69532 q 10.9362,-0.192708 10.9362,-8.720053 0,-4.769531 -2.79427,-6.841146 -2.7461,-2.119792 -8.72006,-2.119792 h -10.11719 z"
       style="font-style:normal;font-variant:normal;font-weight:bold;font-stretch:normal;font-size:98.66667175px;font-family:Roboto;-inkscape-font-specification:'Roboto Bold';letter-spacing:6px;fill:#ffffff;fill-opacity:1"
       id="path1043" /><path
       d="m 1019.5876,96.330692 q 0,10.358078 -3.6615,18.162758 -3.6614,7.80469 -10.5026,12.04427 -6.79294,4.23959 -15.60935,4.23959 -8.72005,0 -15.5612,-4.19141 -6.84115,-4.1914 -10.59896,-11.94792 -3.75781,-7.80468 -3.80599,-17.921871 v -3.468751 q 0,-10.358073 3.70964,-18.210938 3.75781,-7.901042 10.55078,-12.092449 6.84115,-4.239583 15.60938,-4.239583 8.76823,0 15.5612,4.239583 6.8411,4.191407 10.5508,12.092449 3.7578,7.852865 3.7578,18.162761 z m -14.6458,-3.179688 q 0,-11.032552 -3.9506,-16.765626 -3.95049,-5.733073 -11.2734,-5.733073 -7.27474,0 -11.22527,5.684896 -3.95052,5.636719 -3.99869,16.572918 v 3.420573 q 0,10.743488 3.95052,16.669268 3.95052,5.92579 11.36979,5.92579 7.27474,0 11.17705,-5.6849 3.9024,-5.73307 3.9506,-16.669273 z"
       style="font-style:normal;font-variant:normal;font-weight:bold;font-stretch:normal;font-size:98.66667175px;font-family:Roboto;-inkscape-font-specification:'Roboto Bold';letter-spacing:6px;fill:#ffffff;fill-opacity:1"
       id="path1045" /><path
       d="m 1089.2777,59.66793 v 46.20182 q 0,11.51433 -7.2266,18.21094 -7.1784,6.69662 -19.6562,6.69662 -12.2852,0 -19.5117,-6.50391 -7.2266,-6.5039 -7.3711,-17.8737 V 59.66793 h 14.4531 v 46.29818 q 0,6.88932 3.276,10.06901 3.3243,3.13151 9.1537,3.13151 12.1888,0 12.3815,-12.8151 v -46.6836 z"
       style="font-style:normal;font-variant:normal;font-weight:bold;font-stretch:normal;font-size:98.66667175px;font-family:Roboto;-inkscape-font-specification:'Roboto Bold';letter-spacing:6px;fill:#ffffff;fill-opacity:1"
       id="path1047" /><path
       d="m 1133.0967,104.13538 h -11.5143 v 25.67839 h -14.4532 V 59.66793 h 26.0638 q 12.4297,0 19.1745,5.540364 6.7448,5.540365 6.7448,15.657553 0,7.178386 -3.1315,11.996095 -3.0833,4.769531 -9.3945,7.611978 l 15.1757,28.66537 v 0.67448 h -15.513 z m -11.5143,-11.707032 h 11.6588 q 5.444,0 8.431,-2.746094 2.987,-2.794271 2.987,-7.660157 0,-4.962239 -2.8425,-7.804688 -2.7942,-2.842448 -8.6237,-2.842448 h -11.6106 z"
       style="font-style:normal;font-variant:normal;font-weight:bold;font-stretch:normal;font-size:98.66667175px;font-family:Roboto;-inkscape-font-specification:'Roboto Bold';letter-spacing:6px;fill:#ffffff;fill-opacity:1"
       id="path1049" /><path
       d="m 1231.6449,120.94918 q -3.9024,4.67318 -11.0326,7.27474 -7.1302,2.55339 -15.8021,2.55339 -9.1054,0 -15.9948,-3.95052 -6.8411,-3.9987 -10.5989,-11.5625 -3.7097,-7.56381 -3.806,-17.777348 V 92.71741 q 0,-10.502604 3.5169,-18.162761 3.5651,-7.708334 10.2136,-11.755209 6.6966,-4.095052 15.6575,-4.095052 12.4779,0 19.5117,5.973958 7.0339,5.925782 8.3347,17.295574 h -14.0677 q -0.9636,-6.022135 -4.2878,-8.816406 -3.2761,-2.794271 -9.0573,-2.794271 -7.3711,0 -11.2253,5.540364 -3.8541,5.540365 -3.9023,16.476564 v 4.480469 q 0,11.03255 4.1914,16.66927 4.1914,5.63672 12.2852,5.63672 8.1419,0 11.6106,-3.46875 v -12.09245 h -13.1523 V 92.958296 h 27.6055 z"
       style="font-style:normal;font-variant:normal;font-weight:bold;font-stretch:normal;font-size:98.66667175px;font-family:Roboto;-inkscape-font-specification:'Roboto Bold';letter-spacing:6px;fill:#ffffff;fill-opacity:1"
       id="path1051" /></g><text
     xml:space="preserve"
     style="font-style:normal;font-weight:normal;font-size:40px;line-height:1.25;font-family:sans-serif;letter-spacing:0px;word-spacing:0px;fill:#000000;fill-opacity:1;stroke:none"
     x="1044.7728"
     y="98.337486"
     id="text1019"><tspan
       sodipodi:role="line"
       id="tspan1017"
       x="1044.7728"
       y="133.72812" /></text>
<g
     id="lion"
     transform="matrix(1.2945423,0,0,1.2945423,-79.7767,-610.93881)"><title
       id="title17040">lion</title><g
       transform="matrix(1.25,0,0,-1.25,-1.3964844e-4,1275.3973)"
       id="g5080"><path
         id="path5082-8"
         style="fill:#4c9edc;fill-opacity:1;fill-rule:nonzero;stroke:none"
         d="m 288.7891,571.9068 v 0 l -21.482,-12.403 c 0.994,-1.721 2.433,-3.185 4.214,-4.213 l 17.268,-9.97 z"
         inkscape:connector-curvature="0" /><path
         id="path5084-8"
         style="fill:#498cd2;fill-opacity:1;fill-rule:nonzero;stroke:none"
         d="m 265.7649,585.1998 v -19.939 c 0,-2.057 0.549,-4.035 1.542,-5.756 l 21.482,12.402 z"
         inkscape:connector-curvature="0" /><path
         id="path5086-9"
         style="fill:#487dc8;fill-opacity:1;fill-rule:nonzero;stroke:none"
         d="m 288.7891,571.9068 v 26.586 l -23.024,-13.293 v 0 z"
         inkscape:connector-curvature="0" /><path
         id="path5088-6"
         style="fill:#5295d6;fill-opacity:1;fill-rule:nonzero;stroke:none"
         d="m 288.7891,545.3209 v 0 l 17.268,-9.97 c 1.781,-1.028 3.769,-1.542 5.756,-1.542 v 24.805 z"
         inkscape:connector-curvature="0" /><path
         id="path5090-0"
         style="fill:#476bbc;fill-opacity:1;fill-rule:nonzero;stroke:none"
         d="m 267.3072,610.8954 c -0.994,-1.721 -1.542,-3.7 -1.542,-5.756 v -19.94 l 23.024,13.293 z"
         inkscape:connector-curvature="0" /><path
         id="path5092-2"
         style="fill:#7f9ad6;fill-opacity:1;fill-rule:nonzero;stroke:none"
         d="m 334.8373,545.3209 v 26.586 l -23.024,-13.293 z"
         inkscape:connector-curvature="0" /><path
         id="path5094-5"
         style="fill:#727ebd;fill-opacity:1;fill-rule:nonzero;stroke:none"
         d="m 356.3192,559.5043 c 0.994,1.721 1.542,3.7 1.542,5.756 v 19.939 l -23.024,-13.293 z"
         inkscape:connector-curvature="0" /><path
         id="path5096-0"
         style="fill:#8f9fd8;fill-opacity:1;fill-rule:nonzero;stroke:none"
         d="m 334.8373,571.9068 v -26.586 l 17.268,9.97 c 1.781,1.028 3.22,2.492 4.214,4.214 z"
         inkscape:connector-curvature="0" /><path
         id="path5098-9"
         style="fill:#425da2;fill-opacity:1;fill-rule:nonzero;stroke:none"
         d="m 334.8373,598.4928 v 0 -26.586 l 23.024,13.293 v 0 z"
         inkscape:connector-curvature="0" /><path
         id="path5100-5"
         style="fill:#6495d5;fill-opacity:1;fill-rule:nonzero;stroke:none"
         d="m 311.8132,558.6138 v -24.805 c 1.987,0 3.975,0.514 5.756,1.542 l 17.268,9.97 z"
         inkscape:connector-curvature="0" /><path
         id="path5102-1"
         style="fill:#3a64ad;fill-opacity:1;fill-rule:nonzero;stroke:none"
         d="m 311.8132,611.7858 -23.024,13.293 v -26.586 z"
         inkscape:connector-curvature="0" /><path
         id="path5104-7"
         style="fill:#3a61a3;fill-opacity:1;fill-rule:nonzero;stroke:none"
         d="m 311.8132,611.7858 23.024,-13.293 v 26.586 z"
         inkscape:connector-curvature="0" /><path
         id="path5106-7"
         style="fill:#32549d;fill-opacity:1;fill-rule:nonzero;stroke:none"
         d="m 267.3072,610.8954 21.482,-12.403 v 26.586 l -17.268,-9.969 c -1.781,-1.029 -3.22,-2.493 -4.214,-4.214"
         inkscape:connector-curvature="0" /><path
         id="path5108-7"
         style="fill:#2f5296;fill-opacity:1;fill-rule:nonzero;stroke:none"
         d="m 334.8373,598.4928 23.024,-13.293 v 19.939 c 0,2.057 -0.548,4.035 -1.542,5.757 z"
         inkscape:connector-curvature="0" /><path
         id="path5110-4"
         style="fill:#325295;fill-opacity:1;fill-rule:nonzero;stroke:none"
         d="m 334.8373,598.4928 21.482,12.403 c -0.994,1.721 -2.433,3.185 -4.214,4.213 l -17.268,9.97 z"
         inkscape:connector-curvature="0" /><path
         id="path5112-0"
         style="fill:#4379c6;fill-opacity:1;fill-rule:nonzero;stroke:none"
         d="m 334.8373,625.0788 -17.269,9.97 c -1.781,1.028 -3.768,1.542 -5.755,1.542 v -24.805 z"
         inkscape:connector-curvature="0" /><path
         id="path5114-8"
         style="fill:#3f73bd;fill-opacity:1;fill-rule:nonzero;stroke:none"
         d="m 311.8132,611.7858 v 24.805 c -1.987,0 -3.975,-0.514 -5.755,-1.542 l -17.269,-9.97 z"
         inkscape:connector-curvature="0" /><path
         id="path5116-4"
         style="fill:#50a0dd;fill-opacity:1;fill-rule:nonzero;stroke:none"
         d="m 288.7891,545.3209 23.024,13.293 -23.024,13.293 z"
         inkscape:connector-curvature="0" /><path
         d="m 288.7891,598.4929 v 0 -26.586 l 23.024,13.293 v 0 z"
         style="fill:#425da2;fill-opacity:1;fill-rule:nonzero;stroke:none"
         id="path5118-4"
         inkscape:connector-curvature="0" /><path
         d="m 334.8371,571.9069 v 26.586 l -23.024,-13.293 v 0 z"
         style="fill:#487dc8;fill-opacity:1;fill-rule:nonzero;stroke:none"
         id="path5120-6"
         inkscape:connector-curvature="0" /><path
         style="fill:#3f73bd;fill-opacity:1;fill-rule:nonzero;stroke:none"
         d="m 389.76562,543.89648 v 0.002 l -28.77929,16.61523 28.77929,16.61719 28.78126,-16.61719 -28.78126,-16.61719 z"
         transform="matrix(0.8,0,0,-0.8,1.1171875e-4,1020.3178)"
         id="path5122-9"
         inkscape:connector-curvature="0" /><path
         d="m 311.8133,585.1998 v 26.586 l -23.024,-13.293 z"
         style="fill:#2f5296;fill-opacity:1;fill-rule:nonzero;stroke:none"
         id="path5124-5"
         inkscape:connector-curvature="0" /><path
         d="m 311.8132,585.1998 23.024,13.293 -23.024,13.293 z"
         style="fill:#498cd2;fill-opacity:1;fill-rule:nonzero;stroke:none"
         id="path5126-1"
         inkscape:connector-curvature="0" /></g><path
       inkscape:connector-curvature="0"
       id="path4250"
       style="fill:#ffffff;fill-opacity:1;fill-rule:nonzero;stroke:none"
       d="m 366.04645,502.92829 c 0.0693,0.80656 0.0693,1.59352 -0.438,2.1152 -0.47362,0.20119 -0.9116,0.68192 -1.14662,1.55792 0.0196,-0.66055 -0.21723,-1.10568 -0.56441,-1.3496 -0.27777,-1.41903 -1.45288,-1.70391 -2.76865,-1.80896 1.06472,1.11992 0.48785,2.33063 0.41129,3.52 -0.93832,-1.46 -1.82854,-1.58641 -2.46951,-1.12704 0,-0.008 0,-0.008 0,-0.008 -1.05761,-0.47894 -1.97455,-0.35431 -3.11583,0.61249 0.8208,0.14603 1.41905,0.0214 2.15615,1.42616 0.0147,-0.008 0.0214,-0.0148 0.0284,-0.0214 -0.0356,0.70864 0.16559,1.39056 0.70864,1.73951 -0.61782,0.38103 -0.98103,0.87602 -1.14664,1.37632 -0.008,0 -0.008,0 -0.008,0 -0.12649,-0.0909 -1.14839,-0.63384 -1.8499,-0.82791 0.0338,2.14189 1.09855,2.57989 2.07247,2.53894 0.008,0 0.008,-0.008 0.008,-0.008 0.4024,0.54303 1.13239,0.79231 2.0155,0.34718 -0.70862,1.83034 0.91162,1.6149 -0.51455,3.35264 0.2724,0.17443 0.47361,0.41129 1.67721,-0.36144 -0.11211,0.41663 -0.38993,0.61249 -0.61961,1.07185 -0.2368,0.48607 -0.42375,1.24455 -0.61782,1.91223 0.68726,0.15305 1.17511,0.11045 1.67542,0.0765 -0.71575,0.17277 -0.41129,1.88372 -0.38992,3.35263 0.63385,-0.19587 0.85641,-0.10511 1.1199,1.23741 0.37568,1.89087 3.56096,5.15271 3.89569,5.48744 -0.44512,0.2083 -0.89025,0.30623 -1.33534,0.22967 0.56974,0.82792 0.97924,1.79472 2.71164,1.66119 -0.11045,0.43266 -0.64631,1.00952 -1.96208,1.84456 1.48136,0.95255 2.5817,0.61782 3.65887,0.19407 0.0979,1.168 -1.18934,1.53656 -2.90039,1.50273 0.18874,0.47895 0.84929,1.50806 1.88554,1.50806 0.68192,0 1.20893,0.16743 1.89798,-0.34007 l -0.0148,0.041 c -0.7015,1.41191 -2.20422,2.30927 -3.5467,3.01968 -2.7259,1.43862 -4.76989,2.97694 -6.41149,4.52773 -0.48785,-0.81366 -0.98104,-1.28727 -1.45463,-1.54544 -0.17278,-1.00062 -0.88313,-1.73062 -2.20424,-2.16149 0.32049,0.87598 0.55551,1.72349 0.0907,2.33599 -0.57155,0.38991 -0.98104,0.94543 -1.11281,1.21782 0.22968,-1.19648 -0.16023,-1.76088 -0.7371,-1.95495 0.0196,-0.0214 0.041,-0.041 0.0623,-0.0623 -0.56975,-1.53655 -1.55079,-1.55079 -2.96983,-0.98817 1.23031,0.28489 0.9668,0.87599 0.75849,1.48848 -0.33473,0.25106 -0.52879,0.54304 -0.43265,0.79943 -0.73713,0.26529 -1.08432,0.7033 -1.18758,1.22497 -0.0286,-0.0284 -0.0641,-0.0623 -0.0909,-0.0837 -1.21073,-0.20119 -1.76089,0.25105 -2.39295,0.63208 0.93118,0.78697 1.60598,1.73951 3.30989,1.97633 0,0 0,-0.008 0,-0.008 0.0695,0.0979 0.13885,0.20121 0.21009,0.29912 0.0623,0.0979 0,0.42374 -0.0498,0.8208 -0.008,0 -0.008,0 -0.008,0 -1.80005,1.11992 -1.4119,1.66118 -1.62021,2.45527 0.54304,-0.52881 1.18223,-0.75848 2.5799,-0.22257 0,-0.008 0,-0.008 0,-0.008 0.39705,0.16024 0.93297,0.24393 1.66296,0.19407 1.10566,-0.0765 2.78822,-1.66118 4.09687,-2.71166 l -0.94722,2.83808 c 1.55793,-0.32761 2.60841,-1.05759 3.27607,-2.03864 0.40417,-0.59112 0.51456,-1.3496 1.54546,-1.26591 0.0891,0.60535 0.11046,1.28727 -0.52168,2.64934 1.06295,-0.66769 2.13478,-1.41191 3.19773,-2.8363 0.14603,0.7567 0.0765,1.58462 -0.36143,2.54429 1.56502,-0.96679 3.1443,-1.78759 4.51349,-4.44404 v 2.76862 c 1.19648,-1.02199 2.76152,-1.36383 3.11583,-3.87432 0.0979,-0.70861 0.32049,-1.33534 1.11281,-1.36918 v 3.24047 c 1.36383,-1.25879 2.40006,-3.40782 2.68494,-4.30518 0,0 0.30624,0.75847 0.50743,1.62023 0.20298,0.86174 0.30624,1.82143 0.30624,1.82143 1.38522,-1.47424 1.54368,-3.06598 1.31578,-4.65951 0,0 0.76383,1.05047 1.11814,1.92647 0.35609,0.87778 0.40416,2.0244 0.40416,2.0244 l 0.86176,-1.51695 0.0148,-0.0552 c 0.0284,0.0837 0.0623,0.16743 0.0979,0.24394 1.52229,3.36686 7.60794,4.63278 10.48876,4.68085 1.47423,0.56263 2.37159,1.46712 3.82445,3.09447 -0.65343,0.0148 -1.38342,0.0427 -2.17039,0.1051 -4.12359,0.29912 -7.07917,0.19407 -9.40269,1.606 -3.17102,1.91933 -3.86718,2.36445 -5.33429,2.36445 -0.8208,0 -1.11281,-0.40238 -1.96207,-0.40238 -2.09206,0 -6.09279,2.86479 -6.09279,2.86479 -2.64223,-1.37097 -2.71879,2.23983 -2.71879,3.22086 0,1.76624 0.3472,2.67783 0.3472,3.8316 0,1.97453 -1.14662,2.64222 -1.14662,3.28318 0.63919,0.22256 1.01486,1.15375 2.73301,-2.30926 -0.36142,3.51821 -1.41902,5.47317 -2.21134,7.19845 -0.38279,0.82792 -0.65343,1.54366 -1.03625,2.18285 -1.49557,2.51225 -3.63749,3.95799 -4.96572,3.95799 -1.41904,0 -2.14192,-0.90448 -2.14192,-0.90448 1.314,-0.87598 -0.4184,-2.87902 -1.71102,-1.84279 0.008,-0.0284 0.0129,-0.0837 0.0129,-0.0979 -0.7015,-0.45224 -1.63982,-0.21545 -2.74014,0.51454 1.34247,0.30624 1.64873,0.7033 1.89263,1.00241 0.008,0 0.008,-0.008 0.0148,-0.008 -0.0428,0.15304 -0.0907,0.29911 -0.13184,0.48072 -0.48785,0.0623 -0.85641,0.27775 -1.12704,0.58399 0,-0.008 0,-0.008 0,-0.0148 -1.94783,0.25638 -2.2879,0.63206 -2.50511,1.23741 0.98815,-0.0268 1.55791,0.37569 2.03151,0.87602 0.15305,0.7104 0.59825,1.28727 1.25167,1.2659 0.0623,0.20298 0.13166,0.39705 0.20298,0.57866 -0.0356,-0.0214 -0.0711,-0.0498 -0.1121,-0.0711 -1.34247,0.7389 -1.87841,1.622 -1.14839,2.74726 0.67479,-0.36143 1.23208,-1.20893 2.44815,-0.85462 0,0 0,-0.008 0,-0.008 1.03801,0.80655 2.36624,0.38992 3.88143,-0.8208 0,0 0.16023,0.86887 0.16023,1.48849 0,0.61248 -0.16023,0.98103 -0.16023,0.98103 1.46709,-0.13885 2.19175,-0.89736 2.64934,-1.95496 0.76559,1.13416 1.67721,1.49559 2.51224,1.4404 0.27775,0.40238 0.23503,1.00775 -0.21721,1.62023 1.19646,-0.41663 1.80896,-1.25167 2.01015,-2.38582 0.4736,-0.40952 0.77273,-0.89025 0.77273,-1.23744 -0.008,-1.11993 -0.47361,-0.89736 -0.48608,-1.88552 -0.0148,-0.9935 0.4647,-1.73774 0.4647,-1.73774 0.57153,1.15373 1.34249,1.57037 1.83034,2.93422 1.1395,-1.07185 0.65343,-2.47664 0.77093,-3.88856 1.13417,0.6125 1.5241,1.34248 1.42617,2.52471 0,0 0.90448,-1.0843 0.85462,-2.24517 -0.0551,-1.15554 -1.00062,-2.26832 -1.00062,-2.26832 2.93423,-0.26352 2.38582,0.45224 2.81671,0.77983 1.22318,-1.62022 0.25105,-3.36687 -1.27304,-4.56335 2.30216,-0.41663 2.92888,0.48785 3.64463,1.55791 1.1484,-0.80654 0.89023,-3.01788 -0.61961,-4.49925 l 1.16265,-0.22968 0.63207,0.6392 c 0.75137,-1.05584 0,-2.32888 -0.47895,-3.56097 l 1.55793,0.9045 c -0.43266,-1.18224 -0.54306,-1.87662 -0.52169,-2.39296 0.77807,0.45224 1.14662,1.2036 1.48847,1.98344 0.47895,-0.92584 0.53415,-2.10095 0.45759,-3.35974 1.0309,0.74422 1.50984,1.89264 1.30865,3.52533 0.50742,-0.73712 1.1751,-1.10566 1.38343,-2.55854 0.45936,0.44512 0.77272,0.77807 2.63688,0.89736 -1.16265,-1.07183 -1.44042,-2.10808 -1.19648,-2.96271 0.5003,-1.71816 3.60189,-2.01015 6.82277,-2.06535 2.76151,-0.0498 3.94376,-0.93296 5.66013,-1.66295 -1.78049,2.04575 -1.75911,5.2791 -0.98638,7.48332 0.7371,1.96921 2.30214,4.44406 2.60127,5.91829 0.44512,2.23272 -0.68192,2.27545 -1.42616,3.03393 0.63919,0.32582 4.02743,1.5508 3.67845,-3.95798 0.6481,0.72998 0.75136,1.8499 0.87066,3.11581 0.81366,-0.39703 1.68254,-0.68192 2.09917,-2.14903 0.64097,0.31337 1.09321,0.66768 2.14192,0.66768 1.476,0 2.28256,0.96681 2.28256,2.18999 0,1.04336 -0.36856,1.30153 -0.93296,1.86414 -1.05048,1.02913 -0.90983,1.99591 -0.89025,3.15856 0.0284,2.11343 -0.16742,2.55143 -1.78047,3.3651 0.0907,-0.69438 -0.22256,-1.39054 -0.74424,-1.57749 -0.50743,-1.37809 -1.60598,-1.48848 -2.75973,-1.48135 0.42374,0.61782 0.9027,1.24455 0.86174,1.7591 -0.25816,0.27775 -0.41662,0.63919 -0.41662,1.04336 0,0.008 0,0.008 0,0.0148 -0.49496,-0.36855 -0.93297,-0.84216 -1.41191,-1.21784 -0.38281,0.30624 -0.65522,0.54303 -0.91162,0.76559 -1.25166,-0.28665 -1.97631,0.43089 -2.80957,1.03624 1.23743,0.14605 2.14903,0.32582 2.14191,1.13237 -1.53121,0.71755 -2.33778,1.78761 -0.91873,3.00545 0.34897,-0.86174 0.68191,-1.23209 1.3496,-1.57928 l 0.28487,0.92584 c -0.0907,0.17278 -0.64632,1.23033 -0.34006,2.10631 0.3187,-0.16023 1.1199,-0.57687 1.75198,-1.07719 3.15856,1.45288 4.0488,-0.81367 6.22454,-2.37158 0.48072,0.67478 0.0551,1.80182 -0.22968,2.85765 1.14127,-0.17978 1.71103,-0.52168 2.35912,-3.05885 0.95255,0.72286 1.99591,1.29976 3.93486,0.438 l -2.0992,-2.01015 c 1.55079,-1.33536 3.21198,-2.63689 3.39358,-4.36218 0.98105,-0.041 1.93361,2.43569 2.33776,2.64402 0.59113,-0.71576 0.61071,-2.17041 0.1584,-3.83159 1.05048,0.38102 2.0244,0.63919 2.48375,1.1395 0.24394,-1.65584 -0.0765,-2.96269 -1.0843,-3.86718 0.97214,0.11931 1.94606,0.33473 2.91998,1.93359 0.45224,-0.5555 0.28487,-1.05759 0.37568,-1.45999 0.15304,-0.65343 -0.41663,-1.84992 -2.63511,-3.86006 0.56976,0.0214 1.16088,0.0765 1.97454,0.47361 -0.27774,-0.59112 -0.32047,-1.04336 -0.32759,-1.50984 -0.0129,-1.55793 -1.00775,-1.89266 -1.67544,-2.65648 -0.75847,-0.68191 -1.50271,-1.18222 -1.4475,-1.87128 0.0497,-0.4736 -1.56326,-2.02439 -4.22151,-2.69918 h 3.08911 c -0.83504,-0.56264 -1.16264,-1.03625 -3.04638,-1.80008 0.43088,-0.38279 0.80656,-0.80119 0.72998,-1.60062 -4.99422,1.16797 -4.32653,-0.89025 -4.54198,-1.24455 0.75848,0.50742 1.37809,0.75847 2.29504,0.55014 -0.3828,-0.32047 -0.69438,-0.93296 -0.69438,-2.04575 0,-1.78047 -1.4333,-3.21375 -2.14192,-4.82686 1.3763,0 3.81734,2.35733 7.07203,2.35733 6.13552,0 8.33262,-7.77532 8.33262,-10.64722 0,-5.72422 -3.13719,-9.16053 -6.94206,-13.49243 0.26528,-0.25105 0.54303,-0.49497 0.8208,-0.72999 0.82793,-0.69617 2.07959,-1.95497 2.88081,-2.72769 2.88614,-2.80247 4.16453,-7.23228 1.91933,-9.59675 -0.61959,-0.65343 -1.96919,-1.30865 -3.5271,-1.23921 -1.02912,0.0498 -2.14903,0.41129 -3.21197,1.28728 -0.27954,0.22967 -1.88554,1.80184 -2.5532,1.08432 -0.16743,-0.19408 -0.27775,-0.55552 -0.27775,-1.13239 -1.53834,1.00776 -2.0529,2.38583 0.25637,3.57519 -0.0961,2.08494 -0.25637,4.37462 2.19176,6.11949 0,-0.90449 -0.18872,-1.50272 0.15304,-2.26655 0.30624,-0.6748 0.67479,-0.61959 0.67479,-1.81607 1.29262,0.13884 2.75973,-0.4665 2.10631,-1.7324 -2.51046,-0.44513 -0.83504,-2.51048 0.75847,-2.64223 0.79944,-0.0695 2.03686,0.11746 2.03686,2.64223 0,1.92112 -0.29911,2.5532 -3.01789,5.19541 -1.168,1.13417 -1.92648,1.72527 -2.64935,2.32352 -2.39296,-2.85765 -5.89157,-7.80381 -5.89157,-12.94938 0,-1.46177 0.5644,-7.09518 6.03758,-7.14327 3.08021,-0.0286 4.30518,2.35736 4.31229,5.46606 0.68194,-0.15305 1.40481,0.0214 1.96031,-0.95967 0.44512,4.87494 3.16568,6.50941 7.3035,6.28684 -0.86887,-0.43087 -2.15614,-0.98637 -2.15614,-4.27669 0,-2.65646 -0.75137,-4.06839 -2.60841,-5.08325 1.48137,-0.25818 1.6772,-1.03089 1.606,-1.96208 -1.2784,0.73 -2.20423,-0.12465 -4.06128,-0.0482 -1.16085,-1.71814 -3.34549,-2.32352 -5.95389,-2.32352 -5.75805,0 -9.00563,5.80792 -9.00563,10.51548 0,5.8916 3.75501,10.75941 6.69101,14.16723 -1.97631,2.22559 -2.41432,4.96574 -2.45527,6.6287 -0.0498,1.77335 0.008,3.42919 2.35736,7.19846 0.84215,1.35671 1.55791,2.62796 1.52942,3.95087 -0.0338,2.07959 -0.32582,4.52062 -4.32477,2.37159 -1.45465,-0.78697 -2.45528,-1.94784 -3.9028,-1.79472 -0.86175,-1.29442 -1.71104,-2.5176 -4.17343,-4.04167 -1.88375,-1.168 -3.83159,-2.39118 -4.54021,-4.10222 -0.8208,-1.94784 -3.06063,-4.08973 -4.99423,-6.1907 l -0.0481,-0.11045 c 0.84039,0.50743 2.21135,0.2564 3.53958,-0.0284 -1.76623,-1.44039 -1.18936,-1.83568 -1.28015,-2.53183 1.0576,0 1.85703,0.72288 3.47014,-0.75135 -1.86949,-0.80655 -2.39831,-1.606 -2.25942,-2.41255 v -3.40071 c 0.67479,0.73713 1.53655,1.20895 3.01078,0.75671 -0.0268,-1.16087 0.0148,-2.27366 0.15304,-3.24046 0.22257,-1.54368 0.52881,-1.78047 0.60537,-2.76151 1.76623,0.3276 1.64872,-0.95257 1.88551,-1.77335 -1.41904,-0.0765 -1.28015,-0.6748 -1.58639,-1.12704 1.4119,-0.1584 2.16327,-0.72289 1.96919,-1.88375 -0.57864,-0.32761 -1.18935,0.0214 -1.21071,-1.66295 -0.008,-0.69441 -0.55018,-1.36207 -0.90449,-2.03687 0.75848,-0.008 1.14842,-0.82081 1.35672,-1.81609 -2.23983,0.29911 -2.44815,-1.75911 -3.31168,-3.41495 l -13.03305,-1.05759 c -1.35674,-0.0765 -2.03154,1.13415 -3.07311,1.19646 -1.0309,0.0765 -1.53121,0.7585 -1.74663,1.62024 -1.23744,-0.14604 -1.94073,-0.0481 -2.60842,0 0.15324,0.58577 0.34899,1.91401 0.9953,1.94072 0.0695,0.87065 0.70863,1.87128 1.41904,2.19889 l 0.97392,1.52231 0.0268,-1.47424 c 1.26593,-0.34719 1.75911,-1.73241 2.62264,-0.11045 v 2.71167 c -1.41904,-0.70329 -2.30215,-1.50986 -6.42751,-1.4333 -0.876,-0.0196 -1.29263,-0.50743 -1.50093,-1.18935 0.8831,0.24394 1.31397,-0.14603 1.31397,-0.87598 0,-0.70153 -0.63384,-1.05761 -1.4119,-1.02912 -0.77273,0.0284 -1.40479,0.41662 -1.40479,1.28017 0,0.4451 -0.15305,2.90038 3.97045,2.84341 1.05048,-0.0196 1.95496,0.0765 2.76862,0.24391 l 0.0284,1.98168 c -0.32761,-0.0552 -0.68903,-0.13184 -1.10566,-0.23503 0,0.61071 0.041,1.00063 -0.15305,2.56567 l -0.45224,1.0576 c 0,0 -2.56032,-0.68192 -3.39359,-0.68192 -0.83504,0 -3.15143,0.84216 -4.8963,1.68254 -0.18163,-0.17978 -2.99832,-2.9627 -5.92006,-5.11887 -2.79535,-2.05822 -3.17103,-6.45421 -0.87601,-8.5961 0.79231,-0.89025 1.08431,-1.51519 0.77273,-2.54609 0.22255,-1.46711 -0.64809,-1.96742 -1.2944,-2.65647 z m 20.89385,4.42447 c 0.59112,0.0552 1.29974,0.41663 1.8143,0.96681 -0.86176,0.98639 -2.92176,1.61309 -2.87902,-0.14069 0.0148,-0.64632 0.47894,-0.88313 1.06472,-0.82616 z m -3.55561,8.12966 c 0.97392,0.20119 1.82321,0.52166 2.62264,0.91871 -0.15305,0.54838 -0.18696,1.15374 -1.39767,1.17511 z m 33.73998,17.56792 c 4.631,5.27912 5.93253,7.57413 5.93253,11.51789 -0.008,4.27669 -2.10096,6.05004 -4.31231,7.11477 1.42616,-1.39056 1.2232,-3.97045 -1.28016,-7.87325 -1.33535,-2.0796 -2.01015,-4.06839 -1.97455,-5.96637 0.041,-1.95496 0.68015,-3.4844 1.63449,-4.79304 z" /><path
       inkscape:connector-curvature="0"
       id="path4252"
       style="fill:#ffffff;fill-opacity:1;fill-rule:nonzero;stroke:none"
       d="m 385.58358,498.67296 c 0.5003,0.65343 1.00773,1.30686 1.14662,2.18998 -0.008,0 -0.008,0 -0.0129,0 -0.3828,0 -0.69617,0.30624 -0.69617,0.69616 0,0.38282 0.31337,0.68726 0.69617,0.68726 0.0338,0 0.0695,-0.0129 0.10326,-0.0196 0.15323,0.83327 0.72289,1.68256 2.18465,1.8143 0.86888,0.0765 1.35494,-0.40238 1.89799,-0.84749 0.77271,1.09855 1.88552,1.30685 3.28319,0.77805 1.0576,0.47361 2.51759,1.03625 3.42207,-0.24926 0.34007,0.52168 0.43087,0.92406 1.96742,1.09856 0.83497,0.0907 1.61305,-0.66057 2.05816,-1.55792 0.1121,0.0837 0.25104,0.14604 0.40416,0.14604 0.38281,0 0.69617,-0.31335 0.69617,-0.69615 0,-0.38279 -0.30624,-0.68192 -0.68191,-0.68905 0.19406,-0.7015 0.36855,-1.09855 1.48846,-1.81429 -1.07897,-0.18875 -2.36446,-0.49319 -2.47664,0.81366 -1.11991,-0.43087 -3.10159,1.14663 -1.18223,1.96743 1.02911,0.43801 0.38994,1.2036 -0.71575,0.91159 -1.07184,-0.27775 -1.02911,-0.64631 -1.48847,-1.41902 -0.44512,0.39703 -0.6481,1.64159 -2.64401,1.08609 -0.17278,-0.0498 -0.98639,-0.36856 0.68191,-0.6481 0.62674,-0.10326 0.7941,-1.76623 -0.57686,-1.62735 0.35432,-0.8208 0.68191,-1.77336 -0.68192,-1.86415 -0.9116,-0.0552 -0.95967,0.98104 -0.98105,1.69856 -1.29262,-0.0498 -1.54366,1.5223 -0.34006,1.79294 0.74424,0.16742 0.73712,0.59112 -0.0623,0.6481 -0.95256,0.0623 -1.55792,-0.77273 -2.08671,-1.65584 0.31337,-0.0623 0.55552,-0.33473 0.55552,-0.66768 0,-0.3828 -0.3116,-0.69617 -0.69439,-0.69617 -0.38993,0 -0.69617,0.31337 -0.69617,0.69617 0,0.38279 0.30624,0.69617 0.69617,0.69617 0.008,0 0.0214,-0.008 0.0338,-0.008 -0.40238,0.77096 -0.97392,1.26592 -1.87661,1.29261 -0.39705,0.008 -1.57217,-0.0837 -0.30624,-1.15373 0.22255,-0.18872 1.99589,-1.78047 -0.77984,-1.89977 0.0356,-1.55079 -1.168,-1.48847 -2.33599,-1.50094 z m 12.20514,2.41966 c -0.3828,0 -0.68725,0.31336 -0.68725,0.69618 0,0.38101 0.30445,0.69438 0.68725,0.69438 0.38993,0 0.69617,-0.31337 0.69617,-0.69438 0,-0.38282 -0.30624,-0.69618 -0.69617,-0.69618 z m -9.49348,2.99119 c -0.6463,-0.008 -1.09143,0.73713 -0.90447,1.27304 l 12.9654,1.04871 c 0.30623,-0.34007 0,-1.37632 -0.57154,-1.45288 -3.1087,-0.42375 -8.50532,-0.84215 -11.48939,-0.86887 z" /></g></svg>
