<?xml version="1.0" encoding="UTF-8" standalone="no"?>
<svg
   xmlns:dc="http://purl.org/dc/elements/1.1/"
   xmlns:cc="http://creativecommons.org/ns#"
   xmlns:rdf="http://www.w3.org/1999/02/22-rdf-syntax-ns#"
   xmlns:svg="http://www.w3.org/2000/svg"
   xmlns="http://www.w3.org/2000/svg"
   xmlns:sodipodi="http://sodipodi.sourceforge.net/DTD/sodipodi-0.dtd"
   xmlns:inkscape="http://www.inkscape.org/namespaces/inkscape"
   id="svg6693"
   version="1.1"
   xml:space="preserve"
   width="169.02838"
   height="186.31958"
   viewBox="0 0 169.02838 186.31957"
   inkscape:version="0.92.2 (5c3e80d, 2017-08-06)"
   inkscape:export-xdpi="567.95001"
   inkscape:export-ydpi="567.95001"
   sodipodi:docname="logo_apero_php.svg"
   inkscape:export-filename="/home/agallou/Projets/afup/identity/assets/apero_php/logo_apero_php.png"><sodipodi:namedview
     pagecolor="#ffffff"
     bordercolor="#666666"
     borderopacity="1"
     objecttolerance="10"
     gridtolerance="10"
     guidetolerance="10"
     inkscape:pageopacity="0"
     inkscape:pageshadow="2"
     inkscape:window-width="1853"
     inkscape:window-height="1025"
     id="namedview60"
     showgrid="false"
     inkscape:zoom="3.5826014"
     inkscape:cx="-12.726889"
     inkscape:cy="117.32578"
     inkscape:window-x="67"
     inkscape:window-y="27"
     inkscape:window-maximized="1"
     inkscape:current-layer="lion" /><metadata
     id="metadata6699"><rdf:RDF><cc:Work
         rdf:about=""><dc:format>image/svg+xml</dc:format><dc:type
           rdf:resource="http://purl.org/dc/dcmitype/StillImage" /><dc:title /></cc:Work></rdf:RDF></metadata><defs
     id="defs6697"><clipPath
       clipPathUnits="userSpaceOnUse"
       id="clipPath6707"><path
         d="m 0,870.236 623.626,0 L 623.626,0 0,0 0,870.236 Z"
         id="path6709" /></clipPath><clipPath
       clipPathUnits="userSpaceOnUse"
       id="clipPath6719"><path
         d="m 0,870.236 623.626,0 L 623.626,0 0,0 0,870.236 Z"
         id="path6721" /></clipPath><clipPath
       clipPathUnits="userSpaceOnUse"
       id="clipPath6731"><path
         d="m 0,870.236 623.626,0 L 623.626,0 0,0 0,870.236 Z"
         id="path6733" /></clipPath><clipPath
       id="clipPath4150"
       clipPathUnits="userSpaceOnUse"><path
         id="path4152"
         d="m 0,870.236 623.626,0 L 623.626,0 0,0 0,870.236 Z" /></clipPath><clipPath
       id="clipPath4162"
       clipPathUnits="userSpaceOnUse"><path
         id="path4164"
         d="m 0,870.236 623.626,0 L 623.626,0 0,0 0,870.236 Z" /></clipPath><clipPath
       id="clipPath4390"
       clipPathUnits="userSpaceOnUse"><path
         id="path4392"
         d="m 0,870.236 623.626,0 L 623.626,0 0,0 0,870.236 Z" /></clipPath><clipPath
       id="clipPath4398"
       clipPathUnits="userSpaceOnUse"><path
         id="path4400"
         d="m -80.514,14.173 -595.276,0 0,841.89 595.276,0 0,-841.89 z" /></clipPath><clipPath
       id="clipPath6707-4"
       clipPathUnits="userSpaceOnUse"><path
         id="path6709-2"
         d="m 0,870.236 623.626,0 L 623.626,0 0,0 0,870.236 Z" /></clipPath><clipPath
       id="clipPath6719-3"
       clipPathUnits="userSpaceOnUse"><path
         id="path6721-3"
         d="m 0,870.236 623.626,0 L 623.626,0 0,0 0,870.236 Z" /></clipPath><clipPath
       id="clipPath6731-1"
       clipPathUnits="userSpaceOnUse"><path
         id="path6733-5"
         d="m 0,870.236 623.626,0 L 623.626,0 0,0 0,870.236 Z" /></clipPath><clipPath
       clipPathUnits="userSpaceOnUse"
       id="clipPath4150-1"><path
         d="m 0,870.236 623.626,0 L 623.626,0 0,0 0,870.236 Z"
         id="path4152-0" /></clipPath><clipPath
       clipPathUnits="userSpaceOnUse"
       id="clipPath4162-3"><path
         d="m 0,870.236 623.626,0 L 623.626,0 0,0 0,870.236 Z"
         id="path4164-5" /></clipPath><clipPath
       clipPathUnits="userSpaceOnUse"
       id="clipPath4390-2"><path
         d="m 0,870.236 623.626,0 L 623.626,0 0,0 0,870.236 Z"
         id="path4392-2" /></clipPath><clipPath
       clipPathUnits="userSpaceOnUse"
       id="clipPath4398-1"><path
         d="m -80.514,14.173 -595.276,0 0,841.89 595.276,0 0,-841.89 z"
         id="path4400-4" /></clipPath></defs><g
     transform="matrix(1.2945423,0,0,1.2945423,-420.0547,-610.93861)"
     id="lion"><title
       id="title17040">lion</title><g
       id="g5080"
       transform="matrix(1.25,0,0,-1.25,-1.3964844e-4,1275.3973)"><path
         d="m 288.7891,571.9068 0,0 -21.482,-12.403 c 0.994,-1.721 2.433,-3.185 4.214,-4.213 l 17.268,-9.97 0,26.586 z"
         style="fill:#4c9edc;fill-opacity:1;fill-rule:nonzero;stroke:none"
         id="path5082-8" /><path
         d="m 265.7649,585.1998 0,-19.939 c 0,-2.057 0.549,-4.035 1.542,-5.756 l 21.482,12.402 -23.024,13.293 z"
         style="fill:#498cd2;fill-opacity:1;fill-rule:nonzero;stroke:none"
         id="path5084-8" /><path
         d="m 288.7891,571.9068 0,26.586 -23.024,-13.293 0,0 23.024,-13.293 z"
         style="fill:#487dc8;fill-opacity:1;fill-rule:nonzero;stroke:none"
         id="path5086-9" /><path
         d="m 288.7891,545.3209 0,0 17.268,-9.97 c 1.781,-1.028 3.769,-1.542 5.756,-1.542 l 0,24.805 -23.024,-13.293 z"
         style="fill:#5295d6;fill-opacity:1;fill-rule:nonzero;stroke:none"
         id="path5088-6" /><path
         d="m 267.3072,610.8954 c -0.994,-1.721 -1.542,-3.7 -1.542,-5.756 l 0,-19.94 23.024,13.293 -21.482,12.403 z"
         style="fill:#476bbc;fill-opacity:1;fill-rule:nonzero;stroke:none"
         id="path5090-0" /><path
         d="m 334.8373,545.3209 0,26.586 -23.024,-13.293 23.024,-13.293 z"
         style="fill:#7f9ad6;fill-opacity:1;fill-rule:nonzero;stroke:none"
         id="path5092-2" /><path
         d="m 356.3192,559.5043 c 0.994,1.721 1.542,3.7 1.542,5.756 l 0,19.939 -23.024,-13.293 21.482,-12.402 z"
         style="fill:#727ebd;fill-opacity:1;fill-rule:nonzero;stroke:none"
         id="path5094-5" /><path
         d="m 334.8373,571.9068 0,-26.586 17.268,9.97 c 1.781,1.028 3.22,2.492 4.214,4.214 l -21.482,12.402 z"
         style="fill:#8f9fd8;fill-opacity:1;fill-rule:nonzero;stroke:none"
         id="path5096-0" /><path
         d="m 334.8373,598.4928 0,0 0,-26.586 23.024,13.293 0,0 -23.024,13.293 z"
         style="fill:#425da2;fill-opacity:1;fill-rule:nonzero;stroke:none"
         id="path5098-9" /><path
         d="m 311.8132,558.6138 0,-24.805 c 1.987,0 3.975,0.514 5.756,1.542 l 17.268,9.97 -23.024,13.293 z"
         style="fill:#6495d5;fill-opacity:1;fill-rule:nonzero;stroke:none"
         id="path5100-5" /><path
         d="m 311.8132,611.7858 -23.024,13.293 0,-26.586 23.024,13.293 z"
         style="fill:#3a64ad;fill-opacity:1;fill-rule:nonzero;stroke:none"
         id="path5102-1" /><path
         d="m 311.8132,611.7858 23.024,-13.293 0,26.586 -23.024,-13.293 z"
         style="fill:#3a61a3;fill-opacity:1;fill-rule:nonzero;stroke:none"
         id="path5104-7" /><path
         d="m 267.3072,610.8954 21.482,-12.403 0,26.586 -17.268,-9.969 c -1.781,-1.029 -3.22,-2.493 -4.214,-4.214"
         style="fill:#32549d;fill-opacity:1;fill-rule:nonzero;stroke:none"
         id="path5106-7" /><path
         d="m 334.8373,598.4928 23.024,-13.293 0,19.939 c 0,2.057 -0.548,4.035 -1.542,5.757 l -21.482,-12.403 z"
         style="fill:#2f5296;fill-opacity:1;fill-rule:nonzero;stroke:none"
         id="path5108-7" /><path
         d="m 334.8373,598.4928 21.482,12.403 c -0.994,1.721 -2.433,3.185 -4.214,4.213 l -17.268,9.97 0,-26.586 z"
         style="fill:#325295;fill-opacity:1;fill-rule:nonzero;stroke:none"
         id="path5110-4" /><path
         d="m 334.8373,625.0788 -17.269,9.97 c -1.781,1.028 -3.768,1.542 -5.755,1.542 l 0,-24.805 23.024,13.293 z"
         style="fill:#4379c6;fill-opacity:1;fill-rule:nonzero;stroke:none"
         id="path5112-0" /><path
         d="m 311.8132,611.7858 0,24.805 c -1.987,0 -3.975,-0.514 -5.755,-1.542 l -17.269,-9.97 23.024,-13.293 z"
         style="fill:#3f73bd;fill-opacity:1;fill-rule:nonzero;stroke:none"
         id="path5114-8" /><path
         d="m 288.7891,545.3209 23.024,13.293 -23.024,13.293 0,-26.586 z"
         style="fill:#50a0dd;fill-opacity:1;fill-rule:nonzero;stroke:none"
         id="path5116-4" /><path
         id="path5118-4"
         style="fill:#425da2;fill-opacity:1;fill-rule:nonzero;stroke:none"
         d="m 288.7891,598.4929 0,0 0,-26.586 23.024,13.293 0,0 -23.024,13.293 z" /><path
         id="path5120-6"
         style="fill:#487dc8;fill-opacity:1;fill-rule:nonzero;stroke:none"
         d="m 334.8371,571.9069 0,26.586 -23.024,-13.293 0,0 23.024,-13.293 z" /><path
         id="path5122-9"
         transform="matrix(0.8,0,0,-0.8,1.1171875e-4,1020.3178)"
         d="m 389.76562,543.89648 0,0.002 -28.77929,16.61523 28.77929,16.61719 28.78126,-16.61719 -28.78126,-16.61719 z"
         style="fill:#3f73bd;fill-opacity:1;fill-rule:nonzero;stroke:none" /><path
         id="path5124-5"
         style="fill:#2f5296;fill-opacity:1;fill-rule:nonzero;stroke:none"
         d="m 311.8133,585.1998 0,26.586 -23.024,-13.293 23.024,-13.293 z" /><path
         id="path5126-1"
         style="fill:#498cd2;fill-opacity:1;fill-rule:nonzero;stroke:none"
         d="m 311.8132,585.1998 23.024,13.293 -23.024,13.293 0,-26.586 z" /></g><path
       style="fill:#ffffff;stroke-width:0.20682101"
       d="m 373.84011,574.30056 c -0.62563,-0.20494 -5.06909,-1.62712 -9.87436,-3.1604 -4.80526,-1.53329 -8.96882,-2.93979 -9.25236,-3.12557 -0.76659,-0.50229 -1.19932,-1.28444 -1.18862,-2.14844 0.005,-0.42286 0.48902,-2.01296 1.07509,-3.53355 0.58607,-1.52059 1.01779,-2.88926 0.95938,-3.04149 -0.0584,-0.15222 -1.06467,-0.57256 -2.23612,-0.93409 -2.67204,-0.82465 -3.86382,-1.41928 -4.82706,-2.40846 -1.24905,-1.2827 -1.80724,-2.6006 -1.90656,-4.50143 -0.0851,-1.62819 -0.0528,-1.76011 2.02456,-8.27284 1.16105,-3.64005 2.32435,-7.04082 2.5851,-7.55727 0.58725,-1.16314 2.09009,-2.57316 3.37027,-3.16213 1.58343,-0.72848 3.92919,-0.61801 6.6546,0.3134 2.5174,0.86032 2.53298,0.85526 3.00824,-0.97624 0.17609,-0.67861 0.43406,-1.34875 0.57326,-1.48919 0.20052,-0.2023 2.61507,0.49547 11.62405,3.35917 12.06192,3.83414 13.1291,4.19266 13.12862,4.41054 -1.6e-4,0.0759 -0.77844,2.37168 -1.7295,5.10172 -3.88169,11.14251 -7.42792,22.25235 -8.61518,26.99014 -0.35632,1.42189 -0.83593,2.88999 -1.0658,3.26244 -0.80603,1.30598 -2.15358,1.5793 -4.30761,0.87369 z m -15.35626,-23.42219 c 3.12506,-9.95983 3.76803,-12.24576 3.51164,-12.48473 -0.37781,-0.35213 -4.08845,-1.52811 -4.80498,-1.52279 -1.29428,0.01 -1.44517,0.30618 -3.63528,7.14523 -1.12669,3.51832 -2.04926,6.73564 -2.05016,7.14961 -0.003,1.17179 0.48657,1.56821 2.89387,2.34548 1.19439,0.38565 2.36484,0.70722 2.60101,0.71461 0.37624,0.0118 0.55992,-0.40258 1.4839,-3.34741 z m 43.75249,23.43085 c -0.88603,-0.54024 -1.10954,-1.04539 -2.01696,-4.55843 -1.27971,-4.95433 -4.18852,-14.00945 -8.79422,-27.37641 -0.81789,-2.37373 -1.40961,-4.38901 -1.31492,-4.4784 0.0947,-0.0894 5.61101,-1.8901 12.25852,-4.00159 8.45309,-2.685 12.16165,-3.77659 12.33677,-3.63125 0.13772,0.1143 0.41565,0.8183 0.61763,1.56446 0.20197,0.74615 0.49352,1.40511 0.64788,1.46434 0.15436,0.0592 1.44783,-0.24134 2.87438,-0.66795 2.93907,-0.87893 4.39384,-0.91368 6.12847,-0.14637 1.25544,0.55534 2.76569,1.96787 3.36182,3.14428 0.26307,0.51913 1.42686,3.9199 2.5862,7.55727 2.07474,6.50934 2.10654,6.63942 2.02076,8.26796 -0.063,1.19592 -0.21999,1.91255 -0.56635,2.58526 -1.1984,2.32756 -2.31307,3.13469 -5.86431,4.24635 -1.34525,0.42111 -2.48776,0.8747 -2.5389,1.00798 -0.0511,0.13328 0.42455,1.61276 1.05709,3.28775 1.04316,2.7623 1.13049,3.11818 0.93933,3.82809 -0.4337,1.61065 -0.56553,1.66979 -11.41861,5.12305 -5.90511,1.8789 -10.33655,3.18242 -10.82517,3.18424 -0.46148,0.002 -1.12006,-0.17542 -1.48941,-0.40063 z m 22.89342,-20.80237 c 2.47169,-0.79904 2.89745,-1.1439 2.89745,-2.34684 0,-0.39167 -0.88953,-3.51206 -1.97674,-6.93419 -2.5799,-8.12054 -2.45677,-7.99236 -6.40743,-6.6699 -1.6424,0.54978 -2.07309,0.77594 -2.12343,1.11502 -0.0784,0.52813 3.99905,14.18733 4.53928,15.20633 0.26208,0.49434 0.47557,0.46858 3.07087,-0.37042 z m -43.74309,-27.31068 c -3.18372,-3.59351 -5.81639,-6.60863 -5.85038,-6.70027 -0.0914,-0.24643 5.71067,-3.55652 6.10047,-3.48032 0.24048,0.047 1.10218,2.36493 3.09344,8.32119 1.51805,4.54082 2.7601,8.28687 2.7601,8.32455 0,0.34859 -1.08672,-0.8025 -6.10363,-6.46515 z m 10.66073,6.18895 c 0.012,-0.29545 10.63748,-17.30189 10.85346,-17.37145 0.22898,-0.0737 5.96944,5.24653 6.04122,5.59901 0.0405,0.19866 -16.06374,11.66547 -16.66438,11.86568 -0.13053,0.0435 -0.23417,0.002 -0.2303,-0.0932 z m -2.05943,-6.94573 c -0.12117,-0.5972 -0.72603,-3.5486 -1.34412,-6.55868 -0.6181,-3.01007 -1.07847,-5.54622 -1.02306,-5.63587 0.13456,-0.21772 5.39999,-0.21038 5.53478,0.008 0.0809,0.13082 -1.85648,10.20715 -2.4624,12.8073 -0.18168,0.77964 -0.47313,0.52321 -0.7052,-0.62046 z"
       id="path937"
       inkscape:connector-curvature="0" /></g></svg>