<?xml version="1.0" encoding="UTF-8" standalone="no"?>
<!-- Created with Inkscape (http://www.inkscape.org/) -->

<svg
   xmlns:dc="http://purl.org/dc/elements/1.1/"
   xmlns:cc="http://creativecommons.org/ns#"
   xmlns:rdf="http://www.w3.org/1999/02/22-rdf-syntax-ns#"
   xmlns:svg="http://www.w3.org/2000/svg"
   xmlns="http://www.w3.org/2000/svg"
   xmlns:sodipodi="http://sodipodi.sourceforge.net/DTD/sodipodi-0.dtd"
   xmlns:inkscape="http://www.inkscape.org/namespaces/inkscape"
   id="svg5462"
   version="1.1"
   inkscape:version="0.91 r13725"
   xml:space="preserve"
   width="213.5985"
   height="101.51938"
   viewBox="0 0 213.5985 101.51937"
   sodipodi:docname="phptour-logo.svg"><metadata
     id="metadata5468"><rdf:RDF><cc:Work
         rdf:about=""><dc:format>image/svg+xml</dc:format><dc:type
           rdf:resource="http://purl.org/dc/dcmitype/StillImage" /><dc:title></dc:title></cc:Work></rdf:RDF></metadata><defs
     id="defs5466"><clipPath
       clipPathUnits="userSpaceOnUse"
       id="clipPath5476"><path
         d="m 0,870.236 623.626,0 L 623.626,0 0,0 0,870.236 Z"
         id="path5478"
         inkscape:connector-curvature="0" /></clipPath><clipPath
       clipPathUnits="userSpaceOnUse"
       id="clipPath5560"><path
         d="m 0,870.236 623.626,0 L 623.626,0 0,0 0,870.236 Z"
         id="path5562"
         inkscape:connector-curvature="0" /></clipPath><clipPath
       clipPathUnits="userSpaceOnUse"
       id="clipPath5668"><path
         d="m 0,870.236 623.626,0 L 623.626,0 0,0 0,870.236 Z"
         id="path5670"
         inkscape:connector-curvature="0" /></clipPath></defs><sodipodi:namedview
     pagecolor="#ffffff"
     bordercolor="#666666"
     borderopacity="1"
     objecttolerance="10"
     gridtolerance="10"
     guidetolerance="10"
     inkscape:pageopacity="0"
     inkscape:pageshadow="2"
     inkscape:window-width="1920"
     inkscape:window-height="1031"
     id="namedview5464"
     showgrid="false"
     fit-margin-top="1"
     fit-margin-left="1"
     fit-margin-right="1"
     fit-margin-bottom="1"
     inkscape:zoom="6.616304"
     inkscape:cx="106.79925"
     inkscape:cy="50.759688"
     inkscape:window-x="0"
     inkscape:window-y="1"
     inkscape:window-maximized="1"
     inkscape:current-layer="g5470" /><g
     id="g5470"
     inkscape:groupmode="layer"
     inkscape:label="afup-logos-RGB(editable)"
     transform="matrix(1.25,0,0,-1.25,-407.67875,670.90975)"><g
       id="g5556"><g
         id="g5558"
         clip-path="url(#clipPath5560)"><g
           id="g5564"
           transform="translate(451.391,488.1593)"><path
             d="m 0,0 9.192,-15.921 0.005,0 L 18.39,0 0,0 Z"
             style="fill:#87a2d4;fill-opacity:1;fill-rule:nonzero;stroke:none"
             id="path5566"
             inkscape:connector-curvature="0" /></g><g
           id="g5568"
           transform="translate(469.7779,520.0064)"><path
             d="m 0,0 9.192,-15.921 0.005,0 L 18.39,0 0,0 Z"
             style="fill:#416bb2;fill-opacity:1;fill-rule:nonzero;stroke:none"
             id="path5570"
             inkscape:connector-curvature="0" /></g><g
           id="g5572"
           transform="translate(460.5884,472.2381)"><path
             d="m 0,0 14.138,0 c 1.314,0 2.578,0.35 3.677,0.985 L 9.192,15.921 0,0 Z"
             style="fill:#6499d1;fill-opacity:1;fill-rule:nonzero;stroke:none"
             id="path5574"
             inkscape:connector-curvature="0" /></g><g
           id="g5576"
           transform="translate(414.6145,456.3123)"><path
             d="m 0,0 14.138,0 c 1.314,0 2.578,0.35 3.677,0.985 L 9.192,15.921 0,0 Z"
             style="fill:#2d508b;fill-opacity:1;fill-rule:nonzero;stroke:none"
             id="path5578"
             inkscape:connector-curvature="0" /></g><g
           id="g5580"
           transform="translate(469.7885,520.0064)"><path
             d="m 0,0 -9.192,15.921 -0.005,0 L -18.39,0 0,0 Z"
             style="fill:#337bbd;fill-opacity:1;fill-rule:nonzero;stroke:none"
             id="path5582"
             inkscape:connector-curvature="0" /></g><g
           id="g5584"
           transform="translate(478.4064,534.9423)"><path
             d="m 0,0 c -1.1,0.635 -2.364,0.985 -3.677,0.985 l -14.138,0 9.192,-15.921 L 0,0 Z"
             style="fill:#2e73b4;fill-opacity:1;fill-rule:nonzero;stroke:none"
             id="path5586"
             inkscape:connector-curvature="0" /></g><g
           id="g5588"
           transform="translate(488.1675,520.0064)"><path
             d="m 0,0 -7.069,12.244 c -0.657,1.138 -1.592,2.057 -2.692,2.692 L -18.384,0 0,0 Z"
             style="fill:#2e63a3;fill-opacity:1;fill-rule:nonzero;stroke:none"
             id="path5590"
             inkscape:connector-curvature="0" /></g><g
           id="g5592"
           transform="translate(469.7832,488.1639)"><path
             d="M 0,0 18.384,0 18.387,0.005 9.195,15.926 0,0 Z"
             style="fill:#368ccb;fill-opacity:1;fill-rule:nonzero;stroke:none"
             id="path5594"
             inkscape:connector-curvature="0" /></g><g
           id="g5596"
           transform="translate(442.1962,472.2335)"><path
             d="M 0,0 18.384,0 18.387,0.005 9.195,15.926 0,0 Z"
             style="fill:#98a9d7;fill-opacity:1;fill-rule:nonzero;stroke:none"
             id="path5598"
             inkscape:connector-curvature="0" /></g><g
           id="g5600"
           transform="translate(496.2218,504.0852)"><path
             d="M 0,0 C 0,1.27 -0.328,2.54 -0.985,3.677 L -8.054,15.921 -17.246,0 0,0 Z"
             style="fill:#3c7fc0;fill-opacity:1;fill-rule:nonzero;stroke:none"
             id="path5602"
             inkscape:connector-curvature="0" /></g><g
           id="g5604"
           transform="translate(488.1675,488.1639)"><path
             d="m 0,0 7.069,12.244 c 0.657,1.138 0.985,2.407 0.985,3.677 l -17.246,0 L 0,0 Z"
             style="fill:#368ccb;fill-opacity:1;fill-rule:nonzero;stroke:none"
             id="path5606"
             inkscape:connector-curvature="0" /></g><g
           id="g5608"
           transform="translate(478.4038,473.2234)"><path
             d="m 0,0 c 1.1,0.635 2.035,1.554 2.692,2.692 l 7.069,12.244 -18.384,0 L 0,0 Z"
             style="fill:#4495d1;fill-opacity:1;fill-rule:nonzero;stroke:none"
             id="path5610"
             inkscape:connector-curvature="0" /></g><g
           id="g5612"
           transform="translate(433.0014,488.1593)"><path
             d="m 0,0 9.192,-15.921 -0.003,-0.005 -18.384,0 L 0,0 Z"
             style="fill:#415e99;fill-opacity:1;fill-rule:nonzero;stroke:none"
             id="path5614"
             inkscape:connector-curvature="0" /></g><g
           id="g5616"
           transform="translate(442.1909,472.2335)"><path
             d="m 0,0 -7.069,-12.244 c -0.657,-1.138 -1.592,-2.057 -2.692,-2.692 L -18.384,0 0,0 Z"
             style="fill:#264f8b;fill-opacity:1;fill-rule:nonzero;stroke:none"
             id="path5618"
             inkscape:connector-curvature="0" /></g><g
           id="g5620"
           transform="translate(451.3989,520.0064)"><path
             d="m 0,0 -14.138,0 c -1.314,0 -2.578,0.35 -3.677,0.985 L -9.192,15.921 0,0 Z"
             style="fill:#2d508b;fill-opacity:1;fill-rule:nonzero;stroke:none"
             id="path5622"
             inkscape:connector-curvature="0" /></g><g
           id="g5624"
           transform="translate(423.8014,472.2335)"><path
             d="m 0,0 -9.192,-15.921 -0.005,0 L -18.39,0 0,0 Z"
             style="fill:#32619a;fill-opacity:1;fill-rule:nonzero;stroke:none"
             id="path5626"
             inkscape:connector-curvature="0" /></g><g
           id="g5628"
           transform="translate(451.391,488.1593)"><path
             d="m 0,0 -9.192,-15.921 -0.005,0 L -18.39,0 0,0 Z"
             style="fill:#7a86ba;fill-opacity:1;fill-rule:nonzero;stroke:none"
             id="path5630"
             inkscape:connector-curvature="0" /></g><g
           id="g5632"
           transform="translate(460.5911,535.9277)"><path
             d="m 0,0 -9.192,-15.921 -0.005,0 L -18.39,0 0,0 Z"
             style="fill:#32619a;fill-opacity:1;fill-rule:nonzero;stroke:none"
             id="path5634"
             inkscape:connector-curvature="0" /></g><g
           id="g5636"
           transform="translate(396.7938,457.2976)"><path
             d="m 0,0 c -1.1,0.635 -2.035,1.554 -2.692,2.692 l -7.069,12.244 18.384,0 L 0,0 Z"
             style="fill:#2e73b4;fill-opacity:1;fill-rule:nonzero;stroke:none"
             id="path5638"
             inkscape:connector-curvature="0" /></g><g
           id="g5640"
           transform="translate(414.6092,456.3123)"><path
             d="m 0,0 -14.138,0 c -1.314,0 -2.578,0.35 -3.677,0.985 L -9.192,15.921 0,0 Z"
             style="fill:#337bbd;fill-opacity:1;fill-rule:nonzero;stroke:none"
             id="path5642"
             inkscape:connector-curvature="0" /></g><g
           id="g5644"
           transform="translate(433.5835,520.9918)"><path
             d="m 0,0 c -1.1,0.635 -2.035,1.554 -2.692,2.692 l -7.069,12.244 18.384,0 L 0,0 Z"
             style="fill:#264f8b;fill-opacity:1;fill-rule:nonzero;stroke:none"
             id="path5646"
             inkscape:connector-curvature="0" /></g></g></g><path
       inkscape:connector-curvature="0"
       id="path6312"
       style="font-variant:normal;font-weight:bold;font-stretch:condensed;font-size:medium;font-family:'Roboto Condensed';-inkscape-font-specification:RobotoCondensed-Bold;writing-mode:lr-tb;fill:#1d2241;fill-opacity:1;fill-rule:nonzero;stroke:none"
       d="m 330.98971,501.7441 0,-6 -3.44532,0 0,17.0625 5.8125,0 q 2.53125,0 4.03125,-1.57031 1.51172,-1.57032 1.51172,-4.07813 0,-2.50781 -1.48828,-3.96094 -1.48828,-1.45312 -4.125,-1.45312 l -2.29687,0 z m 0,2.87109 2.36718,0 q 0.98438,0 1.52344,0.64453 0.53906,0.64454 0.53906,1.875 0,1.27735 -0.55078,2.02735 -0.55078,0.76172 -1.47656,0.77344 l -2.40234,0 0,-5.32032 z" /><path
       inkscape:connector-curvature="0"
       id="path6314"
       style="font-variant:normal;font-weight:bold;font-stretch:condensed;font-size:medium;font-family:'Roboto Condensed';-inkscape-font-specification:RobotoCondensed-Bold;writing-mode:lr-tb;fill:#1d2241;fill-opacity:1;fill-rule:nonzero;stroke:none"
       d="m 352.99724,495.7441 -3.4336,0 0,7.30078 -5.08593,0 0,-7.30078 -3.44532,0 0,17.0625 3.44532,0 0,-6.90234 5.08593,0 0,6.90234 3.4336,0 0,-17.0625 z" /><path
       inkscape:connector-curvature="0"
       id="path6316"
       style="font-variant:normal;font-weight:bold;font-stretch:condensed;font-size:medium;font-family:'Roboto Condensed';-inkscape-font-specification:RobotoCondensed-Bold;writing-mode:lr-tb;fill:#1d2241;fill-opacity:1;fill-rule:nonzero;stroke:none"
       d="m 359.24251,501.7441 0,-6 -3.44532,0 0,17.0625 5.8125,0 q 2.53125,0 4.03125,-1.57031 1.51172,-1.57032 1.51172,-4.07813 0,-2.50781 -1.48828,-3.96094 -1.48828,-1.45312 -4.125,-1.45312 l -2.29687,0 z m 0,2.87109 2.36718,0 q 0.98438,0 1.52344,0.64453 0.53906,0.64454 0.53906,1.875 0,1.27735 -0.55078,2.02735 -0.55078,0.76172 -1.47656,0.77344 l -2.40234,0 0,-5.32032 z" /><path
       inkscape:connector-curvature="0"
       id="path6303"
       style="font-variant:normal;font-weight:normal;font-stretch:condensed;font-size:medium;font-family:'Roboto Condensed';-inkscape-font-specification:RobotoCondensed-Regular;writing-mode:lr-tb;fill:#1d2241;fill-opacity:1;fill-rule:nonzero;stroke:none"
       d="m 379.5538,510.95504 -4.48828,0 0,-15.21094 -2.14453,0 0,15.21094 -4.47656,0 0,1.85156 11.10937,0 0,-1.85156 z" /><path
       inkscape:connector-curvature="0"
       id="path6305"
       style="font-variant:normal;font-weight:normal;font-stretch:condensed;font-size:medium;font-family:'Roboto Condensed';-inkscape-font-specification:RobotoCondensed-Regular;writing-mode:lr-tb;fill:#1d2241;fill-opacity:1;fill-rule:nonzero;stroke:none"
       d="m 392.8708,502.77535 q 0,-3.49219 -1.48828,-5.37891 -1.48828,-1.88672 -4.23047,-1.88672 -2.63672,0 -4.17187,1.82813 -1.52344,1.83984 -1.58204,5.19141 l 0,3.21093 q 0,3.42188 1.51172,5.35547 1.51172,1.94531 4.21875,1.94531 2.69532,0 4.19532,-1.86328 1.51171,-1.85156 1.54687,-5.29687 l 0,-3.10547 z m -2.14453,2.98828 q 0,2.70703 -0.89063,4.01953 -0.8789,1.32422 -2.70703,1.32422 -1.76953,0 -2.68359,-1.33594 -0.90234,-1.33593 -0.91406,-3.9375 l 0,-3.05859 q 0,-2.61328 0.90234,-3.98438 0.91406,-1.37109 2.71875,-1.37109 1.80469,0 2.67188,1.26563 0.86718,1.26562 0.90234,3.8789 l 0,3.19922 z" /><path
       inkscape:connector-curvature="0"
       id="path6307"
       style="font-variant:normal;font-weight:normal;font-stretch:condensed;font-size:medium;font-family:'Roboto Condensed';-inkscape-font-specification:RobotoCondensed-Regular;writing-mode:lr-tb;fill:#1d2241;fill-opacity:1;fill-rule:nonzero;stroke:none"
       d="m 406.37862,512.8066 0,-12.12891 q -0.0234,-2.42578 -1.40625,-3.79687 -1.38281,-1.3711 -3.85547,-1.3711 -2.53125,0 -3.86719,1.33594 -1.33593,1.34766 -1.35937,3.83203 l 0,12.12891 2.13281,0 0,-12.04688 q 0,-1.72265 0.72656,-2.57812 0.73828,-0.84375 2.36719,-0.84375 1.64063,0 2.36719,0.84375 0.73828,0.85547 0.73828,2.57812 l 0,12.04688 2.15625,0 z" /><path
       inkscape:connector-curvature="0"
       id="path6309"
       style="font-variant:normal;font-weight:normal;font-stretch:condensed;font-size:medium;font-family:'Roboto Condensed';-inkscape-font-specification:RobotoCondensed-Regular;writing-mode:lr-tb;fill:#1d2241;fill-opacity:1;fill-rule:nonzero;stroke:none"
       d="m 414.9206,502.64644 -3,0 0,-6.90234 -2.15625,0 0,17.0625 4.78125,0 q 2.50781,0 3.79687,-1.3125 1.28906,-1.30078 1.28906,-3.82031 0,-1.58203 -0.70312,-2.76563 -0.69141,-1.17187 -1.96875,-1.76953 l 3.30469,-7.25391 0,-0.14062 -2.3086,0 -3.03515,6.90234 z m -3,1.83985 2.60156,0 q 1.34765,0 2.14453,0.86718 0.80859,0.86719 0.80859,2.32032 0,3.28125 -2.97656,3.28125 l -2.57812,0 0,-6.46875 z" /><text
       transform="matrix(1,0,0,-1,421.2853,495.7441)"
       style="font-variant:normal;font-weight:bold;font-stretch:condensed;font-size:24px;font-family:'Roboto Condensed';-inkscape-font-specification:RobotoCondensed-Bold;writing-mode:lr-tb;fill:#36a7df;fill-opacity:1;fill-rule:nonzero;stroke:none"
       id="text5656"><tspan
         x="0 11.844 23.452801"
         y="0"
         sodipodi:role="line"
         id="tspan5658">2017</tspan></text>
<text
       transform="matrix(1,0,0,-1,326.229,481.73)"
       style="font-variant:normal;font-weight:normal;font-stretch:normal;font-size:14px;font-family:Belgrano;-inkscape-font-specification:Belgrano-Regular;writing-mode:lr-tb;fill:#1d2241;fill-opacity:1;fill-rule:nonzero;stroke:none"
       id="text5660"><tspan
         sodipodi:role="line"
         id="tspan5662"
         x="0"
         y="0">City Name</tspan></text>
</g></svg>