<?xml version="1.0" encoding="UTF-8" standalone="no"?>
<!-- Created with Inkscape (http://www.inkscape.org/) -->

<svg
   xmlns:dc="http://purl.org/dc/elements/1.1/"
   xmlns:cc="http://creativecommons.org/ns#"
   xmlns:rdf="http://www.w3.org/1999/02/22-rdf-syntax-ns#"
   xmlns:svg="http://www.w3.org/2000/svg"
   xmlns="http://www.w3.org/2000/svg"
   xmlns:sodipodi="http://sodipodi.sourceforge.net/DTD/sodipodi-0.dtd"
   xmlns:inkscape="http://www.inkscape.org/namespaces/inkscape"
   id="svg2"
   version="1.1"
   inkscape:version="0.91 r13725"
   xml:space="preserve"
   width="213.5985"
   height="101.51938"
   viewBox="0 0 213.5985 101.51937"
   sodipodi:docname="phptour-logo-2016-clermont-ferrand.svg"
   inkscape:export-filename="/Users/woecifaun/Dev/afup/identity/assets/phptour/phptour-logo-2016-clermont-ferrand.png"
   inkscape:export-xdpi="421.35001"
   inkscape:export-ydpi="421.35001"><metadata
     id="metadata8"><rdf:RDF><cc:Work
         rdf:about=""><dc:format>image/svg+xml</dc:format><dc:type
           rdf:resource="http://purl.org/dc/dcmitype/StillImage" /><dc:title></dc:title></cc:Work></rdf:RDF></metadata><defs
     id="defs6"><clipPath
       clipPathUnits="userSpaceOnUse"
       id="clipPath16"><path
         d="m 0,870.236 623.626,0 L 623.626,0 0,0 0,870.236 Z"
         id="path18"
         inkscape:connector-curvature="0" /></clipPath><clipPath
       clipPathUnits="userSpaceOnUse"
       id="clipPath100"><path
         d="m 0,870.236 623.626,0 L 623.626,0 0,0 0,870.236 Z"
         id="path102"
         inkscape:connector-curvature="0" /></clipPath><clipPath
       clipPathUnits="userSpaceOnUse"
       id="clipPath208"><path
         d="m 0,870.236 623.626,0 L 623.626,0 0,0 0,870.236 Z"
         id="path210"
         inkscape:connector-curvature="0" /></clipPath></defs><sodipodi:namedview
     pagecolor="#ffffff"
     bordercolor="#666666"
     borderopacity="1"
     objecttolerance="10"
     gridtolerance="10"
     guidetolerance="10"
     inkscape:pageopacity="0"
     inkscape:pageshadow="2"
     inkscape:window-width="1920"
     inkscape:window-height="1031"
     id="namedview4"
     showgrid="false"
     inkscape:zoom="3.308152"
     inkscape:cx="106.79925"
     inkscape:cy="50.759687"
     inkscape:window-x="0"
     inkscape:window-y="1"
     inkscape:window-maximized="1"
     inkscape:current-layer="g10"
     fit-margin-top="1"
     fit-margin-left="1"
     fit-margin-right="1"
     fit-margin-bottom="1" /><g
     id="g10"
     inkscape:groupmode="layer"
     inkscape:label="afup-logos-RGB(editable)"
     transform="matrix(1.25,0,0,-1.25,-407.67875,670.90975)"><path
       inkscape:connector-curvature="0"
       id="path106"
       style="fill:#87a2d4;fill-opacity:1;fill-rule:nonzero;stroke:none"
       d="m 451.391,488.1593 9.192,-15.921 0.005,0 9.193,15.921 -18.39,0 z" /><path
       inkscape:connector-curvature="0"
       id="path110"
       style="fill:#416bb2;fill-opacity:1;fill-rule:nonzero;stroke:none"
       d="m 469.7779,520.0064 9.192,-15.921 0.005,0 9.193,15.921 -18.39,0 z" /><path
       inkscape:connector-curvature="0"
       id="path114"
       style="fill:#6499d1;fill-opacity:1;fill-rule:nonzero;stroke:none"
       d="m 460.5884,472.2381 14.138,0 c 1.314,0 2.578,0.35 3.677,0.985 l -8.623,14.936 -9.192,-15.921 z" /><path
       inkscape:connector-curvature="0"
       id="path118"
       style="fill:#2d508b;fill-opacity:1;fill-rule:nonzero;stroke:none"
       d="m 414.6145,456.3123 14.138,0 c 1.314,0 2.578,0.35 3.677,0.985 l -8.623,14.936 -9.192,-15.921 z" /><path
       inkscape:connector-curvature="0"
       id="path122"
       style="fill:#337bbd;fill-opacity:1;fill-rule:nonzero;stroke:none"
       d="m 469.7885,520.0064 -9.192,15.921 -0.005,0 -9.193,-15.921 18.39,0 z" /><path
       inkscape:connector-curvature="0"
       id="path126"
       style="fill:#2e73b4;fill-opacity:1;fill-rule:nonzero;stroke:none"
       d="m 478.4064,534.9423 c -1.1,0.635 -2.364,0.985 -3.677,0.985 l -14.138,0 9.192,-15.921 8.623,14.936 z" /><path
       inkscape:connector-curvature="0"
       id="path130"
       style="fill:#2e63a3;fill-opacity:1;fill-rule:nonzero;stroke:none"
       d="m 488.1675,520.0064 -7.069,12.244 c -0.657,1.138 -1.592,2.057 -2.692,2.692 l -8.623,-14.936 18.384,0 z" /><path
       inkscape:connector-curvature="0"
       id="path134"
       style="fill:#368ccb;fill-opacity:1;fill-rule:nonzero;stroke:none"
       d="m 469.7832,488.1639 18.384,0 0.003,0.005 -9.192,15.921 -9.195,-15.926 z" /><path
       inkscape:connector-curvature="0"
       id="path138"
       style="fill:#98a9d7;fill-opacity:1;fill-rule:nonzero;stroke:none"
       d="m 442.1962,472.2335 18.384,0 0.003,0.005 -9.192,15.921 -9.195,-15.926 z" /><path
       inkscape:connector-curvature="0"
       id="path142"
       style="fill:#3c7fc0;fill-opacity:1;fill-rule:nonzero;stroke:none"
       d="m 496.2218,504.0852 c 0,1.27 -0.328,2.54 -0.985,3.677 l -7.069,12.244 -9.192,-15.921 17.246,0 z" /><path
       inkscape:connector-curvature="0"
       id="path146"
       style="fill:#368ccb;fill-opacity:1;fill-rule:nonzero;stroke:none"
       d="m 488.1675,488.1639 7.069,12.244 c 0.657,1.138 0.985,2.407 0.985,3.677 l -17.246,0 9.192,-15.921 z" /><path
       inkscape:connector-curvature="0"
       id="path150"
       style="fill:#4495d1;fill-opacity:1;fill-rule:nonzero;stroke:none"
       d="m 478.4038,473.2234 c 1.1,0.635 2.035,1.554 2.692,2.692 l 7.069,12.244 -18.384,0 8.623,-14.936 z" /><path
       inkscape:connector-curvature="0"
       id="path154"
       style="fill:#415e99;fill-opacity:1;fill-rule:nonzero;stroke:none"
       d="m 433.0014,488.1593 9.192,-15.921 -0.003,-0.005 -18.384,0 9.195,15.926 z" /><path
       inkscape:connector-curvature="0"
       id="path158"
       style="fill:#264f8b;fill-opacity:1;fill-rule:nonzero;stroke:none"
       d="m 442.1909,472.2335 -7.069,-12.244 c -0.657,-1.138 -1.592,-2.057 -2.692,-2.692 l -8.623,14.936 18.384,0 z" /><path
       inkscape:connector-curvature="0"
       id="path162"
       style="fill:#2d508b;fill-opacity:1;fill-rule:nonzero;stroke:none"
       d="m 451.3989,520.0064 -14.138,0 c -1.314,0 -2.578,0.35 -3.677,0.985 l 8.623,14.936 9.192,-15.921 z" /><path
       inkscape:connector-curvature="0"
       id="path166"
       style="fill:#32619a;fill-opacity:1;fill-rule:nonzero;stroke:none"
       d="m 423.8014,472.2335 -9.192,-15.921 -0.005,0 -9.193,15.921 18.39,0 z" /><path
       inkscape:connector-curvature="0"
       id="path170"
       style="fill:#7a86ba;fill-opacity:1;fill-rule:nonzero;stroke:none"
       d="m 451.391,488.1593 -9.192,-15.921 -0.005,0 -9.193,15.921 18.39,0 z" /><path
       inkscape:connector-curvature="0"
       id="path174"
       style="fill:#32619a;fill-opacity:1;fill-rule:nonzero;stroke:none"
       d="m 460.5911,535.9277 -9.192,-15.921 -0.005,0 -9.193,15.921 18.39,0 z" /><path
       inkscape:connector-curvature="0"
       id="path178"
       style="fill:#2e73b4;fill-opacity:1;fill-rule:nonzero;stroke:none"
       d="m 396.7938,457.2976 c -1.1,0.635 -2.035,1.554 -2.692,2.692 l -7.069,12.244 18.384,0 -8.623,-14.936 z" /><path
       inkscape:connector-curvature="0"
       id="path182"
       style="fill:#337bbd;fill-opacity:1;fill-rule:nonzero;stroke:none"
       d="m 414.6092,456.3123 -14.138,0 c -1.314,0 -2.578,0.35 -3.677,0.985 l 8.623,14.936 9.192,-15.921 z" /><path
       inkscape:connector-curvature="0"
       id="path186"
       style="fill:#264f8b;fill-opacity:1;fill-rule:nonzero;stroke:none"
       d="m 433.5835,520.9918 c -1.1,0.635 -2.035,1.554 -2.692,2.692 l -7.069,12.244 18.384,0 -8.623,-14.936 z" /><path
       inkscape:connector-curvature="0"
       id="path4544"
       style="font-variant:normal;font-weight:bold;font-stretch:condensed;font-size:medium;font-family:'Roboto Condensed';-inkscape-font-specification:RobotoCondensed-Bold;writing-mode:lr-tb;fill:#1d2241;fill-opacity:1;fill-rule:nonzero;stroke:none"
       d="m 330.98971,501.7441 0,-6 -3.44532,0 0,17.0625 5.8125,0 q 2.53125,0 4.03125,-1.57031 1.51172,-1.57032 1.51172,-4.07813 0,-2.50781 -1.48828,-3.96094 -1.48828,-1.45312 -4.125,-1.45312 l -2.29687,0 z m 0,2.87109 2.36718,0 q 0.98438,0 1.52344,0.64453 0.53906,0.64454 0.53906,1.875 0,1.27735 -0.55078,2.02735 -0.55078,0.76172 -1.47656,0.77344 l -2.40234,0 0,-5.32032 z" /><path
       inkscape:connector-curvature="0"
       id="path4546"
       style="font-variant:normal;font-weight:bold;font-stretch:condensed;font-size:medium;font-family:'Roboto Condensed';-inkscape-font-specification:RobotoCondensed-Bold;writing-mode:lr-tb;fill:#1d2241;fill-opacity:1;fill-rule:nonzero;stroke:none"
       d="m 352.99724,495.7441 -3.4336,0 0,7.30078 -5.08593,0 0,-7.30078 -3.44532,0 0,17.0625 3.44532,0 0,-6.90234 5.08593,0 0,6.90234 3.4336,0 0,-17.0625 z" /><path
       inkscape:connector-curvature="0"
       id="path4548"
       style="font-variant:normal;font-weight:bold;font-stretch:condensed;font-size:medium;font-family:'Roboto Condensed';-inkscape-font-specification:RobotoCondensed-Bold;writing-mode:lr-tb;fill:#1d2241;fill-opacity:1;fill-rule:nonzero;stroke:none"
       d="m 359.24251,501.7441 0,-6 -3.44532,0 0,17.0625 5.8125,0 q 2.53125,0 4.03125,-1.57031 1.51172,-1.57032 1.51172,-4.07813 0,-2.50781 -1.48828,-3.96094 -1.48828,-1.45312 -4.125,-1.45312 l -2.29687,0 z m 0,2.87109 2.36718,0 q 0.98438,0 1.52344,0.64453 0.53906,0.64454 0.53906,1.875 0,1.27735 -0.55078,2.02735 -0.55078,0.76172 -1.47656,0.77344 l -2.40234,0 0,-5.32032 z" /><path
       inkscape:connector-curvature="0"
       id="path4535"
       style="font-variant:normal;font-weight:normal;font-stretch:condensed;font-size:medium;font-family:'Roboto Condensed';-inkscape-font-specification:RobotoCondensed-Regular;writing-mode:lr-tb;fill:#1d2241;fill-opacity:1;fill-rule:nonzero;stroke:none"
       d="m 379.5538,510.95504 -4.48828,0 0,-15.21094 -2.14453,0 0,15.21094 -4.47656,0 0,1.85156 11.10937,0 0,-1.85156 z" /><path
       inkscape:connector-curvature="0"
       id="path4537"
       style="font-variant:normal;font-weight:normal;font-stretch:condensed;font-size:medium;font-family:'Roboto Condensed';-inkscape-font-specification:RobotoCondensed-Regular;writing-mode:lr-tb;fill:#1d2241;fill-opacity:1;fill-rule:nonzero;stroke:none"
       d="m 392.8708,502.77535 q 0,-3.49219 -1.48828,-5.37891 -1.48828,-1.88672 -4.23047,-1.88672 -2.63672,0 -4.17187,1.82813 -1.52344,1.83984 -1.58204,5.19141 l 0,3.21093 q 0,3.42188 1.51172,5.35547 1.51172,1.94531 4.21875,1.94531 2.69532,0 4.19532,-1.86328 1.51171,-1.85156 1.54687,-5.29687 l 0,-3.10547 z m -2.14453,2.98828 q 0,2.70703 -0.89063,4.01953 -0.8789,1.32422 -2.70703,1.32422 -1.76953,0 -2.68359,-1.33594 -0.90234,-1.33593 -0.91406,-3.9375 l 0,-3.05859 q 0,-2.61328 0.90234,-3.98438 0.91406,-1.37109 2.71875,-1.37109 1.80469,0 2.67188,1.26563 0.86718,1.26562 0.90234,3.8789 l 0,3.19922 z" /><path
       inkscape:connector-curvature="0"
       id="path4539"
       style="font-variant:normal;font-weight:normal;font-stretch:condensed;font-size:medium;font-family:'Roboto Condensed';-inkscape-font-specification:RobotoCondensed-Regular;writing-mode:lr-tb;fill:#1d2241;fill-opacity:1;fill-rule:nonzero;stroke:none"
       d="m 406.37862,512.8066 0,-12.12891 q -0.0234,-2.42578 -1.40625,-3.79687 -1.38281,-1.3711 -3.85547,-1.3711 -2.53125,0 -3.86719,1.33594 -1.33593,1.34766 -1.35937,3.83203 l 0,12.12891 2.13281,0 0,-12.04688 q 0,-1.72265 0.72656,-2.57812 0.73828,-0.84375 2.36719,-0.84375 1.64063,0 2.36719,0.84375 0.73828,0.85547 0.73828,2.57812 l 0,12.04688 2.15625,0 z" /><path
       inkscape:connector-curvature="0"
       id="path4541"
       style="font-variant:normal;font-weight:normal;font-stretch:condensed;font-size:medium;font-family:'Roboto Condensed';-inkscape-font-specification:RobotoCondensed-Regular;writing-mode:lr-tb;fill:#1d2241;fill-opacity:1;fill-rule:nonzero;stroke:none"
       d="m 414.9206,502.64644 -3,0 0,-6.90234 -2.15625,0 0,17.0625 4.78125,0 q 2.50781,0 3.79687,-1.3125 1.28906,-1.30078 1.28906,-3.82031 0,-1.58203 -0.70312,-2.76563 -0.69141,-1.17187 -1.96875,-1.76953 l 3.30469,-7.25391 0,-0.14062 -2.3086,0 -3.03515,6.90234 z m -3,1.83985 2.60156,0 q 1.34765,0 2.14453,0.86718 0.80859,0.86719 0.80859,2.32032 0,3.28125 -2.97656,3.28125 l -2.57812,0 0,-6.46875 z" /><path
       inkscape:connector-curvature="0"
       id="path4648"
       style="font-variant:normal;font-weight:bold;font-stretch:condensed;font-size:medium;font-family:'Roboto Condensed';-inkscape-font-specification:RobotoCondensed-Bold;writing-mode:lr-tb;fill:#36a7df;fill-opacity:1;fill-rule:nonzero;stroke:none"
       d="m 432.45327,495.7441 -10.05469,0 0,2.34375 4.61719,5.87109 q 0.8789,1.21875 1.28906,2.13282 0.42188,0.92578 0.42188,1.76953 0,1.13672 -0.39844,1.78125 -0.38672,0.64453 -1.125,0.64453 -0.8086,0 -1.28906,-0.75 -0.46875,-0.75 -0.46875,-2.10938 l -3.32813,0 q 0,1.57032 0.64453,2.8711 0.65625,1.30078 1.82813,2.01562 1.18359,0.72656 2.67187,0.72656 2.28516,0 3.53906,-1.26562 1.26563,-1.25391 1.26563,-3.57422 0,-1.44141 -0.70313,-2.92969 -0.6914,-1.47656 -2.51953,-3.64453 l -2.1914,-3.1289 5.80078,0 0,-2.75391 z" /><path
       inkscape:connector-curvature="0"
       id="path4650"
       style="font-variant:normal;font-weight:bold;font-stretch:condensed;font-size:medium;font-family:'Roboto Condensed';-inkscape-font-specification:RobotoCondensed-Bold;writing-mode:lr-tb;fill:#36a7df;fill-opacity:1;fill-rule:nonzero;stroke:none"
       d="m 444.15664,502.79879 q 0,-3.53907 -1.28906,-5.41407 -1.27734,-1.875 -3.65625,-1.875 -2.35547,0 -3.64453,1.81641 -1.27734,1.82813 -1.32422,5.22656 l 0,3.22266 q 0,3.52734 1.27734,5.39062 1.27735,1.875 3.66797,1.875 2.39063,0 3.66797,-1.85156 1.27735,-1.85156 1.30078,-5.28515 l 0,-3.10547 z m -3.32812,3.45703 q 0,2.01562 -0.39844,3.02344 -0.39844,1.00781 -1.24219,1.00781 -1.58203,0 -1.64062,-3.69141 l 0,-4.2539 q 0,-2.0625 0.39844,-3.07032 0.41015,-1.00781 1.26562,-1.00781 0.80859,0 1.19531,0.9375 0.39844,0.94922 0.42188,2.89453 l 0,4.16016 z" /><path
       inkscape:connector-curvature="0"
       id="path4652"
       style="font-variant:normal;font-weight:bold;font-stretch:condensed;font-size:medium;font-family:'Roboto Condensed';-inkscape-font-specification:RobotoCondensed-Bold;writing-mode:lr-tb;fill:#36a7df;fill-opacity:1;fill-rule:nonzero;stroke:none"
       d="m 453.15216,495.7441 -3.32812,0 0,13.03125 -3.2461,-1.25391 0,2.76563 6.22266,2.54297 0.35156,0 0,-17.08594 z" /><path
       inkscape:connector-curvature="0"
       id="path4654"
       style="font-variant:normal;font-weight:bold;font-stretch:condensed;font-size:medium;font-family:'Roboto Condensed';-inkscape-font-specification:RobotoCondensed-Bold;writing-mode:lr-tb;fill:#36a7df;fill-opacity:1;fill-rule:nonzero;stroke:none"
       d="m 465.90216,512.98238 0,-2.8125 -0.1875,0 q -1.86328,-0.0117 -2.96484,-1.125 -1.08984,-1.10156 -1.32422,-3.09375 1.06641,1.21875 2.67188,1.21875 1.85156,0 2.95312,-1.58203 1.11328,-1.58203 1.11328,-4.21875 0,-1.67578 -0.63281,-3.02344 -0.63281,-1.34765 -1.78125,-2.09765 -1.13672,-0.73829 -2.57813,-0.73829 -2.32031,0 -3.72656,1.86329 -1.39453,1.86328 -1.39453,5.01562 l 0,1.23047 q 0,2.82422 0.87891,4.94531 0.89062,2.1211 2.55468,3.25781 1.67579,1.14844 3.90235,1.16016 l 0.51562,0 z m -2.84765,-8.55469 q -0.63282,0 -1.06641,-0.39843 -0.42187,-0.39844 -0.63281,-0.98438 l 0,-1.19531 q 0,-1.80469 0.48047,-2.69531 0.48047,-0.89063 1.26562,-0.89063 0.79688,0 1.27735,0.85547 0.48046,0.86719 0.48046,2.21484 0,1.3711 -0.5039,2.22657 -0.49219,0.86718 -1.30078,0.86718 z" /><path
       inkscape:connector-curvature="0"
       id="path4615"
       style="font-variant:normal;font-weight:normal;font-stretch:normal;font-size:medium;font-family:Belgrano;-inkscape-font-specification:Belgrano-Regular;letter-spacing:-0.35724062px;writing-mode:lr-tb;fill:#1d2241;fill-opacity:1;fill-rule:nonzero;stroke:none"
       d="m 333.95762,484.20401 q -1.243,-0.93521 -2.94769,-0.93521 -1.59814,0 -2.7701,1.02991 -0.56823,0.4972 -0.91154,1.30219 -0.3433,0.81683 -0.3433,1.84674 0,1.02991 0.35514,1.89409 0.36698,0.86418 0.97072,1.40873 1.243,1.12462 2.91217,1.12462 1.25484,0 2.19004,-0.50904 l 0,-1.92961 -0.97072,0 -0.21308,1.23116 q -0.23677,0.26044 -0.98256,0.26044 -1.40873,0 -2.21372,-0.98256 -0.80499,-0.98256 -0.80499,-2.47416 0,-1.47975 0.82866,-2.36761 0.84051,-0.87602 2.11902,-0.87602 0.60374,0 1.19564,0.17757 0.59191,0.17757 0.87602,0.35515 l 0.28411,0.17757 0.42618,-0.73396 z" /><path
       inkscape:connector-curvature="0"
       id="path4617"
       style="font-variant:normal;font-weight:normal;font-stretch:normal;font-size:medium;font-family:Belgrano;-inkscape-font-specification:Belgrano-Regular;letter-spacing:-0.35724062px;writing-mode:lr-tb;fill:#1d2241;fill-opacity:1;fill-rule:nonzero;stroke:none"
       d="m 337.37579,483.39902 -3.11341,0 0,0.50903 0.9944,0.39066 0,7.30409 -0.9944,0 0,0.71029 q 0.46169,0.22492 1.06543,0.22492 0.61558,0 0.82866,-0.29595 0.21309,-0.28412 0.21309,-0.87602 l 0,-7.06733 1.00623,-0.39066 0,-0.50903 z" /><path
       inkscape:connector-curvature="0"
       id="path4619"
       style="font-variant:normal;font-weight:normal;font-stretch:normal;font-size:medium;font-family:Belgrano;-inkscape-font-specification:Belgrano-Regular;letter-spacing:-0.35724062px;writing-mode:lr-tb;fill:#1d2241;fill-opacity:1;fill-rule:nonzero;stroke:none"
       d="m 340.91698,483.28064 q -1.3377,0 -2.17821,0.75763 -0.82866,0.76948 -0.82866,2.2374 0,1.46792 0.85234,2.32026 0.85234,0.86418 1.9888,0.86418 2.69908,0 2.69908,-3.19628 l -4.39193,0 0,-0.0592 q 0,-0.8405 0.59191,-1.42057 0.5919,-0.58006 1.60997,-0.58006 0.43801,0 0.82867,0.0947 0.39066,0.10654 0.56823,0.21309 l 0.16573,0.0947 0.3433,-0.61558 q -0.0355,-0.0237 -0.10654,-0.0829 -0.0592,-0.0473 -0.27227,-0.16573 -0.21309,-0.11838 -0.46169,-0.21308 -0.62742,-0.2486 -1.40873,-0.2486 z m 1.43241,3.74083 q -0.0592,0.73396 -0.48536,1.11278 -0.41434,0.39065 -1.08911,0.39065 -0.66293,0 -1.10094,-0.37882 -0.43801,-0.36698 -0.56823,-1.12461 l 3.24364,0 z" /><path
       inkscape:connector-curvature="0"
       id="path4621"
       style="font-variant:normal;font-weight:normal;font-stretch:normal;font-size:medium;font-family:Belgrano;-inkscape-font-specification:Belgrano-Regular;letter-spacing:-0.35724062px;writing-mode:lr-tb;fill:#1d2241;fill-opacity:1;fill-rule:nonzero;stroke:none"
       d="m 347.16168,483.39902 -3.11341,0 0,0.50903 0.9944,0.39066 0,4.22619 -0.9944,0 0,0.71029 q 0.46169,0.22492 1.04175,0.22492 0.58007,0 0.80499,-0.2486 0.22492,-0.2486 0.2486,-0.73396 0.11838,0.35514 0.48536,0.63926 0.43801,0.3433 1.16013,0.3433 0.31963,0 0.60374,-0.0829 0.29596,-0.0829 0.42617,-0.16573 l 0.14206,-0.0829 0,-1.3969 -0.71028,0 -0.1539,0.71029 q -0.071,0.071 -0.39065,0.071 -0.31963,0 -0.61558,-0.0947 -0.29596,-0.0829 -0.46169,-0.21308 -0.33146,-0.28412 -0.47352,-0.58007 l 0,-3.3265 1.00623,-0.39066 0,-0.50903 z" /><path
       inkscape:connector-curvature="0"
       id="path4623"
       style="font-variant:normal;font-weight:normal;font-stretch:normal;font-size:medium;font-family:Belgrano;-inkscape-font-specification:Belgrano-Regular;letter-spacing:-0.35724062px;writing-mode:lr-tb;fill:#1d2241;fill-opacity:1;fill-rule:nonzero;stroke:none"
       d="m 360.17629,483.39902 -3.11341,0 0,0.50903 0.94704,0.39066 0,2.8293 q 0,0.69845 -0.23676,1.04175 -0.22492,0.34331 -0.82867,0.34331 -0.94704,0 -1.62181,-0.67478 0.0355,-0.14205 0.0355,-0.29595 l 0,-3.24363 1.05359,-0.39066 0,-0.50903 -3.11341,0 0,0.50903 0.94704,0.39066 0,2.8293 q 0,0.69845 -0.23676,1.04175 -0.22492,0.34331 -0.82866,0.34331 -0.97073,0 -1.7402,-0.76948 l 0,-3.44488 1.00624,-0.39066 0,-0.50903 -3.11342,0 0,0.50903 0.9944,0.39066 0,4.22619 -0.9944,0 0,0.71029 q 0.46169,0.22492 1.05359,0.22492 0.59191,0 0.80499,-0.26044 0.22492,-0.26043 0.2486,-0.78131 0.16573,0.21309 0.4972,0.48536 0.69845,0.55639 1.57446,0.55639 1.30219,0 1.70469,-1.04175 0.86417,1.04175 2.05982,1.04175 0.92337,0 1.38506,-0.52087 0.46168,-0.50904 0.46168,-1.3969 l 0,-3.24363 1.05359,-0.39066 0,-0.50903 z" /><path
       inkscape:connector-curvature="0"
       id="path4625"
       style="font-variant:normal;font-weight:normal;font-stretch:normal;font-size:medium;font-family:Belgrano;-inkscape-font-specification:Belgrano-Regular;letter-spacing:-0.35724062px;writing-mode:lr-tb;fill:#1d2241;fill-opacity:1;fill-rule:nonzero;stroke:none"
       d="m 365.76953,484.12114 q -0.86418,-0.85234 -2.17821,-0.85234 -1.31402,0 -2.1782,0.85234 -0.86418,0.86418 -0.86418,2.2374 0,1.37321 0.86418,2.23739 0.86418,0.86418 2.1782,0.86418 1.31403,0 2.17821,-0.86418 0.86418,-0.86418 0.86418,-2.23739 0,-1.37322 -0.86418,-2.2374 z m -3.53959,0.65109 q 0.53272,-0.56822 1.36138,-0.56822 0.82867,0 1.36138,0.56822 0.53272,0.58007 0.53272,1.55079 0,0.97072 -0.54456,1.5863 -0.53271,0.61558 -1.34954,0.61558 -0.81682,0 -1.36138,-0.61558 -0.53271,-0.61558 -0.53271,-1.5863 0,-0.97072 0.53271,-1.55079 z" /><path
       inkscape:connector-curvature="0"
       id="path4627"
       style="font-variant:normal;font-weight:normal;font-stretch:normal;font-size:medium;font-family:Belgrano;-inkscape-font-specification:Belgrano-Regular;letter-spacing:-0.35724062px;writing-mode:lr-tb;fill:#1d2241;fill-opacity:1;fill-rule:nonzero;stroke:none"
       d="m 374.40238,483.39902 -3.11341,0 0,0.50903 0.94704,0.39066 0,2.8293 q 0,0.69845 -0.23676,1.04175 -0.22492,0.34331 -0.82866,0.34331 -0.97072,0 -1.7402,-0.76948 l 0,-3.44488 1.00624,-0.39066 0,-0.50903 -3.11342,0 0,0.50903 0.9944,0.39066 0,4.22619 -0.9944,0 0,0.71029 q 0.46169,0.22492 1.05359,0.22492 0.59191,0 0.80499,-0.26044 0.22492,-0.26043 0.2486,-0.78131 0.16573,0.21309 0.4972,0.48536 0.69845,0.55639 1.59814,0.55639 0.89969,0 1.36138,-0.52087 0.46168,-0.50904 0.46168,-1.3969 l 0,-3.24363 1.05359,-0.39066 0,-0.50903 z" /><path
       inkscape:connector-curvature="0"
       id="path4629"
       style="font-variant:normal;font-weight:normal;font-stretch:normal;font-size:medium;font-family:Belgrano;-inkscape-font-specification:Belgrano-Regular;letter-spacing:-0.35724062px;writing-mode:lr-tb;fill:#1d2241;fill-opacity:1;fill-rule:nonzero;stroke:none"
       d="m 376.43995,485.99156 q 0,-1.01808 0.30779,-1.38506 0.30779,-0.36698 0.9352,-0.36698 0.62742,0 1.02992,0.18941 l 0.23676,-0.5919 q -0.0473,-0.0592 -0.14206,-0.1539 -0.0829,-0.0947 -0.43801,-0.26044 -0.35514,-0.15389 -0.78131,-0.15389 -1.07726,0 -1.66917,0.60374 -0.5919,0.61558 -0.5919,1.78755 l 0,2.72276 -0.62742,0 0,0.69844 1.13645,1.13646 0.60375,0 0,-0.8997 1.98879,0 0,-0.9352 -1.98879,0 0,-2.39129 z" /><path
       inkscape:connector-curvature="0"
       id="path4631"
       style="font-variant:normal;font-weight:normal;font-stretch:normal;font-size:medium;font-family:Belgrano;-inkscape-font-specification:Belgrano-Regular;letter-spacing:-0.35724062px;writing-mode:lr-tb;fill:#1d2241;fill-opacity:1;fill-rule:nonzero;stroke:none"
       d="m 382.73866,486.18096 -3.19628,0 0,0.7458 3.19628,0 0,-0.7458 z" /><path
       inkscape:connector-curvature="0"
       id="path4633"
       style="font-variant:normal;font-weight:normal;font-stretch:normal;font-size:medium;font-family:Belgrano;-inkscape-font-specification:Belgrano-Regular;letter-spacing:-0.35724062px;writing-mode:lr-tb;fill:#1d2241;fill-opacity:1;fill-rule:nonzero;stroke:none"
       d="m 387.18842,483.39902 -3.35018,0 0,0.63925 1.07727,0.39066 0,6.41624 -1.07727,0.39065 0,0.52088 6.70035,0 0,-1.91777 -0.61558,0 -0.39065,1.01807 -3.42121,0 0,-2.81746 2.72276,0 0.22492,0.68661 0.54456,0 0,-2.3321 -0.54456,0 -0.22492,0.79315 -2.72276,0 0,-2.75827 1.07727,-0.39066 0,-0.63925 z" /><path
       inkscape:connector-curvature="0"
       id="path4635"
       style="font-variant:normal;font-weight:normal;font-stretch:normal;font-size:medium;font-family:Belgrano;-inkscape-font-specification:Belgrano-Regular;letter-spacing:-0.35724062px;writing-mode:lr-tb;fill:#1d2241;fill-opacity:1;fill-rule:nonzero;stroke:none"
       d="m 394.19742,483.28064 q -1.3377,0 -2.1782,0.75763 -0.82867,0.76948 -0.82867,2.2374 0,1.46792 0.85234,2.32026 0.85234,0.86418 1.9888,0.86418 2.69908,0 2.69908,-3.19628 l -4.39192,0 0,-0.0592 q 0,-0.8405 0.5919,-1.42057 0.5919,-0.58006 1.60998,-0.58006 0.43801,0 0.82866,0.0947 0.39066,0.10654 0.56823,0.21309 l 0.16573,0.0947 0.34331,-0.61558 q -0.0355,-0.0237 -0.10655,-0.0829 -0.0592,-0.0473 -0.27227,-0.16573 -0.21309,-0.11838 -0.46169,-0.21308 -0.62741,-0.2486 -1.40873,-0.2486 z m 1.43241,3.74083 q -0.0592,0.73396 -0.48536,1.11278 -0.41433,0.39065 -1.0891,0.39065 -0.66294,0 -1.10094,-0.37882 -0.43801,-0.36698 -0.56823,-1.12461 l 3.24363,0 z" /><path
       inkscape:connector-curvature="0"
       id="path4637"
       style="font-variant:normal;font-weight:normal;font-stretch:normal;font-size:medium;font-family:Belgrano;-inkscape-font-specification:Belgrano-Regular;letter-spacing:-0.35724062px;writing-mode:lr-tb;fill:#1d2241;fill-opacity:1;fill-rule:nonzero;stroke:none"
       d="m 400.44213,483.39902 -3.11342,0 0,0.50903 0.9944,0.39066 0,4.22619 -0.9944,0 0,0.71029 q 0.46169,0.22492 1.04175,0.22492 0.58007,0 0.80499,-0.2486 0.22493,-0.2486 0.2486,-0.73396 0.11838,0.35514 0.48536,0.63926 0.43801,0.3433 1.16014,0.3433 0.31962,0 0.60374,-0.0829 0.29595,-0.0829 0.42617,-0.16573 l 0.14205,-0.0829 0,-1.3969 -0.71028,0 -0.15389,0.71029 q -0.071,0.071 -0.39066,0.071 -0.31963,0 -0.61558,-0.0947 -0.29595,-0.0829 -0.46169,-0.21308 -0.33146,-0.28412 -0.47352,-0.58007 l 0,-3.3265 1.00624,-0.39066 0,-0.50903 z" /><path
       inkscape:connector-curvature="0"
       id="path4639"
       style="font-variant:normal;font-weight:normal;font-stretch:normal;font-size:medium;font-family:Belgrano;-inkscape-font-specification:Belgrano-Regular;letter-spacing:-0.35724062px;writing-mode:lr-tb;fill:#1d2241;fill-opacity:1;fill-rule:nonzero;stroke:none"
       d="m 405.72647,483.39902 -3.11342,0 0,0.50903 0.9944,0.39066 0,4.22619 -0.9944,0 0,0.71029 q 0.46169,0.22492 1.04175,0.22492 0.58007,0 0.80499,-0.2486 0.22493,-0.2486 0.2486,-0.73396 0.11838,0.35514 0.48536,0.63926 0.43801,0.3433 1.16014,0.3433 0.31962,0 0.60374,-0.0829 0.29595,-0.0829 0.42617,-0.16573 l 0.14205,-0.0829 0,-1.3969 -0.71028,0 -0.15389,0.71029 q -0.071,0.071 -0.39066,0.071 -0.31963,0 -0.61558,-0.0947 -0.29595,-0.0829 -0.46169,-0.21308 -0.33146,-0.28412 -0.47352,-0.58007 l 0,-3.3265 1.00624,-0.39066 0,-0.50903 z" /><path
       inkscape:connector-curvature="0"
       id="path4641"
       style="font-variant:normal;font-weight:normal;font-stretch:normal;font-size:medium;font-family:Belgrano;-inkscape-font-specification:Belgrano-Regular;letter-spacing:-0.35724062px;writing-mode:lr-tb;fill:#1d2241;fill-opacity:1;fill-rule:nonzero;stroke:none"
       d="m 413.71266,484.20401 0,-0.71029 q -0.46168,-0.22492 -1.01807,-0.22492 -0.55639,0 -0.80499,0.21308 -0.23676,0.21309 -0.27228,0.61558 -0.65109,-0.82866 -1.71652,-0.82866 -1.05359,0 -1.59814,0.42617 -0.54455,0.42617 -0.54455,1.19564 0,1.47976 2.05982,1.70469 l 1.78755,0.18941 0,0.3433 q 0,0.68661 -0.28411,1.04175 -0.28411,0.35514 -0.89969,0.35514 -1.13646,0 -1.84674,-0.2486 l -0.23676,-0.0829 -0.21309,0.75763 q 0.33147,0.18941 1.00624,0.34331 0.67477,0.16573 1.25483,0.16573 1.26668,0 1.79939,-0.50904 0.53271,-0.4972 0.53271,-1.40873 l 0,-3.33833 0.9944,0 z m -3.83554,1.62181 q -0.44984,-0.0592 -0.72212,-0.27227 -0.26044,-0.21309 -0.26044,-0.58007 0,-0.35514 0.28412,-0.56823 0.29595,-0.20124 0.81683,-0.20124 0.98256,0 1.60997,0.53271 l 0,1.27851 -1.72836,-0.18941 z" /><path
       inkscape:connector-curvature="0"
       id="path4643"
       style="font-variant:normal;font-weight:normal;font-stretch:normal;font-size:medium;font-family:Belgrano;-inkscape-font-specification:Belgrano-Regular;letter-spacing:-0.35724062px;writing-mode:lr-tb;fill:#1d2241;fill-opacity:1;fill-rule:nonzero;stroke:none"
       d="m 421.16264,483.39902 -3.11342,0 0,0.50903 0.94705,0.39066 0,2.8293 q 0,0.69845 -0.23676,1.04175 -0.22493,0.34331 -0.82867,0.34331 -0.97072,0 -1.7402,-0.76948 l 0,-3.44488 1.00624,-0.39066 0,-0.50903 -3.11341,0 0,0.50903 0.9944,0.39066 0,4.22619 -0.9944,0 0,0.71029 q 0.46168,0.22492 1.05359,0.22492 0.5919,0 0.80498,-0.26044 0.22493,-0.26043 0.2486,-0.78131 0.16574,0.21309 0.4972,0.48536 0.69845,0.55639 1.59814,0.55639 0.8997,0 1.36138,-0.52087 0.46169,-0.50904 0.46169,-1.3969 l 0,-3.24363 1.05359,-0.39066 0,-0.50903 z" /><path
       inkscape:connector-curvature="0"
       id="path4645"
       style="font-variant:normal;font-weight:normal;font-stretch:normal;font-size:medium;font-family:Belgrano;-inkscape-font-specification:Belgrano-Regular;letter-spacing:-0.35724062px;writing-mode:lr-tb;fill:#1d2241;fill-opacity:1;fill-rule:nonzero;stroke:none"
       d="m 427.95911,484.20401 0,-0.71029 q -0.46169,-0.22492 -1.01808,-0.22492 -0.54455,0 -0.79315,0.20125 -0.23676,0.20124 -0.28411,0.5919 -0.54455,-0.78131 -1.70469,-0.78131 -0.9352,0 -1.72835,0.63925 -0.4025,0.33147 -0.6511,0.93521 -0.23676,0.61558 -0.23676,1.42057 0,0.80499 0.31963,1.43241 0.31963,0.63925 0.8405,1.00623 1.05359,0.7458 2.3321,0.7458 0.37882,0 0.81683,-0.16573 l 0,2.30842 -0.9944,0 0,0.71029 q 0.46169,0.22492 1.06543,0.22492 0.61558,0 0.82866,-0.29595 0.21309,-0.28412 0.21309,-0.87602 l 0,-7.16203 0.9944,0 z m -2.92401,4.32089 q -1.05359,0 -1.70468,-0.58006 -0.63926,-0.56823 -0.63926,-1.60998 0,-1.04175 0.50904,-1.62182 0.52088,-0.56822 1.12462,-0.56822 1.01807,0 1.52711,0.74579 l 0,3.45672 q -0.53271,0.17757 -0.81683,0.17757 z" /></g></svg>