<?xml version="1.0" encoding="UTF-8" standalone="no"?>
<!-- Created with Inkscape (http://www.inkscape.org/) -->

<svg
   xmlns:dc="http://purl.org/dc/elements/1.1/"
   xmlns:cc="http://creativecommons.org/ns#"
   xmlns:rdf="http://www.w3.org/1999/02/22-rdf-syntax-ns#"
   xmlns:svg="http://www.w3.org/2000/svg"
   xmlns="http://www.w3.org/2000/svg"
   xmlns:sodipodi="http://sodipodi.sourceforge.net/DTD/sodipodi-0.dtd"
   xmlns:inkscape="http://www.inkscape.org/namespaces/inkscape"
   id="svg2"
   version="1.1"
   inkscape:version="0.91 r13725"
   xml:space="preserve"
   width="213.5985"
   height="101.51938"
   viewBox="0 0 213.5985 101.51937"
   sodipodi:docname="phptour-logo-2015-luxembourg.svg"
   inkscape:export-filename="/Users/woecifaun/Dev/afup/identity/assets/phptour/phptour-logo-2015-luxembourg.png"
   inkscape:export-xdpi="421.35001"
   inkscape:export-ydpi="421.35001"><metadata
     id="metadata8"><rdf:RDF><cc:Work
         rdf:about=""><dc:format>image/svg+xml</dc:format><dc:type
           rdf:resource="http://purl.org/dc/dcmitype/StillImage" /><dc:title /></cc:Work></rdf:RDF></metadata><defs
     id="defs6"><clipPath
       clipPathUnits="userSpaceOnUse"
       id="clipPath16"><path
         d="m 0,870.236 623.626,0 L 623.626,0 0,0 0,870.236 Z"
         id="path18"
         inkscape:connector-curvature="0" /></clipPath><clipPath
       clipPathUnits="userSpaceOnUse"
       id="clipPath100"><path
         d="m 0,870.236 623.626,0 L 623.626,0 0,0 0,870.236 Z"
         id="path102"
         inkscape:connector-curvature="0" /></clipPath><clipPath
       clipPathUnits="userSpaceOnUse"
       id="clipPath208"><path
         d="m 0,870.236 623.626,0 L 623.626,0 0,0 0,870.236 Z"
         id="path210"
         inkscape:connector-curvature="0" /></clipPath></defs><sodipodi:namedview
     pagecolor="#ffffff"
     bordercolor="#666666"
     borderopacity="1"
     objecttolerance="10"
     gridtolerance="10"
     guidetolerance="10"
     inkscape:pageopacity="0"
     inkscape:pageshadow="2"
     inkscape:window-width="1920"
     inkscape:window-height="1031"
     id="namedview4"
     showgrid="false"
     inkscape:zoom="3.308152"
     inkscape:cx="54.504192"
     inkscape:cy="50.759687"
     inkscape:window-x="0"
     inkscape:window-y="1"
     inkscape:window-maximized="1"
     inkscape:current-layer="g10"
     fit-margin-top="1"
     fit-margin-left="1"
     fit-margin-right="1"
     fit-margin-bottom="1" /><g
     id="g10"
     inkscape:groupmode="layer"
     inkscape:label="afup-logos-RGB(editable)"
     transform="matrix(1.25,0,0,-1.25,-407.67875,670.90975)"><path
       inkscape:connector-curvature="0"
       id="path106"
       style="fill:#87a2d4;fill-opacity:1;fill-rule:nonzero;stroke:none"
       d="m 451.391,488.1593 9.192,-15.921 0.005,0 9.193,15.921 -18.39,0 z" /><path
       inkscape:connector-curvature="0"
       id="path110"
       style="fill:#416bb2;fill-opacity:1;fill-rule:nonzero;stroke:none"
       d="m 469.7779,520.0064 9.192,-15.921 0.005,0 9.193,15.921 -18.39,0 z" /><path
       inkscape:connector-curvature="0"
       id="path114"
       style="fill:#6499d1;fill-opacity:1;fill-rule:nonzero;stroke:none"
       d="m 460.5884,472.2381 14.138,0 c 1.314,0 2.578,0.35 3.677,0.985 l -8.623,14.936 -9.192,-15.921 z" /><path
       inkscape:connector-curvature="0"
       id="path118"
       style="fill:#2d508b;fill-opacity:1;fill-rule:nonzero;stroke:none"
       d="m 414.6145,456.3123 14.138,0 c 1.314,0 2.578,0.35 3.677,0.985 l -8.623,14.936 -9.192,-15.921 z" /><path
       inkscape:connector-curvature="0"
       id="path122"
       style="fill:#337bbd;fill-opacity:1;fill-rule:nonzero;stroke:none"
       d="m 469.7885,520.0064 -9.192,15.921 -0.005,0 -9.193,-15.921 18.39,0 z" /><path
       inkscape:connector-curvature="0"
       id="path126"
       style="fill:#2e73b4;fill-opacity:1;fill-rule:nonzero;stroke:none"
       d="m 478.4064,534.9423 c -1.1,0.635 -2.364,0.985 -3.677,0.985 l -14.138,0 9.192,-15.921 8.623,14.936 z" /><path
       inkscape:connector-curvature="0"
       id="path130"
       style="fill:#2e63a3;fill-opacity:1;fill-rule:nonzero;stroke:none"
       d="m 488.1675,520.0064 -7.069,12.244 c -0.657,1.138 -1.592,2.057 -2.692,2.692 l -8.623,-14.936 18.384,0 z" /><path
       inkscape:connector-curvature="0"
       id="path134"
       style="fill:#368ccb;fill-opacity:1;fill-rule:nonzero;stroke:none"
       d="m 469.7832,488.1639 18.384,0 0.003,0.005 -9.192,15.921 -9.195,-15.926 z" /><path
       inkscape:connector-curvature="0"
       id="path138"
       style="fill:#98a9d7;fill-opacity:1;fill-rule:nonzero;stroke:none"
       d="m 442.1962,472.2335 18.384,0 0.003,0.005 -9.192,15.921 -9.195,-15.926 z" /><path
       inkscape:connector-curvature="0"
       id="path142"
       style="fill:#3c7fc0;fill-opacity:1;fill-rule:nonzero;stroke:none"
       d="m 496.2218,504.0852 c 0,1.27 -0.328,2.54 -0.985,3.677 l -7.069,12.244 -9.192,-15.921 17.246,0 z" /><path
       inkscape:connector-curvature="0"
       id="path146"
       style="fill:#368ccb;fill-opacity:1;fill-rule:nonzero;stroke:none"
       d="m 488.1675,488.1639 7.069,12.244 c 0.657,1.138 0.985,2.407 0.985,3.677 l -17.246,0 9.192,-15.921 z" /><path
       inkscape:connector-curvature="0"
       id="path150"
       style="fill:#4495d1;fill-opacity:1;fill-rule:nonzero;stroke:none"
       d="m 478.4038,473.2234 c 1.1,0.635 2.035,1.554 2.692,2.692 l 7.069,12.244 -18.384,0 8.623,-14.936 z" /><path
       inkscape:connector-curvature="0"
       id="path154"
       style="fill:#415e99;fill-opacity:1;fill-rule:nonzero;stroke:none"
       d="m 433.0014,488.1593 9.192,-15.921 -0.003,-0.005 -18.384,0 9.195,15.926 z" /><path
       inkscape:connector-curvature="0"
       id="path158"
       style="fill:#264f8b;fill-opacity:1;fill-rule:nonzero;stroke:none"
       d="m 442.1909,472.2335 -7.069,-12.244 c -0.657,-1.138 -1.592,-2.057 -2.692,-2.692 l -8.623,14.936 18.384,0 z" /><path
       inkscape:connector-curvature="0"
       id="path162"
       style="fill:#2d508b;fill-opacity:1;fill-rule:nonzero;stroke:none"
       d="m 451.3989,520.0064 -14.138,0 c -1.314,0 -2.578,0.35 -3.677,0.985 l 8.623,14.936 9.192,-15.921 z" /><path
       inkscape:connector-curvature="0"
       id="path166"
       style="fill:#32619a;fill-opacity:1;fill-rule:nonzero;stroke:none"
       d="m 423.8014,472.2335 -9.192,-15.921 -0.005,0 -9.193,15.921 18.39,0 z" /><path
       inkscape:connector-curvature="0"
       id="path170"
       style="fill:#7a86ba;fill-opacity:1;fill-rule:nonzero;stroke:none"
       d="m 451.391,488.1593 -9.192,-15.921 -0.005,0 -9.193,15.921 18.39,0 z" /><path
       inkscape:connector-curvature="0"
       id="path174"
       style="fill:#32619a;fill-opacity:1;fill-rule:nonzero;stroke:none"
       d="m 460.5911,535.9277 -9.192,-15.921 -0.005,0 -9.193,15.921 18.39,0 z" /><path
       inkscape:connector-curvature="0"
       id="path178"
       style="fill:#2e73b4;fill-opacity:1;fill-rule:nonzero;stroke:none"
       d="m 396.7938,457.2976 c -1.1,0.635 -2.035,1.554 -2.692,2.692 l -7.069,12.244 18.384,0 -8.623,-14.936 z" /><path
       inkscape:connector-curvature="0"
       id="path182"
       style="fill:#337bbd;fill-opacity:1;fill-rule:nonzero;stroke:none"
       d="m 414.6092,456.3123 -14.138,0 c -1.314,0 -2.578,0.35 -3.677,0.985 l 8.623,14.936 9.192,-15.921 z" /><path
       inkscape:connector-curvature="0"
       id="path186"
       style="fill:#264f8b;fill-opacity:1;fill-rule:nonzero;stroke:none"
       d="m 433.5835,520.9918 c -1.1,0.635 -2.035,1.554 -2.692,2.692 l -7.069,12.244 18.384,0 -8.623,-14.936 z" /><path
       inkscape:connector-curvature="0"
       id="path4544"
       style="font-variant:normal;font-weight:bold;font-stretch:condensed;font-size:medium;font-family:'Roboto Condensed';-inkscape-font-specification:RobotoCondensed-Bold;writing-mode:lr-tb;fill:#1d2241;fill-opacity:1;fill-rule:nonzero;stroke:none"
       d="m 330.98971,501.7441 0,-6 -3.44532,0 0,17.0625 5.8125,0 q 2.53125,0 4.03125,-1.57031 1.51172,-1.57032 1.51172,-4.07813 0,-2.50781 -1.48828,-3.96094 -1.48828,-1.45312 -4.125,-1.45312 l -2.29687,0 z m 0,2.87109 2.36718,0 q 0.98438,0 1.52344,0.64453 0.53906,0.64454 0.53906,1.875 0,1.27735 -0.55078,2.02735 -0.55078,0.76172 -1.47656,0.77344 l -2.40234,0 0,-5.32032 z" /><path
       inkscape:connector-curvature="0"
       id="path4546"
       style="font-variant:normal;font-weight:bold;font-stretch:condensed;font-size:medium;font-family:'Roboto Condensed';-inkscape-font-specification:RobotoCondensed-Bold;writing-mode:lr-tb;fill:#1d2241;fill-opacity:1;fill-rule:nonzero;stroke:none"
       d="m 352.99724,495.7441 -3.4336,0 0,7.30078 -5.08593,0 0,-7.30078 -3.44532,0 0,17.0625 3.44532,0 0,-6.90234 5.08593,0 0,6.90234 3.4336,0 0,-17.0625 z" /><path
       inkscape:connector-curvature="0"
       id="path4548"
       style="font-variant:normal;font-weight:bold;font-stretch:condensed;font-size:medium;font-family:'Roboto Condensed';-inkscape-font-specification:RobotoCondensed-Bold;writing-mode:lr-tb;fill:#1d2241;fill-opacity:1;fill-rule:nonzero;stroke:none"
       d="m 359.24251,501.7441 0,-6 -3.44532,0 0,17.0625 5.8125,0 q 2.53125,0 4.03125,-1.57031 1.51172,-1.57032 1.51172,-4.07813 0,-2.50781 -1.48828,-3.96094 -1.48828,-1.45312 -4.125,-1.45312 l -2.29687,0 z m 0,2.87109 2.36718,0 q 0.98438,0 1.52344,0.64453 0.53906,0.64454 0.53906,1.875 0,1.27735 -0.55078,2.02735 -0.55078,0.76172 -1.47656,0.77344 l -2.40234,0 0,-5.32032 z" /><path
       inkscape:connector-curvature="0"
       id="path4535"
       style="font-variant:normal;font-weight:normal;font-stretch:condensed;font-size:medium;font-family:'Roboto Condensed';-inkscape-font-specification:RobotoCondensed-Regular;writing-mode:lr-tb;fill:#1d2241;fill-opacity:1;fill-rule:nonzero;stroke:none"
       d="m 379.5538,510.95504 -4.48828,0 0,-15.21094 -2.14453,0 0,15.21094 -4.47656,0 0,1.85156 11.10937,0 0,-1.85156 z" /><path
       inkscape:connector-curvature="0"
       id="path4537"
       style="font-variant:normal;font-weight:normal;font-stretch:condensed;font-size:medium;font-family:'Roboto Condensed';-inkscape-font-specification:RobotoCondensed-Regular;writing-mode:lr-tb;fill:#1d2241;fill-opacity:1;fill-rule:nonzero;stroke:none"
       d="m 392.8708,502.77535 q 0,-3.49219 -1.48828,-5.37891 -1.48828,-1.88672 -4.23047,-1.88672 -2.63672,0 -4.17187,1.82813 -1.52344,1.83984 -1.58204,5.19141 l 0,3.21093 q 0,3.42188 1.51172,5.35547 1.51172,1.94531 4.21875,1.94531 2.69532,0 4.19532,-1.86328 1.51171,-1.85156 1.54687,-5.29687 l 0,-3.10547 z m -2.14453,2.98828 q 0,2.70703 -0.89063,4.01953 -0.8789,1.32422 -2.70703,1.32422 -1.76953,0 -2.68359,-1.33594 -0.90234,-1.33593 -0.91406,-3.9375 l 0,-3.05859 q 0,-2.61328 0.90234,-3.98438 0.91406,-1.37109 2.71875,-1.37109 1.80469,0 2.67188,1.26563 0.86718,1.26562 0.90234,3.8789 l 0,3.19922 z" /><path
       inkscape:connector-curvature="0"
       id="path4539"
       style="font-variant:normal;font-weight:normal;font-stretch:condensed;font-size:medium;font-family:'Roboto Condensed';-inkscape-font-specification:RobotoCondensed-Regular;writing-mode:lr-tb;fill:#1d2241;fill-opacity:1;fill-rule:nonzero;stroke:none"
       d="m 406.37862,512.8066 0,-12.12891 q -0.0234,-2.42578 -1.40625,-3.79687 -1.38281,-1.3711 -3.85547,-1.3711 -2.53125,0 -3.86719,1.33594 -1.33593,1.34766 -1.35937,3.83203 l 0,12.12891 2.13281,0 0,-12.04688 q 0,-1.72265 0.72656,-2.57812 0.73828,-0.84375 2.36719,-0.84375 1.64063,0 2.36719,0.84375 0.73828,0.85547 0.73828,2.57812 l 0,12.04688 2.15625,0 z" /><path
       inkscape:connector-curvature="0"
       id="path4541"
       style="font-variant:normal;font-weight:normal;font-stretch:condensed;font-size:medium;font-family:'Roboto Condensed';-inkscape-font-specification:RobotoCondensed-Regular;writing-mode:lr-tb;fill:#1d2241;fill-opacity:1;fill-rule:nonzero;stroke:none"
       d="m 414.9206,502.64644 -3,0 0,-6.90234 -2.15625,0 0,17.0625 4.78125,0 q 2.50781,0 3.79687,-1.3125 1.28906,-1.30078 1.28906,-3.82031 0,-1.58203 -0.70312,-2.76563 -0.69141,-1.17187 -1.96875,-1.76953 l 3.30469,-7.25391 0,-0.14062 -2.3086,0 -3.03515,6.90234 z m -3,1.83985 2.60156,0 q 1.34765,0 2.14453,0.86718 0.80859,0.86719 0.80859,2.32032 0,3.28125 -2.97656,3.28125 l -2.57812,0 0,-6.46875 z" /><path
       inkscape:connector-curvature="0"
       id="path5440"
       style="font-variant:normal;font-weight:bold;font-stretch:condensed;font-size:medium;font-family:'Roboto Condensed';-inkscape-font-specification:RobotoCondensed-Bold;writing-mode:lr-tb;fill:#36a7df;fill-opacity:1;fill-rule:nonzero;stroke:none"
       d="m 432.45327,495.7441 -10.05469,0 0,2.34375 4.61719,5.87109 q 0.8789,1.21875 1.28906,2.13282 0.42188,0.92578 0.42188,1.76953 0,1.13672 -0.39844,1.78125 -0.38672,0.64453 -1.125,0.64453 -0.8086,0 -1.28906,-0.75 -0.46875,-0.75 -0.46875,-2.10938 l -3.32813,0 q 0,1.57032 0.64453,2.8711 0.65625,1.30078 1.82813,2.01562 1.18359,0.72656 2.67187,0.72656 2.28516,0 3.53906,-1.26562 1.26563,-1.25391 1.26563,-3.57422 0,-1.44141 -0.70313,-2.92969 -0.6914,-1.47656 -2.51953,-3.64453 l -2.1914,-3.1289 5.80078,0 0,-2.75391 z" /><path
       inkscape:connector-curvature="0"
       id="path5442"
       style="font-variant:normal;font-weight:bold;font-stretch:condensed;font-size:medium;font-family:'Roboto Condensed';-inkscape-font-specification:RobotoCondensed-Bold;writing-mode:lr-tb;fill:#36a7df;fill-opacity:1;fill-rule:nonzero;stroke:none"
       d="m 444.15664,502.79879 q 0,-3.53907 -1.28906,-5.41407 -1.27734,-1.875 -3.65625,-1.875 -2.35547,0 -3.64453,1.81641 -1.27734,1.82813 -1.32422,5.22656 l 0,3.22266 q 0,3.52734 1.27734,5.39062 1.27735,1.875 3.66797,1.875 2.39063,0 3.66797,-1.85156 1.27735,-1.85156 1.30078,-5.28515 l 0,-3.10547 z m -3.32812,3.45703 q 0,2.01562 -0.39844,3.02344 -0.39844,1.00781 -1.24219,1.00781 -1.58203,0 -1.64062,-3.69141 l 0,-4.2539 q 0,-2.0625 0.39844,-3.07032 0.41015,-1.00781 1.26562,-1.00781 0.80859,0 1.19531,0.9375 0.39844,0.94922 0.42188,2.89453 l 0,4.16016 z" /><path
       inkscape:connector-curvature="0"
       id="path5444"
       style="font-variant:normal;font-weight:bold;font-stretch:condensed;font-size:medium;font-family:'Roboto Condensed';-inkscape-font-specification:RobotoCondensed-Bold;writing-mode:lr-tb;fill:#36a7df;fill-opacity:1;fill-rule:nonzero;stroke:none"
       d="m 453.15216,495.7441 -3.32812,0 0,13.03125 -3.2461,-1.25391 0,2.76563 6.22266,2.54297 0.35156,0 0,-17.08594 z" /><path
       inkscape:connector-curvature="0"
       id="path5446"
       style="font-variant:normal;font-weight:bold;font-stretch:condensed;font-size:medium;font-family:'Roboto Condensed';-inkscape-font-specification:RobotoCondensed-Bold;writing-mode:lr-tb;fill:#36a7df;fill-opacity:1;fill-rule:nonzero;stroke:none"
       d="m 456.96723,504.13472 0.84375,8.67188 8.26171,0 0,-2.83594 -5.54296,0 -0.30469,-3.65625 q 0.96094,0.64453 1.98047,0.64453 2.10937,0 3.24609,-1.5 1.14844,-1.5 1.14844,-4.24218 0,-2.56641 -1.35938,-4.13672 -1.35937,-1.57032 -3.63281,-1.57032 -1.34766,0 -2.49609,0.63282 -1.14844,0.64453 -1.81641,1.78125 -0.65625,1.13672 -0.66797,2.57812 l 3.28125,0 q 0.082,-1.0664 0.52735,-1.65234 0.44531,-0.58594 1.14843,-0.58594 0.82032,0 1.26563,0.78516 0.44531,0.79687 0.44531,2.36718 0,1.47657 -0.53906,2.22657 -0.52735,0.75 -1.48828,0.75 -0.9375,0 -1.45313,-0.64453 l -0.21094,-0.29297 -2.63671,0.67968 z" /><path
       inkscape:connector-curvature="0"
       id="path5419"
       style="font-variant:normal;font-weight:normal;font-stretch:normal;font-size:medium;font-family:Belgrano;-inkscape-font-specification:Belgrano-Regular;writing-mode:lr-tb;fill:#1d2241;fill-opacity:1;fill-rule:nonzero;stroke:none"
       d="m 334.867,481.73 -7.924,0 0,0.616 1.274,0.462 0,7.728 -1.274,0.462 0,0.616 3.962,0 0,-0.616 -1.274,-0.462 0,-7.742 4.046,0 0.462,1.204 0.728,0 0,-2.268 z" /><path
       inkscape:connector-curvature="0"
       id="path5421"
       style="font-variant:normal;font-weight:normal;font-stretch:normal;font-size:medium;font-family:Belgrano;-inkscape-font-specification:Belgrano-Regular;writing-mode:lr-tb;fill:#1d2241;fill-opacity:1;fill-rule:nonzero;stroke:none"
       d="m 343.477,482.682 0,-0.84 q -0.546,-0.266 -1.232,-0.266 -0.686,0 -0.952,0.28 -0.266,0.294 -0.308,0.854 -0.182,-0.21 -0.42,-0.42 -0.238,-0.21 -0.798,-0.462 -0.546,-0.252 -1.148,-0.252 -1.092,0 -1.638,0.602 -0.546,0.616 -0.546,1.666 l 0,3.948 -1.176,0 0,0.84 q 0.546,0.266 1.26,0.266 0.728,0 0.98,-0.35 0.252,-0.336 0.252,-1.036 l 0,-3.178 q 0,-0.826 0.266,-1.232 0.28,-0.406 0.994,-0.406 0.714,0 1.218,0.266 0.504,0.28 0.756,0.574 l 0,4.256 -1.176,0 0,0.84 q 0.546,0.266 1.26,0.266 0.728,0 0.98,-0.35 0.252,-0.336 0.252,-1.036 l 0,-4.83 1.176,0 z" /><path
       inkscape:connector-curvature="0"
       id="path5423"
       style="font-variant:normal;font-weight:normal;font-stretch:normal;font-size:medium;font-family:Belgrano;-inkscape-font-specification:Belgrano-Regular;writing-mode:lr-tb;fill:#1d2241;fill-opacity:1;fill-rule:nonzero;stroke:none"
       d="m 352.4902,481.702 -3.5,0 0,0.616 0.952,0.336 -1.526,1.96 -1.386,-1.96 0.952,-0.336 0,-0.616 -3.5,0 0,0.616 1.12,0.364 2.03,2.506 -2.03,2.534 -1.12,0.364 0,0.616 3.5,0 0,-0.616 -0.952,-0.336 1.428,-1.918 1.484,1.918 -0.952,0.336 0,0.616 3.5,0 0,-0.616 -1.12,-0.364 -2.128,-2.604 2.128,-2.436 1.12,-0.364 0,-0.616 z" /><path
       inkscape:connector-curvature="0"
       id="path5425"
       style="font-variant:normal;font-weight:normal;font-stretch:normal;font-size:medium;font-family:Belgrano;-inkscape-font-specification:Belgrano-Regular;writing-mode:lr-tb;fill:#1d2241;fill-opacity:1;fill-rule:nonzero;stroke:none"
       d="m 356.7322,481.59 q -1.582,0 -2.576,0.896 -0.98,0.91 -0.98,2.646 0,1.736 1.008,2.744 1.008,1.022 2.352,1.022 3.192,0 3.192,-3.78 l -5.194,0 0,-0.07 q 0,-0.994 0.7,-1.68 0.7,-0.686 1.904,-0.686 0.518,0 0.98,0.112 0.462,0.126 0.672,0.252 l 0.196,0.112 0.406,-0.728 q -0.042,-0.028 -0.126,-0.098 -0.07,-0.056 -0.322,-0.196 -0.252,-0.14 -0.546,-0.252 -0.742,-0.294 -1.666,-0.294 z m 1.694,4.424 q -0.07,0.868 -0.574,1.316 -0.49,0.462 -1.288,0.462 -0.784,0 -1.302,-0.448 -0.518,-0.434 -0.672,-1.33 l 3.836,0 z" /><path
       inkscape:connector-curvature="0"
       id="path5427"
       style="font-variant:normal;font-weight:normal;font-stretch:normal;font-size:medium;font-family:Belgrano;-inkscape-font-specification:Belgrano-Regular;writing-mode:lr-tb;fill:#1d2241;fill-opacity:1;fill-rule:nonzero;stroke:none"
       d="m 373.591,481.73 -3.682,0 0,0.602 1.12,0.462 0,3.346 q 0,0.826 -0.28,1.232 -0.266,0.406 -0.98,0.406 -1.12,0 -1.918,-0.798 0.042,-0.168 0.042,-0.35 l 0,-3.836 1.246,-0.462 0,-0.602 -3.682,0 0,0.602 1.12,0.462 0,3.346 q 0,0.826 -0.28,1.232 -0.266,0.406 -0.98,0.406 -1.148,0 -2.058,-0.91 l 0,-4.074 1.19,-0.462 0,-0.602 -3.682,0 0,0.602 1.176,0.462 0,4.998 -1.176,0 0,0.84 q 0.546,0.266 1.246,0.266 0.7,0 0.952,-0.308 0.266,-0.308 0.294,-0.924 0.196,0.252 0.588,0.574 0.826,0.658 1.862,0.658 1.54,0 2.016,-1.232 1.022,1.232 2.436,1.232 1.092,0 1.638,-0.616 0.546,-0.602 0.546,-1.652 l 0,-3.836 1.246,-0.462 0,-0.602 z" /><path
       inkscape:connector-curvature="0"
       id="path5429"
       style="font-variant:normal;font-weight:normal;font-stretch:normal;font-size:medium;font-family:Belgrano;-inkscape-font-specification:Belgrano-Regular;writing-mode:lr-tb;fill:#1d2241;fill-opacity:1;fill-rule:nonzero;stroke:none"
       d="m 374.9098,491.432 -1.176,0 0,0.84 q 0.546,0.266 1.26,0.266 0.728,0 0.98,-0.35 0.252,-0.336 0.252,-1.036 l 0,-3.024 q 0.672,0.77 2.002,0.77 1.106,0 2.044,-0.756 0.476,-0.392 0.756,-1.12 0.294,-0.714 0.294,-1.666 0,-0.952 -0.322,-1.708 -0.322,-0.742 -0.868,-1.176 -1.106,-0.882 -2.576,-0.882 -0.686,0 -1.358,0.196 -0.658,0.21 -0.98,0.42 l -0.308,0.196 0,9.03 z m 2.646,-8.75 q 1.134,0 1.764,0.658 0.644,0.672 0.644,1.89 0,1.218 -0.616,1.89 -0.616,0.686 -1.316,0.686 -1.162,0 -1.806,-0.686 l 0,-4.2 0.168,-0.042 q 0.742,-0.196 1.162,-0.196 z" /><path
       inkscape:connector-curvature="0"
       id="path5431"
       style="font-variant:normal;font-weight:normal;font-stretch:normal;font-size:medium;font-family:Belgrano;-inkscape-font-specification:Belgrano-Regular;writing-mode:lr-tb;fill:#1d2241;fill-opacity:1;fill-rule:nonzero;stroke:none"
       d="m 388.8118,482.584 q -1.022,-1.008 -2.576,-1.008 -1.554,0 -2.576,1.008 -1.022,1.022 -1.022,2.646 0,1.624 1.022,2.646 1.022,1.022 2.576,1.022 1.554,0 2.576,-1.022 1.022,-1.022 1.022,-2.646 0,-1.624 -1.022,-2.646 z m -4.186,0.77 q 0.63,-0.672 1.61,-0.672 0.98,0 1.61,0.672 0.63,0.686 0.63,1.834 0,1.148 -0.644,1.876 -0.63,0.728 -1.596,0.728 -0.966,0 -1.61,-0.728 -0.63,-0.728 -0.63,-1.876 0,-1.148 0.63,-1.834 z" /><path
       inkscape:connector-curvature="0"
       id="path5433"
       style="font-variant:normal;font-weight:normal;font-stretch:normal;font-size:medium;font-family:Belgrano;-inkscape-font-specification:Belgrano-Regular;writing-mode:lr-tb;fill:#1d2241;fill-opacity:1;fill-rule:nonzero;stroke:none"
       d="m 398.7658,482.682 0,-0.84 q -0.546,-0.266 -1.232,-0.266 -0.686,0 -0.952,0.28 -0.266,0.294 -0.308,0.854 -0.182,-0.21 -0.42,-0.42 -0.238,-0.21 -0.798,-0.462 -0.546,-0.252 -1.148,-0.252 -1.092,0 -1.638,0.602 -0.546,0.616 -0.546,1.666 l 0,3.948 -1.176,0 0,0.84 q 0.546,0.266 1.26,0.266 0.728,0 0.98,-0.35 0.252,-0.336 0.252,-1.036 l 0,-3.178 q 0,-0.826 0.266,-1.232 0.28,-0.406 0.994,-0.406 0.714,0 1.218,0.266 0.504,0.28 0.756,0.574 l 0,4.256 -1.176,0 0,0.84 q 0.546,0.266 1.26,0.266 0.728,0 0.98,-0.35 0.252,-0.336 0.252,-1.036 l 0,-4.83 1.176,0 z" /><path
       inkscape:connector-curvature="0"
       id="path5435"
       style="font-variant:normal;font-weight:normal;font-stretch:normal;font-size:medium;font-family:Belgrano;-inkscape-font-specification:Belgrano-Regular;writing-mode:lr-tb;fill:#1d2241;fill-opacity:1;fill-rule:nonzero;stroke:none"
       d="m 403.5706,481.73 -3.682,0 0,0.602 1.176,0.462 0,4.998 -1.176,0 0,0.84 q 0.546,0.266 1.232,0.266 0.686,0 0.952,-0.294 0.266,-0.294 0.294,-0.868 0.14,0.42 0.574,0.756 0.518,0.406 1.372,0.406 0.378,0 0.714,-0.098 0.35,-0.098 0.504,-0.196 l 0.168,-0.098 0,-1.652 -0.84,0 -0.182,0.84 q -0.084,0.084 -0.462,0.084 -0.378,0 -0.728,-0.112 -0.35,-0.098 -0.546,-0.252 -0.392,-0.336 -0.56,-0.686 l 0,-3.934 1.19,-0.462 0,-0.602 z" /><path
       inkscape:connector-curvature="0"
       id="path5437"
       style="font-variant:normal;font-weight:normal;font-stretch:normal;font-size:medium;font-family:Belgrano;-inkscape-font-specification:Belgrano-Regular;writing-mode:lr-tb;fill:#1d2241;fill-opacity:1;fill-rule:nonzero;stroke:none"
       d="m 413.0794,486.252 q 0,-1.176 -0.91,-1.89 -0.896,-0.714 -2.17,-0.714 -0.7,0 -1.33,0.238 l -0.644,-1.162 2.716,0 q 1.498,0 2.17,-0.574 0.672,-0.574 0.672,-1.68 0,-1.106 -0.966,-1.876 -0.966,-0.77 -2.702,-0.77 -1.736,0 -2.632,0.672 -0.896,0.672 -0.896,1.708 0,1.022 1.008,1.47 -0.588,0.196 -0.588,0.84 l 0.056,0.35 q 0.798,1.218 0.966,1.498 -0.91,0.728 -0.91,1.89 0,1.176 0.91,1.904 0.91,0.742 2.17,0.742 0.798,0 1.54,-0.336 l 2.45,0.322 -0.042,-1.218 -1.414,0.126 q 0.546,-0.658 0.546,-1.54 z m -5.46,-5.908 q 0,-0.644 0.588,-1.022 0.602,-0.392 1.68,-0.392 1.078,0 1.708,0.406 0.644,0.406 0.644,1.12 0,1.148 -1.47,1.148 l -2.492,-0.014 q -0.658,-0.364 -0.658,-1.246 z m 2.38,4.354 q 0.868,0 1.358,0.462 0.49,0.462 0.49,1.106 0,0.644 -0.49,1.12 -0.49,0.476 -1.372,0.476 -0.868,0 -1.344,-0.476 -0.476,-0.462 -0.476,-1.12 0,-0.644 0.476,-1.106 0.49,-0.462 1.358,-0.462 z" /></g></svg>