<?xml version="1.0" encoding="UTF-8" standalone="no"?>
<svg
   xmlns:dc="http://purl.org/dc/elements/1.1/"
   xmlns:cc="http://creativecommons.org/ns#"
   xmlns:rdf="http://www.w3.org/1999/02/22-rdf-syntax-ns#"
   xmlns:svg="http://www.w3.org/2000/svg"
   xmlns="http://www.w3.org/2000/svg"
   xmlns:sodipodi="http://sodipodi.sourceforge.net/DTD/sodipodi-0.dtd"
   xmlns:inkscape="http://www.inkscape.org/namespaces/inkscape"
   id="svg6693"
   version="1.1"
   xml:space="preserve"
   width="169.02838"
   height="186.31958"
   viewBox="0 0 169.02838 186.31957"
   inkscape:version="0.92.2 (5c3e80d, 2017-08-06)"
   inkscape:export-xdpi="567.95001"
   inkscape:export-ydpi="567.95001"
   sodipodi:docname="logo_veille.svg"
   inkscape:export-filename="/home/agallou/Projets/afup/identity/assets/veille/logo_veille.png"><sodipodi:namedview
     pagecolor="#ffffff"
     bordercolor="#666666"
     borderopacity="1"
     objecttolerance="10"
     gridtolerance="10"
     guidetolerance="10"
     inkscape:pageopacity="0"
     inkscape:pageshadow="2"
     inkscape:window-width="1853"
     inkscape:window-height="1025"
     id="namedview60"
     showgrid="false"
     inkscape:zoom="3.5826014"
     inkscape:cx="36.120297"
     inkscape:cy="139.65592"
     inkscape:window-x="67"
     inkscape:window-y="27"
     inkscape:window-maximized="1"
     inkscape:current-layer="lion" /><metadata
     id="metadata6699"><rdf:RDF><cc:Work
         rdf:about=""><dc:format>image/svg+xml</dc:format><dc:type
           rdf:resource="http://purl.org/dc/dcmitype/StillImage" /><dc:title /></cc:Work></rdf:RDF></metadata><defs
     id="defs6697"><clipPath
       clipPathUnits="userSpaceOnUse"
       id="clipPath6707"><path
         d="m 0,870.236 623.626,0 L 623.626,0 0,0 0,870.236 Z"
         id="path6709" /></clipPath><clipPath
       clipPathUnits="userSpaceOnUse"
       id="clipPath6719"><path
         d="m 0,870.236 623.626,0 L 623.626,0 0,0 0,870.236 Z"
         id="path6721" /></clipPath><clipPath
       clipPathUnits="userSpaceOnUse"
       id="clipPath6731"><path
         d="m 0,870.236 623.626,0 L 623.626,0 0,0 0,870.236 Z"
         id="path6733" /></clipPath><clipPath
       id="clipPath4150"
       clipPathUnits="userSpaceOnUse"><path
         id="path4152"
         d="m 0,870.236 623.626,0 L 623.626,0 0,0 0,870.236 Z" /></clipPath><clipPath
       id="clipPath4162"
       clipPathUnits="userSpaceOnUse"><path
         id="path4164"
         d="m 0,870.236 623.626,0 L 623.626,0 0,0 0,870.236 Z" /></clipPath><clipPath
       id="clipPath4390"
       clipPathUnits="userSpaceOnUse"><path
         id="path4392"
         d="m 0,870.236 623.626,0 L 623.626,0 0,0 0,870.236 Z" /></clipPath><clipPath
       id="clipPath4398"
       clipPathUnits="userSpaceOnUse"><path
         id="path4400"
         d="m -80.514,14.173 -595.276,0 0,841.89 595.276,0 0,-841.89 z" /></clipPath><clipPath
       id="clipPath6707-4"
       clipPathUnits="userSpaceOnUse"><path
         id="path6709-2"
         d="m 0,870.236 623.626,0 L 623.626,0 0,0 0,870.236 Z" /></clipPath><clipPath
       id="clipPath6719-3"
       clipPathUnits="userSpaceOnUse"><path
         id="path6721-3"
         d="m 0,870.236 623.626,0 L 623.626,0 0,0 0,870.236 Z" /></clipPath><clipPath
       id="clipPath6731-1"
       clipPathUnits="userSpaceOnUse"><path
         id="path6733-5"
         d="m 0,870.236 623.626,0 L 623.626,0 0,0 0,870.236 Z" /></clipPath><clipPath
       clipPathUnits="userSpaceOnUse"
       id="clipPath4150-1"><path
         d="m 0,870.236 623.626,0 L 623.626,0 0,0 0,870.236 Z"
         id="path4152-0" /></clipPath><clipPath
       clipPathUnits="userSpaceOnUse"
       id="clipPath4162-3"><path
         d="m 0,870.236 623.626,0 L 623.626,0 0,0 0,870.236 Z"
         id="path4164-5" /></clipPath><clipPath
       clipPathUnits="userSpaceOnUse"
       id="clipPath4390-2"><path
         d="m 0,870.236 623.626,0 L 623.626,0 0,0 0,870.236 Z"
         id="path4392-2" /></clipPath><clipPath
       clipPathUnits="userSpaceOnUse"
       id="clipPath4398-1"><path
         d="m -80.514,14.173 -595.276,0 0,841.89 595.276,0 0,-841.89 z"
         id="path4400-4" /></clipPath></defs><g
     transform="matrix(1.2945423,0,0,1.2945423,-420.0547,-610.93861)"
     id="lion"><title
       id="title17040">lion</title><g
       id="g5080"
       transform="matrix(1.25,0,0,-1.25,-1.3964844e-4,1275.3973)"><path
         d="m 288.7891,571.9068 0,0 -21.482,-12.403 c 0.994,-1.721 2.433,-3.185 4.214,-4.213 l 17.268,-9.97 0,26.586 z"
         style="fill:#4c9edc;fill-opacity:1;fill-rule:nonzero;stroke:none"
         id="path5082-8" /><path
         d="m 265.7649,585.1998 0,-19.939 c 0,-2.057 0.549,-4.035 1.542,-5.756 l 21.482,12.402 -23.024,13.293 z"
         style="fill:#498cd2;fill-opacity:1;fill-rule:nonzero;stroke:none"
         id="path5084-8" /><path
         d="m 288.7891,571.9068 0,26.586 -23.024,-13.293 0,0 23.024,-13.293 z"
         style="fill:#487dc8;fill-opacity:1;fill-rule:nonzero;stroke:none"
         id="path5086-9" /><path
         d="m 288.7891,545.3209 0,0 17.268,-9.97 c 1.781,-1.028 3.769,-1.542 5.756,-1.542 l 0,24.805 -23.024,-13.293 z"
         style="fill:#5295d6;fill-opacity:1;fill-rule:nonzero;stroke:none"
         id="path5088-6" /><path
         d="m 267.3072,610.8954 c -0.994,-1.721 -1.542,-3.7 -1.542,-5.756 l 0,-19.94 23.024,13.293 -21.482,12.403 z"
         style="fill:#476bbc;fill-opacity:1;fill-rule:nonzero;stroke:none"
         id="path5090-0" /><path
         d="m 334.8373,545.3209 0,26.586 -23.024,-13.293 23.024,-13.293 z"
         style="fill:#7f9ad6;fill-opacity:1;fill-rule:nonzero;stroke:none"
         id="path5092-2" /><path
         d="m 356.3192,559.5043 c 0.994,1.721 1.542,3.7 1.542,5.756 l 0,19.939 -23.024,-13.293 21.482,-12.402 z"
         style="fill:#727ebd;fill-opacity:1;fill-rule:nonzero;stroke:none"
         id="path5094-5" /><path
         d="m 334.8373,571.9068 0,-26.586 17.268,9.97 c 1.781,1.028 3.22,2.492 4.214,4.214 l -21.482,12.402 z"
         style="fill:#8f9fd8;fill-opacity:1;fill-rule:nonzero;stroke:none"
         id="path5096-0" /><path
         d="m 334.8373,598.4928 0,0 0,-26.586 23.024,13.293 0,0 -23.024,13.293 z"
         style="fill:#425da2;fill-opacity:1;fill-rule:nonzero;stroke:none"
         id="path5098-9" /><path
         d="m 311.8132,558.6138 0,-24.805 c 1.987,0 3.975,0.514 5.756,1.542 l 17.268,9.97 -23.024,13.293 z"
         style="fill:#6495d5;fill-opacity:1;fill-rule:nonzero;stroke:none"
         id="path5100-5" /><path
         d="m 311.8132,611.7858 -23.024,13.293 0,-26.586 23.024,13.293 z"
         style="fill:#3a64ad;fill-opacity:1;fill-rule:nonzero;stroke:none"
         id="path5102-1" /><path
         d="m 311.8132,611.7858 23.024,-13.293 0,26.586 -23.024,-13.293 z"
         style="fill:#3a61a3;fill-opacity:1;fill-rule:nonzero;stroke:none"
         id="path5104-7" /><path
         d="m 267.3072,610.8954 21.482,-12.403 0,26.586 -17.268,-9.969 c -1.781,-1.029 -3.22,-2.493 -4.214,-4.214"
         style="fill:#32549d;fill-opacity:1;fill-rule:nonzero;stroke:none"
         id="path5106-7" /><path
         d="m 334.8373,598.4928 23.024,-13.293 0,19.939 c 0,2.057 -0.548,4.035 -1.542,5.757 l -21.482,-12.403 z"
         style="fill:#2f5296;fill-opacity:1;fill-rule:nonzero;stroke:none"
         id="path5108-7" /><path
         d="m 334.8373,598.4928 21.482,12.403 c -0.994,1.721 -2.433,3.185 -4.214,4.213 l -17.268,9.97 0,-26.586 z"
         style="fill:#325295;fill-opacity:1;fill-rule:nonzero;stroke:none"
         id="path5110-4" /><path
         d="m 334.8373,625.0788 -17.269,9.97 c -1.781,1.028 -3.768,1.542 -5.755,1.542 l 0,-24.805 23.024,13.293 z"
         style="fill:#4379c6;fill-opacity:1;fill-rule:nonzero;stroke:none"
         id="path5112-0" /><path
         d="m 311.8132,611.7858 0,24.805 c -1.987,0 -3.975,-0.514 -5.755,-1.542 l -17.269,-9.97 23.024,-13.293 z"
         style="fill:#3f73bd;fill-opacity:1;fill-rule:nonzero;stroke:none"
         id="path5114-8" /><path
         d="m 288.7891,545.3209 23.024,13.293 -23.024,13.293 0,-26.586 z"
         style="fill:#50a0dd;fill-opacity:1;fill-rule:nonzero;stroke:none"
         id="path5116-4" /><path
         id="path5118-4"
         style="fill:#425da2;fill-opacity:1;fill-rule:nonzero;stroke:none"
         d="m 288.7891,598.4929 0,0 0,-26.586 23.024,13.293 0,0 -23.024,13.293 z" /><path
         id="path5120-6"
         style="fill:#487dc8;fill-opacity:1;fill-rule:nonzero;stroke:none"
         d="m 334.8371,571.9069 0,26.586 -23.024,-13.293 0,0 23.024,-13.293 z" /><path
         id="path5122-9"
         transform="matrix(0.8,0,0,-0.8,1.1171875e-4,1020.3178)"
         d="m 389.76562,543.89648 0,0.002 -28.77929,16.61523 28.77929,16.61719 28.78126,-16.61719 -28.78126,-16.61719 z"
         style="fill:#3f73bd;fill-opacity:1;fill-rule:nonzero;stroke:none" /><path
         id="path5124-5"
         style="fill:#2f5296;fill-opacity:1;fill-rule:nonzero;stroke:none"
         d="m 311.8133,585.1998 0,26.586 -23.024,-13.293 23.024,-13.293 z" /><path
         id="path5126-1"
         style="fill:#498cd2;fill-opacity:1;fill-rule:nonzero;stroke:none"
         d="m 311.8132,585.1998 23.024,13.293 -23.024,13.293 0,-26.586 z" /></g><path
       style="fill:#ffffff;stroke-width:0.35248142"
       d="m 372.78146,587.62404 c -0.29079,-0.0979 -0.88955,-0.35389 -1.33057,-0.56891 -0.84112,-0.4101 -11.88748,-14.45794 -11.88748,-15.11749 0,-0.40774 11.79182,-4.88392 12.86595,-4.88392 0.41762,0 2.01575,1.84918 4.57569,5.29449 3.26769,4.39784 4.24305,5.46753 5.75923,6.3162 2.94232,1.64694 3.41148,2.08087 3.41148,3.15535 0,0.5425 -0.27758,1.22988 -0.61685,1.52751 -0.66227,0.58101 -9.49597,3.93706 -11.21282,4.25991 -0.56975,0.10715 -1.27383,0.11474 -1.56463,0.0168 z M 348.284,565.52189 c -2.54709,-0.84351 -4.49846,-2.04091 -6.24022,-3.8291 -2.09576,-2.15164 -3.30115,-4.45454 -4.03689,-7.71253 -0.64993,-2.87797 -0.30788,-5.53504 1.11909,-8.6932 0.90661,-2.00649 3.80712,-5.30327 5.6892,-6.46646 1.32987,-0.82191 15.08225,-5.95831 15.94738,-5.95622 0.85522,0.002 10.46766,26.73754 9.82959,27.33946 -0.24986,0.23572 -3.62663,1.57597 -7.50393,2.97835 -6.42458,2.32371 -7.3309,2.56117 -10.22196,2.6782 -2.02306,0.0819 -3.68312,-0.0407 -4.58226,-0.3385 z m 62.78495,-6.6145 c -9.74116,-1.72752 -22.99513,-2.335 -30.32242,-1.38978 -1.72596,0.22264 -3.25933,0.27837 -3.40751,0.12384 -0.33157,-0.3458 -9.84478,-26.57086 -9.84478,-27.1391 0,-0.22447 0.94835,-0.98423 2.10745,-1.68835 5.66838,-3.44336 16.83662,-13.61369 22.84187,-20.80092 1.45785,-1.74478 2.76728,-3.21919 2.90985,-3.27647 0.14257,-0.0573 0.41854,0.33926 0.61326,0.8812 0.19472,0.54194 4.57471,12.62992 9.7333,26.86218 5.1586,14.23226 9.37927,26.07949 9.37927,26.32718 0,0.7369 -0.36828,0.74611 -4.01029,0.10022 z m 24.50606,-14.31351 c -2.26628,-1.05533 -2.56631,-1.30332 -2.38919,-1.97474 0.11142,-0.42231 0.59537,-2.19539 1.07545,-3.94018 0.68846,-2.50211 0.87544,-4.02872 0.88502,-7.22586 0.0181,-6.02212 -1.09571,-10.31774 -3.90415,-15.05784 -1.55642,-2.62692 -6.65031,-7.76489 -9.2014,-9.28101 -1.11472,-0.66249 -2.02676,-1.38489 -2.02676,-1.60535 0,-0.80209 2.23052,-5.4261 2.60797,-5.40647 0.59819,0.0311 4.91238,2.79212 7.1284,4.56208 4.47627,3.57524 8.92902,10.69589 10.91065,17.44783 1.24954,4.25753 1.54601,10.61631 0.70353,15.0898 -0.62415,3.31424 -2.12532,7.76704 -2.79304,8.2848 -0.25547,0.1981 -1.36044,-0.13122 -2.99648,-0.89306 z m -10.89065,-5.23116 c -1.40552,-0.64393 -2.55378,-1.21981 -2.55168,-1.27974 0.002,-0.0599 0.24002,-0.88762 0.52872,-1.83929 0.30448,-1.00368 0.52491,-3.11765 0.52491,-5.03398 0,-6.12837 -2.19531,-10.22029 -7.55179,-14.07604 l -1.03088,-0.74206 1.1827,-2.69122 c 0.65049,-1.48017 1.34125,-2.69122 1.53503,-2.69122 0.82534,0 4.98786,3.08484 6.61392,4.90155 0.97069,1.08451 2.47185,3.39939 3.3359,5.14417 1.96287,3.96359 2.74228,7.47925 2.50062,11.27941 -0.18683,2.93788 -1.33342,7.23746 -2.09248,7.84653 -0.30782,0.24701 -1.20506,0.002 -2.99497,-0.81811 z"
       id="path1836"
       inkscape:connector-curvature="0" /></g></svg>